<mxfile host="Electron" modified="2024-05-09T07:14:06.002Z" agent="Mozilla/5.0 (Windows NT 10.0; Win64; x64) AppleWebKit/537.36 (KHTML, like Gecko) draw.io/24.2.5 Chrome/120.0.6099.109 Electron/28.1.0 Safari/537.36" etag="ZptBZG0lGiIPgf_1fZDH" version="24.2.5" type="device">
  <diagram name="diagram" id="nvvTJAzrZNnOXTXzCFPR">
    <mxGraphModel dx="1709" dy="999" grid="1" gridSize="10" guides="1" tooltips="1" connect="1" arrows="1" fold="1" page="1" pageScale="1" pageWidth="850" pageHeight="1100" math="0" shadow="0">
      <root>
        <mxCell id="TfanE9FAZFEMDZ-ole27-0" />
        <mxCell id="TfanE9FAZFEMDZ-ole27-1" parent="TfanE9FAZFEMDZ-ole27-0" />
        <mxCell id="TfanE9FAZFEMDZ-ole27-2" value="" style="rounded=0;whiteSpace=wrap;html=1;glass=0;shadow=1;textShadow=1;" parent="TfanE9FAZFEMDZ-ole27-1" vertex="1">
          <mxGeometry x="590" y="280" width="1140" height="990" as="geometry" />
        </mxCell>
        <mxCell id="TfanE9FAZFEMDZ-ole27-3" value="" style="rounded=1;whiteSpace=wrap;html=1;arcSize=3;fillColor=#f5f5f5;fontColor=#333333;strokeColor=#666666;fontSize=13;" parent="TfanE9FAZFEMDZ-ole27-1" vertex="1">
          <mxGeometry x="630" y="370" width="570" height="850" as="geometry" />
        </mxCell>
        <mxCell id="TfanE9FAZFEMDZ-ole27-23" value="&lt;div&gt;Azure ADLS&lt;/div&gt;Umbrella&amp;nbsp;&lt;span style=&quot;background-color: initial;&quot;&gt;Chart&lt;/span&gt;" style="whiteSpace=wrap;html=1;fontSize=20;fontFamily=Helvetica;fillColor=#fff2cc;strokeColor=#d6b656;rounded=0;hachureGap=4;glass=0;" parent="TfanE9FAZFEMDZ-ole27-1" vertex="1">
          <mxGeometry x="270" y="700.62" width="200" height="118.75" as="geometry" />
        </mxCell>
        <mxCell id="TfanE9FAZFEMDZ-ole27-31" value="" style="shape=image;verticalLabelPosition=bottom;labelBackgroundColor=default;verticalAlign=top;aspect=fixed;imageAspect=0;image=data:image/png,iVBORw0KGgoAAAANSUhEUgAAAaIAAAB4CAMAAACHBwagAAAAdVBMVEX///8AidYAh9UAftMAhdUAgdQAg9QAgNNCm9yhyet0suMqlNlTo949l9ra6vfV5/bw9/y/2vFgqODr9Pv1+v3N4vTk8Pm92fGMvuex0u7G3vMdj9hrreLm8fp8tuVZpd+mzOyLveeWw+kAetJ5teRHntwAdNBkg6ipAAAOR0lEQVR4nO1d6ZqquhJtGZ21FafWttVuz/s/4mVIhSSkkgqgnHNh/djfblCIKVJZWVUVPj5egdNLrjqgNSSjfddNGGDEMtp03YQBRhxif9l1GwaYcPS9Z9dtGGDCJhzFu64bMQBHMotG3qLrVgzAsfS80Sj87LoZA1Ac4tRC3pn/ve6wLQN0OPqjFBFftn5dumzNgCpSopDC8/iBy+9Avv9NyIhCPogm/FDsjTts0AAFOVHIBlHED52iUXzosEkDJBz8wkKj4MGPPT3R6w3oFgVRyBAncGybHYvuXTZrAEdBFPJBdOUHH0Fusm2H7RrAsGZEQbHIOXd93k+HLRtQYBl43EJBuRJaxcxog2DXNThRyOCXobxrUBwSxIYBneDulwaSvFoElhMWSgM6wE8oWGgUr/iJz/JElBguMOC1EIlCNogEMWEjTFDT7lrYd4CiwAfRFz+VxMLxIU7eFfLQgziIZuW5mzi8BqmuIxz9kYxQEOTGkvXiIa2uC2xCxUIiu97H8qlBqns/Epko5MTtVp5+KGcHqe7tUImCOlLO6ulBqnszVKKQD5QyCvGxi9Wzg1T3XlSIQoZQ+MA0qJwepLp3okIUKrNNZZ4apLp3QkMU8lEiqDwH3SdENjHgldAQhQzBn/CZH+1HBqnuPdARhQz+d/mZpEIWCisOUt07oCUKKTyxoOim9YRSMGnAq6AlChliUSid6QfaINW9HsmsyqVZ58+Fj+31fi4z5JBV91ogRCHve3HRc0T8XGrJ0csaN38W6PUKeeejFpILinBLSgpE240r4K/sH/6/xQjveamgaIfNV/lwe1E5ywUa12faqGrX4iCShAON+CN89DWl5ImQKPGSG/wXsEY5gFhQlME0iFLi/RJHJND8qLfRww0+NmQSoBV/hA/PsDs0waJ0wr1l9ivTIJLy5Ob4lJUjvLXfOonm93WBjK1GR1JB0YfZIWo+3g7uxRAv2hj0M8B7MkwwgUSkJ2Y/lyK6YnepjSKp3GN5/kHr1/8vIDB4r1gSsA3DDdC6J2KJrwF7PHq5p8DVMDQCaVAsbX4ue8zb3n6GTX8Rc7KSGtUTfCPydjEmpMXo3bQoAsTtPuZrHyzDZiO/f9s9PA3OK5C3VjCIP8IwajdGPikei5RYsnqZ4FUy078WXybnJU8sX+Z1K6Bdqe7Mxw5LPOpfmkQlJ04cELKyfKEMohRhi66ILdnyGY55ur5lGxlpdCzrObRBVHGPjcA0wVz4gQVSvza2SUzdrpCzk3VRBGhRqmPty9P4gFCGvcpkuZg4muJRTLxCsW1rW9axx4INHLYs61VC2NJEuBVNdG36rIKwLUGaVcmERfUZ88qvEWvfgOR7udw7uoCFaWCEci7ChLIoAuu2VM7CFFS4HEiE8b+xLjA5Xefz+eV+0togOUxnYZwjmD/oCoxJnKuQW4L4U6IltfMeyVdjSkOACoH3xZiAGe/FKTuAksTv6TVHJdw7Z99kvf298aMgi90Hv5osm11+lj+/QTyjuhnjUlSJnlHEHwF+K+UsrIExPHUsXIXr6ZfAI8DnJvqJ8gNCGa+CpR/k+FVPzNiligH9KFM/ooqJVuNKBqkXntFbisCTeUZVX0USf4SvtyGlsbWyMPdEWDcwGOP2vG2lhVnyc4SbiD2ZvnqCOZUwN9FFeH4rbZtqM3c8n7B22BrHhbrlBUn8EYA/mHSwrQOEpjAToFotyUR+2bR2THQRn3XFRPsz1qTgbF3i69Pn+Z3kDxPFnxIt6DScHZQ/BeLDYpK5CIqJxJCW3UTsd5tM9JD6RjbRKhR6OXeNwp8ji42qtXbSjY7ypw8OlJtdofHOM8CxRZ/J9Cq1eYA/u4kkyt6GiVasa1IakFECyUSrchYKwvj8nD/PPt+bx/oYm8Q5NZSX4ug6jJqXs4A5xN/8YJ4OYfV/UTq1RwVCCdwXSXW5YCI0gEIwUd5ML4oXl+v0GYVi3vSeWyiI7sAaP3/Ko8b0WqzAgX23Smt/yPoPXKNhXiI4NcnlwgQauk5136z58iYRzU20z1cu0Rku+zUub5CAW/NiadQvefq8ccuKyDiIdJzZaWGUX6TZCpM5Lan8jOsNzlmVrPWKxLtpbqJsEMVi/KV0Hj+wI9xI7QkgGKY1vtlpa8XkxJXUNUx6g8de1mRBzPXd3Ogfm9eU0oDGJoqyCRNhrwc24r1zta1gIzy4tjfP/vrn33H12rCcBRRUdUoF9+fERj6BCSo/rLGJssQkzFux+Jbn6YjbGU5idzar1ti605XWNZLqWBMrj9kF+sbhWmvm1kP1Yo1NlJoB87kw2+uf951lUv00j4cYi/c8HMcRxo0J2LLHobICgtoMtJEawARWWfE2NxFeD+KZ1wfQJoRUGUpVRsY55OJI6+rvPMPUKU1bIC+VThjhWkFlTmjBRJime2DqFVYY9wldqT1rKFXJ+9VAaMdulKF+OQszhKYUAqTFUPMtLWBt6Vd/l9VEK6uJMMF4jv4ABpOJ1uZVqNnLmwdgBX7NXBAQnCpL6DINn1zIAh5H87g3NxE2bycs/w+fjmHzUt05YzTc9tO/Qycb1ZXqNoblDwtEUjn9nAkSulhtcxNhvXVSQl1VQGaP7q5mXmarKt650bp6iQaJie8AVYpJwcsJjEedQwIToasDq4mw9RkjniHuRXa4iSwqgbVPb060rl4pA7OC3k2A/UihXVgB6hcvjU2EZtJA0p+hZTFmImM0nNSlpjz9KmqVs4BcozcCeEHKsgu0WH0ArbGJMD7HtESTM16jJjKVqoxoKdNzpwhsjXKWpTmPBLhEaFcvLohGwdDYRJjP2UHA+G+K4YLRBVuAm5RHaA5kKKhRznI1zPAZ4J1k1uj7CRF+AJfGJkIWKCAlegEK6EP1q1vLZE9L3VlbhqIM93IWptcEN+T8kT1ntpXxFoYbJui9zEQPuqNRv2qrJyZW71hYoQxn4s3r0pVIMj8I/7V5ZZjT0XHc2ESYxOaQjaN801iqMnJQVU4uNnItZylFXiTLip82G/+KCj+A5iZCSHV9E9kmESxtowqnQLlbOYs5NUmCsZDlC4Qf/EMvM9G1rolsFd8ukpphO40K3MpZHPy4qZAliXDhB/DyUeTFVmgbjcIpWdqYEK7AqZzFhS9qNDwAc5fGJP2XmQjE9b9ku92uAYkO0vdsWWZu9DhxUFRdihnM2WMKcC0E5Hwj6xMrzLSoayJWpIBnn+thLFXJf42bLI1v8FiFQzkLLOkMS4pyVYHafmUUfgDNTYS4B7kwigxbrMe5bueLTuscYuSQlLG5TXDcgPVhvhkCf+bZ9WUmAnXBLcPmYHvoCXqKggl9HJHLWYg6NsTHEVfyAxsHmW/GiBfuLuua6FuXBGiFbeqoE9qZ0hVVajnLjDDLiz9H2wk3i/ADuNv2coBVtKuJeIqZCwGzRMNrbsf3JBNkYjkLTHCBLQkL4uO6ZsNFKhk/yEXwKQPWN84mYrOKy0Ye9n3K6mVU0RkyjYzAgsKqRMHGODp3D0lqVoYKcSl0yMLPczbR0XblKja2rqxZybC1rbXKZ4DkSANq73L2E1cUEahCwoUfwBf4I+STfDNFZxO555LZdc+6m/3RFVXKQwDv9CV4XdD7K4lqwIs0GT8qeKoKwpT4StLZRKDW09ea1pz5+lmJZEXVI5SzQF2aIaDMwaypemhIcCKFeyGso+fmpVrobiKYxajlipZo+MiopNhAVlTtOvqaL4oI94VHXAkILIiUMAcsr/R8syxkdDfRnleGUdphjYa7KxUSyIqqtZxlou91PUApkneTulOEn8oNtZzuVFIsczmyFhCaCwxUdskJn10ab1aET1VUrYttoGK0tCGgW2JW9Y4k/HDAElMXGhY3Xq6YaGE1EdfbkNSWFI9fGBnfVhGg4e5U5NIjSzkLdApxTEPUQuAhSUASfkpwVaxCvXZZUidPC1a/ZzdRua6PxtoB8HmO+A+1RcObbzpLVVQtggzMLkSmCrO5QOchAkFWSniRiBffpBPHbLuE4IKtiwgmKvUcT7OGPp3TRwBMZIuGt7GRBVVRNcfIgV9RO5hrqWBSSD31Fs/nc47gKcmFJdcNF3yMJ7dRlDcE+EstEwmhhSC6Co/d/rSJc1IOJrILAC61Ogioiqrp7SzoSgcDKGhAFcs+Me0vI9dpC/3oRfHzej/er2NWee8vG5lIqpkLwvD5d0wvfhmHMaz3mYns+5+38iYGoqJqotNcLyC7XbgnK2ShBRmVJkh1bV4QRDwY5d8+UBONKSZK14yedPEou7hwqKi1Tuxd18ZmMGRFFR+xMKE56FpQVV2IEUTyrz4lU2Rd5z8+mproY2fUxzw/b7d9z5W2tuCjKar43WBF46AWAgXMs98/ifNhZSDfdRspFd3X1EQf6yfyItbsDpuc6S19k1sutvpqaQ9GoqKKxsjBA7i8TOws+Ebq5q1VX/vpqU33wnPe+Y1NlDZrpOsXL/Iv7Lv5pngLBcoWevQeMWNJ6iNsXXr4xy/g0p7Hb/Gd35Qw3Nj/bfjV8NeJF5cKjBfEsBvJmjXqH/ULC3acErI7LVL64Yk9EPmzyft37V+e7j+0p/gFb2dpAbt7yrTiMEz/OV/b3gr8e7LJMurCfO/NaHw9tbKjosP9Px+bsx9G5Fz8f+17otbL1WpFTsh1RLZ57XK53753C+v17jZdRHEUuO090/rbWQZokKR+be7FDkNHRDssfwCGfebXcuPUsU4xjHr3ao53Yf01yf1aVN84DC97kXJ/kaxO92dQ169p0CDIO0DF/gB8rSXr5Gjz7Sw9xjb1a7O4Db+mQcMtH3uP1K9dn54zmXZBe29n6R2Wh+NPQ75GQ2tvZ+kRUr92mYUv8mtVtPV2ln4gm3TG7iJBQ/T0XdQV/A9n77O84dIawQAAAABJRU5ErkJggg==;" parent="TfanE9FAZFEMDZ-ole27-1" vertex="1">
          <mxGeometry x="1080" y="300" width="139.33" height="40" as="geometry" />
        </mxCell>
        <mxCell id="TfanE9FAZFEMDZ-ole27-32" value="Resource group" style="image;aspect=fixed;html=1;points=[];align=left;fontSize=12;image=img/lib/azure2/general/Resource_Groups.svg;labelPosition=right;verticalLabelPosition=middle;verticalAlign=middle;fontStyle=1;labelBackgroundColor=none;" parent="TfanE9FAZFEMDZ-ole27-1" vertex="1">
          <mxGeometry x="640" y="380.25" width="42.5" height="40" as="geometry" />
        </mxCell>
        <mxCell id="38TpKfUnlk5KF1mlkOwW-6" value="" style="group;verticalAlign=middle;" parent="TfanE9FAZFEMDZ-ole27-1" vertex="1" connectable="0">
          <mxGeometry x="640" y="518" width="500" height="602" as="geometry" />
        </mxCell>
        <mxCell id="38TpKfUnlk5KF1mlkOwW-1" value="" style="rounded=1;whiteSpace=wrap;html=1;arcSize=3;fillColor=#f5f5f5;fontColor=#333333;strokeColor=#666666;fontSize=13;" parent="38TpKfUnlk5KF1mlkOwW-6" vertex="1">
          <mxGeometry x="21" y="-70" width="500" height="670" as="geometry" />
        </mxCell>
        <mxCell id="38TpKfUnlk5KF1mlkOwW-17" value="" style="fillColor=default;strokeColor=#5A6C86;dashed=1;verticalAlign=top;fontStyle=0;fontColor=#5A6C86;whiteSpace=wrap;html=1;" parent="38TpKfUnlk5KF1mlkOwW-6" vertex="1">
          <mxGeometry x="31" y="-20" width="480" height="590" as="geometry" />
        </mxCell>
        <mxCell id="38TpKfUnlk5KF1mlkOwW-9" value="" style="group;verticalAlign=middle;" parent="38TpKfUnlk5KF1mlkOwW-6" vertex="1" connectable="0">
          <mxGeometry x="121" y="293.7030303030303" width="180" height="143.9918918918919" as="geometry" />
        </mxCell>
        <mxCell id="38TpKfUnlk5KF1mlkOwW-16" value="" style="group" parent="38TpKfUnlk5KF1mlkOwW-9" vertex="1" connectable="0">
          <mxGeometry width="180" height="105.75675675675676" as="geometry" />
        </mxCell>
        <mxCell id="38TpKfUnlk5KF1mlkOwW-21" value="" style="group" parent="38TpKfUnlk5KF1mlkOwW-16" vertex="1" connectable="0">
          <mxGeometry width="180" height="105.75675675675676" as="geometry" />
        </mxCell>
        <mxCell id="38TpKfUnlk5KF1mlkOwW-10" value="ADLS Gen2&lt;div&gt;Module&lt;/div&gt;" style="rounded=0;whiteSpace=wrap;html=1;fontStyle=1;strokeWidth=2;fontSize=13;verticalAlign=middle;fillColor=#dae8fc;strokeColor=#6c8ebf;align=center;labelPosition=center;verticalLabelPosition=middle;" parent="38TpKfUnlk5KF1mlkOwW-21" vertex="1">
          <mxGeometry width="180" height="105.75675675675676" as="geometry" />
        </mxCell>
        <mxCell id="38TpKfUnlk5KF1mlkOwW-13" value="" style="aspect=fixed;sketch=0;html=1;dashed=0;whitespace=wrap;fillColor=#2875E2;strokeColor=#ffffff;points=[[0.005,0.63,0],[0.1,0.2,0],[0.9,0.2,0],[0.5,0,0],[0.995,0.63,0],[0.72,0.99,0],[0.5,1,0],[0.28,0.99,0]];shape=mxgraph.kubernetes.icon2;prIcon=cm" parent="38TpKfUnlk5KF1mlkOwW-21" vertex="1">
          <mxGeometry x="5" y="4.8810810810810805" width="32.198864864864866" height="30.913513513513514" as="geometry" />
        </mxCell>
        <mxCell id="38TpKfUnlk5KF1mlkOwW-14" value="" style="shape=image;verticalLabelPosition=bottom;labelBackgroundColor=default;verticalAlign=top;aspect=fixed;imageAspect=0;image=data:image/png,iVBORw0KGgoAAAANSUhEUgAAA7UAAALICAYAAACgkteeAAAL5XpUWHRSYXcgcHJvZmlsZSB0eXBlIGV4aWYAAHjarZhrlts6DoT/cxWzBL5AkMvh85zZwSx/PtDq7qTzzr12x1JkiiJRhULBbv/vv8f9h1eSkl0WraWV4nnlllvsnFT/er2Owef7eV9DfHqufnXdzerjPYtcsiGvYb7s1zF0rsvHDZqf6+Pr607n6yTWZ6Lni7cJkz3ZHvWMq89EKb6uh+f/rj339fzFdp5/Zfq75bCeVX76f1aCsYT5UnRxp5A8n9meklhBaqlzzHyGVOPbFUbd6+n7sXPvp5+C9+zkm9j5/oxIX4fCvRZr6/4Uo+d6kO/H7kboyxWFt9P49RerfCzqc+zOWfWc/dpdz4VIFfdsyj9T3DMGDkL5ikbhrfwTzvW+G+/KFieILR43eE8XWojE8YQcVujhhH2PM0yWmOOOyjHGGdO9VpPGFucFJds7nKiAsVyqYDVBLXE5vq8l3Oe2+7wZKk9egZExMFngjm/e7nsX/+b9PtE5FtsQLJjzFSvWFY3TLMOQs09GAUg4T0zlxve+3TusHy8DNoGg3DBXNtj9eE0xJHxwK12cE+PEZ+dfqRF0PRMQIp4tLCYkEPAlJAkleI1RQyCOFXw6K48pxwECQSSu4A7YpFQAh2zg2dyj4Y6NEl+XkRaAkFSSAg3pAlg5C/zRXOFQlyTZiUgRlSpNekklFymlaDGN6po0q2hR1apNe001V6mlaq211d5iS0iYtNLUtdpa652Hdqbu3N0Z0fuII408ZJSho442+oQ+M0+ZZeqss82+4kqL9F9lqVt1tdV32FBp5y27bN11t90PXDvp5COnHD31tNPfUXtQ/Rq18Am5n6MWHtQMsXzH6QdqXFZ9myKYnIhhBmIxBxBXQwBCR8PM15BzNOQMM98iSSER1IIYOCsYYiCYd4hywjt2H8j9FDcn+Y9wiz9Czhl0/wZyzqB7kPsWt++gtvrV4XQBsiy0mPp0EDYG7Npj7VaT/vro/ukEP5hoLF/k+LMs0F1ljBS1SdIWR21GrIOS6ipjnj6W9JnORiXLcgdtkdn0QLujKUoX3/tG0gufcxxq/TwqmUcczYMBOZ8Uwzwhdo2JBMiMc/3IMqKiHc1bXso8pTfIBFp9rShtx7Xl7G1YpFO1HNYR+0qBhSbZp4TFiqbFevrtifgQXWxolbbYjSoJkaNuQzCMXUvvS2uCST0gTmyX+hyy8Jdd9XJP/T88up8MUFZY9cya9hpnj4awxyAbHdt9FQQ8+jOKRblvlwcj2ZEvBD+sfLKcVsm6C+TpQsLN5fFjMK/2UlfJdR7Sii9AafdBVKZ3ZEheZUJZYpeY9Jy6yHa7k3zFWCnoLAkK4DXs3Kz+ZbDIYtUn1zFJ++BqjK3J2qdOVjHJDeorT87S2B8pFb2mxb7AbYYBh5ifwEtibJsohaR94na+hZWIQBBqL7OPrbmM1NUf7bNbVEJrFxlt+8HIf3t0HxfYftt1oBiIWBsF/H2l0ozFas/yqmeLtCVqRKw97wwb/KgXHfe92X90fAPLtPbC1feDVctu/QBkcgqmT5W0gm5czUWR6OCF3mZG0utNNq/HkW+iB1j68cvmG/CafBhspGa4fN7HspIfD3Y2ekxzYOgVyAGONyb5xT0zjSK91XiGztbOyLWmflZWRQcHq/X7yWQ0ex2/FY1IIDx1ISUpmiWbXcTcfKVU6MAejdmNHZBB9p5jMCN2ZJNoourEFp/L2gCWR6E4hMhqPX/sKBye0Ter0HwQg7QLnNkllpzYRUGJkxzSuLvppcyUjlrKI+Dneh/I8IptraZ6Lfqhre+CHMwU2OHWwfVNWuzjBwLmFii1oRfUBjO0UlLhIqIS0A0cwqGAMJx8W8idRzwZL7ohANuGz2se3x0KhxLaSH9kmIrlNkKaxHlQFzLpLGWQcAhjDXgiyWZbKY7kPPONVpV0aI66BDAmzalMC8fZiSvnkCPI4EnaD4l5USUoaPKCDrOD9OZq0kUgU+zYmstw2an139cyLasnYIBSm1itst3U5nfv+AJ4wmkijiudBuCKlaaW4/0C5PADyLouUg77uJS0k4WiDOoO2oQbCdOkBFbOk+fSaAwrFFFdKxQr58cIliDYyCsChRpJd0iqLaW20xwIjYMeYWN+9thIBxZAwszS41mrYR4O/RXBf8kIPd2X6fVVyrhfJtjPc/GVXeSWe0+uAAfenou5kikjs3qPddmR6oafWuQMdZP14nlorVleSB25QsHd3HiuvSmEbOYarltceQ6PJ64dTYPK+dgQ+hUGI0A4nYYdJEUn2wet6IjgISlZHSU5mR7dIm5FHcJxOVJlb8GZNypYwX7anHn7XuFpC5ivXemOqMCYw8JzsAaCs7IsQrsHliwC4ZHE3wKKW58y/RYbLzJCfVEwT8/u3WVy/00mY9YW+9E5V/zEZPdXZZqyxLMh9olTKVns0JlQkPspHIqOjqsCpDHkRLbKwspSWNbIWG1vSUWH2ZTgsvne6DsHRpgGs7mQRky9zVq4JSKPMmOBO70qLgs9wcicq1JUALi8aVtJpfvANQTyDNRhYo+JTDwCQAggBSawnET8JyRKMBFW1E09k1WTGfiKeAZbEYunPaXQpFNGjQ5jRA7uxebwXAP+NcSNKsDK8ylMAVnnegTTPO09qz4lnfk6koAPNFfbN8gUVGzG9ip+A6z2eMXr6pqme89tQuyur2+5N7jnjjseG37JN5B0xhwjGPEfr9wpaP5baSSTXrDA93tHdbhQKi7i07Ms+tORWx3BfplJmML++o7OYJgWmzik197GVHzfs02O7u3kD49rsVKPPk4sS8SfoUcKC6Kfg21gbGJWYrqHx0ZHIPkOqlAskovgAdOwLSxTzURQf6ldlKgd0brRpkkJe5wLa0tqWzCOoUirx57poSuluvbZnqKuVtTdziaYt/IfMVe/O77rGBUpsoquaRWzKWq1im9RtWiycMxhU1bNWhJdF8AO9k7z+PTtw+IYUW205fYRlfWxE+wledUmtm7DeRMKpWJ0Gq9O/ejk2ujv3PoZT76kyUOrZ/CLie4XVAQUwv1OLPsd7p1akvsVQQo0W0PQsTIoN8WD+0ag2tG4Trxybgv9o5aQ1oIJRzfZrSDeGNaZ6ursPKB61r442k/aGhLK7OW01PbISrZYdIuFCLaC3MPRzBUOWIacWDjeSxKMyGEko66LB0u9Q1YMct6Xsig6bYKigqql1Kdr+UXT4n6r0vd8aoECPJJaYWsWKJKtx0K6dks70K+dFhQvRjUqhgoNBKYqKKrDkNMBFf6aFTQuhtvTZWKt+L65NaEzvslwNGdUBLAwZ9gtqWNim1DQm+Sn7pkfWfO9BCwIvIdPslqrm0JC3K56BuA3b9CtmmJ0BqVq0mWYEsP8Pjyuoh1R3FxG1WgVT4SsHiRYomJviXheeUxHHaPqICAl0p9SAA75SxMbaGpsYagohaC0kq07tiaJ8kV2mfp0zHFulkrSXLSajVUFqIm5S9Ts9FGzyyBNTtAwrPbkEehSMABdMIjdKFLybEKfhPjDNIKXCtDPCf9M24sRRmllG057zrmnEJRhvyMzw6Rla9YsCZ5x0WLvkwptVkTyX0UT3v31TwjuR1/8WNYSm83ts1tyL7u04POgEsZbYP27VzKuvM1N2f9sWzAmiRTL8wT3/a8aXS4Tk1xMjLF+TVvLb3WQf3eE/WYHCPZbzX2V3PrUXNwNSCLZSoBwNJAaLxNoVH3qgX57k3yDBoeWekbyzdnvML30SQ51OgPusSqwBmI/rS0jL+yHkfNUAf+qA+n+bJ7tJ5VtYrwqPS1VA4MFeXrZO4VyY7vqL4L7+Rv3t8H914It9qseGaSjQ+gQXNqH8oI4zE7DSE40KFRa3jCfjMcf7jn9od2y7kFui0v7unZek6CRzNtSuLh09aRRTBAM054b7MGLiIc1d7HMO4V+kNL5lspkKe3G6rr3pmtBbBxNn0UNkn9bq+ynNJqUhUbiF5ATnLLfCx1BwnDH9ZD9aSbyYTtTewu8Uhpw8WLujqI5kC7/FvP+G6Fz/5DY30xEz9LDH7ukx01SM5r7P8y3PJFu7AfFAAAABmJLR0QA/wD/AP+gvaeTAAAACXBIWXMAABYlAAAWJQFJUiTwAAAAB3RJTUUH4wQSEAoLIo9oKgAAHFJJREFUeNrt3UFyFFeex/GXVcwsZkVvBlfHLIoT9HCCKaRZ22bfWMUJLE6AOIHhBEju3kPYW5DyBuYGqsXEyMKLZt9UZi8QRoBkqaSszPy//HwOQBBPBJFf3vsFKQEAAAAAAAAAAAAAAAAAAAAAAAAAAAAAAAAAAAAAAAAAAAAAAAAAAAAAAAAAAAAAAAAAAAAAAAAAAAAAAAAAAAAAAAAAAAAAAAAAAAAAAAAAAAAAAAAAAAAAAAAAAAAAAAAAAAAAAAAAAAAAAAAAAAAAAAAAAAAAAAAAAAAAAAAAAAAAAAAAAAAAAAAAAAAAAAAAAAAAAAAAAAAAAAAAAAAAAAAAAAAAAAAAAAAAAAAAAAAAAAAAAAAAAAAAAAAAAAAAAAAAAAAAAAAAAAAAAAAAAAAAAAAAAAAAAAAAAAAAEFrhCKAZ39092i3GN/5RvHv3dLecLJwIAACs38gRQIPqarsejw7ubxzNHQYAAIhaiGg6KkbPtjaPD/+6efyt4wAAAFELIeN2nNLzrc03z+azo6njAAAAUQsB1fN6PDrc+t/ffhC3AAAgaiFo29rbAgCAqIXYft/bilsAABC1EDxu7W0BAEDUQlgne1txCwAAohaCx629LQAAiFoIy94WAABELeQSt54kAwCAqIWw7G0BAEDUQh5xa28LAACiFsKytwUAAFELucStJ8kAACBqISx7WwAAELWQR9za2wIAIGqBsOxtAQAQtUAucetJMgAAohYIy94WAABRC+QRt/a2AACIWiAse1sAAEQtkEvcepIMAICoBcKytwUAQNQCecStvS0AAKIWCMveFgAAUQvkEreeJAMAIGqBsOxtAQAQtUAecWtvCwCAqAXCsrcFAEDUArnErSfJAACIWiAse1sAAEQtkEfc2tsCACBqgbDsbQEAELVALnHrSTIAAKIWCMveFgAAUQvkEbf2tgAAiFogLHtbAABELZBN3D73JBkAAFELRPWtvS0AAKIWCO7D3vbXbWcBAICoBSKajoriB3tbAABELRA8bu1tAQAQtUBs9rYAAIhaIDp7WwAARC0Qm70tAACiFsghbu1tAQAQtUBs9rYAAIhaIDp7WwAARC0Qm70tAACiFsghbu1tAQAQtUBs9rYAAIhaIDp7WwAARC0Qm70tAICoBcghbu1tAQBELUBs9rYAAKIWIDp7WwAAUQsQm70tAICoBcghbu1tAQBELUBs9rYAAKIWIDp7WwAAUQsQm70tAICoBcghbu1tAQBELUBs9rYAAKIWIDp7WwAAUQsQm70tAICoBcghbu1tAQBELUBs9rYAAKIWIDp7WwAAUQsQm70tAICoBcghbu1tAQBELUBs9rYAAKIWILr3e9vvNn575CwAAEQtQETToqh27G0BAEQtQOi4fb+3fXPgSTIAgKgFCKqe2dsCAIhagOhxa28LACBqAUKztwUAELUA8ePW3hYAQNQCBGdvCwAgagHix629LQCAqAUIzd4WAEDUAsSPW3tbAABRCxCcvS0AgKgFiB+39rYAAKIWIDR7WwAAUQsQP27tbQEARC1AcPa2AACiFiB+3NrbAgCIWoDQ7G0BAEQtQPy4tbcFAEQtAMHZ2wIAohaA+HE7r8ejA+cAAIhaAKKaOgIAQNQCAACAqAUAAABRCwAAAKIWAAAAUQsAAACiFgAAAEQtAAAAohYAAABELQAAAIhaALqwtfnm2Xx2NHUSAM2azX7+fjZ7/q2TAFELwFrV83o8Ori/cTR3FgBNxOzz2Wz200FK9ZOUxjedCFzfDUcAwAWmo2L0bGvz+FFVV4//tj/ZdSQAK8fsNKXxs5TSzGmAqAWg07h98z/Fcvl4t5wsHAnAhTF7M6Ub36dUb6eU3MzCGnh+DMCK6nk9Hh3a2wJcFLQ/f5/S+DClekfQgqgFoJ9xa28L8EXMnt7NillYN8+PAbgOe1uAjzE7tZsFUQtA6Li1twUGGbN2s9Ahz48BaJC9LTC0oLWbBVELQK5xa28LZByzdrPQF54fA7Au9rZAjjE7tZsFUQvAIOPW3hYIHbN2s9BTnh8D0BJ7WyBq0NrNgqgFgE/j1t4WCBCzdrMQgefHAHTB3hboc8xO7WZB1ALACnFrbwv0ImbtZiEgz48B6AF7W6DroLWbBVELAM3Erb0t0GLM2s1CdJ4fA9A39rZAGzE7tZsFUQsALcStvS3QaMzazUJmPD8GoOfsbYGmgtZuFkQtAHQbt/a2wBVi1m4Wcub5MQCR2NsCq8Ts1G4WRC0A9Dhu7W2BM2PWbhYGxPNjAAKztwU+D1q7WRC1ABAzbg/ub/y67SxgqDFrNwtD5fkxALmYjorih63N4+/tbWFQMTu1mwVRCwCZxe3o2dbm8TfFsnpobwvZxqzdLJBS8vwYgHx9a28LuQat3SwgagEYDHtbyCdm7WaBL3l+DMAQ2NtC7Jid2s0CohYA7G0hWszazQIX8vwYgCGyt4XeB63dLCBqAeAC9rbQv5i1mwVW4/kxAENnbwv9iNmp3SwgagHgWnFrbwsdxKzdLHAtnh8DwKfsbaG1oLWbBUQtAKyJvS2sL2afz2azn3+xmwWa4PkxAJzP3haajdnpx91s7UAAUQsA7cWtvS1cI2Y/7GZ3nAbQNM+PAeDy7G1h5aD9ZDcLIGoBoHv2tnBxzNrNAu3w/BgArsbeFs6O2andLCBqASBU3Nrbgt0s0BXPjwGgGfa2DDho7WYBUQsAmbC3ZUgxazcLdM/zYwBonr0tucfs1G4WELUAMIi4tbclq5i1mwV6x/NjAFg/e1syCFq7WUDUAsDA2dsSMWbtZoF+8/wYANplb0uUmJ3azQKiFgD4g7i1t6WXMWs3C4Ti+TEAdMvelh4Frd0sIGoBgCuxt6XLmLWbBeLy/BgA+sPelrZjdmo3C4haAGANcWtvy1pj1m4WyIbnxwDQX/a2rCFo7WYBUQsAtMreliZi1m4WyJPnxwAQg70tV43Zqd0sIGoBgB7Frb0tl4pZu1lgEDw/BoCY7G35g6C1mwVELQAQgr0tp2PWbhYYHs+PASA+e1sxO7WbBUQtAJBB3NrbDixm7WaBwfP8GADyY287iKC1mwUQtQCQtfd72+82fnvkLHKKWbtZgNM8PwaAvE2LotrZ2jye29uGj9mp3SyAqAWAwcbt+73tm61iuXxgbxsqZu1mAf6A58cAMCj1zN42UtDazQKIWgDgrLi1t+11zNrNAlyW58cAMFz2tv2L2andLICoBQBWjFt7285j1m4W4Io8PwYATtjbdhO0drMAohYAaDJu7W1biVm7WYAmeH4MAJzF3nZ9MTu1mwUQtQBAS3Frb9tYzNrNAqyB58cAwCXY214vaO1mAUQtANCHuLW3XSlmn89ms58O7WYB1sfzYwBgVfa2F8fs9ONuFgBRCwD0Mm7tbb+I2ZspjR+llLb98QBoh+fHAMA12du+D9oPu1lBCyBqAYCIcTvIva3dLEC3PD8GAJo0mL2t3SxAP7iphYb8eDCZF3X1INVp4TQAft/bHuT2JHk2e35zNvvph5OnxoIWQNRCPnb3J7tFVd2tU/3UaQCklNve1m4WQNRC/mFbThY/vvpqu1hWt+tU7TkRgJSi723tZgFELQw0bifzIqV7niQDpJQ+7m0P728czYPE7HQ2++kgpfFBSmnqRwggamF4cfvq1ou9/Vu37W0BPsZt3/e2drMAohb4PG7tbQE+08+9rd0sgKgFzgtbe1uAs+K2F3tbu1kAUQusFLf2tgCndLa3tZsFELXAVePW3hbgi7hta29rNwsgaoGm4tbeFuAz693b2s0CiFqg6bC1twU4K27n9Xh0cH/j10bi8+Spsd0sgKgF1hu39rYAp0xHqfhLQ7/WLNnNAohaoIW4tbcFAABRC+Hj1t4WAABELYQOW3tbAAAQtZBH3NrbAgCAqIXIcWtvCwAAohbCx629LQAAohYIHbb2tgAAiFogj7idzIuiuutJMgAAohaIGbcvJ6W9LQAAohaIHbcne9uiqB47DQAARC0QL2zLyWL35WTH3hYAAFELhI5be1sAAEQtEDtu7W0BABC1QPi4tbcFAEDUAqHD1t4WAABRC+QQt/a2AACIWiB23NrbAgAgaoHwcWtvCwCAqAVCh629LQAAohbIIW7tbQEAELVA7Li1twUAQNQC4ePW3hYAAFELhA5be1sAAEQtkEPc2tsCACBqgdhxa28LAICoBcLHrb0tAACiFggdtva2AACIWiCHuLW3BQBA1AKx49beFgAAUQuEj1t7WwAARC0QOmztbQEAELVADnFrbwsAgKgFYsetvS0AAKIWCB+39rYAAIhaIHTY2tsCACBqgRzi1t4WAABRC8SOW3tbAABELRA+bu1tAQAQtUDosLW3BQBA1AI5xK29LQAAohaIHbf2tgAAiFogfNza2wIAIGqB0GFrbwsAIGodAZBD3NrbAgCIWoDYcWtvCwAgagHCx629LQCAqAUIHbb2tgAAohYgh7i1twUAELUAsePW3hYAQNQChI9be1sAAFELEDps7W0BAEQtQA5xa28LACBqAWLHrb0tAICoBQgft/a2AACiFiB02NrbAgCIWoAc4tbeFgBA1ALEjlt7WwAAUQsQPm7tbQEARC1A6LC1twUAELUAOcStvS0AgKgFiB239rYAAKIWIHzc2tsCAIhagNBha28LACBqAXKIW3tbAABRCxA7bu1tAQBELUD4uN2f7BbVv9+xtwUAELUAMcO2/NNbe1sAAFELEDxuT/a2y3/e8SQZAEDUAgSN2/96bW8LACBqAWLHrb0tAICoBQgdtva2AACiFiB+3NrbAgCIWoDwcWtvCwAgagGix629LQCAqAUIHbb2tgAAohYgftza2wIAiFqA8HFrbwsAIGoBosetvS0AgKgFCB229rYAAKIWIH7c2tsCAKIWgPBxa28LAIhaAKLH7cne1kkAAKIWgJhhW/7prVMAAEQtAAAAiFoAAAAQtQAAACBqAQAAELUAAAAgagEAAEDUAgAAIGoBAABA1AIAAICoBaALRb18mOq0cBIAjdtNafnCMYCoBWCdX1z7f35SVNXdOlV7TgOgEWVKy7tl+fWDsrz31nHA9d1wBAD8YdiWk0VKaT6fHe1U47RTpNGWUwFY2SKl5cOyvOd2FhrmphaAS8ftj68m86KuHniSDHBpb1OqH6e0vCNoYT3c1AKwWtzuT3ZTSrvzjaN5nUaPUpGmTgXg7L8yT25nPTOGNXJTC8CV49beFuBMpd0stMdNLQBXD1t7W4DTFnaz0D43tQA0Erf2tsCA2c1Ch9zUAtBc3NrbAgP8q89uFrrlphaAtcStvS2QudJuFvrBTS0A6wlbe1sgT4uUlg/K8l7pKKAf3NQCsPa4tbcFMnB6NytooUfc1ALQTtza2wJh1U9TqnY8M4Z+clMLQOtxa28LBFG+381+sy1oob/c1ALQftja2wL9trCbhTjc1ALQadza2wI9YjcLAbmpBaD7uLW3BTpnNwtRuakFoFdxa28LtKy0m4XY3NQC0K+wtbcF2rGwm4U8uKkFoLdxa28LrIHdLIhaAIZiPjuadh63+5Pdvf1bt8UtcH3105SWt8vyG9tZELUADOLzbzw6/G7jt0d9+L3Y2wLXUNrNgqgFYKCKotrZ2jw+vL9xNO88bD88SV5Wt8UtcAmL9zH79V1PjUHUAjBs01Exera1eXw4n/3ff/cmbj1JBs5mNwuiFgDOjtt6/G+/bG2+eWZvC/ST3SyIWgC4+KNx/mFvO58d3uxD3NrbwuCVdrMgagFgJUVR7dTj//jF3hbo0MJuFkQtAFyHvS3QBbtZQNQC0Gzc2tsC7bCbBUQtAOv72LS3BdaltJsFRC0ArbC3BRq0sJsFRC0AXbC3Ba7DbhYQtQD0I27tbYHV2M0CohaA/n2k9nRvWz/1s4HeKN/fzNrNAqIWgJ7q3972q217W+jc4tRu9rXjAEQtAH3Xz71tSvc8SYZWvU2pflyWX9+2mwVELQAh47ZXe9tXt17Y20JbPu5mnQUgagGI/nFrbwvDUdrNAqIWgCzZ20LWFnazgKgFYAjsbSEvdrOAqAVgmHFrbwvR2c0CohYAH8X2thBPaTcLiFoAOMXeFkJY2M0CohYAzmdvC/1kNwuIWgBYJW7tbaEv7GYBUQsAV/2YtreF7pR2s4CoBYAG2NtCqxZ2s4CoBYDm2dvCetnNAqIWANqIW3tbaJrdLCBqAaDtj3B7W7i+0m4WELUA0CF7W7iShd0sIGoBoD/sbeFy7GYBUQsAfY5be1s4j90sIGoBIMrHu70tfFTazQKiFgACsrdl4BZ2s4CoBYD47G0ZGrtZQNQCQI5xa29L/uxmAVELALl/9NvbkqPyJGbtZgFRCwBDYG9LJhandrMLxwGIWgAYFntbonqbUnpoNwuIWgAgJXtbQvmwm/36ibMARC0AcDoWTu1texC39rZ8qrSbBUQtAHCh93vb0YG9LT2xsJsFRC0AsKrf97Z/nR3N+hG3k3lRVHc9SR4Mu1lA1DoCALh+3I7Ho4Pe7G1fTkp72yGwmwUQtQDQbGT0cm9bFNVjP5uslHazAKIWANamb3vb3ZeTHXvbLCzsZgFELQC0xd6WptjNAohaAOgubu1tuTq7WQBRCwD9iBN7W1ZR2s0CiFoA6B17Wy6wsJsFELUA0Hf2tnzObhZA1AJAvLi1t8VuFkDUAkD0qLG3HabSbhZA1AJANuxtB2NhNwsgagEgV/a2+bKbBRC1ADCcuLW3zYndLICoBYBhxpC9bWyl3SyAqAWAwbO3DWdhNwsgagGAT9nb9p/dLICoBQAuilt72z6qH9vNAohaAODyEWVv2w/lyW52x24WQNQCACuyt+1K/dpuFkDUAgDNsLdtz8lu9ps7drMAohYAaDhu7W3XyW4WQNQCAG3El71ts0q7WQBRCwC0zN722v84YDcLIGoBgI7Z267ObhZA1AIAfYtbe9vLsJsFELUAQI/Z256jtJsFELUAQBD2tr9Hvt0sgKgFAIIa8t7WbhZA1AIAucTtsPa2drMAuSgcAQDn2do8rp3CMNX1aGdUvdvbLSeLrn8v89k/bqb0z+lu+Z+vr/trzWY/z1J6t/DMGEDUAiBqyd+iqqvHf9uf7DoKAEQtAKKWsHG7XFYP/l5OSkcBQN/Y1AIAF+nV3hYATnNTC8C53NRylj7tbQHATS0AsJI+/f+2AOCmFoBzuanlEhbLlB7+/dWtF44CgC64qQUArmM6Tum5vS0AXXFTC8C53NSy+pfF6Enx7t1Te1sA2uKmFgBoTl1t29sC0CY3tQCcy00t12RvC8DauakFANbF3haAtXNTC8C53NTS7FeHvS0AzXNTCwC0w94WgDVwUwvAudzUskb2tgA0wk0tANAFe1sAGuGmFoBzuamlvS8Se1sArsZNLQDQPXtbAK7ITS0A53JTS0fsbQG4NDe1AEDf2NsCcGluagE4l5ta+vG1Ym8LwPluOAIAoNfqarsejW6mlB44DAA+5/kxAAAAohYAAABELQAAAIhaAAAARC0AAACIWgAAABC1AAAAIGoBAAAQtQAAACBqAQAAQNQCAAAgagEAAEDUAgAAgKgFAAAAUQsAAICoBQAAAFELAAAAohYAAABRCwAAAKIWAAAARC0AAACIWgAAAEQtAAAAiFoAAAAQtQAAAIhaAAAAELUAAAAgagEAAEDUAgAAIGoBAABA1AIAAICoBQAAQNQCAACAqAUAAABRCwAAAKIWAAAAUQsAAACiFgAAAEQtAAAAohYAAABELQAAAIhaAAAAELUAAACIWgAAABC1AAAAIGoBAAAQtQAAACBqAQAAQNQCAACAqAUAAEDUAgAAgKgFAAAAUQsAAACiFgAAAFELAAAAohYAAABELQAAAKIWAAAARC0AAACIWgAAABC1AAAAiFoAAAAQtQAAACBqAQAAELUAAAAgagEAAEDUAgAAgKgFAABA1AIAAICoBQAAAFELAACAqAUAAABRCwAAAKIWAAAARC0AAACiFgAAAEQtAAAAiFoAAABELQAAAIhaAAAAELUAAAAgagEAABC1AAAAIGoBAABA1AIAACBqAQAAQNQCAACAqAUAAABRCwAAgKgFAAAAUQsAAACiFgAAAFELAF+q08IhAACiFoCQ9vZv3S6K6nGqi7dOAwAQtQCEs/tyslNUyzt1qvacBgAgagGIF7blZPHjq8m8WFa3U0qvnQgAIGoBCBm3e69u3Snq6oG9LQAgagGIGbf7k117WwBA1AIQO27tbQEAUQtA6LC1twUARC0AOcStvS0AIGoBiB239rYAgKgFIHzc2tsCAKIWgNBha28LAIhaAHKIW3tbAEDUAhA7bu1tAQBRC0D4uLW3BQBELQChw9beFgAQtQDkELf2tgCAqAUgdtza2wIAohaA8HFrbwsAiFoAQoetvS0AIGoByCFu7W0BAFELQOy4tbcFAEQtAOHj1t4WABC1AIQOW3tbAEDUApBD3NrbAgCiFoDYcWtvCwCiFgDCx629LQCIWgAIHbaf7G3r0okAgKgFgJBxu/fqq7v2tgAgagEgbtx+srcVtwAgagEgYty+nOwUVXXX3hYARC0AxAxbe1sAELUAkEPc2tsCgKgFgNhxa28LAKIWAMLHrb0tAIhaAAgdtva2ACBqASCHuLW3BQBRCwCx49beFgBELQCEj1t7WwAQtQAQOmztbQFA1AJADnFrbwsAohYAYsetvS0AiFoACB+39rYAIGoBIHTY2tsCgKgFgBzi1t4WAEQtAMSOW3tbABC1ABA+bu1tAUDUAkDosLW3BQBRCwA5xK29LQCIWgCIHbf2tgAgagEgfNza2wKAqAWA0GFrbwsAohYAcohbe1sAELUAEDtu7W0BQNQCQPi4tbcFAFELAKHD1t4WAEQtAOQQt/a2ACBqASB23NrbAoCoBYDwcWtvCwCiFgBCh629LQCIWgDIIW7tbQFA1AJA7Li1twUAUQsA4ePW3hYAUQsAhA5be1sARC0AkEPc2tsCIGoBgNhxa28LgKgFAMLHrb0tAKIWAAgdtva2AIhaACCHuLW3BUDUAgCx49beFgBRCwCEj1t7WwBELQAQOmztbQEQtQBADnFrbwuAqAUAYsetvS0AohYACB+39rYAiFoAIHTY2tsCIGoBgBzi1t4WAFELAMSOW3tbAEQtABA+bu1tARC1AEDosLW3BUDUAgA5xK29LQCiFgCIHbf2tgCIWgAgfNza2wIgagGA0GFrbwuAqAUAcohbe1sARC0AEDtu7W0BELUAQPi4tbcFQNQCAKHD1t4WAFELAOQQt/a2AIhaACB23H7Y29bLh+IWAFELAASN2z8/sbcFQNQCAHHD9tO97QsnAoCoBQBCxu3eq6/u2dsCAAAQ3nzj/7fnG0c7TgIAAAAAAAAAAAAAAAAAAAAAAAAAAAAAAAAAAAAAAAAAAAAAAAAAAAAAAAAAAAAAAAAAAAAAAAAAAAAAAAAAAAAAAAAAAAAAAAAAAAAAAAAAAAAAAAAAAAAAAAAAAAAAAAAAAAAAAAAAAAAAAAAAAAAAAAAAAAAAAAAAAAAAAAAAAAAAAAAAAAAAAAAAAAAAAAAAAAAAAAAAAAAAAAAAAAAAAAAAAAAAAAAAAAAAAAAAAAAAAAAAAAAAAAAAAAAAAAAAAAAAAAAAAAAAAAAAAAAAAAAAAAAAAAAAgBb8C70HhvqxspEsAAAAAElFTkSuQmCC;" parent="38TpKfUnlk5KF1mlkOwW-21" vertex="1">
          <mxGeometry x="50" y="73.21621621621622" width="21.680135135135135" height="16.262135135135132" as="geometry" />
        </mxCell>
        <mxCell id="38TpKfUnlk5KF1mlkOwW-15" value=".tf files" style="sketch=0;html=1;aspect=fixed;strokeColor=none;shadow=0;fillColor=#3B8DF1;verticalAlign=middle;labelPosition=right;verticalLabelPosition=middle;shape=mxgraph.gcp2.files;align=left;fontStyle=1" parent="38TpKfUnlk5KF1mlkOwW-21" vertex="1">
          <mxGeometry x="76.65" y="69.14051351351351" width="25.161972972972972" height="24.405405405405407" as="geometry" />
        </mxCell>
        <mxCell id="38TpKfUnlk5KF1mlkOwW-18" value="" style="aspect=fixed;sketch=0;html=1;dashed=0;whitespace=wrap;fillColor=#2875E2;strokeColor=#ffffff;points=[[0.005,0.63,0],[0.1,0.2,0],[0.9,0.2,0],[0.5,0,0],[0.995,0.63,0],[0.72,0.99,0],[0.5,1,0],[0.28,0.99,0]];shape=mxgraph.kubernetes.icon2;prIcon=ns" parent="38TpKfUnlk5KF1mlkOwW-6" vertex="1">
          <mxGeometry x="37" y="-16" width="27.09" height="26" as="geometry" />
        </mxCell>
        <mxCell id="38TpKfUnlk5KF1mlkOwW-20" value="" style="group" parent="38TpKfUnlk5KF1mlkOwW-6" vertex="1" connectable="0">
          <mxGeometry x="121" y="122.68030303030302" width="180" height="118.57803787878788" as="geometry" />
        </mxCell>
        <mxCell id="TfanE9FAZFEMDZ-ole27-4" value="Terraform&lt;div&gt;Specific Provisioner&lt;/div&gt;" style="rounded=0;whiteSpace=wrap;html=1;fontStyle=1;strokeWidth=2;fontSize=13;verticalAlign=top;fillColor=#dae8fc;strokeColor=#6c8ebf;align=right;labelPosition=center;verticalLabelPosition=middle;" parent="38TpKfUnlk5KF1mlkOwW-20" vertex="1">
          <mxGeometry y="1.8242424242424242" width="180" height="118.57575757575758" as="geometry" />
        </mxCell>
        <mxCell id="jO-7Yq6EXqsvsZqchOJK-0" value="" style="shape=image;verticalLabelPosition=bottom;labelBackgroundColor=default;verticalAlign=top;aspect=fixed;imageAspect=0;image=data:image/png,iVBORw0KGgoAAAANSUhEUgAAA7UAAALICAYAAACgkteeAAAL5XpUWHRSYXcgcHJvZmlsZSB0eXBlIGV4aWYAAHjarZhrlts6DoT/cxWzBL5AkMvh85zZwSx/PtDq7qTzzr12x1JkiiJRhULBbv/vv8f9h1eSkl0WraWV4nnlllvsnFT/er2Owef7eV9DfHqufnXdzerjPYtcsiGvYb7s1zF0rsvHDZqf6+Pr607n6yTWZ6Lni7cJkz3ZHvWMq89EKb6uh+f/rj339fzFdp5/Zfq75bCeVX76f1aCsYT5UnRxp5A8n9meklhBaqlzzHyGVOPbFUbd6+n7sXPvp5+C9+zkm9j5/oxIX4fCvRZr6/4Uo+d6kO/H7kboyxWFt9P49RerfCzqc+zOWfWc/dpdz4VIFfdsyj9T3DMGDkL5ikbhrfwTzvW+G+/KFieILR43eE8XWojE8YQcVujhhH2PM0yWmOOOyjHGGdO9VpPGFucFJds7nKiAsVyqYDVBLXE5vq8l3Oe2+7wZKk9egZExMFngjm/e7nsX/+b9PtE5FtsQLJjzFSvWFY3TLMOQs09GAUg4T0zlxve+3TusHy8DNoGg3DBXNtj9eE0xJHxwK12cE+PEZ+dfqRF0PRMQIp4tLCYkEPAlJAkleI1RQyCOFXw6K48pxwECQSSu4A7YpFQAh2zg2dyj4Y6NEl+XkRaAkFSSAg3pAlg5C/zRXOFQlyTZiUgRlSpNekklFymlaDGN6po0q2hR1apNe001V6mlaq211d5iS0iYtNLUtdpa652Hdqbu3N0Z0fuII408ZJSho442+oQ+M0+ZZeqss82+4kqL9F9lqVt1tdV32FBp5y27bN11t90PXDvp5COnHD31tNPfUXtQ/Rq18Am5n6MWHtQMsXzH6QdqXFZ9myKYnIhhBmIxBxBXQwBCR8PM15BzNOQMM98iSSER1IIYOCsYYiCYd4hywjt2H8j9FDcn+Y9wiz9Czhl0/wZyzqB7kPsWt++gtvrV4XQBsiy0mPp0EDYG7Npj7VaT/vro/ukEP5hoLF/k+LMs0F1ljBS1SdIWR21GrIOS6ipjnj6W9JnORiXLcgdtkdn0QLujKUoX3/tG0gufcxxq/TwqmUcczYMBOZ8Uwzwhdo2JBMiMc/3IMqKiHc1bXso8pTfIBFp9rShtx7Xl7G1YpFO1HNYR+0qBhSbZp4TFiqbFevrtifgQXWxolbbYjSoJkaNuQzCMXUvvS2uCST0gTmyX+hyy8Jdd9XJP/T88up8MUFZY9cya9hpnj4awxyAbHdt9FQQ8+jOKRblvlwcj2ZEvBD+sfLKcVsm6C+TpQsLN5fFjMK/2UlfJdR7Sii9AafdBVKZ3ZEheZUJZYpeY9Jy6yHa7k3zFWCnoLAkK4DXs3Kz+ZbDIYtUn1zFJ++BqjK3J2qdOVjHJDeorT87S2B8pFb2mxb7AbYYBh5ifwEtibJsohaR94na+hZWIQBBqL7OPrbmM1NUf7bNbVEJrFxlt+8HIf3t0HxfYftt1oBiIWBsF/H2l0ozFas/yqmeLtCVqRKw97wwb/KgXHfe92X90fAPLtPbC1feDVctu/QBkcgqmT5W0gm5czUWR6OCF3mZG0utNNq/HkW+iB1j68cvmG/CafBhspGa4fN7HspIfD3Y2ekxzYOgVyAGONyb5xT0zjSK91XiGztbOyLWmflZWRQcHq/X7yWQ0ex2/FY1IIDx1ISUpmiWbXcTcfKVU6MAejdmNHZBB9p5jMCN2ZJNoourEFp/L2gCWR6E4hMhqPX/sKBye0Ter0HwQg7QLnNkllpzYRUGJkxzSuLvppcyUjlrKI+Dneh/I8IptraZ6Lfqhre+CHMwU2OHWwfVNWuzjBwLmFii1oRfUBjO0UlLhIqIS0A0cwqGAMJx8W8idRzwZL7ohANuGz2se3x0KhxLaSH9kmIrlNkKaxHlQFzLpLGWQcAhjDXgiyWZbKY7kPPONVpV0aI66BDAmzalMC8fZiSvnkCPI4EnaD4l5USUoaPKCDrOD9OZq0kUgU+zYmstw2an139cyLasnYIBSm1itst3U5nfv+AJ4wmkijiudBuCKlaaW4/0C5PADyLouUg77uJS0k4WiDOoO2oQbCdOkBFbOk+fSaAwrFFFdKxQr58cIliDYyCsChRpJd0iqLaW20xwIjYMeYWN+9thIBxZAwszS41mrYR4O/RXBf8kIPd2X6fVVyrhfJtjPc/GVXeSWe0+uAAfenou5kikjs3qPddmR6oafWuQMdZP14nlorVleSB25QsHd3HiuvSmEbOYarltceQ6PJ64dTYPK+dgQ+hUGI0A4nYYdJEUn2wet6IjgISlZHSU5mR7dIm5FHcJxOVJlb8GZNypYwX7anHn7XuFpC5ivXemOqMCYw8JzsAaCs7IsQrsHliwC4ZHE3wKKW58y/RYbLzJCfVEwT8/u3WVy/00mY9YW+9E5V/zEZPdXZZqyxLMh9olTKVns0JlQkPspHIqOjqsCpDHkRLbKwspSWNbIWG1vSUWH2ZTgsvne6DsHRpgGs7mQRky9zVq4JSKPMmOBO70qLgs9wcicq1JUALi8aVtJpfvANQTyDNRhYo+JTDwCQAggBSawnET8JyRKMBFW1E09k1WTGfiKeAZbEYunPaXQpFNGjQ5jRA7uxebwXAP+NcSNKsDK8ylMAVnnegTTPO09qz4lnfk6koAPNFfbN8gUVGzG9ip+A6z2eMXr6pqme89tQuyur2+5N7jnjjseG37JN5B0xhwjGPEfr9wpaP5baSSTXrDA93tHdbhQKi7i07Ms+tORWx3BfplJmML++o7OYJgWmzik197GVHzfs02O7u3kD49rsVKPPk4sS8SfoUcKC6Kfg21gbGJWYrqHx0ZHIPkOqlAskovgAdOwLSxTzURQf6ldlKgd0brRpkkJe5wLa0tqWzCOoUirx57poSuluvbZnqKuVtTdziaYt/IfMVe/O77rGBUpsoquaRWzKWq1im9RtWiycMxhU1bNWhJdF8AO9k7z+PTtw+IYUW205fYRlfWxE+wledUmtm7DeRMKpWJ0Gq9O/ejk2ujv3PoZT76kyUOrZ/CLie4XVAQUwv1OLPsd7p1akvsVQQo0W0PQsTIoN8WD+0ag2tG4Trxybgv9o5aQ1oIJRzfZrSDeGNaZ6ursPKB61r442k/aGhLK7OW01PbISrZYdIuFCLaC3MPRzBUOWIacWDjeSxKMyGEko66LB0u9Q1YMct6Xsig6bYKigqql1Kdr+UXT4n6r0vd8aoECPJJaYWsWKJKtx0K6dks70K+dFhQvRjUqhgoNBKYqKKrDkNMBFf6aFTQuhtvTZWKt+L65NaEzvslwNGdUBLAwZ9gtqWNim1DQm+Sn7pkfWfO9BCwIvIdPslqrm0JC3K56BuA3b9CtmmJ0BqVq0mWYEsP8Pjyuoh1R3FxG1WgVT4SsHiRYomJviXheeUxHHaPqICAl0p9SAA75SxMbaGpsYagohaC0kq07tiaJ8kV2mfp0zHFulkrSXLSajVUFqIm5S9Ts9FGzyyBNTtAwrPbkEehSMABdMIjdKFLybEKfhPjDNIKXCtDPCf9M24sRRmllG057zrmnEJRhvyMzw6Rla9YsCZ5x0WLvkwptVkTyX0UT3v31TwjuR1/8WNYSm83ts1tyL7u04POgEsZbYP27VzKuvM1N2f9sWzAmiRTL8wT3/a8aXS4Tk1xMjLF+TVvLb3WQf3eE/WYHCPZbzX2V3PrUXNwNSCLZSoBwNJAaLxNoVH3qgX57k3yDBoeWekbyzdnvML30SQ51OgPusSqwBmI/rS0jL+yHkfNUAf+qA+n+bJ7tJ5VtYrwqPS1VA4MFeXrZO4VyY7vqL4L7+Rv3t8H914It9qseGaSjQ+gQXNqH8oI4zE7DSE40KFRa3jCfjMcf7jn9od2y7kFui0v7unZek6CRzNtSuLh09aRRTBAM054b7MGLiIc1d7HMO4V+kNL5lspkKe3G6rr3pmtBbBxNn0UNkn9bq+ynNJqUhUbiF5ATnLLfCx1BwnDH9ZD9aSbyYTtTewu8Uhpw8WLujqI5kC7/FvP+G6Fz/5DY30xEz9LDH7ukx01SM5r7P8y3PJFu7AfFAAAABmJLR0QA/wD/AP+gvaeTAAAACXBIWXMAABYlAAAWJQFJUiTwAAAAB3RJTUUH4wQSEAoLIo9oKgAAHFJJREFUeNrt3UFyFFeex/GXVcwsZkVvBlfHLIoT9HCCKaRZ22bfWMUJLE6AOIHhBEju3kPYW5DyBuYGqsXEyMKLZt9UZi8QRoBkqaSszPy//HwOQBBPBJFf3vsFKQEAAAAAAAAAAAAAAAAAAAAAAAAAAAAAAAAAAAAAAAAAAAAAAAAAAAAAAAAAAAAAAAAAAAAAAAAAAAAAAAAAAAAAAAAAAAAAAAAAAAAAAAAAAAAAAAAAAAAAAAAAAAAAAAAAAAAAAAAAAAAAAAAAAAAAAAAAAAAAAAAAAAAAAAAAAAAAAAAAAAAAAAAAAAAAAAAAAAAAAAAAAAAAAAAAAAAAAAAAAAAAAAAAAAAAAAAAAAAAAAAAAAAAAAAAAAAAAAAAAAAAAAAAAAAAAAAAAAAAAAAAAAAAAAAAAAAAAAAAEFrhCKAZ39092i3GN/5RvHv3dLecLJwIAACs38gRQIPqarsejw7ubxzNHQYAAIhaiGg6KkbPtjaPD/+6efyt4wAAAFELIeN2nNLzrc03z+azo6njAAAAUQsB1fN6PDrc+t/ffhC3AAAgaiFo29rbAgCAqIXYft/bilsAABC1EDxu7W0BAEDUQlgne1txCwAAohaCx629LQAAiFoIy94WAABELeQSt54kAwCAqIWw7G0BAEDUQh5xa28LAACiFsKytwUAAFELucStJ8kAACBqISx7WwAAELWQR9za2wIAIGqBsOxtAQAQtUAucetJMgAAohYIy94WAABRC+QRt/a2AACIWiAse1sAAEQtkEvcepIMAICoBcKytwUAQNQCecStvS0AAKIWCMveFgAAUQvkEreeJAMAIGqBsOxtAQAQtUAecWtvCwCAqAXCsrcFAEDUArnErSfJAACIWiAse1sAAEQtkEfc2tsCACBqgbDsbQEAELVALnHrSTIAAKIWCMveFgAAUQvkEbf2tgAAiFogLHtbAABELZBN3D73JBkAAFELRPWtvS0AAKIWCO7D3vbXbWcBAICoBSKajoriB3tbAABELRA8bu1tAQAQtUBs9rYAAIhaIDp7WwAARC0Qm70tAACiFsghbu1tAQAQtUBs9rYAAIhaIDp7WwAARC0Qm70tAACiFsghbu1tAQAQtUBs9rYAAIhaIDp7WwAARC0Qm70tAICoBcghbu1tAQBELUBs9rYAAKIWIDp7WwAAUQsQm70tAICoBcghbu1tAQBELUBs9rYAAKIWIDp7WwAAUQsQm70tAICoBcghbu1tAQBELUBs9rYAAKIWIDp7WwAAUQsQm70tAICoBcghbu1tAQBELUBs9rYAAKIWIDp7WwAAUQsQm70tAICoBcghbu1tAQBELUBs9rYAAKIWILr3e9vvNn575CwAAEQtQETToqh27G0BAEQtQOi4fb+3fXPgSTIAgKgFCKqe2dsCAIhagOhxa28LACBqAUKztwUAELUA8ePW3hYAQNQCBGdvCwAgagHix629LQCAqAUIzd4WAEDUAsSPW3tbAABRCxCcvS0AgKgFiB+39rYAAKIWIDR7WwAAUQsQP27tbQEARC1AcPa2AACiFiB+3NrbAgCIWoDQ7G0BAEQtQPy4tbcFAEQtAMHZ2wIAohaA+HE7r8ejA+cAAIhaAKKaOgIAQNQCAACAqAUAAABRCwAAAKIWAAAAUQsAAACiFgAAAEQtAAAAohYAAABELQAAAIhaALqwtfnm2Xx2NHUSAM2azX7+fjZ7/q2TAFELwFrV83o8Ori/cTR3FgBNxOzz2Wz200FK9ZOUxjedCFzfDUcAwAWmo2L0bGvz+FFVV4//tj/ZdSQAK8fsNKXxs5TSzGmAqAWg07h98z/Fcvl4t5wsHAnAhTF7M6Ub36dUb6eU3MzCGnh+DMCK6nk9Hh3a2wJcFLQ/f5/S+DClekfQgqgFoJ9xa28L8EXMnt7NillYN8+PAbgOe1uAjzE7tZsFUQtA6Li1twUGGbN2s9Ahz48BaJC9LTC0oLWbBVELQK5xa28LZByzdrPQF54fA7Au9rZAjjE7tZsFUQvAIOPW3hYIHbN2s9BTnh8D0BJ7WyBq0NrNgqgFgE/j1t4WCBCzdrMQgefHAHTB3hboc8xO7WZB1ALACnFrbwv0ImbtZiEgz48B6AF7W6DroLWbBVELAM3Erb0t0GLM2s1CdJ4fA9A39rZAGzE7tZsFUQsALcStvS3QaMzazUJmPD8GoOfsbYGmgtZuFkQtAHQbt/a2wBVi1m4Wcub5MQCR2NsCq8Ts1G4WRC0A9Dhu7W2BM2PWbhYGxPNjAAKztwU+D1q7WRC1ABAzbg/ub/y67SxgqDFrNwtD5fkxALmYjorih63N4+/tbWFQMTu1mwVRCwCZxe3o2dbm8TfFsnpobwvZxqzdLJBS8vwYgHx9a28LuQat3SwgagEYDHtbyCdm7WaBL3l+DMAQ2NtC7Jid2s0CohYA7G0hWszazQIX8vwYgCGyt4XeB63dLCBqAeAC9rbQv5i1mwVW4/kxAENnbwv9iNmp3SwgagHgWnFrbwsdxKzdLHAtnh8DwKfsbaG1oLWbBUQtAKyJvS2sL2afz2azn3+xmwWa4PkxAJzP3haajdnpx91s7UAAUQsA7cWtvS1cI2Y/7GZ3nAbQNM+PAeDy7G1h5aD9ZDcLIGoBoHv2tnBxzNrNAu3w/BgArsbeFs6O2andLCBqASBU3Nrbgt0s0BXPjwGgGfa2DDho7WYBUQsAmbC3ZUgxazcLdM/zYwBonr0tucfs1G4WELUAMIi4tbclq5i1mwV6x/NjAFg/e1syCFq7WUDUAsDA2dsSMWbtZoF+8/wYANplb0uUmJ3azQKiFgD4g7i1t6WXMWs3C4Ti+TEAdMvelh4Frd0sIGoBgCuxt6XLmLWbBeLy/BgA+sPelrZjdmo3C4haAGANcWtvy1pj1m4WyIbnxwDQX/a2rCFo7WYBUQsAtMreliZi1m4WyJPnxwAQg70tV43Zqd0sIGoBgB7Frb0tl4pZu1lgEDw/BoCY7G35g6C1mwVELQAQgr0tp2PWbhYYHs+PASA+e1sxO7WbBUQtAJBB3NrbDixm7WaBwfP8GADyY287iKC1mwUQtQCQtfd72+82fnvkLHKKWbtZgNM8PwaAvE2LotrZ2jye29uGj9mp3SyAqAWAwcbt+73tm61iuXxgbxsqZu1mAf6A58cAMCj1zN42UtDazQKIWgDgrLi1t+11zNrNAlyW58cAMFz2tv2L2andLICoBQBWjFt7285j1m4W4Io8PwYATtjbdhO0drMAohYAaDJu7W1biVm7WYAmeH4MAJzF3nZ9MTu1mwUQtQBAS3Frb9tYzNrNAqyB58cAwCXY214vaO1mAUQtANCHuLW3XSlmn89ms58O7WYB1sfzYwBgVfa2F8fs9ONuFgBRCwD0Mm7tbb+I2ZspjR+llLb98QBoh+fHAMA12du+D9oPu1lBCyBqAYCIcTvIva3dLEC3PD8GAJo0mL2t3SxAP7iphYb8eDCZF3X1INVp4TQAft/bHuT2JHk2e35zNvvph5OnxoIWQNRCPnb3J7tFVd2tU/3UaQCklNve1m4WQNRC/mFbThY/vvpqu1hWt+tU7TkRgJSi723tZgFELQw0bifzIqV7niQDpJQ+7m0P728czYPE7HQ2++kgpfFBSmnqRwggamF4cfvq1ou9/Vu37W0BPsZt3/e2drMAohb4PG7tbQE+08+9rd0sgKgFzgtbe1uAs+K2F3tbu1kAUQusFLf2tgCndLa3tZsFELXAVePW3hbgi7hta29rNwsgaoGm4tbeFuAz693b2s0CiFqg6bC1twU4K27n9Xh0cH/j10bi8+Spsd0sgKgF1hu39rYAp0xHqfhLQ7/WLNnNAohaoIW4tbcFAABRC+Hj1t4WAABELYQOW3tbAAAQtZBH3NrbAgCAqIXIcWtvCwAAohbCx629LQAAohYIHbb2tgAAiFogj7idzIuiuutJMgAAohaIGbcvJ6W9LQAAohaIHbcne9uiqB47DQAARC0QL2zLyWL35WTH3hYAAFELhI5be1sAAEQtEDtu7W0BABC1QPi4tbcFAEDUAqHD1t4WAABRC+QQt/a2AACIWiB23NrbAgAgaoHwcWtvCwCAqAVCh629LQAAohbIIW7tbQEAELVA7Li1twUAQNQC4ePW3hYAAFELhA5be1sAAEQtkEPc2tsCACBqgdhxa28LAICoBcLHrb0tAACiFggdtva2AACIWiCHuLW3BQBA1AKx49beFgAAUQuEj1t7WwAARC0QOmztbQEAELVADnFrbwsAgKgFYsetvS0AAKIWCB+39rYAAIhaIHTY2tsCACBqgRzi1t4WAABRC8SOW3tbAABELRA+bu1tAQAQtUDosLW3BQBA1AI5xK29LQAAohaIHbf2tgAAiFogfNza2wIAIGqB0GFrbwsAIGodAZBD3NrbAgCIWoDYcWtvCwAgagHCx629LQCAqAUIHbb2tgAAohYgh7i1twUAELUAsePW3hYAQNQChI9be1sAAFELEDps7W0BAEQtQA5xa28LACBqAWLHrb0tAICoBQgft/a2AACiFiB02NrbAgCIWoAc4tbeFgBA1ALEjlt7WwAAUQsQPm7tbQEARC1A6LC1twUAELUAOcStvS0AgKgFiB239rYAAKIWIHzc2tsCAIhagNBha28LACBqAXKIW3tbAABRCxA7bu1tAQBELUD4uN2f7BbVv9+xtwUAELUAMcO2/NNbe1sAAFELEDxuT/a2y3/e8SQZAEDUAgSN2/96bW8LACBqAWLHrb0tAICoBQgdtva2AACiFiB+3NrbAgCIWoDwcWtvCwAgagGix629LQCAqAUIHbb2tgAAohYgftza2wIAiFqA8HFrbwsAIGoBosetvS0AgKgFCB229rYAAKIWIH7c2tsCAKIWgPBxa28LAIhaAKLH7cne1kkAAKIWgJhhW/7prVMAAEQtAAAAiFoAAAAQtQAAACBqAQAAELUAAAAgagEAAEDUAgAAIGoBAABA1AIAAICoBaALRb18mOq0cBIAjdtNafnCMYCoBWCdX1z7f35SVNXdOlV7TgOgEWVKy7tl+fWDsrz31nHA9d1wBAD8YdiWk0VKaT6fHe1U47RTpNGWUwFY2SKl5cOyvOd2FhrmphaAS8ftj68m86KuHniSDHBpb1OqH6e0vCNoYT3c1AKwWtzuT3ZTSrvzjaN5nUaPUpGmTgXg7L8yT25nPTOGNXJTC8CV49beFuBMpd0stMdNLQBXD1t7W4DTFnaz0D43tQA0Erf2tsCA2c1Ch9zUAtBc3NrbAgP8q89uFrrlphaAtcStvS2QudJuFvrBTS0A6wlbe1sgT4uUlg/K8l7pKKAf3NQCsPa4tbcFMnB6NytooUfc1ALQTtza2wJh1U9TqnY8M4Z+clMLQOtxa28LBFG+381+sy1oob/c1ALQftja2wL9trCbhTjc1ALQadza2wI9YjcLAbmpBaD7uLW3BTpnNwtRuakFoFdxa28LtKy0m4XY3NQC0K+wtbcF2rGwm4U8uKkFoLdxa28LrIHdLIhaAIZiPjuadh63+5Pdvf1bt8UtcH3105SWt8vyG9tZELUADOLzbzw6/G7jt0d9+L3Y2wLXUNrNgqgFYKCKotrZ2jw+vL9xNO88bD88SV5Wt8UtcAmL9zH79V1PjUHUAjBs01Exera1eXw4n/3ff/cmbj1JBs5mNwuiFgDOjtt6/G+/bG2+eWZvC/ST3SyIWgC4+KNx/mFvO58d3uxD3NrbwuCVdrMgagFgJUVR7dTj//jF3hbo0MJuFkQtAFyHvS3QBbtZQNQC0Gzc2tsC7bCbBUQtAOv72LS3BdaltJsFRC0ArbC3BRq0sJsFRC0AXbC3Ba7DbhYQtQD0I27tbYHV2M0CohaA/n2k9nRvWz/1s4HeKN/fzNrNAqIWgJ7q3972q217W+jc4tRu9rXjAEQtAH3Xz71tSvc8SYZWvU2pflyWX9+2mwVELQAh47ZXe9tXt17Y20JbPu5mnQUgagGI/nFrbwvDUdrNAqIWgCzZ20LWFnazgKgFYAjsbSEvdrOAqAVgmHFrbwvR2c0CohYAH8X2thBPaTcLiFoAOMXeFkJY2M0CohYAzmdvC/1kNwuIWgBYJW7tbaEv7GYBUQsAV/2YtreF7pR2s4CoBYAG2NtCqxZ2s4CoBYDm2dvCetnNAqIWANqIW3tbaJrdLCBqAaDtj3B7W7i+0m4WELUA0CF7W7iShd0sIGoBoD/sbeFy7GYBUQsAfY5be1s4j90sIGoBIMrHu70tfFTazQKiFgACsrdl4BZ2s4CoBYD47G0ZGrtZQNQCQI5xa29L/uxmAVELALl/9NvbkqPyJGbtZgFRCwBDYG9LJhandrMLxwGIWgAYFntbonqbUnpoNwuIWgAgJXtbQvmwm/36ibMARC0AcDoWTu1texC39rZ8qrSbBUQtAHCh93vb0YG9LT2xsJsFRC0AsKrf97Z/nR3N+hG3k3lRVHc9SR4Mu1lA1DoCALh+3I7Ho4Pe7G1fTkp72yGwmwUQtQDQbGT0cm9bFNVjP5uslHazAKIWANamb3vb3ZeTHXvbLCzsZgFELQC0xd6WptjNAohaAOgubu1tuTq7WQBRCwD9iBN7W1ZR2s0CiFoA6B17Wy6wsJsFELUA0Hf2tnzObhZA1AJAvLi1t8VuFkDUAkD0qLG3HabSbhZA1AJANuxtB2NhNwsgagEgV/a2+bKbBRC1ADCcuLW3zYndLICoBYBhxpC9bWyl3SyAqAWAwbO3DWdhNwsgagGAT9nb9p/dLICoBQAuilt72z6qH9vNAohaAODyEWVv2w/lyW52x24WQNQCACuyt+1K/dpuFkDUAgDNsLdtz8lu9ps7drMAohYAaDhu7W3XyW4WQNQCAG3El71ts0q7WQBRCwC0zN722v84YDcLIGoBgI7Z267ObhZA1AIAfYtbe9vLsJsFELUAQI/Z256jtJsFELUAQBD2tr9Hvt0sgKgFAIIa8t7WbhZA1AIAucTtsPa2drMAuSgcAQDn2do8rp3CMNX1aGdUvdvbLSeLrn8v89k/bqb0z+lu+Z+vr/trzWY/z1J6t/DMGEDUAiBqyd+iqqvHf9uf7DoKAEQtAKKWsHG7XFYP/l5OSkcBQN/Y1AIAF+nV3hYATnNTC8C53NRylj7tbQHATS0AsJI+/f+2AOCmFoBzuanlEhbLlB7+/dWtF44CgC64qQUArmM6Tum5vS0AXXFTC8C53NSy+pfF6Enx7t1Te1sA2uKmFgBoTl1t29sC0CY3tQCcy00t12RvC8DauakFANbF3haAtXNTC8C53NTS7FeHvS0AzXNTCwC0w94WgDVwUwvAudzUskb2tgA0wk0tANAFe1sAGuGmFoBzuamlvS8Se1sArsZNLQDQPXtbAK7ITS0A53JTS0fsbQG4NDe1AEDf2NsCcGluagE4l5ta+vG1Ym8LwPluOAIAoNfqarsejW6mlB44DAA+5/kxAAAAohYAAABELQAAAIhaAAAARC0AAACIWgAAABC1AAAAIGoBAAAQtQAAACBqAQAAQNQCAAAgagEAAEDUAgAAgKgFAAAAUQsAAICoBQAAAFELAAAAohYAAABRCwAAAKIWAAAARC0AAACIWgAAAEQtAAAAiFoAAAAQtQAAAIhaAAAAELUAAAAgagEAAEDUAgAAIGoBAABA1AIAAICoBQAAQNQCAACAqAUAAABRCwAAAKIWAAAAUQsAAACiFgAAAEQtAAAAohYAAABELQAAAIhaAAAAELUAAACIWgAAABC1AAAAIGoBAAAQtQAAACBqAQAAQNQCAACAqAUAAEDUAgAAgKgFAAAAUQsAAACiFgAAAFELAAAAohYAAABELQAAAKIWAAAARC0AAACIWgAAABC1AAAAiFoAAAAQtQAAACBqAQAAELUAAAAgagEAAEDUAgAAgKgFAABA1AIAAICoBQAAAFELAACAqAUAAABRCwAAAKIWAAAARC0AAACiFgAAAEQtAAAAiFoAAABELQAAAIhaAAAAELUAAAAgagEAABC1AAAAIGoBAABA1AIAACBqAQAAQNQCAACAqAUAAABRCwAAgKgFAAAAUQsAAACiFgAAAFELAF+q08IhAACiFoCQ9vZv3S6K6nGqi7dOAwAQtQCEs/tyslNUyzt1qvacBgAgagGIF7blZPHjq8m8WFa3U0qvnQgAIGoBCBm3e69u3Snq6oG9LQAgagGIGbf7k117WwBA1AIQO27tbQEAUQtA6LC1twUARC0AOcStvS0AIGoBiB239rYAgKgFIHzc2tsCAKIWgNBha28LAIhaAHKIW3tbAEDUAhA7bu1tAQBRC0D4uLW3BQBELQChw9beFgAQtQDkELf2tgCAqAUgdtza2wIAohaA8HFrbwsAiFoAQoetvS0AIGoByCFu7W0BAFELQOy4tbcFAEQtAOHj1t4WABC1AIQOW3tbAEDUApBD3NrbAgCiFoDYcWtvCwCiFgDCx629LQCIWgAIHbaf7G3r0okAgKgFgJBxu/fqq7v2tgAgagEgbtx+srcVtwAgagEgYty+nOwUVXXX3hYARC0AxAxbe1sAELUAkEPc2tsCgKgFgNhxa28LAKIWAMLHrb0tAIhaAAgdtva2ACBqASCHuLW3BQBRCwCx49beFgBELQCEj1t7WwAQtQAQOmztbQFA1AJADnFrbwsAohYAYsetvS0AiFoACB+39rYAIGoBIHTY2tsCgKgFgBzi1t4WAEQtAMSOW3tbABC1ABA+bu1tAUDUAkDosLW3BQBRCwA5xK29LQCIWgCIHbf2tgAgagEgfNza2wKAqAWA0GFrbwsAohYAcohbe1sAELUAEDtu7W0BQNQCQPi4tbcFAFELAKHD1t4WAEQtAOQQt/a2ACBqASB23NrbAoCoBYDwcWtvCwCiFgBCh629LQCIWgDIIW7tbQFA1AJA7Li1twUAUQsA4ePW3hYAUQsAhA5be1sARC0AkEPc2tsCIGoBgNhxa28LgKgFAMLHrb0tAKIWAAgdtva2AIhaACCHuLW3BUDUAgCx49beFgBRCwCEj1t7WwBELQAQOmztbQEQtQBADnFrbwuAqAUAYsetvS0AohYACB+39rYAiFoAIHTY2tsCIGoBgBzi1t4WAFELAMSOW3tbAEQtABA+bu1tARC1AEDosLW3BUDUAgA5xK29LQCiFgCIHbf2tgCIWgAgfNza2wIgagGA0GFrbwuAqAUAcohbe1sARC0AEDtu7W0BELUAQPi4tbcFQNQCAKHD1t4WAFELAOQQt/a2AIhaACB23H7Y29bLh+IWAFELAASN2z8/sbcFQNQCAHHD9tO97QsnAoCoBQBCxu3eq6/u2dsCAAAQ3nzj/7fnG0c7TgIAAAAAAAAAAAAAAAAAAAAAAAAAAAAAAAAAAAAAAAAAAAAAAAAAAAAAAAAAAAAAAAAAAAAAAAAAAAAAAAAAAAAAAAAAAAAAAAAAAAAAAAAAAAAAAAAAAAAAAAAAAAAAAAAAAAAAAAAAAAAAAAAAAAAAAAAAAAAAAAAAAAAAAAAAAAAAAAAAAAAAAAAAAAAAAAAAAAAAAAAAAAAAAAAAAAAAAAAAAAAAAAAAAAAAAAAAAAAAAAAAAAAAAAAAAAAAAAAAAAAAAAAAAAAAAAAAAAAAAAAAAAAAAAAAgBb8C70HhvqxspEsAAAAAElFTkSuQmCC;" parent="38TpKfUnlk5KF1mlkOwW-20" vertex="1">
          <mxGeometry x="34.4024" y="42.48204545454544" width="101.42436712121211" height="76.09599242424243" as="geometry" />
        </mxCell>
        <mxCell id="38TpKfUnlk5KF1mlkOwW-7" value="" style="aspect=fixed;sketch=0;html=1;dashed=0;whitespace=wrap;fillColor=#2875E2;strokeColor=#ffffff;points=[[0.005,0.63,0],[0.1,0.2,0],[0.9,0.2,0],[0.5,0,0],[0.995,0.63,0],[0.72,0.99,0],[0.5,1,0],[0.28,0.99,0]];shape=mxgraph.kubernetes.icon2;prIcon=pod" parent="38TpKfUnlk5KF1mlkOwW-20" vertex="1">
          <mxGeometry x="5" y="4.5606060606060606" width="35.153151515151514" height="33.74848484848485" as="geometry" />
        </mxCell>
        <mxCell id="38TpKfUnlk5KF1mlkOwW-23" style="edgeStyle=orthogonalEdgeStyle;rounded=0;orthogonalLoop=1;jettySize=auto;html=1;exitX=0.5;exitY=1;exitDx=0;exitDy=0;entryX=0.5;entryY=0;entryDx=0;entryDy=0;" parent="38TpKfUnlk5KF1mlkOwW-6" source="TfanE9FAZFEMDZ-ole27-4" target="38TpKfUnlk5KF1mlkOwW-10" edge="1">
          <mxGeometry relative="1" as="geometry" />
        </mxCell>
        <mxCell id="38TpKfUnlk5KF1mlkOwW-24" value="MOUNTS" style="edgeLabel;html=1;align=center;verticalAlign=middle;resizable=0;points=[];" parent="38TpKfUnlk5KF1mlkOwW-23" vertex="1" connectable="0">
          <mxGeometry x="-0.0471" relative="1" as="geometry">
            <mxPoint as="offset" />
          </mxGeometry>
        </mxCell>
        <mxCell id="38TpKfUnlk5KF1mlkOwW-29" style="edgeStyle=orthogonalEdgeStyle;rounded=0;orthogonalLoop=1;jettySize=auto;html=1;exitX=0.5;exitY=0;exitDx=0;exitDy=0;entryX=0.5;entryY=1;entryDx=0;entryDy=0;" parent="38TpKfUnlk5KF1mlkOwW-6" source="TfanE9FAZFEMDZ-ole27-4" target="38TpKfUnlk5KF1mlkOwW-26" edge="1">
          <mxGeometry relative="1" as="geometry" />
        </mxCell>
        <mxCell id="38TpKfUnlk5KF1mlkOwW-30" value="MOUNTS" style="edgeLabel;html=1;align=center;verticalAlign=middle;resizable=0;points=[];" parent="38TpKfUnlk5KF1mlkOwW-29" vertex="1" connectable="0">
          <mxGeometry x="-0.0708" y="1" relative="1" as="geometry">
            <mxPoint as="offset" />
          </mxGeometry>
        </mxCell>
        <mxCell id="38TpKfUnlk5KF1mlkOwW-39" value="" style="group" parent="38TpKfUnlk5KF1mlkOwW-6" vertex="1" connectable="0">
          <mxGeometry x="121" y="467" width="185" height="78" as="geometry" />
        </mxCell>
        <mxCell id="38TpKfUnlk5KF1mlkOwW-40" value="" style="rounded=0;whiteSpace=wrap;html=1;fillStyle=auto;fillColor=#dae8fc;" parent="38TpKfUnlk5KF1mlkOwW-39" vertex="1">
          <mxGeometry width="185" height="78" as="geometry" />
        </mxCell>
        <mxCell id="38TpKfUnlk5KF1mlkOwW-41" value="External Secrets" style="shape=image;verticalLabelPosition=middle;labelBackgroundColor=none;verticalAlign=middle;aspect=fixed;imageAspect=0;image=data:image/png,iVBORw0KGgoAAAANSUhEUgAAARcAAAEXCAIAAAAIsZeDAAAxPklEQVR4nOzdd3wb57knesyg906w996bJFJUsbpkW5ZsySVxi+34xkk2uyd1k9y9u/cmn5wk56T6pCixYzuJJVu2ZMu2eqFEdZFiFXtvIEEARO/AzNyPCIemiCFFakgAJJ/vXxaAAR7S+HHmfectDHr+LhoAgAI01AUAsORBigCgClIEAFWQIgCoghQBQBWkCACqIEUAUAUpAoAqSBEAVEGKAKAKUgQAVZAiAKiCFAFAFaQIAKogRQBQBSkCgCpIEQBUMUJdAJgRHUX5XA6bzfL/0+fzWe1OH4aFui4wHaQoHHHZrOTYqLSEmKQYlUjA9z/odHv61KNdAyN9wxqzzR7qGsEXIEXhBUEQpVS8eU3h41vWri/JjZBJpj5rttmv17eeunq78lZD9+AInJfCBB1VpYW6BvA5OoomRKteenz7976yv7wgi8/lTHsBh8VKS4hZk5+pkIq1BtOozoATRIiKBV+AFIURlVz62tOPfO+l/XKJcJaXcTnsjMSYSIW0uWdAO24KYoGAHKQoXAh4nF3rV/3Pl58U/6shNAsmg6GQSRAa7dadDrfHG5QCwYygpzssIAiSGh/90t7t0xpCs5CLhVvLiioKcxa5NHB/kKKwwGWzclOTygqy5nVUYozq0Y2rOSzWotUF5gRSFBbEQn5eeiKHxZzXUQIeNys5Pj5KuWh1gTmBFIUFEZ+XkRj7AAdKRPyU+OhFqAjMA6QoLPC4nPioiAc4kMVkigS8RagIzAOkKCzgOO50ex7oQMLng3uvIQYpCgsOp1s9pn+AA11uz7jJuggVgXmAFIUFk83W0j0w36NwgtAZzd2D6sUpCswVpCgsmCz22pYuo8U2r6PMVntjR+/wA53EwAKCFIUFr8/X3j90/kb93A/BCaKzf/h41c3FrAvMCYwAChcOp9ticxRkJM9l+AJOEEMa3cETlR9fuI5heFAKBDOCFIULH4bpjWaj2ZoaHz17kPwReuujM28ePW21O4JYIyAHKQojLo93YGRMO26SioViIZ/LJhnaY3e6mjr6Dp6ofOPoab3RHIoywXSQovDi8ni7BkfudPXxuJyirJTAF7T3Df2/f3r3o3NX59sVARYP9C6EHZfbU9PceeTsZdJnhzS6k5erLXAhF04gRQBQBSkCgCpIEQBUQYoAoApSBABVkCIAqIIUAUAVpAgAqiBFAFAFKQKAKkgRAFRBigCgClIEAFWQIgCoghQBQBWkCACqIEUAUAUpAoAqSBEAVEGKAKAKUgQAVZAiAKiCFAFAFaQIAKogRQBQBSkCgCpGqAsAX0BRhM/lSEVCPpeTlRxP+hqpSFCYmaI3Wlxut95kCXqNgASkKJQYdLpEyFcppDERcqVMopCI5BKRUioW8nnpiTGkh6QnxPw/r31ZozPana4R3bjN4RobN6q1+jG9UWsweWGn5FBA6Pm7Ql3DisNkMGJU8szEuIToiJS46NhIRVKMKkopj5BJWMx5/F3DcNxicwyP6fvVmiGNvk+t6R0e7exXq7V6iw2Www8eSFHwMOh0lVxSkJGclhCTk5JQkJmcGK2SS0QL9f4ut6d3WNPU2dfRP9zU2dveOzSk0Tlc7oV6fzATSFEwcNmsjKS44uzU4szUNQUZqXExQj538T7OH6eG9p769p5bTe0d/cPj0IJaTJCixcXjsAsyktcWZq8tzF6VlxGtlAXz040WW21r162m9su1zQ3tPZClRQIpWixsJjMjKXZnRenmNQVr8rMW9eQzO7vT1dTZV3mr8VJNY21rFzSZFhykaOHR6WisSrGjonRrWdG28uIQ5mcqu9NV39Zz8kr1+Zv1dzr7oDdvAUGKFpiQz91Ymv/YQ2U71696gOs3H4aZrXazzWGx2e1OV+ALWCymTCQU8LgysYDJmPeNCqPFerm2+ei5q5W3GjR643wPB6QgRQuGTkfjIyP2bVu3f/v60px57DntcLn7hjUavWF4TD82btQazEaLzWSxWR3OwBdzWEzFxA2lCJlEKRXFqBRRCll8lFIhFc/x4zAc7xka/fj8tU8v3axr7YKTEnWQooXB5bBX56Y/vfOhfdsq5tJ5jeOE2WbvGlB3Dag7+oe7BtXqsfGBkTGd0ezx+ubyiXQUlQj58dGqWJU8JS46MykuLSEmPSEmam4nQLPNfqW2+Z1j5yqrG6ClRBGkaAGIBLxHNqx+ae/2iuIcNpM5+4vdHm/v8GhjR29ta3db72Bbz+DAqHYun8JiMuViIXPitiyO4zaH02S1+5+io6hMIsxOjs9JTSzMSC7ITMlKjuNx2LO/ocfra+nu/8enF45VXh/S6Ob844LpIEWUoAiilIn3bVv/6r6deelJs7/Y7fF2Dqiv1DZfq2+pa+vuGlDP9VNQJDFatfuhstT4aNZESnEct9gdGr1xVGcYHNX2q8dGdOP+OCll4tKc9PKCrNV5GXlpSQrpfU6Mg6O6905ePHTyYkv3wJx/bnAPSNGDQxEkOkL+1X07n3t0S2KMapZXTubnUk3TjYbWUb1hXh8UHxXxb8/tff6xLVKRcNrb+of/tPcN1TR3NrT3dvQPe32+iU4OXkF60obSvO1ri4uz02Y/L+mM5k8qrx/44GRDe8+8CgN+dFQ1j3YwmOSP0GtPPfK1px6JjpDP9DIMw4Y0uo8vXH/74zPvnbxU09xhI+szmAWXzdpaVvSjV5+ZFiH/kCKZWJgcG1WUlVKak5YSFyUVCRxut/5u48o7qNE1dvR2DqitdodQwJOKBHSUfCIMn8tJjImUCPmDozrouHsAkKIHMRmhV/fvmqUvweZwVt1ueuvjs+98cu5mY9t88+Onkkue2FqxaXXBLK+Z6GkQZCbHFWelRivlXh+mNZjcHq/b6+1XjzW0945qDThOqORSHpf8pMTlsOOjIsQQpAcCKZq3uUQIJwiN3nj4dNWfDx8/eaXGYLY+8MdJhIINpXmrcjPmUpiQz8tIis1JSWAxGCO6cfNE94Pd6eroH27tGbQ5nTKRSCWXkB7uDxKckR4ApGjeFDLxt768Z5YIeX2+9r6hv3xw4m8fnWnuHsBwnNLnEbRIhWxreTGdPqeJyQw6PUopy0lN4HM5WoNpbNzov0ekNZiauwc04wYhnxcfpSS9upsM0hAEaT4gRfMjFvC/9PBD337hiZki5HC5r9W1/Pn94++dvKQ1mql/ohfDcJxIiYuOi1TOMUj+3oWMxFiRgDc4qvMHiUajOV3u7sGRnqERHocTH6XksFiBB/qDxKDTW7oH4D7SHEGK5oHLZm1aU/jjV5+Ji1SSvsDhcl+qbvzPt4+cuVbrdHsW5EMJgrDYHIMandfrw3HC58PMVrvH6+VzOfeplsNOiFaxWczWngHzv+4s+TBMPTbeMTAs5HJT4qNmClKkQup0eZq7+90e74L8FMsbpGiuGAx6fnrS//ral0tmGN3jj9Cv/n606vYdqldx9/L6fMMaXUNHT1vv0O2Wrqrbd240tLX2DOoMZiaDIeRzZ+p843LYMRFyr9fX1NU3mQeCIMZNll61RsjjpsSRB0ks5EdHyLUGU3vfEI4TC/izLEuQojlBECQ+Uvndr+zbu3kt6QvuRqim8VfvHL1ce2cxCpgYMeToHhxp7Oht7Oi93dJ5vaH1Tldf18Cw1mAWCXgzXWEK+TyVXDKk0bX1Dk4+OJcgySRCmUjYOaCGYQ33BSmaE7GA/9SO9d/80mMssgE+n0fo7SOXa5uDVpLXh42Nm+50DTR09IyNm3gcdmwkeZ+BkM/jcdjN3f26Ke00f5D61Bo+dyJI7OlBQhFEJhaymIzWnkGjxbb4P9ASBim6PxaTsSo348evPhNL1hzy+nyN7b0/PXAomBGaRBCE1e7s7B/uHhxhMugJ0RGBeWAw6BKhwOZw3Wxsx6dcavqD1K/WSMXC7JT4wARyWCyFRGwwW+rauuG6bhaQovtTKaQ/fPmpzWWFgU/hBNGvHvvFm4dPXqkJRWmf8/qw4TF9e9+QSMDPTU8MzAN3YgRQQ3vPZH+dnz9IGr0hPioiNT468J0FfC6HxYLrutlBiu6Dx2HvqCj5zotPkF7L6Y2WAx+ceOfY2YXtTngABEEYLDa1Vh+rUqQnxk57FkUQLodtMFuv1bcEHqg3WSw2R2ZynEouDTxQJhZ6fdjtli4nLCc0A0jRbBAESYpR/e+vP5eeQLLGotXu/OTi9d/+42OzzR6K6qa7GySz1Wp3FGWlBHY2cDlsh9N9pa7Zap8+EMmHYXqjGUXRoszUwCFCHBaLxWL2DWs6+ocX+SdYqiBFsxHyuXs2lX91387A251eH1bf3v2TAwe7B0dCVB0JDMMtNoeAx1mTlzmtZhRBnG53a88AacEOl1tvNMslorw0kgtCIY/rxbDG9l4z3IclA6vdzwhBkJgI+bOPbiZdr3TcZHnv5KX6trCbSjBmMF2+3dw/Mhb4lFImmWn5bxqN1jus+fDs5abO/sCnBDzuhpK8LWVFC13sMgEpmpGAx3loVUFJNsm52uFyX6tv+fjC9VDUdR84jncPqi9VNwY+JZcISbsQ/DAcb2jrOXruyuRAh6nioyIqinMUC7eS63ICKZqRXCJ6juxEhBPEsEb390/OaeY52S5oRnSG2y1dgY9zWKzoiWX1ZzpQb7Kcu153tW56D4S/u78gI3ltUfZCF7scQIrIcdms0uy0YrITkc3uPH+zISR3h+bI7fGO6Ma1BlPgUzwOZ/bzSeeA+vjlWzqycbRp8TEbS/Pvu5zDCgQpIicRCfZsXkvaItIaTO8ev/BgU+6CZqK3gGQ9YTodZc26ip3d6brV1E56OhLwOAUZyblpiQta6XIAKSJBR9GYCMVDq/MDn3K63LdbusJ/fQK70zVmIJkgxGWzxEL+7Mf2DI1euFlP2jpKS4guK8hcuDKXCUgRCR6HXZqTFqUgWdhNazAfPFE5xyXjQsjhJD8X+TDM7b3PZAf/WsR1rSQtK6VUkpOSIBbcJ4crDaSIhFjI37VuVeDjXh/WMzRyJYxbRJNMVlv3gHpa2p1uT/fgyFxucPUMjVyubfYvJzQVi8lIT4jNSUtY6HqXNkjRdAiCyCXC8sKswKfMVtv5m/Vh3iLy0xst52/WX29onQySx+trbO/5pPLGXPZfMVpsjZ29pMtNJsdFlpJ1uqxksK/rdGwWMz0hViaevmwVjUYzmK3Hq26Foqh58/p89e09v3jz8OY1hRmJsSgd7R4YuVjTQNptEAjD8d4hTUNbT2rc9PtLSqkkIzGWx2HDLn2TIEXT8bmc0pz0wMe9PmxIowur8T6zs9gcldWN9e098ZFKFEXVWv28FiQZHNXebunas7l82s4ULCYjNlIZF6mEYXWTIEXT8bns0lyy20QOZ3VzZ/j3K0yF4/i4yfJgW+hZ7I6O/uERnSEhKmLaU9FKWXpiLKRoErSLpuOy2XlpJCtuW+2OGw1toagoZDR6Q0cfSVQiZJKkWVdUXmkgRfdgMRmJMZGkjSKbw1VL1vm7jOmMlt5hTeDjMokoVkW+CtLKBCm6B4fFIp1K5PX5RrTj0yaKLns6g6l3iKQdyGWzVArJfe/erhyQonswmYwYsqXrnW5P58CKawbYnS61Vm8iG8Qg4HJlAavvr1iQonswGXTSDSDcHi/pjJ1lz2xzkA5dl4oFc9y0byWAFN2DyWCQpsjl9vSRtRCWPZPVTrrbEp/LkYoEoagoHEGK7kFHUQGPZGN9r8+3Mld/d7k9toB1Gvxr6jPJBryvTJCie9DpqFjAC3ycIIildadooThcbhPZko5CPg/mvU6CFN1jpis6t8e3Mhdkszuc42aSFHHZLNKT9soEKboHiqKkezF4fT7SqaPLHoYTPgwLdRXhDlIEAFWQonu4PZ7ADfQxDA+TdRuDz+F0mSwk22nanS6TFZbA/xyk6B5Giy1wfSyDxfrZpaUxIWLB2Z2ulp6BznsHnvowrKN/OAzX4gsVWBv1Hj4M0xnNMrEwOS6aQafjBDE2bjp4vPKtj85Y7StxWVCCIMxWh9vjTYpR+Vctdnu8t+60//XDkzeb2qHJ5IfQ83eFuobwwmIyMhJjN5Tmp8ZFuTzeps7em41tfeqVOHBhkkourSjKzk1LFPJ4WoOpprnjdkvXkpjzGxyQInJMBl0pk/h82MrsmgtER1E+j8PjsG0OF+RnGkgRAFQt20EcdDqaHBu1rbw4KTaSS7ZvKQgml8fTMzRytb6lvXc4cGmhpW55pohOR7OS43/86jPlBVkquZR0iVMQTB6vT6M3bCzNf+vjs2ev14a6nAW2PL9eQh731X279s6wRDAIPhaTER8VoZRJ7E537/DoEloEZi6W5/0iPo/75I71EKFww2WzCjOTSZe1WNKWZ4oYKBox8/4iIIQkQoFCutwGgy/PFIGwRaejgTteLnXL7ecBIPggRQBQtbLa3zqD6X/91z9CXcWKIBUJdlSUbFpdEOpCgmFlpchid/zto9OhrmJFiIlQxEUqV0iK4IoOAKogRQBQBSkCgCpIEQBUQYoAoApSBABVkCIAqIIUAUAVpAgAqiBFAFAFKQKAKkgRAFRBigCgClIEAFWQIgCoghQBQBWkCACqIEUAUAUpAoAqSBEAVEGKAKBqaa8BRKejyTGR+RnJOI5r9MaGjh6nyxPqosBcMRn05NiojMRYJpMxpNG1dA/Yna5QF/UglnCKOGzWkzvWP/folkiFdGL7UfutpvbfH/xEPaYPdWng/kQC3u6Na778yOYopYxOR81W+9lrtQdPXOxTa0Jd2rwt1RQx6PSS7LQfffWZ9IQY/yMEQaQnxvow/Me/fzvU1YH7YDLoO9aWfPcr+3NSEyaX7U6KiXS6PQc+OLHkzkhLtV3EYbP2bl47GSEajYYgiFwiemxTWaxKEdLSwP0pZZKKopypEaLRaFFK2cbSvIzE2JCW9iCWaoqYDEZBZvK0B1EEkYqEKrk0REWBuYpUSBOiIwI3jxAJ+RKRIERFPbilmiIEoXHZbNLHmYylepm6crBZTC6H5H/fErVUUwRA+IAUAUAVXPx8gUGnx0TI89OTuRzY2f8+nG7P4Ki2d2jU6nCGupbQgxTR/N0SkUrZC7u3bF5TqJRJmAx6qCsKdz4fZrE5alu73j1+oba1O9TlhBik6C6ZWPjtFx5/ZudDUUpZqGtZSrJT46Vi4esHj9Wt7CBBu4jGZDBy0xKfe3QLRGi+JELBjoqSXetWsZgr+s8xpIjG57LXl+QppeJQF7IkycWi7JT4CNmKvkcHKaIx6HSlDCL0gFAU4bLZXPaK7o9Z0Sfimbg93ubu/u7BkVAXEo6iI+SFGclCPi/UhYQRSBEJu9N18krNeycvhbqQcPTQqvy4SCWkaCpIEQkfho2NGzv7h0NdSDhKS4jxeH2hriK8hHuKEAQR8rjxURH+f2I4PjAy5nC5Q10XCTaLGSmXWuxOo8U6rwPpKCoS8NgspkZvnO+Hivg8hVQ8otW7PN55HchhsUQCnsvjsdgc8/3QIGAyGBEysVQk9P/TZLVpDaawTW84pghFkEiFbE1+Zm5aQnZKgkTIF/I+v37ACbxPrXnzyKmWnsFQl3kPpUz88uM7dlSUjOoM7xw7d+5G3RwPFAl4j6xf/eLebV6v79TVmj+9f3zuH5qbmvi9l/bHqhQ3GtveOHJqcFQ7xwNT4qJe3LOtvCCrf2Ts4PHKSzVNc//QIEiMVj25Y/3mNYWT/9/dXq/Zah/UaOtau281tfepNWGVqPBKER1FCzJSnt65oSQnTSWXyiVCmUjIuHckQVFWaqxK+d3//GvoyiQRpZB980u7o5Vyg9napx6be4rEAv664pytZUU+DPNh2NxTJOTzKopznthawWWzJEL+9YbWuacoJkKxc11pcVbq8Ji+pXsgrFIUHSFfX5z7yhM7IhVSdMrUCRzHbQ7XrnWrxvTG1t6Bs9frr9Y1aw2mkBb7uXBJkT8/z+zauL4kNzU+WjrzJBMum1WSnbp/27rgFngfbBYzWim/+wtl0MWCebS86XSUx+X4O9x5HM7cD2QxGTKRgDcxv4DLZgv53Lkfy2DQ/fNKmAxGuM1QKMpMWV+SGx0hn/Y4OnHdKxLwUuKi8jOS1xXnNXb0HD13rfJWg8lqC1Gxnwt9ihCEJhEKvvzIpud3b0mJmy0/k5gMRlFWalCqA8GWGh+dmRQ3+2sEPE5mUmxClLIwM2VtYdbbx862dA8Eq0ASIU4RiiDpibHfefGJrWVFk10I94UgCCekt/nYLGZcpJJG0LqHZrunREdRiUiglIrHxk3+LgcWgxEhl/C5XK3BaLTM9hdUwOPGRyoNFutkl4OQz41VKQ1m69j4bJ0QbBZTJZMyGPTJLgc+lxMdIfdh2Ih23D1zJwSDTldIRUIeb8xgDGGXg9vjdbs9vDmcIbkcdkZirEIqTo6NOvDBiYvVjV5faBpLoUwRiiAZSXG/++Frq/MyhLx5XJB4vN4rtXe2lBUvZnUzEvK5ezevfXX/LhwneoZHbza2Vd/pmDrxFkXRSIW0PD+rvDCrODuNyWDUtnT+9C/vWWz2/Iykn37rRSGPZ7RY69q6L1Y3mW32qW8uFvLL87PKCrKKslIUElGfeuzNj05fqm5MjY/+1rN7SrPTLHZHa8/g1brmzn711APZLGZWUlxFce664pzEaJXT5f74wrW/HjklF4v2b1/33O4tBE4MarRX61tuNrZxWMzJAxl0emK0qqwgc21hdm5qIoIgF241/OWDEzqjOSi/zun61JpYlWJ1XsYcXy8XC7eVF0lFAoVUdPJyTUiu7kKWoskIbSzJY8xnJoLH6z17ve7DM1dClSK5WPT0zo1rC7MJgijJSXuoNE9r+OILx2ExN60uyEqKi5BLVHKJVCQkCEIhFVVWN16vb91Ymr95dSGdjmIYvio3ffdDZVa7M1Lx+SC0vPTEf/78BwlRERFyiUwkpNPRxJjI1t7BS9WN8VERzz6ySSIUYDi+KjdjR0WJzmiWCD6/+o1USr/5zGO+J7FIhVQlk3A5bJ8Pszldxy7eiFHK92wuLy/IotFoxZ7UtYXZY+MmgiAiZBL/GW//tnVbywojZBKVXCoS8HCCQOnotfqWi9WNIfn1NrT3uNyetIToyW7u++Jy2KvzMmQSIR1F3z9VFfwzUmhShExMRvj9j76+oSSXQb9PhHCc0BqMOqMFx/FRvaGutfvQiYsh7JxBEMRfM4IgXDYrIVqVEK2afJbJYCTHRk1bnIhBp9NRlJj4bzod9XcqKKRihVRMEASOE/5XKqXiHWtL/C/wQ1HEP9mJQUc5LNbnV4lCvkTIz0iMnTxQxOcVZaZMPZCG3D0logiCoMjkIiEcFis+KiI+KgIn7pr4/rEyk+OmriKCIgibyWQzmYv4G5yVzmi+Vt/Srx7btrY4JS6KxWRKhAKVXDL7sHH/qfi1px812+ynrtwOcpBCkyIWi/nL77wye4QwDG/o6K28WX+nu39oVOf0eGgE4XC5Dea7TQWZeK5/qBacRm/4+Zvv9w6Plhdm5aUlTXt2IjOI/78xHNcazNfqmk9duX2tvsVqd5y4XC0RCTavLshLT/KP4JzIFTJ57OR/m6z26jsd1xtaPz5/lUajNXcN/OA3f9tYml9RlO0/d810oNvj7R0erbzVcPT8NYPZane6fvfPj9Xa8bKCrMlsowhCQ5Cp/+EfsTGs0d9obDt99XZNS+fi/yLJ4TgxOKo7cvbK1bpmoYCHoiibyVRIRNkp8VvLi0tz0vhc8p5MFEULM5Jfe+oRo8V2pbY5mDWHIEUMOv3ZRzfv27ZupgjhON7RP/zm0dNX6lpGdeNGi83lDqN1g51uz/WGtn71WKRSmp4Qu6Ekb3tFScy9PbMGs/X0tdv1rd01LV3aceOo3mi1322vdw2o/3Dok6PnrkYrZfkZyTsrSiqKcu55c5e7sbPv1OXq2rbuIY1Ob7ToTXcvF8fGjQePV56/WR8fqcxOid9SVrRlTeHULhYfhnUPjnx26dadrr7uwZFRnWFs3Ojx+jxe36Wapo7+4SilPDs5vrwwq7wgK23KqdL/5/9KbXPlrYbGzj6dwaQdN1nsIR7QYHU4rYNfzEVnMOjX6ltOXK4uzEzZv339xtI80iyxWcyKopzHHirrHRpVa8eDVm2wU4QgSKxK8aOvPi2YoTvB4/X987MLbx493TWgDvl9gJl4fb6BUe2gRtfcNaAzmtcV50x7gcfrbWzveeeTc9M64nwYptEbNXpjUyfaPzKWmRQ7LUUEjTas0f3j0/MjegOG4ZOPYzhuttnNNnvP4EhLzwCXw965rnTqgXQUHTdZP6m80djR47z3j47T7ekd1vSpxxo7ekw229rC7GnV2hzOa/Uth05cDHl4ZuLzYXqTRW+y9AyNNnb0Pr5l7Zcf2ZwcGxn4Sj6X88TWda09g+8erwzadV2w5xcx6OhLj29PiiH5+f1XI79+58jP33y/prkjbCM0iSAIPpezsTQvZmI1VhzHJ7++UpFwS1mRTCya6VgOi5WfnrxpdYH/n9i/juWwmNkp8WuLsqdG6B4ILSEqYvvaYn9jxofh/hM1giAZibGPblzjb/CQViuXiNcWZvvXjvVh2GSvd6RcujovI0IuofobWXx2p+tOV/+BD078/I33Z1rvIS5Ssb2iJDMpeGusBjVFCIJERyheeWIH6bN3I/T3o398/7N+9Vgwq3pgAh5nW3nx849t9d/cGBrT/+LNw1W3m/yXFmX5Wd9+4QnS6Wt0FM1Oif9vEyOG/Jd/75+6dODwcf/FfUpc9Et7txfPcFs5LlL57KObV+dl+iN0rb7lp3855L+nJJcIH9tU9vjWCtIDJUL+w+tXPb1zo/86sLVn8PWDn1yrb/H3cW1eXfjinm1iAX+hf0kLz78/yEfnr/358Gd3uvoDX4Ci6Pri3LWF2UFb3zOoKaLT0ad3bohUkCxv4PVhR89f/dN7nz3AuOaQQFE0LT7mu1/ZFzmxoLHRYjt67spfj5z83T+P+a/IhXzuoxtXv7r/4cBj46KU33hmd1FWiv8Ktra16z/+9uHh01Xnb9b7E7gqL/Or+3YGDuMQ8Xlb1hTu377eH872vqHf/ePj905eevd4pcvtQRAkJS7qhce2rpnI2FQMOn1VbvorT+zwd3Br9IZjF66/fvDYWx+fHdTo7iZQKtq/bd2TO9Yv5u9sIZlt9k8qb3x45vLYOElvbYRMXJqbHhepDE4xQU0RA6WTjn8jCGJYo/3V20c0s96VDyuRCuk3vrQ7JyXBfxa91dT+h0Of6gzm6w2tf/3wpHPiOx2pkD69c8Oq3PSpB4oEvG1lxbsfKmNN9Cb3DI389h8ftfcPtXQP/Pnw8d5hzURauNvXlnzp4U1TD6TT0eLs1G89u9e/RMSo3nDk7OWLNQ0j2vGj565W3mr0J7C8IOulx7dLhPecVdISop/fvdVfrcvtuVrXcvBE5ajOcO5G3fsnL7k9XhRBEmMiH99SUZKdFqxfIVVGi+3I2Stnr9cGju9GUbQ8P6swYCX3RRK8FN39SxkflT3xP3Iaj9f31kdnW8NsssPsZCLhjopS/y2a4TH96wePDY7e/aNustg+On/teNUt/xkgUiGb1iEm4vMKMpP933KN3njo5KUrdS0YdrdddLWu5c2jpz5PoFJaln/PKYXDYqXGR2clx9FoNIfTdaW2+dCJizaHy4dhzV39bx8729435L+RmhofrZTe08hRSCU5qQnMiVsuLd0Df/vojP+yeUxv/PDM5c8u3fTvhpIQHZGZfJ8xbGGld1hzvOpWWy/JNycpLjI1Pjo4F3XBSxEdRbeWFwWOfyMImsFie+vYWR+GBa0Y6gwW66krNU6XW6M3/OHQp1frWvyPYzjeMzR64PDx6jsdLrenubv/ZmPb1AMn7mbcGdGOm232E5dvvf3xGee/Jh0aLbZjlTcOn6rCMLx3SHNh4gJvktvjbe0drL7T7sPwho6+Ax+cGBj5fCqE0+2uut3058PHNXqjdtx0ta5lRHdPP2+fWnP+Zr3L423rHfrj+59db2jFcNxfbWvv4HunLjV39bvcnva+oRaylkbY8mFY9Z2OhvaewKfYTGZSTOTkuJBFFbyebhRFVuWSDI7CcOxaXfPsIyzDkM5g+vkb7x+c6E7tHFBPnX7r8Xqrmztf+8nrEpFAbzAP3Dvtx+Fyn7lWNzDyMwaDrtaOT20H4jjep9b87K/vvXv8gtXunLarnA/DGtt7v/HTP8glIoPZ2jmg9ifBz2ixHT5V5V9dcUijm7aRlkZ3N+onLlfbHa6eoZGpz7o93kvVTS+P/kbA42oNpqXStTNpVGdo7OjVjpsC+xhjVIpIhXRoouG3qIKXIoSGRJLtLOTzYScuVwetjIXi9WH9I2P9I+TfOafL3dTZR/oUQRAmq+1mUzv523p9fWrNTLsy+vt5Z3pb/x0V0md9GDak0c30fTLb7HVtS3VxUx+GdQ2ODIxqA1OUGK2KUSlqmhd9HEYwUoQgSGpcVHF2elFmSuCzGI639Q4FoQywXOmN5nGyPx9iAS9aKedzOYu9xeUipgih0aKU8u0VJTvWFifHRUlFArGQ5HYEi8l4ae92sYB34VbD4hUzLxw2qyw/KzzXSAm5wozkeU3mXTwsJqMwM2X3Q2sqCnNyUkl6rZQy8f94bu/WssKL1Y3Hq271LdrF6mKlSMTn7tu+/tV9uyIVUpVcymbNOEaYQac/tXPDhpLc2tauAx+cmOlSJ5j4XM7D61etL84NdSHhiMthzX3OwuIpzEx59tHNG0vzEqIixEI+6ZhMFpOZEhcVF6kozUnfs7n82IUbH1+4thjj6xY+RQiNlpYY++///cXi7LS5TF9FEEQqEkhFgoQYVW5a4rvHK984ciq0u0zTUVQmFoZw2DiYhUws3P1Q2fO7txTcPSvyURSZ/fUsJjM6Qh4hl6QlxK4tyn7jyKmrdS0LO8RugVOEIMiudaXff/mp1bnps5x/SPE47IKMZKVUnBYf/YPf/C1oQXK43XWtXcH5rOXH68O0BpPOGKTpXjKx8MU927725MPxURHz2qjCv8XbIxtWRyvlv/n70VNXF3IO0kLeL0IQZH1x7q+//3+VF2TON0KT7xAdIX9q58b/+M4rM00jWXAul+dGQ9vkDR8wL229g+dv1lvs89tRz+5wWee/tIM/Qt94ZndybNSD7fXC53JW56V//+Und60rXcAbsguZorT46F9+55W0hJj7Tl+dBYIgEiH/yR0b/vfXn53lZV6vr/pOx7QHCYIwWx39I+TdxDPBCaJPrfm/X3/77PXaByp5hfL6sNrWrtffPXbuRh2OzzACfQajOgPp6nkms420t80/JuNLDz/0zWd2J0RF3PcqbhYsJrMkO+0HLz+5eU3BA7/JNAsWRwRBfvqtF/0jLKm/lVQk+PLDmxrae2Zact7p9nx4pmrPprLEmC9ma1vtzr8eOakzmmMjFPP6RM/dTHZ+7z/fKM6+mJuaqJDOOKMB+JltjpbugcaOnu6hUbPVPt/DDRbr1fqWTWsK89O/mCw8Nm66Wt/SNaAmPWRbedErT+yMpxYhPxaTUZyd9pW928bGjQ3tvRTfbcFShCDIS3u37VxXOstZyGJzXK1vaWzv0Yyb6ChSmJWyrignOTZqpjdUySX/8+WnKm82jJEtseDDsMbOvm/+7A9fe+rh8vwsiUhQ09z14Zmq905emnFmzqy8Pl9b31D/yNi5G/VsVuiX6QtzXh9mszvtLvd8z0J+GIZXVjdiOP78o1s2lOZx2KzGjt6DJy4eu3Cd9AZDVnL83i0VmUlxM0XI4/V1Dagb2nu6BkeMFlu0UpadEj+xjC7531MWk7FjbWlDe2+/esw0/78C0yzM10XI4377hX0ztWQwDH/7k7MfnKoa1OgsNrvb46MhtGOVN+QSYWZi3PdffnLqH6RJEzNtor6yd/sv3/qA9G2dLvel6qbuwRGpSMBgMMxW26jOSGVuHzGxrgPcJgoOs9V+/kZ9c1e/TCyio4jF7hjRGWY6ra0vyd1aVjRTW6i5u/+fn164VNOkN5rtTpfXh7FZzInl+xT7t2/Yt63CPx9kGpGAt3Nd6c3Gdv+UMCoWJkWPblyTlhBN+pTJav+3Xxy4dLtRozP4ppwlzFb74Ki2vW+4c0D9s//+la3lRYHHstmsF/Zs/cN7n87UX+f2enuGRhfkRwDB53C5e4c1/skgs0iNiy4vyCLdMtTj9Z2/UX/gwxM3G9tMFhs+ZZ6v1mAaGNF2D460dPe/9tQjuWmJgYeXZKetyk2/3dJJsUN4AXoXEAR5Yc9W0ms5H4b98Ld/++jC1WGN3kd2oeV0uevbu7/36zfOky0PjyJItFK+fW0J9SLB0pWZHJebmkB6LXe9ofWP73968VaDwWzFA6bK+zBMrR1/79SlAx+c6CDbjYrHYa/KTU+OI29WzN0CpChKIV07sWjgNDhOfHDm8genLzucs10j4TjR1jP4kwOHSId1s5iMycUJwArEYjLy0hIzk+MDn+oaUB86cfFKbbNz1iWizFb74dNVJy7fIj3hFGQkp8aRX0bN3QKkKCc1kUfWIsJw7JdvHp7LsjIYjjd29B4+fTnwKSaDHrhmDVg5FBJxXKSSdPmKq3Ut527UzaUda7TYzlytbSTrjouPiqA+B2kBUlRANi+XIIgrdc3tc97U0en2vPvZhcDHURSNUsqCdgcWhBuVXEK6UMe42Xqnq2/aZMRZ1Lf3tPWRTIllMRmJMSolWffD3C1AikiX9ycIoqa5c+6dzjiO96vHSC/q2EzGtEnXYOXg8zgCHsnf0O4BdUf/8Ny/YCarra13iHRhag6L9WAjISZRTRGC0Ei/4gSNpiVbnGUWHp/Pv3RB4GfMZR8OsCyhCELar+B0e2ZvDk2D44TT7VmkfSwpn4sImlqrJ3mYINr75rdHN0EQBrJ9hQmCsDlCOcQbhCGb3Wmb5+A9q91hX5wvEtUUETTatbrWwMetdmdT5/zGVvgw7MrtO9MexHFiVDfeNUg+KgQse12DI9N2avLfJmrtHewdnt+twjtd/YFfJIvN0dE/rKO2BckCtIuqapoOn66a+giG4z/588H5bo7i8foOnbh49voXN44IghgzGH/8+3ecMJ5gpdIaTEfOXqm6d//m6/UtZ67dnu+Gf539w6ev3u6bcpPX7fEePlNFuqLdvCzA2AWL3fHD375VVXPnkY2rIxWyzv6hw6eqrta3zHc8G0EQw1r9v/3ywPOPbq4ozuGy2W29A4dOXPKvggtWJgzDbzS1/58//nPP5vLi7DSP13v59p1TV2o6BtSBt1ln5/Z4PzhzuXdYs2v9qsKMZIfLff5m/fGqW9SXPVqYEUBDGt17py6evVHLYjIdLpd23Ozxzrh/6CxwnOgaUP/+4CfvfHKejiJ2l1tnMC1SixAsFU6Xu7q5s3NALeRzJ1ZQsptt9gcbc2wwW6tuNzV19Ar4XAzDjRab1e7AHmhA7VQLNnjZanda59naI0UQhN5o1odoU1EQnjxer9ZgWpANFN0er2bcSFvQ9Q+DvfMKAMsPpAgAqiBFAFAFKQKAKkgRAFRBigCgClIEAFWQIgCoghQBQBWkCACqIEUAUAUpWp4YDLqQzyVd9AMsOFhKdxmKj4p4ae/2KKXs1+8chQmOQQApWlakIsGu9ateeWJnfnpSY0cvk9qiHGCO4Le8TEzsRZv59WcerSjMkUuETAYDRajurQDmCFK05DHo9PTEmJef2LFv6zqFVAxtoeBbWSmKi4xoPvaXUFcxGx+GDYxoD52oJF0pNlCUQvbc7s3PP7Y1VqUQ8e/Z+rs0N/3Y6//nwSYdU8eg0+WSlbIN1MpKEYvJyEyKC3UVsyEIWlpCTHyUksvhvHPs7CyvlAgF29cWv7Bn2+rcdIlIEHj9xuOwk2MjF7leQFtxKQp/CEJjM5lZyfFP7dhw4Wb9kIZkmUsOm1WSnfbq/l1by4qkIsGDbaELFhCkKBwx6PRYlSI3NTEwRYnRqteefmTPpvIYlQKWjA0TcNc1TBEEgeFY4ON2l3vcZJWKBEs0Qh6v1+0JTVNt8SzPFLm93saOBdj1NoTMVnt771Dg4waT5Y0jp5763r+/f6pqKS52OTCi7ZzzTiJLBR1VpYW6hoXnw3Cjxbp9bQnFvQBCZUij+8uRk5dqmoiAhQsJgnB5PCPa8ev1LTXNnUqpOClmyXQhGMzWw6erjp67Srqx4tK1PFOE4fjAiPZ2S6dEyBcJeAIeN9QVzYkPw8YM5gs3G3711ofHKm+4Zt4TAccJm9PZpx6rqmnqHFCnxcfIJcLgFjs/BrP1Sl3zfx365PDpKup7eocbhJ6/K9Q1LAqERmOxmBKhgMtm0cn2nA1LhA/DnW63xeaYJUJTIRPb0mQmxT37yKbndm+Wib+4RVPT3Pn//endrsGRxSx4rnAcc7o9VrvT4XIHnmCXuiV5wTMXxMQqmKTbii0nBEHYna6Gjp7e4dHjl6v/25ce21ZezOWw/AvzDmp0PUNhkaLlbdmmaEXxLzl9pa65vW9oXVHO/3hu75r8zFAXtYIsz3bRyoTjuM3h7BkavVTTNDiqRRDkVlO7DlY8X3zLtl20kqEowuNwOCymxe6AHTeCAK7oliEcJ2wOp82xAFt4gLlYnnddAQgmSBEAVEGKAKAKUgQAVZAiAKiCFAFAFaQIAKogRQBQBSkCgCpIEQBUQYoAoApSBABVkCIAqIIUAUAVpAgAqiBFAFAFKQKAKkgRAFRBigCgClIEAFWQIgCoghQBQBWkCACqIEUAUAUpAoAqSBEAVEGKAKAKUgQAVZAiAKiCFAFAFaQIAKogRQBQBSkCgCpIEQBUQYoAoApSBABV/38AAAD//3z1ta+Fw+cbAAAAAElFTkSuQmCC;fontStyle=1;labelPosition=right;align=left;" parent="38TpKfUnlk5KF1mlkOwW-39" vertex="1">
          <mxGeometry x="19" y="20.03" width="37.94" height="37.94" as="geometry" />
        </mxCell>
        <mxCell id="38TpKfUnlk5KF1mlkOwW-37" style="edgeStyle=orthogonalEdgeStyle;rounded=0;orthogonalLoop=1;jettySize=auto;html=1;exitX=0.25;exitY=0;exitDx=0;exitDy=0;entryX=1;entryY=0.5;entryDx=0;entryDy=0;" parent="38TpKfUnlk5KF1mlkOwW-6" source="38TpKfUnlk5KF1mlkOwW-33" target="38TpKfUnlk5KF1mlkOwW-26" edge="1">
          <mxGeometry relative="1" as="geometry" />
        </mxCell>
        <mxCell id="38TpKfUnlk5KF1mlkOwW-38" value="GENERATES" style="edgeLabel;html=1;align=center;verticalAlign=middle;resizable=0;points=[];" parent="38TpKfUnlk5KF1mlkOwW-37" vertex="1" connectable="0">
          <mxGeometry x="0.0364" y="1" relative="1" as="geometry">
            <mxPoint x="-60" y="-53" as="offset" />
          </mxGeometry>
        </mxCell>
        <mxCell id="38TpKfUnlk5KF1mlkOwW-27" value="" style="group" parent="38TpKfUnlk5KF1mlkOwW-6" vertex="1" connectable="0">
          <mxGeometry x="111" y="15.170000000000002" width="120" height="75.27999999999997" as="geometry" />
        </mxCell>
        <mxCell id="38TpKfUnlk5KF1mlkOwW-26" value="" style="rounded=0;whiteSpace=wrap;html=1;fillStyle=auto;fillColor=#dae8fc;" parent="38TpKfUnlk5KF1mlkOwW-27" vertex="1">
          <mxGeometry width="120" height="75.28" as="geometry" />
        </mxCell>
        <mxCell id="38TpKfUnlk5KF1mlkOwW-25" value="Secrets" style="aspect=fixed;sketch=0;html=1;dashed=0;whitespace=wrap;fillColor=#2875E2;strokeColor=#ffffff;points=[[0.005,0.63,0],[0.1,0.2,0],[0.9,0.2,0],[0.5,0,0],[0.995,0.63,0],[0.72,0.99,0],[0.5,1,0],[0.28,0.99,0]];shape=mxgraph.kubernetes.icon2;prIcon=secret;labelPosition=right;verticalLabelPosition=middle;align=left;verticalAlign=middle;fontStyle=1" parent="38TpKfUnlk5KF1mlkOwW-27" vertex="1">
          <mxGeometry x="19" y="19.46" width="37.88" height="36.36" as="geometry" />
        </mxCell>
        <mxCell id="jhBIs1zk1QNGGx9pqdNR-0" value="" style="group" parent="38TpKfUnlk5KF1mlkOwW-6" vertex="1" connectable="0">
          <mxGeometry x="331" y="312" width="160" height="75.28" as="geometry" />
        </mxCell>
        <mxCell id="38TpKfUnlk5KF1mlkOwW-33" value="" style="rounded=0;whiteSpace=wrap;html=1;fillStyle=auto;fillColor=#dae8fc;" parent="jhBIs1zk1QNGGx9pqdNR-0" vertex="1">
          <mxGeometry width="160" height="75.28" as="geometry" />
        </mxCell>
        <mxCell id="38TpKfUnlk5KF1mlkOwW-35" value="External Secret&#xa;Operator" style="shape=image;verticalLabelPosition=middle;labelBackgroundColor=none;verticalAlign=middle;aspect=fixed;imageAspect=0;image=data:image/png,iVBORw0KGgoAAAANSUhEUgAAARcAAAEXCAIAAAAIsZeDAAAxPklEQVR4nOzdd3wb57knesyg906w996bJFJUsbpkW5ZsySVxi+34xkk2uyd1k9y9u/cmn5wk56T6pCixYzuJJVu2ZMu2eqFEdZFiFXtvIEEARO/AzNyPCIemiCFFakgAJJ/vXxaAAR7S+HHmfectDHr+LhoAgAI01AUAsORBigCgClIEAFWQIgCoghQBQBWkCACqIEUAUAUpAoAqSBEAVEGKAKAKUgQAVZAiAKiCFAFAFaQIAKogRQBQBSkCgCpIEQBUMUJdAJgRHUX5XA6bzfL/0+fzWe1OH4aFui4wHaQoHHHZrOTYqLSEmKQYlUjA9z/odHv61KNdAyN9wxqzzR7qGsEXIEXhBUEQpVS8eU3h41vWri/JjZBJpj5rttmv17eeunq78lZD9+AInJfCBB1VpYW6BvA5OoomRKteenz7976yv7wgi8/lTHsBh8VKS4hZk5+pkIq1BtOozoATRIiKBV+AFIURlVz62tOPfO+l/XKJcJaXcTnsjMSYSIW0uWdAO24KYoGAHKQoXAh4nF3rV/3Pl58U/6shNAsmg6GQSRAa7dadDrfHG5QCwYygpzssIAiSGh/90t7t0xpCs5CLhVvLiioKcxa5NHB/kKKwwGWzclOTygqy5nVUYozq0Y2rOSzWotUF5gRSFBbEQn5eeiKHxZzXUQIeNys5Pj5KuWh1gTmBFIUFEZ+XkRj7AAdKRPyU+OhFqAjMA6QoLPC4nPioiAc4kMVkigS8RagIzAOkKCzgOO50ex7oQMLng3uvIQYpCgsOp1s9pn+AA11uz7jJuggVgXmAFIUFk83W0j0w36NwgtAZzd2D6sUpCswVpCgsmCz22pYuo8U2r6PMVntjR+/wA53EwAKCFIUFr8/X3j90/kb93A/BCaKzf/h41c3FrAvMCYwAChcOp9ticxRkJM9l+AJOEEMa3cETlR9fuI5heFAKBDOCFIULH4bpjWaj2ZoaHz17kPwReuujM28ePW21O4JYIyAHKQojLo93YGRMO26SioViIZ/LJhnaY3e6mjr6Dp6ofOPoab3RHIoywXSQovDi8ni7BkfudPXxuJyirJTAF7T3Df2/f3r3o3NX59sVARYP9C6EHZfbU9PceeTsZdJnhzS6k5erLXAhF04gRQBQBSkCgCpIEQBUQYoAoApSBABVkCIAqIIUAUAVpAgAqiBFAFAFKQKAKkgRAFRBigCgClIEAFWQIgCoghQBQBWkCACqIEUAUAUpAoAqSBEAVEGKAKAKUgQAVZAiAKiCFAFAFaQIAKogRQBQBSkCgCpGqAsAX0BRhM/lSEVCPpeTlRxP+hqpSFCYmaI3Wlxut95kCXqNgASkKJQYdLpEyFcppDERcqVMopCI5BKRUioW8nnpiTGkh6QnxPw/r31ZozPana4R3bjN4RobN6q1+jG9UWsweWGn5FBA6Pm7Ql3DisNkMGJU8szEuIToiJS46NhIRVKMKkopj5BJWMx5/F3DcNxicwyP6fvVmiGNvk+t6R0e7exXq7V6iw2Www8eSFHwMOh0lVxSkJGclhCTk5JQkJmcGK2SS0QL9f4ut6d3WNPU2dfRP9zU2dveOzSk0Tlc7oV6fzATSFEwcNmsjKS44uzU4szUNQUZqXExQj538T7OH6eG9p769p5bTe0d/cPj0IJaTJCixcXjsAsyktcWZq8tzF6VlxGtlAXz040WW21r162m9su1zQ3tPZClRQIpWixsJjMjKXZnRenmNQVr8rMW9eQzO7vT1dTZV3mr8VJNY21rFzSZFhykaOHR6WisSrGjonRrWdG28uIQ5mcqu9NV39Zz8kr1+Zv1dzr7oDdvAUGKFpiQz91Ymv/YQ2U71696gOs3H4aZrXazzWGx2e1OV+ALWCymTCQU8LgysYDJmPeNCqPFerm2+ei5q5W3GjR643wPB6QgRQuGTkfjIyP2bVu3f/v60px57DntcLn7hjUavWF4TD82btQazEaLzWSxWR3OwBdzWEzFxA2lCJlEKRXFqBRRCll8lFIhFc/x4zAc7xka/fj8tU8v3axr7YKTEnWQooXB5bBX56Y/vfOhfdsq5tJ5jeOE2WbvGlB3Dag7+oe7BtXqsfGBkTGd0ezx+ubyiXQUlQj58dGqWJU8JS46MykuLSEmPSEmam4nQLPNfqW2+Z1j5yqrG6ClRBGkaAGIBLxHNqx+ae/2iuIcNpM5+4vdHm/v8GhjR29ta3db72Bbz+DAqHYun8JiMuViIXPitiyO4zaH02S1+5+io6hMIsxOjs9JTSzMSC7ITMlKjuNx2LO/ocfra+nu/8enF45VXh/S6Ob844LpIEWUoAiilIn3bVv/6r6deelJs7/Y7fF2Dqiv1DZfq2+pa+vuGlDP9VNQJDFatfuhstT4aNZESnEct9gdGr1xVGcYHNX2q8dGdOP+OCll4tKc9PKCrNV5GXlpSQrpfU6Mg6O6905ePHTyYkv3wJx/bnAPSNGDQxEkOkL+1X07n3t0S2KMapZXTubnUk3TjYbWUb1hXh8UHxXxb8/tff6xLVKRcNrb+of/tPcN1TR3NrT3dvQPe32+iU4OXkF60obSvO1ri4uz02Y/L+mM5k8qrx/44GRDe8+8CgN+dFQ1j3YwmOSP0GtPPfK1px6JjpDP9DIMw4Y0uo8vXH/74zPvnbxU09xhI+szmAWXzdpaVvSjV5+ZFiH/kCKZWJgcG1WUlVKak5YSFyUVCRxut/5u48o7qNE1dvR2DqitdodQwJOKBHSUfCIMn8tJjImUCPmDozrouHsAkKIHMRmhV/fvmqUvweZwVt1ueuvjs+98cu5mY9t88+Onkkue2FqxaXXBLK+Z6GkQZCbHFWelRivlXh+mNZjcHq/b6+1XjzW0945qDThOqORSHpf8pMTlsOOjIsQQpAcCKZq3uUQIJwiN3nj4dNWfDx8/eaXGYLY+8MdJhIINpXmrcjPmUpiQz8tIis1JSWAxGCO6cfNE94Pd6eroH27tGbQ5nTKRSCWXkB7uDxKckR4ApGjeFDLxt768Z5YIeX2+9r6hv3xw4m8fnWnuHsBwnNLnEbRIhWxreTGdPqeJyQw6PUopy0lN4HM5WoNpbNzov0ekNZiauwc04wYhnxcfpSS9upsM0hAEaT4gRfMjFvC/9PBD337hiZki5HC5r9W1/Pn94++dvKQ1mql/ohfDcJxIiYuOi1TOMUj+3oWMxFiRgDc4qvMHiUajOV3u7sGRnqERHocTH6XksFiBB/qDxKDTW7oH4D7SHEGK5oHLZm1aU/jjV5+Ji1SSvsDhcl+qbvzPt4+cuVbrdHsW5EMJgrDYHIMandfrw3HC58PMVrvH6+VzOfeplsNOiFaxWczWngHzv+4s+TBMPTbeMTAs5HJT4qNmClKkQup0eZq7+90e74L8FMsbpGiuGAx6fnrS//ral0tmGN3jj9Cv/n606vYdqldx9/L6fMMaXUNHT1vv0O2Wrqrbd240tLX2DOoMZiaDIeRzZ+p843LYMRFyr9fX1NU3mQeCIMZNll61RsjjpsSRB0ks5EdHyLUGU3vfEI4TC/izLEuQojlBECQ+Uvndr+zbu3kt6QvuRqim8VfvHL1ce2cxCpgYMeToHhxp7Oht7Oi93dJ5vaH1Tldf18Cw1mAWCXgzXWEK+TyVXDKk0bX1Dk4+OJcgySRCmUjYOaCGYQ33BSmaE7GA/9SO9d/80mMssgE+n0fo7SOXa5uDVpLXh42Nm+50DTR09IyNm3gcdmwkeZ+BkM/jcdjN3f26Ke00f5D61Bo+dyJI7OlBQhFEJhaymIzWnkGjxbb4P9ASBim6PxaTsSo348evPhNL1hzy+nyN7b0/PXAomBGaRBCE1e7s7B/uHhxhMugJ0RGBeWAw6BKhwOZw3Wxsx6dcavqD1K/WSMXC7JT4wARyWCyFRGwwW+rauuG6bhaQovtTKaQ/fPmpzWWFgU/hBNGvHvvFm4dPXqkJRWmf8/qw4TF9e9+QSMDPTU8MzAN3YgRQQ3vPZH+dnz9IGr0hPioiNT468J0FfC6HxYLrutlBiu6Dx2HvqCj5zotPkF7L6Y2WAx+ceOfY2YXtTngABEEYLDa1Vh+rUqQnxk57FkUQLodtMFuv1bcEHqg3WSw2R2ZynEouDTxQJhZ6fdjtli4nLCc0A0jRbBAESYpR/e+vP5eeQLLGotXu/OTi9d/+42OzzR6K6qa7GySz1Wp3FGWlBHY2cDlsh9N9pa7Zap8+EMmHYXqjGUXRoszUwCFCHBaLxWL2DWs6+ocX+SdYqiBFsxHyuXs2lX91387A251eH1bf3v2TAwe7B0dCVB0JDMMtNoeAx1mTlzmtZhRBnG53a88AacEOl1tvNMslorw0kgtCIY/rxbDG9l4z3IclA6vdzwhBkJgI+bOPbiZdr3TcZHnv5KX6trCbSjBmMF2+3dw/Mhb4lFImmWn5bxqN1jus+fDs5abO/sCnBDzuhpK8LWVFC13sMgEpmpGAx3loVUFJNsm52uFyX6tv+fjC9VDUdR84jncPqi9VNwY+JZcISbsQ/DAcb2jrOXruyuRAh6nioyIqinMUC7eS63ICKZqRXCJ6juxEhBPEsEb390/OaeY52S5oRnSG2y1dgY9zWKzoiWX1ZzpQb7Kcu153tW56D4S/u78gI3ltUfZCF7scQIrIcdms0uy0YrITkc3uPH+zISR3h+bI7fGO6Ma1BlPgUzwOZ/bzSeeA+vjlWzqycbRp8TEbS/Pvu5zDCgQpIicRCfZsXkvaItIaTO8ev/BgU+6CZqK3gGQ9YTodZc26ip3d6brV1E56OhLwOAUZyblpiQta6XIAKSJBR9GYCMVDq/MDn3K63LdbusJ/fQK70zVmIJkgxGWzxEL+7Mf2DI1euFlP2jpKS4guK8hcuDKXCUgRCR6HXZqTFqUgWdhNazAfPFE5xyXjQsjhJD8X+TDM7b3PZAf/WsR1rSQtK6VUkpOSIBbcJ4crDaSIhFjI37VuVeDjXh/WMzRyJYxbRJNMVlv3gHpa2p1uT/fgyFxucPUMjVyubfYvJzQVi8lIT4jNSUtY6HqXNkjRdAiCyCXC8sKswKfMVtv5m/Vh3iLy0xst52/WX29onQySx+trbO/5pPLGXPZfMVpsjZ29pMtNJsdFlpJ1uqxksK/rdGwWMz0hViaevmwVjUYzmK3Hq26Foqh58/p89e09v3jz8OY1hRmJsSgd7R4YuVjTQNptEAjD8d4hTUNbT2rc9PtLSqkkIzGWx2HDLn2TIEXT8bmc0pz0wMe9PmxIowur8T6zs9gcldWN9e098ZFKFEXVWv28FiQZHNXebunas7l82s4ULCYjNlIZF6mEYXWTIEXT8bns0lyy20QOZ3VzZ/j3K0yF4/i4yfJgW+hZ7I6O/uERnSEhKmLaU9FKWXpiLKRoErSLpuOy2XlpJCtuW+2OGw1toagoZDR6Q0cfSVQiZJKkWVdUXmkgRfdgMRmJMZGkjSKbw1VL1vm7jOmMlt5hTeDjMokoVkW+CtLKBCm6B4fFIp1K5PX5RrTj0yaKLns6g6l3iKQdyGWzVArJfe/erhyQonswmYwYsqXrnW5P58CKawbYnS61Vm8iG8Qg4HJlAavvr1iQonswGXTSDSDcHi/pjJ1lz2xzkA5dl4oFc9y0byWAFN2DyWCQpsjl9vSRtRCWPZPVTrrbEp/LkYoEoagoHEGK7kFHUQGPZGN9r8+3Mld/d7k9toB1Gvxr6jPJBryvTJCie9DpqFjAC3ycIIildadooThcbhPZko5CPg/mvU6CFN1jpis6t8e3Mhdkszuc42aSFHHZLNKT9soEKboHiqKkezF4fT7SqaPLHoYTPgwLdRXhDlIEAFWQonu4PZ7ADfQxDA+TdRuDz+F0mSwk22nanS6TFZbA/xyk6B5Giy1wfSyDxfrZpaUxIWLB2Z2ulp6BznsHnvowrKN/OAzX4gsVWBv1Hj4M0xnNMrEwOS6aQafjBDE2bjp4vPKtj85Y7StxWVCCIMxWh9vjTYpR+Vctdnu8t+60//XDkzeb2qHJ5IfQ83eFuobwwmIyMhJjN5Tmp8ZFuTzeps7em41tfeqVOHBhkkourSjKzk1LFPJ4WoOpprnjdkvXkpjzGxyQInJMBl0pk/h82MrsmgtER1E+j8PjsG0OF+RnGkgRAFQt20EcdDqaHBu1rbw4KTaSS7ZvKQgml8fTMzRytb6lvXc4cGmhpW55pohOR7OS43/86jPlBVkquZR0iVMQTB6vT6M3bCzNf+vjs2ev14a6nAW2PL9eQh731X279s6wRDAIPhaTER8VoZRJ7E537/DoEloEZi6W5/0iPo/75I71EKFww2WzCjOTSZe1WNKWZ4oYKBox8/4iIIQkQoFCutwGgy/PFIGwRaejgTteLnXL7ecBIPggRQBQtbLa3zqD6X/91z9CXcWKIBUJdlSUbFpdEOpCgmFlpchid/zto9OhrmJFiIlQxEUqV0iK4IoOAKogRQBQBSkCgCpIEQBUQYoAoApSBABVkCIAqIIUAUAVpAgAqiBFAFAFKQKAKkgRAFRBigCgClIEAFWQIgCoghQBQBWkCACqIEUAUAUpAoAqSBEAVEGKAKBqaa8BRKejyTGR+RnJOI5r9MaGjh6nyxPqosBcMRn05NiojMRYJpMxpNG1dA/Yna5QF/UglnCKOGzWkzvWP/folkiFdGL7UfutpvbfH/xEPaYPdWng/kQC3u6Na778yOYopYxOR81W+9lrtQdPXOxTa0Jd2rwt1RQx6PSS7LQfffWZ9IQY/yMEQaQnxvow/Me/fzvU1YH7YDLoO9aWfPcr+3NSEyaX7U6KiXS6PQc+OLHkzkhLtV3EYbP2bl47GSEajYYgiFwiemxTWaxKEdLSwP0pZZKKopypEaLRaFFK2cbSvIzE2JCW9iCWaoqYDEZBZvK0B1EEkYqEKrk0REWBuYpUSBOiIwI3jxAJ+RKRIERFPbilmiIEoXHZbNLHmYylepm6crBZTC6H5H/fErVUUwRA+IAUAUAVXPx8gUGnx0TI89OTuRzY2f8+nG7P4Ki2d2jU6nCGupbQgxTR/N0SkUrZC7u3bF5TqJRJmAx6qCsKdz4fZrE5alu73j1+oba1O9TlhBik6C6ZWPjtFx5/ZudDUUpZqGtZSrJT46Vi4esHj9Wt7CBBu4jGZDBy0xKfe3QLRGi+JELBjoqSXetWsZgr+s8xpIjG57LXl+QppeJQF7IkycWi7JT4CNmKvkcHKaIx6HSlDCL0gFAU4bLZXPaK7o9Z0Sfimbg93ubu/u7BkVAXEo6iI+SFGclCPi/UhYQRSBEJu9N18krNeycvhbqQcPTQqvy4SCWkaCpIEQkfho2NGzv7h0NdSDhKS4jxeH2hriK8hHuKEAQR8rjxURH+f2I4PjAy5nC5Q10XCTaLGSmXWuxOo8U6rwPpKCoS8NgspkZvnO+Hivg8hVQ8otW7PN55HchhsUQCnsvjsdgc8/3QIGAyGBEysVQk9P/TZLVpDaawTW84pghFkEiFbE1+Zm5aQnZKgkTIF/I+v37ACbxPrXnzyKmWnsFQl3kPpUz88uM7dlSUjOoM7xw7d+5G3RwPFAl4j6xf/eLebV6v79TVmj+9f3zuH5qbmvi9l/bHqhQ3GtveOHJqcFQ7xwNT4qJe3LOtvCCrf2Ts4PHKSzVNc//QIEiMVj25Y/3mNYWT/9/dXq/Zah/UaOtau281tfepNWGVqPBKER1FCzJSnt65oSQnTSWXyiVCmUjIuHckQVFWaqxK+d3//GvoyiQRpZB980u7o5Vyg9napx6be4rEAv664pytZUU+DPNh2NxTJOTzKopznthawWWzJEL+9YbWuacoJkKxc11pcVbq8Ji+pXsgrFIUHSFfX5z7yhM7IhVSdMrUCRzHbQ7XrnWrxvTG1t6Bs9frr9Y1aw2mkBb7uXBJkT8/z+zauL4kNzU+WjrzJBMum1WSnbp/27rgFngfbBYzWim/+wtl0MWCebS86XSUx+X4O9x5HM7cD2QxGTKRgDcxv4DLZgv53Lkfy2DQ/fNKmAxGuM1QKMpMWV+SGx0hn/Y4OnHdKxLwUuKi8jOS1xXnNXb0HD13rfJWg8lqC1Gxnwt9ihCEJhEKvvzIpud3b0mJmy0/k5gMRlFWalCqA8GWGh+dmRQ3+2sEPE5mUmxClLIwM2VtYdbbx862dA8Eq0ASIU4RiiDpibHfefGJrWVFk10I94UgCCekt/nYLGZcpJJG0LqHZrunREdRiUiglIrHxk3+LgcWgxEhl/C5XK3BaLTM9hdUwOPGRyoNFutkl4OQz41VKQ1m69j4bJ0QbBZTJZMyGPTJLgc+lxMdIfdh2Ih23D1zJwSDTldIRUIeb8xgDGGXg9vjdbs9vDmcIbkcdkZirEIqTo6NOvDBiYvVjV5faBpLoUwRiiAZSXG/++Frq/MyhLx5XJB4vN4rtXe2lBUvZnUzEvK5ezevfXX/LhwneoZHbza2Vd/pmDrxFkXRSIW0PD+rvDCrODuNyWDUtnT+9C/vWWz2/Iykn37rRSGPZ7RY69q6L1Y3mW32qW8uFvLL87PKCrKKslIUElGfeuzNj05fqm5MjY/+1rN7SrPTLHZHa8/g1brmzn711APZLGZWUlxFce664pzEaJXT5f74wrW/HjklF4v2b1/33O4tBE4MarRX61tuNrZxWMzJAxl0emK0qqwgc21hdm5qIoIgF241/OWDEzqjOSi/zun61JpYlWJ1XsYcXy8XC7eVF0lFAoVUdPJyTUiu7kKWoskIbSzJY8xnJoLH6z17ve7DM1dClSK5WPT0zo1rC7MJgijJSXuoNE9r+OILx2ExN60uyEqKi5BLVHKJVCQkCEIhFVVWN16vb91Ymr95dSGdjmIYvio3ffdDZVa7M1Lx+SC0vPTEf/78BwlRERFyiUwkpNPRxJjI1t7BS9WN8VERzz6ySSIUYDi+KjdjR0WJzmiWCD6/+o1USr/5zGO+J7FIhVQlk3A5bJ8Pszldxy7eiFHK92wuLy/IotFoxZ7UtYXZY+MmgiAiZBL/GW//tnVbywojZBKVXCoS8HCCQOnotfqWi9WNIfn1NrT3uNyetIToyW7u++Jy2KvzMmQSIR1F3z9VFfwzUmhShExMRvj9j76+oSSXQb9PhHCc0BqMOqMFx/FRvaGutfvQiYsh7JxBEMRfM4IgXDYrIVqVEK2afJbJYCTHRk1bnIhBp9NRlJj4bzod9XcqKKRihVRMEASOE/5XKqXiHWtL/C/wQ1HEP9mJQUc5LNbnV4lCvkTIz0iMnTxQxOcVZaZMPZCG3D0logiCoMjkIiEcFis+KiI+KgIn7pr4/rEyk+OmriKCIgibyWQzmYv4G5yVzmi+Vt/Srx7btrY4JS6KxWRKhAKVXDL7sHH/qfi1px812+ynrtwOcpBCkyIWi/nL77wye4QwDG/o6K28WX+nu39oVOf0eGgE4XC5Dea7TQWZeK5/qBacRm/4+Zvv9w6Plhdm5aUlTXt2IjOI/78xHNcazNfqmk9duX2tvsVqd5y4XC0RCTavLshLT/KP4JzIFTJ57OR/m6z26jsd1xtaPz5/lUajNXcN/OA3f9tYml9RlO0/d810oNvj7R0erbzVcPT8NYPZane6fvfPj9Xa8bKCrMlsowhCQ5Cp/+EfsTGs0d9obDt99XZNS+fi/yLJ4TgxOKo7cvbK1bpmoYCHoiibyVRIRNkp8VvLi0tz0vhc8p5MFEULM5Jfe+oRo8V2pbY5mDWHIEUMOv3ZRzfv27ZupgjhON7RP/zm0dNX6lpGdeNGi83lDqN1g51uz/WGtn71WKRSmp4Qu6Ekb3tFScy9PbMGs/X0tdv1rd01LV3aceOo3mi1322vdw2o/3Dok6PnrkYrZfkZyTsrSiqKcu55c5e7sbPv1OXq2rbuIY1Ob7ToTXcvF8fGjQePV56/WR8fqcxOid9SVrRlTeHULhYfhnUPjnx26dadrr7uwZFRnWFs3Ojx+jxe36Wapo7+4SilPDs5vrwwq7wgK23KqdL/5/9KbXPlrYbGzj6dwaQdN1nsIR7QYHU4rYNfzEVnMOjX6ltOXK4uzEzZv339xtI80iyxWcyKopzHHirrHRpVa8eDVm2wU4QgSKxK8aOvPi2YoTvB4/X987MLbx493TWgDvl9gJl4fb6BUe2gRtfcNaAzmtcV50x7gcfrbWzveeeTc9M64nwYptEbNXpjUyfaPzKWmRQ7LUUEjTas0f3j0/MjegOG4ZOPYzhuttnNNnvP4EhLzwCXw965rnTqgXQUHTdZP6m80djR47z3j47T7ekd1vSpxxo7ekw229rC7GnV2hzOa/Uth05cDHl4ZuLzYXqTRW+y9AyNNnb0Pr5l7Zcf2ZwcGxn4Sj6X88TWda09g+8erwzadV2w5xcx6OhLj29PiiH5+f1XI79+58jP33y/prkjbCM0iSAIPpezsTQvZmI1VhzHJ7++UpFwS1mRTCya6VgOi5WfnrxpdYH/n9i/juWwmNkp8WuLsqdG6B4ILSEqYvvaYn9jxofh/hM1giAZibGPblzjb/CQViuXiNcWZvvXjvVh2GSvd6RcujovI0IuofobWXx2p+tOV/+BD078/I33Z1rvIS5Ssb2iJDMpeGusBjVFCIJERyheeWIH6bN3I/T3o398/7N+9Vgwq3pgAh5nW3nx849t9d/cGBrT/+LNw1W3m/yXFmX5Wd9+4QnS6Wt0FM1Oif9vEyOG/Jd/75+6dODwcf/FfUpc9Et7txfPcFs5LlL57KObV+dl+iN0rb7lp3855L+nJJcIH9tU9vjWCtIDJUL+w+tXPb1zo/86sLVn8PWDn1yrb/H3cW1eXfjinm1iAX+hf0kLz78/yEfnr/358Gd3uvoDX4Ci6Pri3LWF2UFb3zOoKaLT0ad3bohUkCxv4PVhR89f/dN7nz3AuOaQQFE0LT7mu1/ZFzmxoLHRYjt67spfj5z83T+P+a/IhXzuoxtXv7r/4cBj46KU33hmd1FWiv8Ktra16z/+9uHh01Xnb9b7E7gqL/Or+3YGDuMQ8Xlb1hTu377eH872vqHf/ePj905eevd4pcvtQRAkJS7qhce2rpnI2FQMOn1VbvorT+zwd3Br9IZjF66/fvDYWx+fHdTo7iZQKtq/bd2TO9Yv5u9sIZlt9k8qb3x45vLYOElvbYRMXJqbHhepDE4xQU0RA6WTjn8jCGJYo/3V20c0s96VDyuRCuk3vrQ7JyXBfxa91dT+h0Of6gzm6w2tf/3wpHPiOx2pkD69c8Oq3PSpB4oEvG1lxbsfKmNN9Cb3DI389h8ftfcPtXQP/Pnw8d5hzURauNvXlnzp4U1TD6TT0eLs1G89u9e/RMSo3nDk7OWLNQ0j2vGj565W3mr0J7C8IOulx7dLhPecVdISop/fvdVfrcvtuVrXcvBE5ajOcO5G3fsnL7k9XhRBEmMiH99SUZKdFqxfIVVGi+3I2Stnr9cGju9GUbQ8P6swYCX3RRK8FN39SxkflT3xP3Iaj9f31kdnW8NsssPsZCLhjopS/y2a4TH96wePDY7e/aNustg+On/teNUt/xkgUiGb1iEm4vMKMpP933KN3njo5KUrdS0YdrdddLWu5c2jpz5PoFJaln/PKYXDYqXGR2clx9FoNIfTdaW2+dCJizaHy4dhzV39bx8729435L+RmhofrZTe08hRSCU5qQnMiVsuLd0Df/vojP+yeUxv/PDM5c8u3fTvhpIQHZGZfJ8xbGGld1hzvOpWWy/JNycpLjI1Pjo4F3XBSxEdRbeWFwWOfyMImsFie+vYWR+GBa0Y6gwW66krNU6XW6M3/OHQp1frWvyPYzjeMzR64PDx6jsdLrenubv/ZmPb1AMn7mbcGdGOm232E5dvvf3xGee/Jh0aLbZjlTcOn6rCMLx3SHNh4gJvktvjbe0drL7T7sPwho6+Ax+cGBj5fCqE0+2uut3058PHNXqjdtx0ta5lRHdPP2+fWnP+Zr3L423rHfrj+59db2jFcNxfbWvv4HunLjV39bvcnva+oRaylkbY8mFY9Z2OhvaewKfYTGZSTOTkuJBFFbyebhRFVuWSDI7CcOxaXfPsIyzDkM5g+vkb7x+c6E7tHFBPnX7r8Xqrmztf+8nrEpFAbzAP3Dvtx+Fyn7lWNzDyMwaDrtaOT20H4jjep9b87K/vvXv8gtXunLarnA/DGtt7v/HTP8glIoPZ2jmg9ifBz2ixHT5V5V9dcUijm7aRlkZ3N+onLlfbHa6eoZGpz7o93kvVTS+P/kbA42oNpqXStTNpVGdo7OjVjpsC+xhjVIpIhXRoouG3qIKXIoSGRJLtLOTzYScuVwetjIXi9WH9I2P9I+TfOafL3dTZR/oUQRAmq+1mUzv523p9fWrNTLsy+vt5Z3pb/x0V0md9GDak0c30fTLb7HVtS3VxUx+GdQ2ODIxqA1OUGK2KUSlqmhd9HEYwUoQgSGpcVHF2elFmSuCzGI639Q4FoQywXOmN5nGyPx9iAS9aKedzOYu9xeUipgih0aKU8u0VJTvWFifHRUlFArGQ5HYEi8l4ae92sYB34VbD4hUzLxw2qyw/KzzXSAm5wozkeU3mXTwsJqMwM2X3Q2sqCnNyUkl6rZQy8f94bu/WssKL1Y3Hq271LdrF6mKlSMTn7tu+/tV9uyIVUpVcymbNOEaYQac/tXPDhpLc2tauAx+cmOlSJ5j4XM7D61etL84NdSHhiMthzX3OwuIpzEx59tHNG0vzEqIixEI+6ZhMFpOZEhcVF6kozUnfs7n82IUbH1+4thjj6xY+RQiNlpYY++///cXi7LS5TF9FEEQqEkhFgoQYVW5a4rvHK984ciq0u0zTUVQmFoZw2DiYhUws3P1Q2fO7txTcPSvyURSZ/fUsJjM6Qh4hl6QlxK4tyn7jyKmrdS0LO8RugVOEIMiudaXff/mp1bnps5x/SPE47IKMZKVUnBYf/YPf/C1oQXK43XWtXcH5rOXH68O0BpPOGKTpXjKx8MU927725MPxURHz2qjCv8XbIxtWRyvlv/n70VNXF3IO0kLeL0IQZH1x7q+//3+VF2TON0KT7xAdIX9q58b/+M4rM00jWXAul+dGQ9vkDR8wL229g+dv1lvs89tRz+5wWee/tIM/Qt94ZndybNSD7fXC53JW56V//+Und60rXcAbsguZorT46F9+55W0hJj7Tl+dBYIgEiH/yR0b/vfXn53lZV6vr/pOx7QHCYIwWx39I+TdxDPBCaJPrfm/X3/77PXaByp5hfL6sNrWrtffPXbuRh2OzzACfQajOgPp6nkms420t80/JuNLDz/0zWd2J0RF3PcqbhYsJrMkO+0HLz+5eU3BA7/JNAsWRwRBfvqtF/0jLKm/lVQk+PLDmxrae2Zact7p9nx4pmrPprLEmC9ma1vtzr8eOakzmmMjFPP6RM/dTHZ+7z/fKM6+mJuaqJDOOKMB+JltjpbugcaOnu6hUbPVPt/DDRbr1fqWTWsK89O/mCw8Nm66Wt/SNaAmPWRbedErT+yMpxYhPxaTUZyd9pW928bGjQ3tvRTfbcFShCDIS3u37VxXOstZyGJzXK1vaWzv0Yyb6ChSmJWyrignOTZqpjdUySX/8+WnKm82jJEtseDDsMbOvm/+7A9fe+rh8vwsiUhQ09z14Zmq905emnFmzqy8Pl9b31D/yNi5G/VsVuiX6QtzXh9mszvtLvd8z0J+GIZXVjdiOP78o1s2lOZx2KzGjt6DJy4eu3Cd9AZDVnL83i0VmUlxM0XI4/V1Dagb2nu6BkeMFlu0UpadEj+xjC7531MWk7FjbWlDe2+/esw0/78C0yzM10XI4377hX0ztWQwDH/7k7MfnKoa1OgsNrvb46MhtGOVN+QSYWZi3PdffnLqH6RJEzNtor6yd/sv3/qA9G2dLvel6qbuwRGpSMBgMMxW26jOSGVuHzGxrgPcJgoOs9V+/kZ9c1e/TCyio4jF7hjRGWY6ra0vyd1aVjRTW6i5u/+fn164VNOkN5rtTpfXh7FZzInl+xT7t2/Yt63CPx9kGpGAt3Nd6c3Gdv+UMCoWJkWPblyTlhBN+pTJav+3Xxy4dLtRozP4ppwlzFb74Ki2vW+4c0D9s//+la3lRYHHstmsF/Zs/cN7n87UX+f2enuGRhfkRwDB53C5e4c1/skgs0iNiy4vyCLdMtTj9Z2/UX/gwxM3G9tMFhs+ZZ6v1mAaGNF2D460dPe/9tQjuWmJgYeXZKetyk2/3dJJsUN4AXoXEAR5Yc9W0ms5H4b98Ld/++jC1WGN3kd2oeV0uevbu7/36zfOky0PjyJItFK+fW0J9SLB0pWZHJebmkB6LXe9ofWP73968VaDwWzFA6bK+zBMrR1/79SlAx+c6CDbjYrHYa/KTU+OI29WzN0CpChKIV07sWjgNDhOfHDm8genLzucs10j4TjR1jP4kwOHSId1s5iMycUJwArEYjLy0hIzk+MDn+oaUB86cfFKbbNz1iWizFb74dNVJy7fIj3hFGQkp8aRX0bN3QKkKCc1kUfWIsJw7JdvHp7LsjIYjjd29B4+fTnwKSaDHrhmDVg5FBJxXKSSdPmKq3Ut527UzaUda7TYzlytbSTrjouPiqA+B2kBUlRANi+XIIgrdc3tc97U0en2vPvZhcDHURSNUsqCdgcWhBuVXEK6UMe42Xqnq2/aZMRZ1Lf3tPWRTIllMRmJMSolWffD3C1AikiX9ycIoqa5c+6dzjiO96vHSC/q2EzGtEnXYOXg8zgCHsnf0O4BdUf/8Ny/YCarra13iHRhag6L9WAjISZRTRGC0Ei/4gSNpiVbnGUWHp/Pv3RB4GfMZR8OsCyhCELar+B0e2ZvDk2D44TT7VmkfSwpn4sImlqrJ3mYINr75rdHN0EQBrJ9hQmCsDlCOcQbhCGb3Wmb5+A9q91hX5wvEtUUETTatbrWwMetdmdT5/zGVvgw7MrtO9MexHFiVDfeNUg+KgQse12DI9N2avLfJmrtHewdnt+twjtd/YFfJIvN0dE/rKO2BckCtIuqapoOn66a+giG4z/588H5bo7i8foOnbh49voXN44IghgzGH/8+3ecMJ5gpdIaTEfOXqm6d//m6/UtZ67dnu+Gf539w6ev3u6bcpPX7fEePlNFuqLdvCzA2AWL3fHD375VVXPnkY2rIxWyzv6hw6eqrta3zHc8G0EQw1r9v/3ywPOPbq4ozuGy2W29A4dOXPKvggtWJgzDbzS1/58//nPP5vLi7DSP13v59p1TV2o6BtSBt1ln5/Z4PzhzuXdYs2v9qsKMZIfLff5m/fGqW9SXPVqYEUBDGt17py6evVHLYjIdLpd23Ozxzrh/6CxwnOgaUP/+4CfvfHKejiJ2l1tnMC1SixAsFU6Xu7q5s3NALeRzJ1ZQsptt9gcbc2wwW6tuNzV19Ar4XAzDjRab1e7AHmhA7VQLNnjZanda59naI0UQhN5o1odoU1EQnjxer9ZgWpANFN0er2bcSFvQ9Q+DvfMKAMsPpAgAqiBFAFAFKQKAKkgRAFRBigCgClIEAFWQIgCoghQBQBWkCACqIEUAUAUpWp4YDLqQzyVd9AMsOFhKdxmKj4p4ae/2KKXs1+8chQmOQQApWlakIsGu9ateeWJnfnpSY0cvk9qiHGCO4Le8TEzsRZv59WcerSjMkUuETAYDRajurQDmCFK05DHo9PTEmJef2LFv6zqFVAxtoeBbWSmKi4xoPvaXUFcxGx+GDYxoD52oJF0pNlCUQvbc7s3PP7Y1VqUQ8e/Z+rs0N/3Y6//nwSYdU8eg0+WSlbIN1MpKEYvJyEyKC3UVsyEIWlpCTHyUksvhvHPs7CyvlAgF29cWv7Bn2+rcdIlIEHj9xuOwk2MjF7leQFtxKQp/CEJjM5lZyfFP7dhw4Wb9kIZkmUsOm1WSnfbq/l1by4qkIsGDbaELFhCkKBwx6PRYlSI3NTEwRYnRqteefmTPpvIYlQKWjA0TcNc1TBEEgeFY4ON2l3vcZJWKBEs0Qh6v1+0JTVNt8SzPFLm93saOBdj1NoTMVnt771Dg4waT5Y0jp5763r+/f6pqKS52OTCi7ZzzTiJLBR1VpYW6hoXnw3Cjxbp9bQnFvQBCZUij+8uRk5dqmoiAhQsJgnB5PCPa8ev1LTXNnUqpOClmyXQhGMzWw6erjp67Srqx4tK1PFOE4fjAiPZ2S6dEyBcJeAIeN9QVzYkPw8YM5gs3G3711ofHKm+4Zt4TAccJm9PZpx6rqmnqHFCnxcfIJcLgFjs/BrP1Sl3zfx365PDpKup7eocbhJ6/K9Q1LAqERmOxmBKhgMtm0cn2nA1LhA/DnW63xeaYJUJTIRPb0mQmxT37yKbndm+Wib+4RVPT3Pn//endrsGRxSx4rnAcc7o9VrvT4XIHnmCXuiV5wTMXxMQqmKTbii0nBEHYna6Gjp7e4dHjl6v/25ce21ZezOWw/AvzDmp0PUNhkaLlbdmmaEXxLzl9pa65vW9oXVHO/3hu75r8zFAXtYIsz3bRyoTjuM3h7BkavVTTNDiqRRDkVlO7DlY8X3zLtl20kqEowuNwOCymxe6AHTeCAK7oliEcJ2wOp82xAFt4gLlYnnddAQgmSBEAVEGKAKAKUgQAVZAiAKiCFAFAFaQIAKogRQBQBSkCgCpIEQBUQYoAoApSBABVkCIAqIIUAUAVpAgAqiBFAFAFKQKAKkgRAFRBigCgClIEAFWQIgCoghQBQBWkCACqIEUAUAUpAoAqSBEAVEGKAKAKUgQAVZAiAKiCFAFAFaQIAKogRQBQBSkCgCpIEQBUQYoAoApSBABV/38AAAD//3z1ta+Fw+cbAAAAAElFTkSuQmCC;fontStyle=1;labelPosition=right;align=left;" parent="jhBIs1zk1QNGGx9pqdNR-0" vertex="1">
          <mxGeometry x="19" y="20" width="36.83" height="36.83" as="geometry" />
        </mxCell>
        <mxCell id="jhBIs1zk1QNGGx9pqdNR-8" style="edgeStyle=orthogonalEdgeStyle;rounded=0;orthogonalLoop=1;jettySize=auto;html=1;exitX=1;exitY=0.5;exitDx=0;exitDy=0;entryX=0.25;entryY=1;entryDx=0;entryDy=0;" parent="38TpKfUnlk5KF1mlkOwW-6" edge="1">
          <mxGeometry relative="1" as="geometry">
            <mxPoint x="308" y="506" as="sourcePoint" />
            <mxPoint x="373" y="387.28" as="targetPoint" />
            <Array as="points">
              <mxPoint x="372" y="506" />
              <mxPoint x="372" y="387" />
            </Array>
          </mxGeometry>
        </mxCell>
        <mxCell id="jhBIs1zk1QNGGx9pqdNR-9" value="TRIGGERS" style="edgeLabel;html=1;align=center;verticalAlign=middle;resizable=0;points=[];" parent="jhBIs1zk1QNGGx9pqdNR-8" vertex="1" connectable="0">
          <mxGeometry x="0.1559" y="1" relative="1" as="geometry">
            <mxPoint as="offset" />
          </mxGeometry>
        </mxCell>
        <mxCell id="38TpKfUnlk5KF1mlkOwW-2" value="AKS" style="shape=image;verticalLabelPosition=middle;labelBackgroundColor=none;verticalAlign=middle;aspect=fixed;imageAspect=0;image=data:image/png,iVBORw0KGgoAAAANSUhEUgAAC7gAAAhGCAYAAABvZZeNAAAAGXRFWHRTb2Z0d2FyZQBBZG9iZSBJbWFnZVJlYWR5ccllPAABH5dJREFUeNrswQEBAAAAgJD+r+4ICgAAAAAAAAAAAAAAAAAAAAAAAAAAAAAAAAAAAAAAAAAAAAAAAAAAAAAAAAAAAAAAAAAAAAAAAAAAAAAAAAAAAAAAAAAAAAAAAAAAAAAAAAAAAAAAAAAAAAAAAAAAAAAAAAAAAAAAAAAAAAAAAAAAAAAAAAAAAAAAAAAAAAAAAAAAAAAAAAAAAAAAAAAAAAAAAAAAAAAAAAAAAAAAAAAAAAAAAAAAAAAAAAAAAAAAAAAAAAAAAAAAAAAAAAAAAAAAAAAAAAAAAAAAAAAAAAAAAAAAAAAAAAAAAAAAAAAAAAAAAAAAAAAAAAAAAAAAAAAAAAAAAAAAAAAAAAAAAAAAAAAAAAAAAAAAAAAAAAAAAAAAAAAAAAAAAAAAAAAAAAAAAAAAAAAAAAAAAAAAAAAAAAAAAAAAAAAAAAAAAAAAAAAAAAAAAAAAAAAAAAAAAAAAAAAAAAAAAAAAAAAAAAAAAAAAAAAAAAAAAAAAAAAAAAAAAAAAAAAAAAAAAAAAAAAAAAAAAAAAAAAAAAAAAAAAAAAAAAAAAAAAAAAAAAAAAAAAAAAAAAAAAAAAAAAAAAAAAAAAAAAAAAAAAAAAAAAAAAAAAAAAAAAAAAAAAAAAAAAAAAAAAAAAAAAAAAAAAAAAAAAAAAAAAAAAAAAAAAAAAAAAAAAAAAAAAAAAAAAAAAAAAAAAAAAAAAAAAAAAAAAAAAAAAAAAAAAAAAAAAAAAAAAAAAAAAAAAAAAAAAAAAAAAAAAAAAAAAAAAAAAAAAAAAAAAAAAAAAAAAAAAAAAAAAAAAAAAAAAAAAAAAAAAAAAAAAAAAAAAAAAAAAAAAAAAAAAAAAAAAAAAAAAAAAAAAAAAAAAAAAAAAAAAAAAAAAAAAAAAAAAAAAAAAAAAAAAAAAAAAAAAAAAAAAAAAAAAAAAAAAAAAAAAAAAAAAAAAAAAAAAAAAAAAAAAAAAAAAAAAAAAAAAAAAAAAAAAAAAAAAAAAAAAAAAAAAAAAAAAAAAAAAAAAAAAAAAAAAAAAAAAAAAAAAAAAAAAAAAAAAAAAAAAAAAAAAAAAAAAAAAAAAAAAAAAAAAAAAAAAAAAAAAAAAAAAAAAAAAAAAAAAAAAAAAAAAAAAAAAAAAAAAAAAAAAAAAAAAAAAAAAAAAAAAAAAAAAAAAAAAAAAAAAAAAAAAAAAAAAAAAAAAAAAAAAAAAAAAAAAAAAAAAAAAAAAAAAAAAAAAAAAAAAAAAAAAAAAAAAAAAAAAAAAAAAAAAAAAAAAAAAAAAAAAAAAAAAAAAAAAAAAAAAAAAAAAAAAAAAAAAAAAAAAAAAAAAAAAAAAAAAAAAAAAAAAAAAAAAAAAAAAAAAAAAAAAAAAAAAAAAAAAAAAAAAAAAAAAAAAAAAAAAAAAAAAAAAAAAAAAAAAAAAAAAAAAAAAAAAAAAAAAAAAAAAAAAAAAAAAAAAAAAAAAAAAAAAAAAAAAAAAAAAAAAAAAAAAAAAAAAAAAAAAAAAAAAAAAAAAAAAAAAAAAAAAAAAAAAAAAAAAAAAAAAAAAAAAAAAAAAAAAAAAAAAAAAAAAAAAAAAAAAAAAAAAAAAAAAAAAAAAAAAAAAAAAAAAAAAAAAAAAAAAAAAAAAAAAAAAAAAAAAAAAAAAAAAAAAAAAAAAAAAAAAAAAAAAAAAAAAAAAAAAAAAAAAAAAAAAAAAAAAAAAAAAAAAAAAAAAAAAAAAAAAAAAAAAAAAAAAAAAAAAAAAAAAAAAAAAAAAAAAAAAAAAAAAAAAAAAAAAAAAAAAAAAAAAAAAAAAAAAAAAAAAAAAAAAAAAAAAAAAAAAAAAAAAAAAAAAAAAAAAAAAAAAAAAAAAAAAAAAAAAAAAAAAAAAAAAAAAAAAAAAAAAAAAAAAAAAAAAAAAAAAAAAAAAAAAAAAAAAAAAAAAAAAAAAAAAAAAAAAAAAAAAAAAAAAAAAAAAAAAAAAAAAAAAAAAAAAAAAAAAAAAAAAAAAAAAAAAAAAAAAAAAAAAAAAAAAAAAAAAAAAAAAAAAAAAAAAAAAAAAAAAAAAAAAAAAAAAAAAAAAAAAAAAAAAAAAAAAAAAAAAAAAAAAAAAAAAAAAAAAAAAAAAAAAAAAAAAAAAAAAAAAAAAAAAAAAAAAAAAAAAAAAAAAAAAAAAAAAAAAAAAAAAAAAAAAAAAAAAAAAAAAAAAAAAAAAAAAAAAAAAAAAAAAAAAAAAAAAAAAAAAAAAAAAAAAAAAAAAAAAAAAAAAAAAAAAAAAAAAAAAAAAAAAAAAAAAAAAAAAAAAAAAAAAAAAAAAAAAAAAAAAAAAAAAAAAAAAAAAAAAAAAAAAAAAAAAAAAAAAAAAAAAAAAAAAAAAAAAAAAAAAAAAAAAAAAAAAAAAAAAAAAAAAAAAAAAAAAAAAAAAAAAAAAAAAAAAAAAAAAAAAAAAAAAAAAAAAAAAAAAAAAAAAAAAAAAAAAAAAAAAAAAAAAAAAAAAAAAAAAAAAAAAAAAAAAAAAAAAAAAAAAAAAAAAAAAAAAAAAAAAAAAAAAAAAAAAAAAAAAAAAAAAAAAAAAAAAAAAAAAAAAAAAAAAAAAAAAAAAAAAAAAAAAAAAAAAAAAAAAAAAAAAAAAAAAAAAAAAAAAAAAAAAAAAAAAAAAAAAAAAAAAAAAAAAAAAAAAAAAAAAAAAAAAAAAAAAAAAAAAAAAAAAAAAAAAAAAAAAAAAAAAAAAAAAAAAAAAAAAAAAAAAAAAAAAAAAAAAAAAAAAAAAAAAAAAAAAAAAAAAAAAAAAAAAAAAAAAAAAAAAAAAAAAAAAAAAAAAAAAAAAAAAAAAAAAAAAAAAAAAAAAAAAAAAAAAAAAAAAAAAAAAAAAAAAAAAAAAAAAAAAAAAAAAAAAAAAAAAAAAAAAAAAAAAAAAAAAAAAAAAAAAAAAAAAAAAAAAAAAAAAAAAAAAAAAAAAAAAAAAAAAAAAAAAAAAAAAAAAAAAAAAAAAAAAAAAAAAAAAAAAAAAAAAAAAAAAAAAAAAAAAAAAAAAAAAAAAAAAAAAAAAAAAAAAAAAAAAAAAAAAAAAAAAAAAAAAAAAAAAAAAAAAAAAAAAAAAAAAAAAAAAAAAAAAAAAAAAAAAAAAAAAAAAAAAAAAAAAAAAAAAAAAAAAAAAAAAAAAAAAAAAAAAAAAAAAAAAAAAAAAAAAAAAAAAAAAAAAAAAAAAAAAAAAAAAAAAAAAAAAAAAAAAAAAAAAAAAAAAAAAAAAAAAAAAAAAAAAAAAAAAAAAAAAAAAAAAAAAAAAAAAAAAAAAAAAAAAAAAAAAAAAAAAAAAAAAAAAAAAAAAAAAAAAAAAAAAAAAAAAAAAAAAAAAAAAAAAAAAAAAAAAAAAAAAAAAAAAAAAAAAAAAAAAAAAAAAAAAAAAAAAAAAAAAAAAAAAAAAAAAAAAAAAAAAAAAAAAAAAAAAAAAAAAAAAAAAAAAAAAAAAAAAAAAAAAAAAAAAAAAAAAAAAAAAAAAAAAAAAAAAAAAAAAAAAAAAAAAAAAAAAAAAAAAAAAAAAAAAAAAAAAAAAAAAAAAAAAAAAAAAAAAAAAAAAAAAAAAAAAAAAAAAAAAAAAAAAAAAAAAAAAAAAAAAAAAAAAAAAAAAAAAAAAAAAAAAAAAAAAAAAAAAAAAAAAAAAAAAAAAAAAAAAAAAAAAAAAAAAAAAAAAAAAAAAAAAAAAAAAAAAAAAAAAAAAAAAAAAAAAAAAAAAAAAAAAAAAAAAAAAAAAAAAAAAAAAAAAAAAAAAAAAAAAAAAAAAAAAAAAAAAAAAAAAAAAAAAAAAAAAAAAAAAAAAAAAAAAAAAAAAAAAAAAAAAAAAAAAAAAAAAAAAAAAAAAAAAAAAAAAAAAAAAAAAAAAAAAAAAAAAAAAAAAAAAAAAAAAAAAAAAAAAAAAAAAAAAAAAAAAAAAAAAAAAAAAAAAAAAAAAAAAAAAAAAAAAAAAAAAAAAAAAAAAAAAAAAAAAAAAAAAAAAAAAAAAAAAAAAAAAAAAAAAAAAAAAAAAAAAAAAAAAAAAAAAAAAAAAAAAAAAAAAAAAAAAAAAAAAAAAAAAAAAAAAAAAAAAAAAAAAAAAAAAAAAAAAAAAAAAAAAAAAAAAAAAAAAAAAAAAAAAAAAAAAAAAAAAAAAAAAAAAAAAAAAAAAAAAAAAAAAAAAAAAAAAAAAAAAAAAAAAAAAAAAAAAAAAAAAAAAAAAAAAAAAAAAAAAAAAAAAAAAAAAAAAAAAAAAAAAAAAAAAAAAAAAAAAAAAAAAAAAAAAAAAAAAAAAAAAAAAAAAAAAAAAAAAAAAAAAAAAAAAAAAAAAAAAAAAAAAAAAAAAAAAAAAAAAAAAAAAAAAAAAAAAAAAAAAAAAAAAAAAAAAAAAAAAAAAAAAAAAAAAAAAAAAAAAAAAAAAAAAAAAAAAAAAAAAAAAAAAAAAAAAAAAAAAAAAAAAAAAAAAAAAAAAAAAAAAAAAAAAAAAAAAAAAAAAAAAAAAAAAAAAAAAAAAAAAAAAAAAAAAAAAAAAAAAAAAAAAAAAAAAAAAAAAAAAAAAAAAAAAAAAAAAAAAAAAAAAAAAAAAAAAAAAAAAAAAAAAAAAAAAAAAAAAAAAAAAAAAAAAAAAAAAAAAAAAAAAAAAAAAAAAAAAAAAAAAAAAAAAAAAAAAAAAAAAAAAAAAAAAAAAAAAAAAAAAAAAAAAAAAAAAAAAAAAAAAAAAAAAAAAAAAAAAAAAAAAAAAAAAAAAAAAAAAAAAAAAAAAAAAAAAAAAAAAAAAAAAAAAAAAAAAAAAAAAAAAAAAAAAAAAAAAAAAAAAAAAAAAAAAAAAAAAAAAAAAAAAAAAAAAAAAAAAAAAAAAAAAAAAAAAAAAAAAAAAAAAAAAAAAAAAAAAAAAAAAAAAAAAAAAAAAAAAAAAAAAAAAAAAAAAAAAAAAAAAAAAAAAAAAAAAAAAAAAAAAAAAAAAAAAAAAAAAAAAAAAAAAAAAAAAAAAAAAAAAAAAAAAAAAAAAAAAAAAAAAAAAAAAAAAAAAAAAAAAAAAAAAAAAAAAAAAAAAAAAAAAAAAAAAAAAAAAAAAAAAAAAAAAAAAAAAAAAAAAAAAAAAAAAAAAAAAAAAAAAAAAAAAAAAAAAAAAAAAAAAAAAAAAAAAAAAAAAAAAAAAAAAAAAAAAAAAAAAAAAAAAAAAAAAAAAAAAAAAAAAAAAAAAAAAAAAAAAAAAAAAAAAAAAAAAAAAAAAAAAAAAAAAAAAAAAAAAAAAAAAAAAAAAAAAAAAAAAAAAAAAAAAAAAAAAAAAAAAAAAAAAAAAAAAAAAAAAAAAAAAAAAAAAAAAAAAAAAAAAAAAAAAAAAAAAAAAAAAAAAAAAAAAAAAAAAAAAAAAAAAAAAAAAAAAAAAAAAAAAAAAAAAAAAAAAAAAAAAAAAAAAAAAAAAAAAAAAAAAAAAAAAAAAAAAAAAAAAAAAAAAAAAAAAAAAAAAAAAAAAAAAAAAAAAAAAAAAAAAAAAAAAAAgNm7syA56jvB4+kNAxIgqYSuBgSdAr+rxjsPE+Ox1R5fG35ZP+3D+sL2eHxwCcxlMGCDzydCT+sbtcdjA+boBtszgz2GsY13HzZ2FBs7Y++GjUoIoz7V1d06WghHbf6zKqtLR6vVorv0r6rPJ+Ifld0pEa6k6fo54pv/BAAAAAAAAAAAAAAAAAAAAAAAAAAAAAAAAAAAAAAAAAAAAAAAAAAAAAAAAACAGLzBJQAAAAAgZl9//0i5VkvK2WGarR3ZCseVbA1ma+hTP+iruEoAAAAAAADQHQTuAAAAAETh6+8fLSV5vF4LAfv2+nG+crXagn91T7Z2ZeeHPv3DvqorCQAAAAAAAJ1L4A4AAABA233jA6NpMh+w76jV8t3Z0/rZ05fsZwjcW88PZWs4vIrdAQAAAAAAoPMI3AEAAABYUd/84OhAI2AvdmUfON2fmw/YFw/cD81NJ7PZCi4vXX3K+Yah7LuN2P1ysTsAAAAAAAB0AIE7AAAAAMvimx8cLSXzAXuI2dPG17mz3IE9aQ3cX31tLpk8NJZMzo5mr6N52H6guq95/s3pW5M/y9bC//xaca65s/v1j4jdAYCl+W//daR1zgmzxNCnftBXcWUAAAAAYPkJ3AEAAABYsm99aKycJLUQeaXZ2pGtcq2WlM70d84UuB87PpcH7HnEfrRaj9qz4xC4n8kSAvdCHqRla/j6Ry4f8m8SADjZ198/Usw44XVHNkeE19PNOXuyNZiI3QEAAABgWQncAQAAAFjQtz88VuxWGgL2Ylf2gfrZE4vys92hPezAHnZkn52brkfts4uH7As5h8C9ldgdAHrcNz4wOtAI2LM5p9Yy5yx5xmk+LebTP+zztBgAAAAAeB0E7gAAAADkvv3hsTRpxOxJHnklxe6luVPjrjMH7gem9uURe1ivZMdhZ/ZwvJxeZ+De+r+9Gbvf8KjYHQC6zTc+MLrgnDM/J9QWmhMWmyNOJnYHAAAAgNdB4A4AAADQg75z3dhAUo+6isBrYOnxVv0bIV6fPVoP2fOofQVC9oUsY+Deqojdd93w6OV7/LQAQGf55gdHTwjZGzu0lxafA04dGMJTZiZmx5KRav3GvUNh3smOPzZw9xlmpBP+eUPZ+Tx2v/6Ry8XuAAAAAHAWBO4AAAAAXey7HxkLMVcRsIfIK218fYrFIvCJmdFkdq6aTM6OJhPZmjw0koft59MKBe6tKkk9TBu88TGxOwDE5FsfGm2dc/qT+R3alzTnhHMhZJ88NJqv8NSZyUNj+XH4/uksIXBvPb87W8PXP+JpMQAAAABwJgJ3AAAAgC7x3Y+MF1FXmq0djePSUiPvELCHXdgnQuRVHGevMWpD4N56vpLUd3YXuwNAm33rQ2PFjFOuzzm1tPH1kj/rww7s4Sa9ImgP885CIftCzjFwLxRPixG7AwAAAMBpCNwBAAAAOszDHx0vdisNq9iVfWCpcVUIuyZmR5o7ssccsi+kzYF763cqSTN2v0LsDgDL6NsfHhtozDnFruynmXNqi36WH5jal8zOTeczzyvVffnO7OHr5fA6A/dW1ex8Hrvf8KjYHQAAAAACgTsAAABAxHZ/bDxNGjF7rZbH7MXupadYKJ4K4fpMtl45uC97nU5m5+rH3eA8Bu6tX+zJzg9mr0M3/eiKip9aADg737luLE3mb9Rb4pwz/436jXqNHdkbN+8tV8i+kGUM3FvPh53dd2dr8IZHPS0GAAAAgN4lcAcAAACIxO6PTQwkedRVKwKvgdbzi8VRM0eqedz1x7BbadihNFt/7JKQfSGRBO6t50OMJnYHgJN857qx1qfPFMelpXwW18P1auPpMyN5xD55np4+s0KBe6swR+RPixG7AwAAANBrBO4AAAAAbTb4NxMh5ioC9hB5pUl9h/aG01dOxfljr80lEzONsOvodHY80vUh+0IiDNxbid0B6Dnf/ch465zTn31Klk+ccxb/rJ0tnjiT37Q3nd+0F45j0obAvfV8mCPy2P3Gx8TuAAAAAHQ/gTsAAADACvrexyeKHUrTWi3ZkZy0W2mrkwP3Y8fnkomwQ+nMSDLTCNnD1+H71EUeuLeeDzHarmwN3fz4FVX/5gDoBg9/dDyfcZJ6wL6jcZye7WdxuGkv7MAebtSLNWRfSJsD91aV7Dv5THHjY26gAwAAAKA7CdwBAAAAlsn3Pj4xkNQD9mJX9oHW82eKl0LYNT4dQvaqkH0JOihwbxV2YB1OxO4AdJCHPzpezDn9yfwO7WfxWVhruWlvNN+ZPRxPZschcO9U5zFwb51D8qfFZOc9LQYAAACAriJwBwAAAFiiv/vbyTTJw65aEbMXO7SfUTgfQvaZI9V8h9KXw26l2XGI2jk3HRq4t8pj9xCm7XxC7A7A+bf7Y+NhzglrYKlzTvBKmHWONiL22ZE8au/kkH0hkQTurefz2D3MFmJ3AAAAADqdwB0AAADgDL7/icmBpB55ba/V8sArrFL97MKR8x8n63FXWPmxkH1FdEHg3np+KDvKd3bf+cSVflgAWHGDfzNRzDYtc06tdDafZeGmvXDD3uzR6ey4ks050/nXvSLCwL3V88l87G6mAAAAAKDjCNwBAAAAMn//yclSI+wayFZ/kjRj9qbTxUXjMyPJzJHpZCJ7LY7DK+3RZYF78c8NIVq+s/vOJ64c8m8ZgNfrex+fWMKcc+KHVtiBPd+RPXsdb+zIPuumvdgD91ZD2fn8BrqbHxe7AwAAANAZBO4AAABAz/n7T06GoCtN6mHXjsZr6UxxUB6vH65mr6ONkL0qZI9AlwburfLYPYRptzwpdgdgcd/7+MTJc044Thf7LBqfHsl3YZ/II/aRZtTO6XVQ4N56Pr+BLhG7AwAAABA5gTsAAADQ1X7wqYMDST3w2p7kcVdtYKE/G+KfEK6HoOvlyX310EvIHrUeCNxbzzd3dhe7AxD83d9OFHNOf8sO7Wf8rAlzzuzR6eSPk5X8eKZxzNJ0aODeKswSgzc/foWZAgAAAIDoCNwBAACArvDDTx9MG2FXEbMXu5eeoNYofJoh+8S+ZLp5XHEhO0yPBe6tith91y1PXrnHTwJAd/v+JybDnBPmmoHGnJMd18pn+qw4dnwu34H95YOVxtwjZF9OXRC4N2eK7Hx+A93OJ8TuAAAAAMRB4A4AAAB0nB9+Ot+VPU3mQ/awSuHcyQFPHnRla/9kPe4KMbuQvXv0cODeqtII0wZvfUrsDtDpvv+JyWK2CbPOjmLOWeizKITs4zOj9SfPHK3mUXt4+kz4PiuniwL31jmk+bSYnU94WgwAAAAA54/AHQAAAIjWI9cfDNF6iLoGstXfskP7KULENTY9koxV63FXiLzC1+Ku7iZwP+V8JUnE7gCd4O8/OVnMOfnTZ8405xS/618ON+yFiH26HrEL2c+fLg3cW7/dfFrMzifMFAAAAAC0l8AdAAAAiMKjN0yVa7V8p9IQdu1IklpzV/ZWc6/WQ/YQsIfd2IXsvU3gfsbzlexMI3bfKkwDOI9+8KmDaa1WK8/POfnMky70u/zlxpNnZo5O50+eCVF7+Jp49EDg3no+mynqN9Dd8qTYHQAAAICVJ3AHAAAA2u7RG6YGksZupUk97hoozrUGNvsn6nFX2JV9TMjOaQjcFzvffP8hRhvM1tBnhrZW/OQArJwffOpgMef0J/NPomn8Pj7xF3a4Ua/+5JnR+g18MyNC9g7RY4F7qzBHiN0BAAAAWFECdwAAAGDFPHbjVJrUw64iZi92aT9BCNmnD1fzHdn3j+/Nw65pcRdnQeC+2PnTvn+xO8Ay+OGnD4aZJqyBMOe0PInmFCc/eaYetY+4iB2shwP3VmGOGMzO7771qSvNFAAAAAAsG4E7AAAAsCx+dFO+K3taq9VD9sYqtf6Zl8brIXsI2F+a2JvMHBay8/oI3Bc7v+j7z2P37PzQbcNid4CFPHL9wXCTXpht0mztON2cExRzzv7J+lNo8uMJv167kcD9lPPNG+jE7gAAAAC8XgJ3AAAAYEl+dFM1xFwh6hrIVn+S1IqYPRcCl7FqfZfSsEPpWPVA/bhql1KWn8B9sfNLev8hTNuVrRC7u/ME6EmPXD/VmHNqzafPnDznBMeOz+VzzsvhKTRC9p4kcD/j+UbsXhu69Sk30AEAAACwdAJ3AAAAYEGP31wtdioNr2G30rBDe1qcb43XR4XsnAcC98XOn/P7H8rWcCJ2B7rYozdMFTPOaeac+i/GImQPKzx5pjgO36e3CdzPeg7Zk53Pb6D7zJCZAgAAAICzI3AHAAAAck/srA5kL+VaLezK3tyhPTd9uJrH6y+N7c1fQ8wuZCcGAvfFzi/L+x/Kzuex++1PC9OAzvTYjVMLzjmF/eOVxs16B4TsLErgfk5zSPMGOrE7AAAAAGcicAcAAIAe88TOaprUd2UfyNb2pB55ha/zkL2arZfG99aj9sYxxErgvtj5ZX//jTCtNnT701cJ04DoPHbj1MlzTtqYdZq/z/ZPVPIZZybcvDexN9+ZPYTtsBQC99c9h4jdAQAAAFiQwB0AAAC62JO3TIegK6wiZC/XarXS3PG5fAf2sCN7tWV3dug0AvfFzq/Y+w8hWh6m3f70VUN+EoHz4Uc3VbPZplbcqLejPuckpeJ8mHXyHdnDbuyNp88I2VkuAvdlnUPymeK24a27/WQBAAAAEAjcAQAAoAs8det0iLlC4DVQqyX9jeNyHrJPHUhGqyNJ9fBUHnaNZl+H70M3ELgvdr4t779ahGl3PCN2B5bf4zdXizknBOzNm/aK30dFuB7mnRCy51F7dgwrSeC+InNI8wa624a3mikAAAAAepjAHQAAADrMU7dOFzuVhtewW2k6d3wuHS1C9kNCdnqHwH2x821//80wTewOnIvHb64WM07rE2jC95Lpw9X8yTP7x/fmEXv4+qVxT6Dh/BC4r/gcks8U2bnh258WuwMAAAD0GoE7AAAARGzoM9MDST3sKnZlH6iM7s2DrrD2je1NRqsHkrlXhez0JoH7YufP6/svYvdddzxz1R4/rcDJnthZDXNOmsyH7OFJNMmx43P5TXshXi9mHiE7sRG4t2cOaZwrZorB25/e+ryfPgAAAIDuJ3AHAACACAzfNpMm9cArhF155LVv7MW02Kl0Xx61T+XHwDyB+2Lno3n/laQRpt35Y7E79Jonb5kuJc2Avba9MfOUw5NmiqfOhB3ZQ9Q+5gk0dAiBe3vmkNO89+ZMcfvTZgoAAACAbiVwBwAAgDYbvm0mBF5h5SH7gYOvlMeqo6UQsFfG9ibTh0LUPuVCwVkQuC92Psr3X0nE7tC1nrxluphz0mztaByXXspmnHCjXnjyjJCdbiBwb88cssh7r2Tn85nC02IAAAAAuovAHQAAAFbI07fPNHcrzVb//vGXykeOHS6PHDyQjEwdqEde2Stw7gTui52P/v1XsjVUq9UG7/rJ1cI06CBP3drclb24aS8NM0946kyYccKO7PWofSqZ9gQaupDAvT1zyBLeez5TZGvXHc9cVfETCgAAANDZBO4AAACwDJ65Y6bYqbRcGd27Y+bITHpwdjINMXuIukaE7LAiBO6Lne+U95//gRC4D2Zr6K6fXF3x0w3xGPrMdD7jhJX955o/gWa0eiCdzm/WG0lGwq7sUweE7PQUgXt75pBzfO/NmULsDgAAANCZBO4AAACwRM/cMTuQvZRfnnipf+bwTHl8enQg7FRa7MwOtI/AfbHzHRW4txK7w3ky9JmZMOek2X+Z9ZB96kA+54xWR/KI3RNooE7g3p45ZBnee3OmuPPHYncAAACATiFwBwAAgAX8+M7ZNHtJK6N7B6YPT29/ZfLl8rHjx9Lqoakk+54LBBEQuC92vmMD99a/2wzTPvtTsTssl+HbZkpJfVf2gWxtn5yZSA/NzYYn0STTh6pJ9fBUsm/MvAMLEbi3Zw5Z5vdezBS77/zxVR45AQAAABAxgTsAAABkfnLXbHm8Olb+t33/Jz08d2jH4bnD5WyVhOwQN4H7Yue7InBvFcK0XUk9dhemwVl6+vaZELKHlc05h3eMTo2U94/vK4Xd2POQ3bwDSyZwb88csoLvfShbw9kMEp4WY6YAAAAAiIzAHQAAgJ7y088eKu0debH87/v+rVw9NLX9DW94Q3nu+Fx55OCBZO7VORcIOozAfbHzXRe4t8rDtETsDk3P3FHflT3776Y8e3R2+/7xfenskZmBELKPTh1IRqbMO7BcBO7tmUPaNIM0ZwqxOwAAAEAcBO4AAAB0rdvfO5z+3/2/Kx85dqS8/tL1O2aOTIddS1NhF3QPgfti57s6cG893wzT7v4HYRq94Zk7ZtOkvit7+X/v/dftc68eLU/NTqUjQnZoC4F7e+aQ8zCDiN0BAAAAIiBwBwAAoCv8+RU3lTes3TDw2p9e658+PF0uXbp+oHpoyoWBLidwX+x8zwTurcTudJ0f3zk7kL2k//23L2w/9uqxELUPVEZfTMLO7OYdOD8E7u2ZQ87jDBJmiKHs9PBnf3r1kJ94AAAAgPYSuAMAANAV/vyKm57LXgZcCegtAvfFzvdk4F6caYZp9/xjvzCNjvCTu2ZL2Uv5X3//vwaOHDuyfXx6LD167Gg57MguZIe4CNzbM4eczxmk5e/nM0W2xO4AAAAAbSJwBwAAoCsI3KE3CdwXO9/TgXvr+WaYJnYnFj+5a7b8zP8YSl/705/Kx197dcfRV4+Wjxw7Uho5eMDFgQ4gcG/PHBJJ4N5K7A4AAADQBgJ3AAAAuoLAHXqTwH2x8wL3M4VpYnfa5fb3Dg8cPXak/NLYS9tf+9Px9OJVlwxURva6MNDBBO7tmUMiDNxbVbLzYZYYvPsfrt7jvwoAAACA5SNwBwAAoCsI3KE3CdwXOy9wX+TvVxth2q7P/VO/MI3X7Y73Dqe/2/+78iuTfyxfuvrS7RddcFF5cmYydWWg+wjc2zOHRB64t56vJInYHQAAAGC5CNwBAADoCgJ36E0C98XOC9zPJUwTu3MOc8h12ctD2Sq5GtAbBO7tmUM6KHBvlc0UtUbsbqYAAAAAOBdvdAkAAAAAAJI0WzvD+uJ79lUSsTtL//kRtwNwwkzxpf+0L8wRg2GuuOcf+ysuDQAAAMDZEbgDAAAAAJwoTRph2oPvno/d731W7A4ALEm5sR4SuwMAAACcPYE7AAAAAMDC0mQ+dt+TJLU8TLv32bTi0gAAS3BK7F6rJUOf+yexOwAAAMDJBO4AAAAAnNaa1aVk45otyYawLt2SrFlVSn7z/55NXpna5+LQq5ph2oPvrjTDtPt+JnYHAM5tpvjie/aFJ8UMZyvE7lWXBgAAAEDgDgAAANDzQsi+ZtW65IrL+vOIfc3q7Hh9/yl/rlZzraBFM0x74F312D1bYncAYKne11gPi90BAAAA6gTuAAAAAD3iojeuSjas3ZLvyh5C9o3ZcWvILmCHc3Zy7L4rqcfuwjQAYClOiN2z+TyP3e99VuwOAAAA9BaBOwAAAEAXujLsxr66lMfsYW3I1oVvXOXCwMoLofvDYT3wrkozTLv/52J3gHMVbsg79tpcMjk76mLQS5qx+4Pv3rc7ex2+99n+IZcFAAAA6AUCdwAAAIAOtjHfkb0vWbu6lMdfa1avy8P2E9W3ZrdDO7RdM0z7wjsrIUgTuwOcQXFzXrgxb+Ol4bUvn22C//mHXwrc6WXXhfXguythhshninufTcXuAAAAQNcSuAMAAAB0gBCyh+hr05q+5nEIwFoJ2CFqYneAFleEp82s8rQZWKJwJ+t1SSN2z+b/fKa472didwAAAKC7CNwBAAAAIhJ2Yg87lV65Ic2O1+W7s4egPRCwQ9coYveHPv+OvXmY9vl/3iZMA7rSmmK2Wd+fR+ynu0nPnAPnpBm7P/CufGf33dkavO9n6R6XBgAAAOh0AncAAACA8+CiC1YlG9f2JZvCrqXZ69qLS8kV6/sbZxVe0COaYdrn37E3hGlid6CjXRl2ZV9d7Mrel2xYuyW56I0X1acb4w2s9EyxM6wH3lWpNGYKsTsAAADQsQTuAAAAACts64Y034U9BF+b1vbl0VcI3E8m/IKeJnYHOkaYacKTZq68rDHjrCrlu7OfngEH2ixNGrH7F945H7vf/3OxOwAAANA5BO4AAAAAyySE7GtWr8t3Y996WXZ8cXa8utQ8L2AHzlIzdr//r5ux+64v/GKbMA1ouxCwb1rTl0ftV1zWn3990RvdqAcdIk1OjN13hbni/p+nFZcGAAAAiJnAHQAAAGCJwi7sIWLftHZLsjE73rRuSx6yC7uAFdAau1eSxi6sYndguYWny2xc05dcuaE/3509HIeYvWDOgY6XZuuhsL7wzkqYIwZrtdrQ5/95W8WlAQAAAGIjcAcAAABYQIjYQ7i+dWOax+xh59IQt89TegFtlSaNXViL2L1WSwYfeE7sDixNfoPe2voNelduSJONa7YkFzZ3ZTffQA8oN9ZDn3/H3jx2D3OF2B0AAACIhcAdAAAA6Hlhx9JN6/qSrRvSfMfSELaH45PZuRSISPgllcfu9719fmd3sTtwyoyztr4r+5pV80+fOR1zDvSs1tj9+WQ+dq+6NAAAAMD5InAHAAAAekYRsofQa93F65rH4fuBsAvoUGkyH7s3dmGtDT3w3DUVlwZ6R5hp1qyuzzdbL0uTjWu3NGcccw5wlgYa6+H7/3pvuHluOFtDX/iF2B0AAABoL4E7AAAA0BP+y1uuS7ZuTJOaugvobs1dWO97+4t7sl95+S6sDz4vdoduUezKnu/Gvq4vWbs6PHmmX8AOLLf3NZbYHQAAAGg7gTsAAAAAQHdqxu73DrzY2Nld7A6dJITsay8u5buyX3lZf34cgvY6RTvQNifH7oNf+MW2IZcFAAAAWCkCdwAAAACA7ndy7L4rqcfudmGFCDR3ZV9X35k9hOxbN6Qn/Bk7tAORyGP3+96+N8wQ+c7uDzwndgcAAACWl8AdAAAAAKC3hND94bA+t+PFPEzL1tAX/0XsDu2Q78i+ti/ZvK4v2bqxP9+RPXxPwA50mPA4ievCErsDAAAAy03gDgAAAADQu97XWGJ3WCEhXn/zNX+R786+dUO/CwJ0o5bY/cU8dq/Vkl0PPn/NHpcGAAAAOBcCdwAAAKAt1l1cStZeUkqu3rgteeG3z7kgAPE5JXav1ZKhL/1S7A6vdwZ687V/kR/XbNMOdL9m7H7vwIuVpL6z+6DYHQAAAFgKgTsAAACwrDaX+vKQa3Pp8mTzuuK4r3k+dF0Cd4DoFbH7Q/e8rR67f+mX1wy5LADAEqTZ2hmW2B0AAABYCoE7AAAAcE6u3rQtWXdJKQ/Yr9qUNo9tTArQVZq7sN7ztherSVJrxO7Xit0BgKVIk5bYPfv/jYPZ8e4v/ss1FZcGAAAAOJnAHQAAAFjQqgtW5Tuxbwm7sl9S35V97cX1kH2eoh2gR7TE7n+oZq9DtVoy/OVfid0BgCVJs3V/WJ/b8WLYzT3E7kNidwAAAKAgcAcAAADqu69fsj7p35TWA/bsOETtF12w6pQ/a4d2AJKW2P3ut9Zj92zt+vKvrt3j0hCzMNscOz7nQgDEo9xYD4ndAQAAgILAHQAAAHrIltLlecwe4vXN2Vp14erk6k3pCX9GwA7AErXG7pWkHrsPit05n8KcE544E54+s3ldcdyXvPDvzycv/PY5FwggTs3Y/Z635bH7rjBXfOmX11RdGgAAAOgtAncAAADoQv2btzV3ZQ8xez1qvzw/V1OwA7By0mztDCvE7tlHTh67f+XXYndWRrhRL595Ll6fXFU8iebikgsD0PlC6P5wWPe87cVsnqgNJ3nsfq3YHQAAAHqAwB0AAAA61KoLV+XR+pb1fcmqC1YnV29Ok9Il6/OwCwAikCaN2P2zfzW/s7vYnSXPPBesyndiDzftrW3syh6OL8q+nyQn3rjnPj6ArvS+xnr4nrf9IcwTw+Emui//SuwOAAAA3UrgDgAAAJErNXZi79+yrRF49SVb1l+eH5+OsAuACKXJfOweAvfBbA195dfXVlwaCsVO7OGmvbALe5h/wg7t5hwAWjRj97vfWo/dv/yra3e7LAAAANBdBO4AAAAQiTxav3BV0r95W74T+7pL1uXHJxN2AdDhymHVarWH7nrL75ux+1dfeFPFpemRmafUl8fr4TXcuLfqwtXNkN2cA8AS5LH73W/9w0NJ/UkxIXYfclkAAACg8wncAQAAoM2Kndj71l+eR+1hh/bwWpgPuxReAHS9cmOJ3btx5tm8rb4re3gSzaY0uejCVcnmdX0uDADLrZSt68K6+61/qIZZIvv/1cNf+bXYHQAAADqVwB0AAABWQNiJPQTsIegqXVpK0hB4Xbo+j9ntTAoAp3VC7J59Xu7Kjoe+9ps3VV2auGeeLaVw015jV/Z19dcQtp9OzSAEwMpqxu6f/at67J6twa/8+trnXRoAAADoHAJ3AAAAWAEhbv/QOz/mQgDAuQmh+8Nh3fmXvw9h2i1f+41d3c+nUrET++Zt+U7sW0p9+RNowlNpWunXAYjp4yuZj93DHFHE7ntcGgAAAIibwB0AAAAAgJi9L1thN/eKS7HyQrQeYvbiNezEHqL2goAdgA6VZmtnWCF2r9Vqeez+1RfeJHYHAACACAncAQAAAACgx/Rv2ZaULll/QsweXucDdiU7AF0rTRqx+11v+X0lqe/svuurL3haDAAAAMRC4A4AAAAAAF1o1YWrkr71lyfrQsh+aSlJN2/Lj8Ou7ABALk3mY/ewm/tgtobE7gAAAHB+CdwBAAAAAKCLvOc/vjfZfs2b88D9dGo2ZweA0yk31kN3/uV87P6134jdAQAAoN0E7gAAAAAA0EXCru0Lxe0AwFkpYvf/nK23uxwAAADQXv/BJQAAAAAAAAAAAAAAIAYCdwAAAAAAAAAAAAAAoiBwBwAAAAAAAAAAAAAgCgJ3AAAAAAAAAAAAAACiIHAHAAAAAAAAAAAAACAKAncAAAAAAAAAAAAAAKIgcAcAAAAAAAAAAAAAIAoCdwAAAAAAAAAAAAAAoiBwBwAAAAAAAAAAAAAgCgJ3AAAAAAAAAAAAAACiIHAHAAAAAAAAAAAAACAKAncAAAAAAAAAAAAAAKIgcAcAAAAAAAAAAAAAIAoCdwAAAAAAAAAAAAAAoiBwBwAAAAAAAAAAAAAgCgJ3AAAAAAAAAAAAAACiIHAHAAAAAAAAAAAAACAKAncAAAAAAAAAAAAAAKIgcAcAAAAAAAAAAAAAIAoCdwAAAAAAAAAAAAAAoiBwBwAAAAAAAAAAAAAgCgJ3AAAAAAAAAAAAAACiIHAHAAAAAAAAAAAAACAKAncAAAAAAAAAAAAAAKIgcAcAAAAAAAAAAAAAIAoCdwAAAAAAAAAAAAAAoiBwBwAAAAAAAAAAAAAgCgJ3AAAAAAAAAAAAAACiIHAHAAAAAAAAAAAAACAKAncAAAAAAAAAAAAAAKIgcAcAAAAAAAAAAAAAIAoCdwAAAAAAAAAAAAAAoiBwBwAAAAAAAAAAAAAgCgJ3AAAAAAAAAAAAAACiIHAHAAAAAAAAAAAAACAKAncAAAAAAAAAAAAAAKIgcAcAAAAAAAAAAAAAIAoCdwAAAAAAAAAAAAAAoiBwBwAAAAAAAAAAAAAgCgJ3AAAAAAAAAAAAAACiIHAHAAAAAAAAAAAAACAKAncAAAAAAAAAAAAAAKIgcAcAAAAAAAAAAAAAIAoCdwAAAAAAAAAAAAAAoiBwBwAAAAAAAAAAAAAgCgJ3AAAAAAAAAAAAAACiIHAHAAAAAAAAAAAAACAKAncAAAAAAAAAAAAAAKIgcAcAAAAAAAAAAAAAIAoCdwAAAAAAAAAAAAAAoiBwBwAAAAAAAAAAAAAgCgJ3AAAAAAAAAAAAAACiIHAHAAAAAAAAAAAAACAKAncAAAAAAAAAAAAAAKIgcAcAAAAAAAAAAAAAIAoCdwAAAAAAAAAAAAAAoiBwBwAAAAAAAAAAAAAgCgJ3AAAAAAAAAAAAAACiIHAHAAAAAAAAAAAAACAKAncAAAAAAAAAAAAAAKIgcAcAAAAAAAAAAAAAIAoCdwAAAAAAAAAAAAAAoiBwBwAAAAAAAAAAAAAgCgJ3AAAAAAAAAAAAAACiIHAHAAAAAAAAAAAAACAKAncAAAAAAAAAAAAAAKIgcAcAAAAAAAAAAAAAIAoCdwAAAAAAAAAAAAAAoiBwBwAAAAAAAAAAAAAgCgJ3AAAAAAAAAAAAAACiIHAHAAAAAAAAAAAAACAKAncAAAAAAAAAAAAAAKIgcAcAAAAAAAAAAAAAIAoCdwAAAAAAAAAAAAAAoiBwBwAAAAAAAAAAAAAgCgJ3AAAAAAAAAAAAAACiIHAHAAAAAAAAAAAAACAKAncAAAAAAAAAAAAAAKIgcAcAAAAAAAAAAAAAIAoCdwAAAAAAAAAAAAAAoiBwBwAAAAAAAAAAAAAgCgJ3AAAAAAAAAAAAAACiIHAHAAAAAAAAAAAAACAKAncAAAAAAAAAAAAAAKIgcAcAAAAAAAAAAAAAIAoCdwAAAAAAAAAAAAAAoiBwBwAAAAAAAAAAAAAgCgJ3AAAAAAAAAAAAAACiIHAHAAAAAAAAAAAAACAKAncAAAAAAAAAAAAAAKIgcAcAAAAAAAAAAAAAIAoCdwAAAAAAAAAAAAAAoiBwBwAAAAAAAAAAAAAgCgJ3AAAAAAAAAAAAAACiIHAHAAAAAAAAAAAAACAKAncAAAAAAAAAAAAAAKIgcAcAAAAAAAAAAAAAIAoCdwAAAAAAAAAAAAAAoiBwBwAAAAAAAAAAAAAgCgJ3AAAAAAAAAAAAAACiIHAHAAAAAAAAAAAAACAKAncAAAAAAAAAAAAAAKIgcAcAAAAAAAAAAAAAIAoCdwAAAAAAAAAAAAAAoiBwBwAAAAAAAAAAAAAgCgJ3AAAAAAAAAAAAAACiIHAHAAAAAAAAAAAAACAKAncAAAAAAAAAAAAAAKIgcAcAAAAAAAAAAAAAIAoCdwAAAAAAAAAAAAAAoiBwBwAAAAAAAAAAAAAgCgJ3AAAAAAAAAAAAAACiIHAHAAAAAAAAAAAAACAKAncAAAAAAAAAAAAAAKIgcAcAAAAAAAAAAAAAIAoCdwAAAAAAAAAAAAAAoiBwBwAAAAAAAAAAAAAgCgJ3AAAAAAAAAAAAAACiIHAHAAAAAAAAAAAAACAKAncAAAAAAAAAAAAAAKIgcAcAAAAAAAAAAAAAIAoCdwAAAAAAAAAAAAAAoiBwBwAAAAAAAAAAAAAgCgJ3AAAAAAAAAAAAAACiIHAHAAAAAAAAAAAAACAKAncAAAAAAAAAAAAAAKIgcAcAAAAAAAAAAAAAIAoCdwAAAAAAAAAAAAAAoiBwBwAAAAAAAAAAAAAgCgJ3AAAAAAAAAAAAAACiIHAHAAAAAAAAAAAAACAKAncAAAAAAAAAAAAAAKIgcAcAAAAAAAAAAAAAIAoCdwAAAAAAAAAAAAAAoiBwBwAAAAAAAAAAAAAgCgJ3AAAAAAAAAAAAAACiIHAHAAAAAAAAAAAAACAKAncAAAAAAAAAAAAAAKIgcAcAAAAAAAAAAAAAIAoCdwAAAAAAAAAAAAAAoiBwBwAAAAAAAAAAAAAgCgJ3AAAAAAAAAAAAAACiIHAHAAAAAAAAAAAAACAKAncAAAAAAAAAAAAAAKIgcAcAAAAAAAAAAAAAIAoCdwAAAAAAAAAAAAAAoiBwBwAAAAAAAAAAAAAgCgJ3AAAAAAAAAAAAAACiIHAHAAAAAAAAAAAAACAKAncAAAAAAAAAAAAAAKIgcAcAAAAAAAAAAAAAIAoCdwAAAAAAAAAAAAAAoiBwBwAAAAAAAAAAAAAgCgJ3AAAAAAAAAAAAAACiIHAHAAAAAAAAAAAAACAKAncAAAAAAAAAAAAAAKIgcAcAAAAAAAAAAAAAIAoCdwAAAAAAAAAAAAAAoiBwBwAAAAAAAAAAAAAgCgJ3AAAAAAAAAAAAAACiIHAHAAAAAAAAAAAAACAKAncAAAAAAAAAAAAAAKIgcAcAAAAAAAAAAAAAIAoCdwAAAAAAAAAAAAAAoiBwBwAAAAAAAAAAAAAgCgJ3AAAAAAAAAAAAAACiIHAHAAAAAAAAAAAAACAKAncAAAAAAAAAAAAAAKIgcAcAAAAAAAAAAAAAIAoCdwAAAAAAAAAAAAAAoiBwBwAAAAAAAAAAAAAgCgJ3AAAAAAAAAAAAAACiIHAHAAAAAAAAAAAAACAKAncAAAAAAAAAAAAAAKIgcAcAAAAAAAAAAAAAIAoCdwAAAAAAAACA/8+uHQsAAAAADPK3nsaO4ggAAIAFwR0AAAAAAAAAAAAAgAXBHQAAAAAAAAAAAACABcEdAAAAAAAAAAAAAIAFwR0AAAAAAAAAAAAAgAXBHQAAAAAAAAAAAACABcEdAAAAAAAAAAAAAIAFwR0AAAAAAAAAAAAAgAXBHQAAAAAAAAAAAACABcEdAAAAAAAAAAAAAIAFwR0AAAAAAAAAAAAAgAXBHQAAAAAAAAAAAACABcEdAAAAAAAAAAAAAIAFwR0AAAAAAAAAAAAAgAXBHQAAAAAAAAAAAACABcEdAAAAAAAAAAAAAIAFwR0AAAAAAAAAAAAAgAXBHQAAAAAAAAAAAACABcEdAAAAAAAAAAAAAIAFwR0AAAAAAAAAAAAAgAXBHQAAAAAAAAAAAACABcEdAAAAAAAAAAAAAIAFwR0AAAAAAAAAAAAAgAXBHQAAAAAAAAAAAACABcEdAAAAAAAAAAAAAIAFwR0AAAAAAAAAAAAAgAXBHQAAAAAAAAAAAACABcEdAAAAAAAAAAAAAIAFwR0AAAAAAAAAAAAAgAXBHQAAAAAAAAAAAACABcEdAAAAAAAAAAAAAIAFwR0AAAAAAAAAAAAAgAXBHQAAAAAAAAAAAACABcEdAAAAAAAAAAAAAIAFwR0AAAAAAAAAAAAAgAXBHQAAAAAAAAAAAACABcEdAAAAAAAAAAAAAIAFwR0AAAAAAAAAAAAAgAXBHQAAAAAAAAAAAACABcEdAAAAAAAAAAAAAIAFwR0AAAAAAAAAAAAAgAXBHQAAAAAAAAAAAACABcEdAAAAAAAAAAAAAIAFwR0AAAAAAAAAAAAAgAXBHQAAAAAAAAAAAACABcEdAAAAAAAAAAAAAIAFwR0AAAAAAAAAAAAAgAXBHQAAAAAAAAAAAACABcEdAAAAAAAAAAAAAIAFwR0AAAAAAAAAAAAAgAXBHQAAAAAAAAAAAACABcEdAAAAAAAAAAAAAIAFwR0AAAAAAAAAAAAAgAXBHQAAAAAAAAAAAACABcEdAAAAAAAAAAAAAIAFwR0AAAAAAAAAAAAAgAXBHQAAAAAAAAAAAACABcEdAAAAAAAAAAAAAIAFwR0AAAAAAAAAAAAAgAXBHQAAAAAAAAAAAACABcEdAAAAAAAAAAAAAIAFwR0AAAAAAAAAAAAAgAXBHQAAAAAAAAAAAACABcEdAAAAAAAAAAAAAIAFwR0AAAAAAAAAAAAAgAXBHQAAAAAAAAAAAACABcEdAAAAAAAAAAAAAIAFwR0AAAAAAAAAAAAAgAXBHQAAAAAAAAAAAACABcEdAAAAAAAAAAAAAIAFwR0AAAAAAAAAAAAAgAXBHQAAAAAAAAAAAACABcEdAAAAAAAAAAAAAIAFwR0AAAAAAAAAAAAAgAXBHQAAAAAAAAAAAACAhQRg706D5DrLfMEfL8LCxlYaY1uSFx3o/p6nJxwzcydiok7cibndPXdu3L73dsxEsO/gTXgFY6BpGuim50PT6g/TYLYqFu9L2WCbpcFlwNyevr4gGuMV49RWqr0yK2vJ2ueck1mllC2pSlItufx+ES8nla8keN9KVT5U/t/nCLgDAAAAAAAAAAAAANAQBNwBAAAAAGhkhWQUbQMAAAAAALSHs20BAAAAAAANqDsZXX/7iz/sthUAAAAAANA+BNwBAAAAAGgUhWR0JaPzb3/xhwXbAQAAAAAA7UfAHQAAAACAzZZ1a//CU7q1AwAAAABAuxNwBwAAAABgMxSCWrf2LzylWzsA0FCKaY2SjD22AgAAADaegDsAAAAAABtJt3YAoFHtDaqh9u6//cUfFm0HAAAAbA4BdwAAAAAA1lshqHVr/5uf/0HBdgAADSQNsqcH7/Z84ak/3Gs7AAAAYPMJuAMAAMA6KI4Xgyd/85MgvOTNwaUX7gi2vm6rTQGgHWXd2v/m53+gWzsA0GiWu7V/4Snd2gEAAKCRCLgDAADAOihOjAZP/utPgidrv86dd2Fw6YXbg+1v3BHsSkPvOaF3AFpWIdCtHQBoXJ1prfKFp/6wx1YAAABAYxJwBwAAgA2QBt7T8cLB55afWw69X7gj2HWp0DsATS/r1v7XP9OtHQBoOIWg2q09PYCnWzsAAAA0OAF3AAAA2CRHhd5/U31uKfR+6YU7gktz1fD7tvNyNguARlUIat3a//pnurUDAA2nM61V/ubnf9BjKwAAAKB5CLgDAABAAzlWp/e0q3va3b3a5X179ljoHYBNplt7A6vMVmwCAO2sEOjWDgAAAE1NwB0AAAAaXGWmEuwbeCUbS5ZD75e8udrxXegdgPVXCGrd2j//U93aG9k9T34nqxXSO8GkB+TSa3p3mJxaAYDW5gAeAAAAtAgBdwAAAGhCJwq9X3mJTu8ArKksLPb5n75FWKzJaoVC/yvZOKpWuHBHEGYH5KqB9/QKAE2sENQO4P31zxzAAwAAgFYh4A4AAAAt4pih9y3VIFsaet92bi7r9n7Jtu02C4CVFILlbu1vKdiOFqoV+l/JRr2sy3uu2uV96c4wANDgdGsHAACAFibgDgAAAC2sMvva0HvqSJf37cElaaAtJ/QOQCYLi33uSd3a28kxQ+9Zl/ftwfYLq3WCTu8ANIBiMvYEurUDAABAyxNwBwAAgDa0f+CVbNRbCr2nHd7Tzq2XCL0DtItCUOvW/rkndWun6lgH5JZC75fmdHoHYEP1pLXK53/6B522AgAAANqDgDsAAACQOWbo/eJa6D0n9A7QgnRr56SsFHrfdl4uqx0AYA2k3do7k7Hn8z91AA8AAADajYA7AAAAcFz7B1/JRr00uJYG3bedm8uuV14c2iiA5lEIat3aP9sjLMbpO1bovb7De3pQLr1LDACsUk+QdWt/S6etAAAAgPYl4A4AAACclGOF3qsd3rcHl2zbkYztwRVC7wCNJuvW/tke3dpZf/3Fw9kIgl8tP7cUek/rhEsv3OGAHAD1irVa5TOfe9IBPAAAAEDAHQAAAFgDA8W+bATB3uXnLslVQ2yXpIE2oXeAzVAIdGunQRwJvR+RHY6rdXkXegdoS+n/gdyTjO7PPfmWou0AAAAAlgi4AwAAAOtiOfS+77WhdwDWVdat/a+e0K2dxtaf1Anp+E3dc/Wh96XrOVu22iyA1rHUrX3P5558y17bAQAAAByLgDsAAACwYY50egdgjRWCWrf2v3rizQXbQbM6Vuh923m54NLcjuyg3BVverPQO0Dz1iqfSUb3Z3t0awcAAABOTMAdAAAAAKB51bq1v1m3dlpWaaKYjRcPPZf86onsuTT0fsm2aof3Ky4Ohd4BGldnWqt8tuctPbYCAAAAWC0BdwAAAACA5pJ2Pd0T6NZOG1sKvb/U+9zyc9vOzWVd3i/J7QiufFOYPRZ6B9gUhaVaRbd2AAAA4FQIuAMAAAAANIeeZHR95idv7rQV8FqlyWI2Xup9Pniq9lx96P2KN4XJ/KiNAlg/SY1yRnpnmR5bAQAAAJwOAXcAAAAAgMaVdj3tTMaez/xEt3Y4WfWhdwDWRVqfdCXj7//qiTfr1g4AAACsCQF3AAAAAIDG0xPo1g4ANK7utFb5qyfe3G0rAAAAgLUm4A4AAAC0hd/1PR8sJteLL7g0OGfLVhsCNKLlbu1/+WPd2gGAhpPWJ2m39s6/ekKtAgAAAKwfAXcAAACgLfzy5X/ORioNuF+8bXtw8QXbg63J48vftCu44PW54PxkAGyCnmR0/eWPdWsHABpS1q39Mz/RrR0AAADYGALuAAAAQNuZnq0EB4cK2ci8cGTu8ovC4IJzc9m4/KJd1TD8BdttGrDWdGsHAJqiVvnMT9QqAAAAwMYScAcAAACoc3C4EATDr30+Dbmnoff0+qYLLq09vtSGASerJxldn/6nsNNWAACNWqt85ifuLAMAAABsHgF3AAAAgFUYHOvLxst9zx/1fNbt/fXVbu/nv776+LLkMUCd5Q6on/6nsGA7AIBGrVXcWQYAAABoBALuAAAAAKdhbLKYjazze5006J6G37Nu76+vdn6/KHl8ztlbbRq0j55At3ZoeweGCsFXf/T3y3eC2XbutuDibduzx+dsURcAm1+r/OWPdWsHAAAAGouAOwAAAMA6GJsqZuPVwfc0yPamC7YHF59/afb4sovC4PzXb8tC8EBLWO6A+hc/0q0dqNUFSwfihl5bF9SH3dM7wiwdkgNYx1qlO6h2a99rOwAAAIBGJOAOAAAAsIGmZyvBoeFCNjIvPbk8d9kbw+CC128Lzj83lzzelXV7TzvAA02hJxldf/Ej3dqBk6sL0tD7q4PvqcsvCrOgezrS4PvrkrogDcIDnKI0zL4nGd2f/qewaDsAAACARibgDgAAANAgDo0UgkPHeD4NuafdXN90/vbs8fnZY8F3aAC6tQPrJrsLzPBrn09D7mno/eKkJnhT9nib4Dtwolol69b+6X8KdWsHAAAAmoaAOwAAAECDGxrrz8bv+1846vk06J52fE87v5+fdn7fmgt2vnGXDYP115OMrk/9ULd2YOMNjvVl4+W+5496Pj0MlwbfL7toV/Xx66uPgbZUCKrd2jt1awcAAACakYA7AAAAQJMqTxWzcWhk31HPLwXfLzp/e3ZNu71flIzXnb3VpsGpW+7W/qkf6tYONJ6xpCZIR9b5vc5S8D2tB87POr9vzx6fs0VdAC0orVW6/uJHYY+tAAAAAJqZgDsAAABAizle8P2cs7cGF11waTXUljxOu72nXd/T7u/AcfUEWbf2XZ22AmhGxwu+pwH3N12wPbi4Fnbf+cYwOxinLoCmk/7jzrq1/8WPdGsHAAAAWoOAOwAAAECbmJ6rBL0j+7KRefnI3M4Ld2Wd39NQW/o4C8Off6lNo13VdWvfVbAdQEvWBbOV4NBwIRtVTy7PXfbGXVnn97Tje/pYXQANKa1VdGsHAAAAWpKAOwAAAABB7+i+IBjd95rn027vafD9ojdcmgXb0pA8tLCeZHR98ge6tQPtLb0LzKHgGHXBBdW64OLzty8/fpPgO2ykQlqrJKPzUz8MC7YDAAAAaFUC7gAAAAAc11C5PxuvDLxgM2hVy93aP/kD3doBTlgXjPVn45X+o+uCNOh+QXoXmDeGwflbt2Xd33e+cZcNg7XTnYyuT/0w7LYVAAAAQDsQcAcAAAAA2lFPoFs7wJooTxWzkXZ+r7cUfE/vAnP+1lzW9T19fM7ZW20arKwQLHdrdwgPAAAAaC8C7gAAAABAu1ju1v6J7wuKAay34wXf04D7RRdcGrypFnbfeeGu4A1bc8H5r99m06B6CC+9s4xu7QAAAEDbEnAHAAAAAFpdTzK6PvF93doBGsH0XCXoHdmXjVdLw+5p5/c07J4+zsLw519q02h1y4fwPvkDh/AAAAAABNwBAAAAgFaUBcXOOCPYc/vjgmIAzaJ3dF8QjL42+P66s7faHFpRTzK6PvkDh/AAAAAA6gm4AwAAAACtpCcZXbc/LigG0Epm5io2gVahWzsAAADACgTcAQAAaBU3JuPPkpFPRpyMnC0BaBvLQbHbH7+yYDsAgAa0N61VPvF9h/AAAAAAViLgDgAAQEt4uvcf0rDA3qVfX7Vzd5hcogvO29YxNlGKgmroHYDW0hNk3dqv7LQVAEADSg/hdQfVYPte2wEAAACwOgLuAAAAtKSne/+hkFzS0b303FU7d0cXXXBRPDM7ky9PldPQe2SnAJrOcrf2jz+mWzsA0JCybu3p/x/9xPd3FW0HAAAAwMkRcAcAAKBtZF3ee490eX/0tnLu09/8RJR7w4Xx3PxsfnxqPA28h3YKoCH1JKPr44/p1g4ANKy0Ttlz++O6tQMAAACcDgF3AAAA2ta//8L5aSe9ntrI3PqnD4cvHHw+6h0+lIbdO7a+bmtcmanYLIDNoVs7zSJ9faZhRneHAWjP94C0W3vn7Y9fqVs7AAAAwBo4wxYAAADAib3r39wRDZQGosr0VMf8wnw0OT0pvAYN4n8I/9fgj5KRWlw81u9YPMFc3e866fnF0/zzx5tfXKP/fc22/tf8hjQovOe2R3Vrp7lctXN3LqiG3ONk5GvXnJ2B1vO++PYWeh9u3DpkE2qQk/nzncl81+2PX9njXwQAAADA2hJwBwAAgFPw53/0xTi5xEOlwfz84nw0NT0V2hXYeALuK803VcA97XjaHVSD7Xu9umkVV+3cndYI0QXnbesYmygthd+BJifgvjF1SAMG3AtBrVv7xx/TrR0AAABgvQi4AwAAwBr47kfHwjse+3+jqZmpaHZupmN+YSGqzEzp2ArrTMB9pfmmWP/excXFNCjWfdujgmK0h6t27o7eeP5F8Uh5OO3yHtUG0EQE3DemDmmggHt2CO/jj+nWDgAAALARzrYFAAAAcPr+w/9zQSGodvPrXnruC//3L6Jn9z0THRw6kJ+bn40XFtPQe8VmAdR1a//Y967QrZ2283TvP6Sv+6Ne+1ft3B0H1e7uS6H30E4BbKr0/991BdVu7QXbAQAAALBxdHAHAACADXTzn3THv3nl19GWs7Z0zM7PRiPl4dCuwKnTwX2l+YZbfxrozbq1f+x7V+jWDidwy58+HPb8+sdL3d07tr5ua+ygHDQOHdw3pg7ZpA7u6SG8rtsevbLbKx0AAABgcwi4AwAAwCZ6+Jax3KP/8nD8+8O/i7acvaVjbn4uGh0fydkZWB0B95XmG2L9xWRet3ZYA1ft3J0F3s9//fkd8wvz0eT0ZGRXYHMIuG9MHbKBAfdCUOvWftujurUDAAAAbDYBdwAAAGgw3TePhQ88dXd8aOhAPg28v+7sLXFxQqNjOBYB95XmN3X9y93aP/pd3dphvVy1c3ecXKI3bH1Dx3hlPA28h3YF1p+A+8bUIRsQcO8Jqt3aO72qAQAAABqHgDsAAAA0gT3v2Bv/4tmfRZPTE/np2ek4uYaVmYqNoe0JuK80v+HrT4PsWbf2j35Xt3bYDFft3J3b8cad8eGR3jTs3pGM9OruMLDGBNw3pg5Zp7Wn9UpnUL27TMGrGQAAAKDxCLgDAABAE3roplLuZ888Ee0beCVOftkxMzcdHR7pFV6j7Qi4rzS/YevXrR0a2Dv/5zuiwdJAOvLnnnNuPDk9GdkVOD0C7htTh6zx2nuS0fWx713R6RUMAAAA0NgE3AEAAKBFPHRTKXzwqXvisclSfnpuOjrrjLPi/uJhG0NLE3BfaX5d17/crf3WR3Rrh2bzX/7oi/G+/lei87a+oWNhYT6ampkK7QqsnoD7xtQha7B23doBAAAAmpCAOwAAALSwz//5U9GBwX3xwaH9+dm5mWhuYS4qTWiuTOsQcF9pfl3Wvzd5JuvWfusjurVDq3j4lrHcZ+/8ZNrZPT73nPM6FhYXosrMlLvDwHEIuG9MHXIaa3d3GQAAAIAmJuAOAAAAbeTBG0u5nz3zk6g4UYzHp8byUzNTcXF8JFeZrdgcmpKA+0rza7b+um7tl+vWDm3iqp27w4u3XRJPz07nxyZLWfjdrkCVgPvG1CEnufbleuWj33V3GQAAAIBmJuAOAAAAbe6BG4rh408/ElVmpzompyejYDGI9w++YmNoCgLuK82f9vqz7qfJfPetj1yu+ykQ/Jfoi3F5aiyamZvJz8/PxVMzU6FdoR0JuG9IHbLatevWDgAAANBiBNwBAACA17j/I8XoR796LC5NjuYrM1PR7NxM1F/sszE0HAH3leZPaf3L3U9veVi3duDEHrqplPv83Z+Ktp2Xi2fnZjsWFheipHbI2RlanYB7sCHrX2HtncnouvWRK3q8IgEAAABai4A7AAAAsCp/99a98f6BV+KDw/vzM7PT0XB5KJyerdgYNpWA+0rzJ7X+5e6ntzysWztw6m78d93hS4eejyanJzrGJkvR1i1b44qagRYj4B5syPqPsfZCrV7pvPUR3doBAAAAWpWAOwAAAHBK7ttdDPf+/umod2R/lHZsnZyeiPcPFmwMG0rAfaX5FdefdWtP5nVrB9bVO/6nO6K+0cPx7PxMfn5hPpqanozsCs1MwD3YkPXXzXUGWbf2y3u8+gAAAABan4A7AAAAsGbu2z0a/fzZnmh8qtwxMT0ejU0Wo4Fin41h3Qi4rzR/3PUvd2u/uVu3dmDjPXBDMfc39/5FtO28XDw3P5ffctaWuDgxmrMzNAsB92Aj1l9ID+EFWbd29QoAAABAOxFwBwAAANbVvdePxk891xMXx0fyUzOT0fDYYFialE9hbQi4rzR/1Pqzbu3J2HNzt27tQOO58X9/KHyp94VoojLekXZ5X1iYjyuzFRtDQxJwD9Zz/Wm90nXLw5d3e6UBAAAAtCcBdwAAAGBD3XPdaK6/2Bu/fPjFaGhsoKMyOxX1jfbmpgXYOAUC7ivNZxN7a91PdWsHms7b/8cvJ/XCYJTUC1nofWp6MrIrNAIB92Ct119IRlcyOm95+PKCVxgAAABAexNwBwAAADbdPdeNRi8c+m3UO3wgX5wYjadnK9GBoYKNYUUC7sedr3VrX9xz00O6tQOt5T/nvxgnl3i4PJhfSEPvM1OhXWGjCbgHa7X+7mRet3YAAAAAjiLgDgAAADSku68diX/58v8XladKHWnn1olKORwo9dkYjiLg/pr5NMyedWu/6aHLdGsH2sJ9u0fDrh9/Ob0jTHTuOed1bDlrS1ya9C2Q9SXgHpzO+ou1eqXz5m7d2gEAAAB4LQF3AAAAoCncfe1ILrlEv3iuJ56cnugYHR+ORidGcmMCbG1NwD1TTObTrqd7bnroMt3aARKf/U8/j556rieanq3k5+bn4oXFhfSxjWHNCLgHp7L+nmR03dx9eadXEAAAAAAnIuAOAAAANK27rhkJh8uDcaH/d/ne0YPR1PREnHZ5F2BrH20ecF/u1n7jg7q1A6zkP+f/Li5PjUVnn7WlI71WZqZCu8KpEnAPVrv+9CBeZ1qz6NYOAAAAwGoJuAMAAAAt5c6rR+JX+l+K+oqH8sXxkXi8MhYeGCrYmBbVhgH3NMiedWu/8UHd2gFOxz3Xjea++ZMvx5WZyWjL2a/rGJ8qR5XZqZydYTUE3Fec70lmum56SLd2AAAAAE6egDsAAADQ0u68eiQNqkW/3b837ise6pianohGJ0Zyg6U+m9MC2ijgrls7wAb4zJ/9PHrx0G+j3pED+bn5uXhhcSFyZxiORcD9mPNLB/E+c9NDlxW8SgAAAAA4VQLuAAAAQNv5zoeHw+QS/fLlf+44PHogml9YiAfH+oKxSbnhZtPiAfflbu03PKBbO8Bm2f2/PRgfHjkUDZb68meftSUuToyEdgUB96Pmlw/i3fSQg3gAAAAAnD4BdwAAAIAgC71Ho+Mj8fOHfpMvT5Wi0sRolIbedW1tbC0acF8Oid3wgJAYQKO565qR3L0/74xKk8V4y1lbOuYW5tK6IWdn2ouA+5GDeDc+6CAeAAAAAGtLwB0AAADgGL79oeE0qBYdHC7Er/S/lJ+Zm45Hx4dzya9tTgNpoYB7LSS2qFs7QBPa/W8fDIfGBuPDowfy8wvzUdrp3Z1hWlsbB9zTYvgzad1y44MO4gEAAACwPgTcAQAAAFbpWx8cDpNL9NLhZzsODheiufmZeLDUH6Sd3tkcLRBwz7q1J/PdNzywU0gMoIVc/28fjPtGD0WT0xP56dlKXJwYCe1K62jDgHtnMrpufPCyHl99AAAAANabgDsAAADAafjWB4ei5BI9s/+XHYdHD0aVmaloaKw/GJuSVd4ITRxw70xG10fu39njqwjQHr7z4eHcfb/oSuuGeHpmKj8zNxOXJkdzdqY5tUnAvRBUD+J16tYOAAAAwEYScAcAAABYY9/8wFB8aHhf3F/qzZenStFweSBMu7xPz1ZszhprsoB7IRl7ktH5kft1awcgC72Hd/70jujMM87qKE6ORlvO2hKPTXqLaAYtHnDvTEbXDQ/o1g4AAADA5hBwBwAAAFhn3/zAUJhcomcP/joqTxY7pmcr8WC5Pzg0XLA5p6lJAu6dybxu7QCsyqf/w8+i3x74VTw5PZEdlFtYXIgckms8LRhwTwrTxa7k+vc3PKBbOwAAAACbS8AdAAAAYBN0vX8oSi7RM/t/2VGaHImmZiaiwbH+YGisz+achAYOuBeCWrf23ffp1g7Aqfv2h4Zz//zik9HBoUJcmZ3Kn3nGmfFA6XDOzmyuFgq4d6cH8W54YGe3ryoAAAAAjULAHQAAAKBBdL5vKE7D7n2jBzv6S73ReKUUDo31B2NT8tHH04AB985kdO2+T7d2ANbPtz44HN71szuiyuxUtOWsLR2z87Px2KR6YSM1ecC9kNYrad3ykft3Fnw1AQAAAGg0Au4AAAAADarzfYNpd9b40Mi+aGR8sKM8VYr6i4dyya9tTk2DBNwLybxu7QBsqk/9nz+Nfnf42ag0OdoxOz8TTU5PRNOzFRuzTpo04J52ae/6yP26tQMAAADQ2ATcAQAAAJrIN947GCWX6Hd9z+bLU8V4Yno8OjRSCNJO7+1okwPuncnouv5e3doBaEzXxg+knd3jwbG+/Nz8bFScGAntytpoooB7MZlPa5Y9urUDAAAA0CwE3AEAAACa3DfeOxgnl+i3B36Zn5gej8tTxTDt8p5cW37tmxBwLyQj69Z+/b07dGsHoKl0vX8ofOKZ70WjEyPR1PREx/zCXNrxPWdnTl4TBNx70i/57vt2dvpqAQAAANBsBNwBAAAAWszX3zOYBtWitMP7QKm3Y2DscFScGM71juwLpucqLbXWDQy4dwZZt/YdPV5hALSSrvcPRY//6v6ob/RgfstZW+L5hflobMoZrpU0aMA9/cKlNcue3ffp1g4AAABA8xJwBwAAAGgDX3/PQLi4GMT9xYP5wXJfVJmZjA+N7gvS0HszW+eAeyGodWu/7h7d2gFoH9d0PJDUDIeihcWFjrHJYlSZnQynZys2pk6DBdx7At3aAQAAAGghAu4AAAAAbepr7x6Ik0u0b/Cl/NhUMR4c6wuHy33BULm/adawTgH3zmR0XXePbu0AkL0xvm8w98Qzj8bFieEo+WVHuTIWjU2O5tp5Txog4J4evutOxp7r792516sUAAAAgFYi4A4AAABA5qvvGkiDamlwLX7x8G/yE9PleKB0KJcG3stTjdnAfA0D7oVAt3YAWLVvvHcw+sHeB6Lxylh+Zm46mp2fjRu1XlgPmxhw35s8k9Ys3dffu1PNAgAAAEBLEnAHAAAA4Li++q6BMLmk4bWO/uKhaHRiMO4d3Zd1eZ+Zq2z6/741CLh3JqPr2rt1aweA0/W5//h0/HL/81Ff8UAaeo8rM5PhdAPUC+thgwPudd3ad+jWDgAAAEDLE3AHAAAA4KR85Z0DWZf3wbHe/PD4QDSSjOFyf5AG3zfaKQbcC0GtW/u1d+vWDgDr5evvGcj9t5d/GvWO7IuTt+KO2bmZaHDscK4V1rZBAfesZknmO6+/V80CAAAAQPsQcAcAAADgtHzlnf1pUC1aXAzigyO/z5enSnF/6WBueLw/SIPv6+kkA+6dgW7tALCpvvbugfDpl38a7x/+fX52bjo684wz46F1rhfWwzoH3LOa5bp71CwAAAAAtCcBdwAAAADW3B3v6A+TS9rpPfr9wHMdE5VyfLi4Lwu8lyulNfvvWUXAvRDUurVfc5fOpwDQiD77H/9b/Pv+56O+4sH87PxMNL8wH5WnGvttex0C7ss1y3X3qFkAAAAAaG8C7gAAAABsiC+/vT8LvE9Oj3ccGHk5mqiMRb210PvMXOWU/s4TBNw7k9F1zV3be+w8ADSXr75rIPf0738apXeFmZgu56dnp+LBscO5RvrfuIYB985kXrd2AAAAAKgj4A4AAADApvny2/vj5BIPjw/kD4/uS7u1hsPj/UHa7X01XhVwLwTL3dq363wKAC3kK+8cCH/63GPR9NxUx+j4UHTmmWfG6SG5zXKaAfe0ZulKa5Zr795R8NUFAAAAgKMJuAMAAADQML70tr4wuWSd3g8X93cMj/fHI+X+IA29p+PVagH3zuRh19V36tYOAO3kK+/sj5564YdxeaqYL02ORPMLc1G5UtqQ/+5TDLh3pzXLtXfv6PbVAwAAAIDjE3AHAAAAoKF96W190eJiFnrP7x96MR4e748OjLxcGBzrTae7nu79h7+0SwDAHe/oz6V3hHnh8L/Gk9Pj+XKlGE3NTIYzc5U1/+86iYB7IZnXrR0AAAAAToKAOwAAAAAAAC3pjnf0hz97/rGoODmSHpbrSEZ8eHTfaf+9qwi49yQze665S7d2AAAAADhZAu4AAAAAAAC0jS+/vT/68TMPRnMLcx3Ts1PR5HQ5KldKJ/V3HCfgXkxGZzL2XHPX9oKdBgAAAIBTI+AOAAAAAABAW/v0v/+X+HBxX9xfOpifmZuOSpMj4cxc5bi//1UB957k0nXNXds77SQAAAAAnD4BdwAAAAAAAKjzpbf15Z7v/VU8UDqUdnfvmJ2fjobKfbml+ffFty93a7/6Tt3aAQAAAGAtCbgDAAAAAADACv7xrX3Rrwo/i17s+9ew5/ef/Us7AgAAAAAAAAAAAAAAAAAAAAAAAAAAAAAAAAAAAAAAAAAAAAAAAAAAAAAAAAAAAAAAAAAAAAAAAAAAAAAAAAAAAAAAAAAAAAAAAAAAAAAAAAAAAAAAAAAAAAAAAAAAAAAAAAAAAAAAAAAAAAAAAAAAAAAAAAAAAAAAAAAAAAAAAAAAAAAAAAAAAAAAAAAAAAAAAAAAAAAAAAAAAAAAAAAAAAAAAAAAAAAAAAAAAAAAAAAAAAAAAAAAAAAAAAAAAAAAAAAAAAAAAAAAAAAAAAAAAAAAAAAAAAAAAAAAAAAAAAAAAAAAAAAAAAAAAAAAAAAAAAAAAAAAAAAArNoZtgAAAAAAAI72j2/tC5NLVBv5ZPw6GZ1X37m9YHcAAAAAAGD9CLgDAAAAANDWvvS2vvoge/Z4cTHIHee3701GVzLffc1dwu4AAAAAALDWBNwBAAAAAGgLX357fxpaTwPs8eJisKv6eDE61u9N5k+oNp+F3ZMh7A4AAAAAAGtEwB0AAICm8o9v7QuvvlOADAA4sS+/vT8NrodBNdDeUXscLs0fCbAfO8m+yoB7vTTsvieZ6b7mrh1FXwEAAAAAADg1Au4AAAA0pC+9rS8MqoG0aHExyNcep88F+4de3Js77+KuC15/YbewOwBwxzv641qtUOvKnnVoP6GTDbiPV0rB9FwluOgNlx5zvu5Ppv/Rncw/nF6vvVvYHQA4ef/41r60psldfef2nqt27o6f7v2HHrsCAABAuxBwBwAAYNN96W1pKG0xTB4uBdmzD3HTINlQuT8YGe8PhmsjfS71f0RvD3bkrkzDZWm31K5kdF9zl7A7ALSyr7yzP60X0hG/+gDcq51qwD2tNcrJODy6L7umvz5c3JfN7cjtSmqQt63w9y++er47GcLuAMAxfeltfblaTRMNlfvyA6VDYWV2Mn71z0HeF9/+R1ffuX2vHQMAAKAdCLgDAACwYb789v6lD23j4EiH1Wh6tnIkwD5VTK4Dy0Gy46kLuNfrCY6E3QXIAKCJfeWdA0uH3mpB9sXsANzS/OoD7MdWnkqD7MWs5hifqoXaV6g/TjHgXi8Lu197945OX2EAaD9ffnt/mNQIWY3zu77f5Mcqo9HMbCVczc9B3hffnl4KyZ9P64mua+4SdgcAAKB1CbgDAACwLu54R/9SR9VocTHoCGpd2dMQexooS7uy92aBsmIWKDtZxwm411lc7pZ6zV26pQJAo/rquwaOeQDute/xRz+x2oB7tQt7MTg8uj8LtC91Zz8VaxBwX1KshdMevu6eHd1eBQDQer789vRudUE4UDqUH58ei4oTQ/HweF8wXO4/pZ+D1ALu9TVGIQiE3QEAAGhNAu4AAACctjvekX1ou9RhNUxGPDNXyT60HSpXO7OfTpjsWFYRcK/+Z/WyHHa/9m5hdwDYLF9798CrD8CFtfHad/KTDLhnQfapYtBb3B+Up4prXnuk1jDgXj9fXKpVhN0BoPnc8Y4jd6t7qe83+Ynp8XByejzK7lRX7g/Sn4+shWME3OsVagf991xz146CrwoAAADNTsAdAACAVfvKOwfCIPvQdnEpzJ6F1IbGjg6xD63hB7jHc5IB93pZgOzau3d0+ooCwPr5+nsG4uR9OK0Vlrqyx0e9U68+AH7Ue3tab6QB9t7RapB9PPl17xoH2Y9nnQLu9ZbC7l3X3bOjx6sIABrLV97Znx7Si5J6JBwc6+0YGjscFSeHc2l9kobZ19MKAff6GiTt5t4VVA/5F3zVAAAAaEYC7gAAABzTV981EAfVjqr5Wjgtmpmr5NLwehpiL1eK1e7s6/wB7vGcRsB9SRYgS+Z1SwWA0/D19wyGtZohrR3ytYNw4QrvwysGwMemqkH2at2xFGrft6lr3YCAe/18IaiF3a+/d8derzQA2FhfeWf2c5Fo39CL+aGxvqzW6d2gQ/3HchIB93rC7gAAADQlAXcAAIA299V3DSzfSjs40mE1Sj+0LU+VgqFyXxZi36wPcI9nDQLu9fNL3VKF3QHgBL7x3sGoVitkd3KpHYLLncr78NJcWm+kB+eWao9GCLIfzwYH3OsVkmdqYfedwu4AsIa++q7q3eqSOiQ6XNyfHyj1RrPzM+HSz0MaxSkG3OtlYfdkvvu6e4TdAQAAaGwC7gAAAG3ka+8eWOqoml47guoHuLmxWpAs/eA2DZUNNdAHuMezxgH3esLuALS9zvcNZgfgkvfJOKg7ALeK99Hjvg8vB9lH9i13Z2/UIPvxbGLAffnvDYJqZ/dkfs/u+3YWvFoBYPW+9u6BOHkPDV/ufy5fmZmIxitjUX/pUC79ech0Ax3qP5Y1CLjXz/cEtc7u192zo+iVAQAAQKMRcAcAAGhRX3/PYBwEi1mH1fTD22DpVtpj/Vm4LA2xD481/ge4x7OOAfd6xWS+M8i6pe7QLRWAltT5vqGkXlhMa4WlA3BhbZzS+2gaXE/HoaUgey3U3goaJOBeP591Yk1Gt7A7ABzxtXdX71ZXnirFB4Zf3lWaHI2mZiajZq5L1jjgXi875B8IuwMAANBABNwBAACa3DfeOxguLi53Vc0H2Qe4xTANsKe3004D7UO1zuytZIMC7vXzhSD70Hex6/p7dwq7A9CUut4/FNdqhqwre61De/Dq8PRq3ifTO8CUJ0vBodF9R4XaW1kDBtzrCbsD0Ja+/p7B7G51zx/6dTQ3P9NRrnVlL9fuGNMq1jHgXi+9S0wWdr/+XmF3AAAANo+AOwAAQBP5xnsHjwqyT89WoqFyf25orC/rkDpc7mv5YNmSTQi41/+9haDa4UzYHYCG9M0PDIXJJawF2NO6IazVEMd5nzt+wD0NhqV1Rm/Wkb09guzH0+AB93p7k/k07N75kft3CqcB0DK+8d7BOD3k/+zBX+aHyv3hmWecFbfLz0I2KOBeP591dr/+3h2dXnkAAABsNAF3AACABtT5vsHsVtrJiJOxK/3wdqjcn3ZmzzqyHxopZEGzVuvKfjI2OeBeP18Iqh/67tEtFYDN8M0PDC0dgAuT0VF7nDu597nF5SB7GhArTxazMHu7BtmPp4kC7q8Jp6VXYXcAmkV6t7q0pklqkWig1Jsfr4xF5UopTH8m0q4/C9mEgPvSM8VgOey+s9urEwAAgI0g4A4AALDJut4/FC0uLnVVXeyozE6Fw+WBMO3Knn5wK1x2bA0UcK+XdnNPu6V2C7sDsNa+9cHhXPLOc9TdXNJDcCf7Plftwl4KDg4XBNlPUpMG3OsJuwPQcDrfNxgnl3Bv4Z/zpYnRaGFxISpODOfUJ0fbxIB7/S+KyXxWT+y+T9gdAACA9SPgDgAAsIG63j8UB9VQ2q70OjTWFw8uhdiH9wVD5b5gerZio1ahQQPu9bKwe/rB70fuF3YH4OR8+0PDYXAkwJ52ZQ+rY/Uh57HJWkf24UJWayw95tS1QMC9fq47eZSF3W944DJhdwDWXdf7h7K71R0a3hePTgzv6i8ejCqzU9FY7W51nFiDBNzr55c7uwu7AwAAsNYE3AEAANbBNz8wFAbVIFqcjHxxYiQar5TDpYBZGmpPO7Rz6pog4F4/v9zZXdgdgFf79oeG03ph+QBcrX5Y9ftQ1pF9shQcHClkofal7uysvRYLuC/9ncvhtBseuEw4DYA1kd6tLrmE//LSk9lhvYnpcjQ6MZJLfxbiYP+pacCAe720nuhMv/S779u511cLAACA0yXgDgAAcJq+9cGhpe6q+WREB4Z+n4bZc4NjfVkHskEf3q6LJgu41+sJjoTddUsFaCPf+XDWlT0dca1uCGs1xKreR7Iu7JPFIx3ZJwXZN1qLBtzrZWH3ZP7hGx8Udgdgdb75gaE4Pdif1CX5A0O/D+cX5uP0zjEO9q+tBg+418+nBWpaR3R95H5hdwAAAE6NgDsAAMAqfeuDw9mttIMslLa4a3R8OJqYHo/SkFkaYk9DZoM+vN0wTRxwr5cFyNLrDQ8IuwO0kjuvHklrhmhxcTFMrh21GiK3mveJNMSeBtgPDu+rPp4sCrI3iDYIuNfPL3d2F3YHIPWtD2Z3q4uePfDraLg8kJ9fmE+voYP9G6OJAu71CoGwOwAAAKdAwB0AAOAYvv2h4exW2kE1jNZRGPhdODI+FJZrIXYhs83XIgH3+oBZFiALsrD7ZcLuAE3izqtHlg7ALd/NpTZq3+eP/0aQBtdLk4LszaTNAu710hdmFk678cHLhNMA2sC3Pjgcj5QHw32DL+cPjx7I6pvixEjOwf7N06QB99fUE8n8nhse2KnoBQAA4IQE3AEAgLb3nQ8Px4uLWRBt13B5MCpODMeDY/3BYKmv1pld1rgRtWDAvf7pLOx+wwOXdfpKAzSOu64ZCYMjAfa0K3uYfB8PT/x9fvFIR/ahfVmgvfq4YEObUBsH3OsVkvks7H7TQ8LuAM3u2x+q3q3u2QN747Gp0q7yVCkqTYxGab3i5yGNpQUC7vXzSQ2x2BVUD/krjAEAAHgNAXcAAKBtfOfDw2FQ7coeT06P5wdKfdHo+FA4UOrXMbUJtXjAfUmxFiB7+MYHL+v2VQfYOHdfOxInlyj5PrwrqAba45W+zy91YT+Q1BTLjwXZW4qA+2vm0xe4sDtAk/jOh4ej/uLh8Pf9L0ZT0xMdpcnRcG5+LvTzkObQYgH3+r83rSGE3QEAADiKgDsAANCS7rx6ZKm7av7gUCGanJ6IhsuDufrAGc2tTQLu9X8+fdEKuwOssbuvHQ2D7ADcYpzWDdXHWQ1x3O/jaR2RdmJPu7CXBNnbioD7CeeXO7He9NDl/kEAbLL0bnWFgd9F+wZf3jU+NRZNzkzGfh7S3Fo44F4/txx2v/FBYXcAAIB2JuAOAAA0tbuuGclupZ2MeHyqvKuv2BsNlA5Huqa2vjYMuNcTdgc4BfdcN7p0AC5MRkdQ7dCeO9734bSWKE4IsnOEgHuw2rUvh9Nu7hZ2B1hPd149ktY14X99oScuTozmk2/CUbkyFh5Us7ScNgm41+sJjoTdncwAAABoMwLuAABA07jrmpGlQFp0YKjQMTTWH1ZmpsI0aDZQ6gumZys2qY20ecC9fj79kLczGV03PXTZXq8MgCC49/rRpQNwaYA9v/T4eN9nqx3ZR7Pw+thEtTu7IDvHIuAenMrahd0B1kj6c5EXD/026h09mC9PjkWV2amoODGS05W9PbRhwL1edsg/EHYHAABoGwLuAABAQ7r72pE4uUS9Iwd3ladK0fDYYJyGzQZLfVmYHQTcjzlfCKof+gq7A23j3utHw+BIgH0pzB4e63vlchf2wUIWaC/VHsNqCbgHp7v2LJyWzHff8vDlwmkAx3H3tSO55Htl9F+f74nHK+VdE9Pj0czsdOQAXntr84B7/fxy2P2mh4TdAQAAWpWAOwAAsKnuuS4LpaUj/u3+X+fHK+VwYqocDdSC7LqyczwC7ivNLxaS/+hO5rtu7r5c2B1oCfftLsbJ97e0blgKssfH+l6YBdknisH+oUJQmhBkZ+0IuAdrufblcJqwO9DO7r52JPrXwn8Pxyvl9HB/x9hkMZxfmA8d7ufVBNyPOZ/VEzc9dFmnVwgAAEBrEXAHAAA2zD3XjWbdVQ8MFcLJ6YmO/tHeaGR8KFeaKOrKzkkTcF9p/qj1F4Lqh757bu6+vODVAzS6+z9SzAW1AHvyfSwNs4e1Xx/1PS4Nrqd1xP7BapA97c6+X5CddSTgHqzX2oXdgbZwz3Wj8Y9//Vg0URnfNTk9kdU6DvezWgLuJ1x7Wj+kh/wfvrn78m6vFgAAgOYn4A4AAKy5e68fXQqlRb9+5en86PhotLAwF/WX+nRPZc0IuK80f9z1p93cu5LRLewONIIHbihGyfeqtG4Ik9FRqyFy9b+nOFENsh8YfKUWah8VZGdTCLgHG7H2zjScdusjwmlA87r3+tEwqVXCA4OF+NDw/vwZZ5wZTVTKurJzWgTcV732LOyeDGF3AACAJibgDgAAnJb7do+GySX6zb690ezsTMfI+FA4NlkKB4p9WQAN1ouA+0rzq1r/3mQ+C7vf8rCwO7C+HrhhuSt7Opa6ssf136vSEHsp68L+SvXxRPUxNAoB92Aj174cThN2BxrZvdePRk891xMNjQ2k9U1UmhiNRsdHcrqys9YE3E9p7cLuAAAATUrAHQAAWLX7dhfj0fHh6HeHX9hVHB+JZudn4mrwrGBz2HAC7ivNn/T6lzu7C7sDp+vBG0thUBdmX1xcXOrQnlkOsg+8stydXZCdZiDgHmzW2uvC7lcIpwGb4r7do7n9g4Uo7cqe/lzkrDPPTn8uEqUH/GEjCLif9tqLyXxncu265eHL93pFAQAANDYBdwAA4DXu/0gxTC7hbwq/iienJ/PD5cGwOD4alSZHswAaNAIB95XmT2v9PcGRsLt/9MAJPXRTKU6+l6S1Q9a1NKh1ZU+ldUNxYvRIkL0WaodmJeAeNMLal8NpH/3uFcJpwLq4/yPF6Pv//ZFwfmE+mp2b6egv9oULi/Ohn4mwmQTc13TthaB6eE7YHQAAoEEJuAMAQJt74IZiehvt6PkDvw0HSwMdyVPR6Phwrl8HMhqcgPtK82u2/qxbajK6b31E2B3a2UM3lXLBkQB7GmYPa78OiuNpF/bRYN9gIbum4a99guy0IAH3oNHWXghq4TRhd+BU/d1b98YvHHw26hs9tGt6djo695zzYneWoREJuK/b2pfrCWF3AACAxiHgDgAAbeLBG0u5xcXF6OmX/jkaLA3kFxcXotGJ0Whg9HBQma3YIJqOgPtK8+uy/u7kmVrY/Qphd2hh3TeX0uB6OsJkdCTfC9LHuSMd2QvZVZCddiPgHjTy2guBsDtwAg/cUAx//tsnwuJEMR6fGsunYfaJ6XFd2WkaAu4bsvalemLPrY9cXvCqAwAA2DwC7gAA0IIevLEU/urlp6PxSjkaKg10lCaL4fz8fNhfPGxzaBkC7ivNr/v6s87utz5yRadXIzSvh28Zy7qy1wLs+eTfeJhc46Ug+76BQlAaH00eC7JDSsA9aJa1F5LLnrRe+dj3rih45UL7efDGUvTgL+6ODo8cCredd2HHzOx01Dfam7MzNDMB9w1f+97kma6geshfPQEAALDBBNwBAKDJPXRTKf7hLx+NxqfGd01OT6ThtLhfV3bagID7SvMbtv603WEWdv/od6/o9sqExvXwLWNhUO3KXguzB1FxohiWJkaDQv8rQWl8KdQuyA7HI+AeNOPa027uWThN2B1aT3q3up/99omod/hANFGZyM/OzURzC3ORruy0IgH3TV17Vk8k890f/a56AgAAYCMIuAMAQJPovrkU/vSZJ8Li+Gg8PlXOp13Zzz5rS5SG2aEdCbivNL8p6xd2hwbxyK1jcXIJg1qQfXS8GKdB9n39r2Td2Iu1x8DJEXAPmn3ttXDaYvdtj15Z8IqG5vLQTaXw6z/8x+h1Z5+THtbrGJscC6emJ0IH/GkXAu4Ns/blw3PC7gAAAOtHwB0AABpQ982l6IGn7okODx+s3kp7bjo6POJW2lBPwH2l+U1ffzHtbJZcH/7Y94TdYb1896NjaX0QJf/e4uSaHx4bCsenylFh4JWgOF4MlrqzA2tDwD1o+rVX57Pf0BPUwmm3PXqlVs/QYG764+54anoyeuHgc7vm5uei88+9IHbAn3Yn4N6Qa1+uJz763SvUEwAAAGtIwB0AADbRw7eM5b75469FW87aEk1UxvMzczPR/Px8lHZVBU5MwH2l+c1ff91c+iFvZzK6Pva9K/Z69cKp+e5Hy2m30jAZ0WCpv6M8WY4ODO7LZR3ZxwXZYSMIuAdNv/bq/Gt+Q3YoLxB2hw3XffNY+K0ffy2tb+LKzFS+PDUWLiwuRJUZXdnh1QTcG37t3cl8Vk987HvC7gAAAKdLwB0AADbIzX/SHb548Ploanoqmp2fzZ+z5ZxopDwc2hk4NQLuK803VMC9XiGohsiE3eEEvvexcpxcot7hQ/nR8dFwsDgQpwfgBNlhcwm4B02/9ur8CX/Dcjjt448Ju8Na+pv/6xfRc/ufiZ7d/0x48bZLOtLO7KPjI+5WB6sk4N5Ua18+PCfsDgAAcGoE3AEAYB38+R99MZ6oTITTs9P5sclSlDvvwlhXdlhbAu4rzTdswL1ufrEQ1MLutz16pbA7benR28phcole6XslKk2U8r3DB6OkfggF2aExCbgHTb/2Wg2y2j+f1Skff+zKbq9+WL1Hbh3LffOfvhaNTY5F52w5J1+aKEa6ssPpE3Bv2rVnYfePfe+KTq9iAACA1RNwBwCA03DVzt1pp7EoGfEbtr4hP14ZD2u/BtaZgPtK800RcK//ZSGofui757ZHryx4hdOKHr2tHP923zPh2EQpf2Bwf1ovRBPTE7lCnyA7NAsB96Dp136MGmQ1f75Yq1MeFnaHo9XfrW7L2Vs6xivlMHkc2hlYewLuTb/2YlKDZPXEbY+qJwAAAFYi4A4AAKt01c7dcXIJa6MjqAbZ3UobNomA+0rzTRdwr5d2c+9KRrewO83osY+P55749Y+zA3AvHHh+19lnnR2deeaZkSA7ND8B96Dp175CDbKaP19M5rNw2u2PC6fRXtK71Z191pZooNi/K7tb3RsujNO7zgAbQ8C9pWqQ5cNzwu4AAADHJuAOAACvctXO3WFQDbHHycjXHuvKDg1GwH2l+aYOuNf/+eWw+8cfE3an8bz7f/lKNFIeCXuHD0WX5C7pSENfyWMH4KBFCbgHTb/2k6hBVjO/FE7bc/vjV+71L4RWccufPhz2/PrHYRpgn5ubzS8sLoST05N+LgKbTMC9ZWsQYXcAAIBjEHAHAKCt1XVlT4PsUaArOzQNAfeV5lsm4F5P2J1GqyOeCKoH4oA2IeAeNP3aT7EGWc18UpsspqG0rtsf3yXsTtN417+5IxooDUSDxYHwvK3ndSwsLERTM1N+LgINSMC9LWqQNOzemdYTH3/M4TkAAKC9CbgDANAWal3ZlwLsS2H20M5A8xJwX2m+JQPu9XqS+SzsfvvjVxb9i2CT6gsBd2gzAu5B0699DWqQ1ay/EFQ7sXZ94vvC7jSGR28r5z79zU9kPxc5//Xn5+cX5iNd2aG5CLi3XQ2yXE8IuwMAAO1IwB0AgJZT68qefki7q3aN7Qq0HgH3leZbPuBeP5/dyjsQdmfjaw4Bd2gzAu5B0699jWuQ1ay/EFTvQNP5ie/vKvhXxAbVKOHOiy6LeocPRWlX9onKRBg45A9NT8C9rWuQtIboTg/63/64sDsAANAeBNwBAGh6V+3c/ZfJpSOoflgb2hFoDwLuK823VcC9XncyUwu77xJ2Z71rEAF3aDMC7kHTr30da5DVrD8NpHUl892f/IGwO2tWj6S1SBjU7la39XVb48pMxcZACxJwV4PU5tMaIj3ov+f2x69UTwAAAC1LwB0AgKZ31c7di3YB2o+A+0rzbRtwr1971tn9E9/f1elfDOtUgwi4Q5sRcA+afu0bVIOs5s9nYfdkCLtzsvVHmFy+GFRD7ZEdgfYh4K4GOcZ8rZ5YTA/5qycAAICWcrYtAAAAAFrUn6Xj83+yLw0ALYXdu20LANAAotr44uf+eF8aTtsTVMPu7kDDSsJanQsAy/XEX//pvr2Li9XDc5/4vrA7AADQ/ATcAQAAgFaXS8a70/H5P9mXhsaE3QGARpIG076Rjs/+u31ZnZLWK5/6obA7AHBS9UQWdv/8n+xbvlOMsDsAANCsBNwBAACAdrIcdv/cHx8Ju3/yB8LuAPD/s3cvv3Fd9wHHT1rLpiVLM5QlkvJDHEoC0iAo6nbRRfySXwnQReFNgS7dTTfdeJf4JVlvqRtVf0BhEl23pdFVbMem9WoLJLCCBEhTWOIIbeAoQWsFQVDVKcDec+/M5YiiZdHi4zcznw9wMCNaqwNY+une7z2XEF7srE7svtCJ3VtidwDgTvXG7nNpMXY3TwAAAH1D4A4AAAAMq6Wx+3SxZl7/7uQlWwOwcR4anUw7to6nB0aa6aef/DD916+v2RSGVU/s3i4fynvjnda0bQEAVmB/Z7119FuLb4p5/btidwAAIDaBOwAAAEAVu7+c19FvXW0Xn7MLC2nmjXfE7gBrJYfsW+9vFqtRfR+pvncVfw6n9i9/aqOgUsbuh19on06dN9AceLflDTQAwIrniSR2BwAA+oDAHQAAAOBmrdSJ3Y98s4rdiyV2B/iS8mnsOWTPnw/2fM8BO7Bi9RtoDr/Qvp7E7gDAl3NL7P76dyenbQsAABCFwB0AAIAvdO89I+mz/7thIxhGrVTH7u12qiKyM2+802rbGoCb5XB9Wz6NfXt1Gns3aAfWzHKx+8yBd1tztgYAWIEydj/yzav1m2LeeGfSw3MAAMCGErgDAABQu++ekTJEq4K0ibQ1R2qjk+ln/301/dMP/s4GMexaaTF2v7SwkGaK77MH3hW7A0M2L2waKWeFh7a30taRRtp2f7OM2m9WHc/ulHZYN2XsXvw/99Kh5+uH8mYOvtfyBhqAFcoP+ed559f/c91mMJTzRF5Hvnm1+B9goRO7e1MMAACw/gTuAAAAQ6gM2bdVIXs+YbUbteebuMAdeayzTh9+oZ3DMbE7MHjzQidk37Gteuhtx9aJ4vt4OUd0CdghpFbqPJQndge4vfxQf3lt5P7FayObfnck/eDK2fT9YsEQ64ndqzfFFLP/2wfeFbsDAADrQ+AOAAAw4B7ePpkeGGmmbfk09uJ7DtpzpNZLnAZ3RewODMS8kE9i37q52fneKEMvMwL0vVbqid0XFsqTWM+8+b0pcwowVLrXQ/KMs2t0+WsjXeYfuEUdux9+oYzdp4s1c+BdD88BAABrR+AOAAAwILonjuVTVnd0Th3r3qx1cxbWTR27H3q+PZc6sfvB91rebQ/EmBeKOSGHXTvzvNCZGfL8UEwLNgcGXyt1Yvc3n5uvH8oTuwMDNet0r40Un9WJ7BMe8ofV1ezOE4dfWHxTjNgdAABYbQJ3AACAPpNv1OYw7eHtrbRjW+c12g+Mf87vdtcWNtD+znrr0PPtfMP37SR2B9bJtvKht/E6ZM+zQ/68ZVIwKsCwqh/KE7sD/ah7beShfG2kjtrHzDewvlqpJ3Yv/t8rY/eD74ndAQCAuydwBwAACCqHafmUsYcfbKWtI43yZu3D2yeX/b1u3kJ4L3ZWHbsvLCzkiEzsDtz1vLBtczEjPDhZfb+/+m5GAFagjt0PPlvH7tOH3jenABvvvk0jZcCeH/LP10jytZGHRic/53cbfGADtVIndj/0fH2y+5mD77XatgYAAPgyBO4AAAAbrLpZO1Gesto9XTXfvM0/7xKnwUCpY/c3n5svY/c3vzc1bVuAL5oX8mnsO/PbWzY36+/33jNic4DV1Bu712+gEbsD6zHr5Gsh+ZpIDtm710nuW2bWcY0Ewmulxdi9flOM2B0AAFgJgTsAAMA6yqex54i9Ol21VYfsizdn3aWFIVPG7m8+N386Vaeb5dh91rbAcHskzwubOyezb58sY/bFB99unhUEXsBazynFeqsbuxd/5swe/kDsDtydfBp7vjaytTPrLH3I34wDA6V8eG5hYeH0m8/Vb4rJb7Rr2xoAAOB2BO4AAABrYGfnxLGdjYn0SM9rtAE+R/4D4qW83nxuPkdjswsL6e1D74vdYaDnhcZEOTPkkP2RByfLB+Dy917iLiCIOnY/8Mziye5id+B28mnsOWTP805+yH9r54H/m2ccww4MkfpNMWJ3AADgiwjcAQAA7kIVpTXKm7Z11F58LiVOA1agjt0PPlvF7sUSu0M/zwuNiTLmGstBe2O8/J5/ZkYA+lQ3dj/djd0Pf2BOgWGWZ5sd28brh/fytZEdWydsDHA7vbH7XPHvojJ2P/S+h+cAAICKwB0AAOAO5NNU8w3bR/KJY5sbne+T9X8XpwFrZGnsPl2smUPvT12yNRDb13c/lr7+6GPp4Z55AWBQ55QDz1yp30BzZG6P2B0GVPfayMPdN890vi/HdRJgBfZ31lsHn118U4zYHQAAhpvAHQAAoMd9m0bK08aqk1Yb5WeO2rNbb866WwusqxyRvZzXwWfn28WfSfmm78zhD8TuEFEOwB7Z0SrmB/MCMDRzykt5vbH/Sv0GGrE79Kf62kg+jX1z9aa6R5aE7EYcYI103xQjdgcAgCEncAcAAIZWjs7yaWNjjfG0o3PjNt/EBegDrdSJ3Q88M99OSewOAITRG7vXc8qRuT3mFAgoP9SfH8zbuW28fMi/e23EQ/5AAHXsfuCZKnY//MHUtG0BAIDhIHAHAAAG3qOdkL06SXWy/r6U08eAPtVKdexeR2RnDn+wp21rAIAoc0qO3btvoDn6odgd1ls3Xm/kayMPTqatn3NtBCCoMnY/8Mz86dR5U8zhD6a8KQYAAAaYwB0AABh4f/b4S+XngoIdGHytYr1c/HGXI7Icjs0Ua/bInNid4ZVPIP3f396wEQBB5pS8Xn968WR3sTus/uyTH/TPMfvOxnj5kH+O25dyiQToU/WbYg48M3+9+NOsE7vvEbsDAMCAEbgDAAAADKbHOuu02J1hsXtnqzyJtLFlNO3e0UpjzYky8vrrvz9ocwBiaaXF2L2eU45+aE6BuzXWmEh/+sd/7iF/YBjUsfsb+69cT52T3Y/Mid0BAGAQCNwBAAAABt9NsfvCgoiM/pbD9cbmZhpv7ipPJO3+GoD+nlNee2oxdj921pwCANyxpbH7dJ4pjsx5UwwAAPQrgTsAAADAcKkjstefvjKXFk9MvW5riKaxpZkam0fLk9mriH20/Ezp5hNJHVAKMHhzShW7L3Ri971tWwMA3KEcu5dvinlj/5U8Q8zmB/2Pfih2BwCAfiJwBwAA1sx9m0bSeHOifD129v2P/8WmAMSyv7Peev3pK+WrvJPYnQ0wUswMY81dafdYqzyJvbGlitq7BOwAQ6kndr9czinF3wezx8/tNacAAHcq/8OyjN1ff7qK3YsldgcAgD4gcAcAAFZFebJqYyJt2zKaxovPfLpqDty7/uOXbYE7QGwvdtZbrz21GLsfOyt2Z5VnhrGp8gG4HLKPj+4q54femQEAbjenvPrk5XpOEbsTTe+D/ts2j6Zf/OqT9OOrGkqAIFrp1tj9zNEP97RtDQAAxCNwBwAAViSH6+PNXWWU9ujOVmpsaZbfM6erAgyMJbH7wtvHzu6dti2sxOTYVD0n5Ki9Opm9uezvNUMA8GXmFLE7Gyk/6L+t++aZHa1bHvTP883Fn8zZKICYWmkxdr9U/Jk9k6qH/Nu2BgAAYhC4AwAAyypPVt0yWgXtjer7zuLzZmo0gCFQRmSvPXX5dKpON8ux+6xtYXFm2FWG6/k09mp+aJY/u2liULADsIZzSqpi9+nir5u3T5w3p7C6xso3z4yWc07vg/7GG4CB8VhnnX7tqSv5tRszxb9iZ4+d3du2NQAAsHEE7gAAMOTKG7NbRtNk78ljxffluHkLMNTy0dsv5fXqk5fzCall7H78nIhsmGaGZp4ZOiezj49O1CG7GQGAAMo55ZUnFucUsTsrnXVyyL57rFU+6L9tc/XQ/yIDD8AQ6IndL3di9yR2BwCADSBwBwCAITGyaSSNdU9W3Vydsro0ZBenAXCHxO6DPDPcO1KG6zlgz0F7/ty9c8rGANB3c4rYnWVnnc71kXxNpHGbB/1dIwEYenXs/uqTl+dSJ3Y/fm7vdVsDAABrT+AOAAADqHuyavdk9nzjNt/AXXB3FoDVtzR2ny7+upk5cX7vJVvTBzPD+FQVsTcnyoff8mcO3JcyQgDQ73NKjt2LfxNPF99nTl7YZ04ZAss96J9PZM8/N98AsEL7O+utV5+8XD48l8TuAACwpgTuAADQx/LN2RyyTzR3la/Qzq/Szr8GgA2S/xJ6Oa9XnrjcTtWJqWL3IDPDRLGaxZyQo/b8EFyzZ2ZYDLyUXgAM/pzyncc/rucUsftgWPqgf/7Mv/agPwBr4MXOqmP34q+b2RPnxe4AALCaBO4AANAHcoBWnaparNGJ8iZt/r6U+7YABNJKYvcNmBlGy1lhYnsVtJcPwhWfZgQAWH5O6cbu+Q00py6K3aPrfdA/n8b+eddHAGCd1LH7K09UsfuJ83unbQsAANw9gTsAAAQycu9IeWM2n6zaLE8ea5ankPUSqAHQh1qpJ3ZfWFjIN33PnLywr21rVkeO2P/yT/7KRgDAXcwp3/5GGbufKdb0qYv7nMK6gZrd09g7J7PnB/g86A9AcGXs/soTl0+n6iH/HLvP2hYAAPhyBO4AALABypB9dFd54ljjgepk1XyjNv988easu7QADKRWWjwxNZ+SOlOsWbH73c8WAMCqzCk5SsszypztWJ8Zpvu2uu7bZ3of9BewA9CHmsV6Ka9XnricH5ibXVhYePvkhX1idwAAWAGBOwAArLHW+FR56ljzgWbn5LHR8iQyACA91lmnxe4AAIOtelvdaB2z57D9vk3dh/SU7AAMpDp2/87jH5exe7HE7gAAcAcE7gAAsIryDdqvPvq16kZtsZYL2Z0+BgDLqmP3b39jMXY/dVHsDgDQT3qviUyO3/5Bf9dIABgiS2P36WLNnLyw75KtAQCAWwncAQBgFeW4/enff9ZGAMDd6Y3dp09d3PcXtgQAIKY/2PNH6fce/VpqbGmWcXsvATsALCvH7i/n9Z3HP24Xf1/mE91nTl0UuwMAQNfv2AIAAAAAAmvZAgCAuB7b84fpq4987Za4HQC4I61Uxe4fffsbH/+j7QAAgIrAHQAAAAAAAAAANlbTFgAAQEXgDgAAAAAAAAAAAABACAJ3AAAAAAAAAAAAAABCELgDAAAAAAAAAAAAABCCwB0AAAAAAAAAAAAAgBAE7gAAAAAAAAAAAAAAhCBwBwAAAAAAAAAAAAAgBIE7AAAAAAAAAAAAAAAhCNwBAAAAAAAAAAAAAAhB4A4AAAAAAAAAAAAAQAgCdwAAAAAAAAAAAAAAQhC4AwAAAAAAAAAAAAAQgsAdAAAAAAAAAAAAAIAQBO4AAAAAAAAAAAAAAIQgcAcAAAAAAAAAAAAAIASBOwAAAAAAAAAAAAAAIQjcAQAAAAAAAAAAAAAIQeAOAAAAAAAAAAAAAEAIAncAAAAAAAAAAAAAAEIQuAMAAAAAAAAAAAAAEILAHQAAAAAAAAAAAACAEATuAAAAAAAAAAAAAACEIHAHAAAAAAAAAAAAACAEgTsAAAAAAAAAAAAAACEI3AEAAAAAAAAAAAAACEHgDgAAAAAAAAAAAABACAJ3AAAAAAAAAAAAAABCELgDAAAAAAAAAAAAABCCwB0AAAAAAAAAAAAAgBAE7gAAAAAAAAAAAAAAhCBwBwAAAAAAAAAAAAAgBIE7AAAAAAAAAAAAAAAhCNwBAAAAAAAAAAAAAAhB4A4AAAAAAAAAAAAAQAgCdwAAAAAAAAAAAAAAQhC4AwAAAAAAAAAAAAAQgsAdAAAAAAAAAAAAAIAQBO4AAAAAAAAAAAAAAIQgcAcAAAAAAAAAAAAAIASBOwAAAAAAAAAAAAAAIQjcAQAAAAAAAAAAAAAIQeAOAAAAAAAAAAAAAEAIAncAAAAAAAAAAAAAAEIQuAMAAAAAAAAAAAAAEILAHQAAAAAAAAAAAACAEATuAAAAAAAAAAAAAACEIHAHAAAAAAAAAAAAACAEgTsAAAAAAAAAAAAAACEI3AEAAAAAAAAAAAAACEHgDgAAAAAAAAAAAABACAJ3AAAAAAAAAAAAAABCELgDAAAAAAAAAAAAABCCwB0AAAAAAAAAAAAAgBAE7gAAAAAAAAAAAAAAhCBwBwAAAAAAAAAAAAAgBIE7AAAAAAAAAAAAAAAhCNwBAAAAAAAAAAAAAAhB4A4AAAAAAAAAAAAAQAgCdwAAAAAAAAAAAAAAQhC4AwAAAAAAAAAAAAAQgsAdAAAAAAAAAAAAAIAQBO4AAAAAAAAAAAAAAIQgcAcAAAAAAAAAAAAAIASBOwAAAAAAAAAAAAAAIQjcAQAAAAAAAAAAAAAIQeAOAAAAAAAAAAAAAEAIAncAAAAAAAAAAAAAAEIQuAMAAAAAAAAAAAAAEILAHQAAAAAAAAAAAACAEATuAAAAAAAAAAAAAACEIHAHAAAAAAAAAAAAACAEgTsAAAAAAAAAAAAAACEI3AEAAAAAAAAAAAAACEHgDgAAAAAAAAAAAABACAJ3AAAAAAAAAAAAAABCELgDAAAAAAAAAAAAABCCwB0AAAAAAAAAAAAAgBAE7gAAAAAAAAAAAAAAhCBwBwAAAAAAAAAAAAAgBIE7AAAAAAAAAAAAAAAhCNwBAAAAAAAAAAAAAAhB4A4AAAAAAAAAAAAAQAgCdwAAAAAAAAAAAAAAQhC4AwAAAAAAAAAAAAAQgsAdAAAAAAAAAAAAAIAQBO4AAAAAAAAAAAAAAIQgcAcAAAAAAAAAAAAAIASBOwAAAAAAAAAAAAAAIQjcAQAAAAAAAAAAAAAIQeAOAAAAAAAAAAAAAEAIAncAAAAAAAAAAAAAAEIQuAMAAAAAAAAAAAAAEILAHQAAAAAAAAAAAACAEATuAAAAAAAAAAAAAACEIHAHAAAAAAAAAAAAACAEgTsAAAAAAAAAAAAAACEI3AEAAAAAAAAAAAAACEHgDgAAAAAAAAAAAABACAJ3AAAAAAAAAAAAAABCELgDAAAAAAAAAAAAABCCwB0AAAAAAAAAAAAAgBAE7gAAAAAAAAAAAAAAhCBwBwAAAAAAAAAAAAAgBIE7AAAAAAAAAAAAAAAhCNwBAAAAAAAAAAAAAAhB4A4AAAAAAAAAAAAAQAgCdwAAAAAAAAAAAAAAQhC4AwAAAAAAAAAAAAAQgsAdAAAAAAAAAAAAAIAQBO4AAAAAAAAAAAAAAIQgcAcAAAAAAAAAAAAAIASBOwAAAAAAAAAAAAAAIQjcAQAAAAAAAAAAAAAIQeAOAAAAAAAAAAAAAEAIAncAAAAAAAAAAAAAAEIQuAMAAAAAAAAAAAAAEILAHQAAAAAAAAAAAACAEATuAAAAAAAAAAAAAACEIHAHAAAAAAAAAAAAACAEgTsAAAAAAAAAAAAAACEI3AEAAAAAAAAAAAAACEHgDgAAAAAAAAAAAABACAJ3AAAAAAAAAAAAAABCELgDAAAAAAAAAAAAABCCwB0AAAAAAAAAAAAAgBAE7gAAAAAAAAAAAAAAhCBwBwAAAAAAAAAAAAAgBIE7AAAAAAAAAAAAAAAhCNwBAAAAAAAAAAAAAAhB4A4AAAAAAAAAAAAAQAgCdwAAAAAAAAAAAAAAQhC4AwAAAAAAAAAAAAAQgsAdAAAAAAAAAAAAAIAQBO4AAAAAAAAAAAAAAIQgcAcAAAAAAAAAAAAAIASBOwAAAAAAAAAAAAAAIQjcAQAAAAAAAAAAAAAIQeAOAAAAAAAAAAAAAEAIAncAAAAAAAAAAAAAAEIQuAMAAAAAAAAAAAAAEILAHQAAAAAAAAAAAACAEATuAAAAAAAAAAAAAACEIHAHAAAAAAAAAAAAACAEgTsAAAAAAAAAAAAAACEI3AEAAAAAAAAAAAAACEHgDgAAAAAAAAAAAABACAJ3AAAAAAAAAAAAAABCELgDAAAAAAAAAAAAABCCwB0AAAAAAAAAAAAAgBAE7gAAAAAAAAAAAAAAhCBwBwAAAAAAAAAAAAAgBIE7AAAAAAAAAAAAAAAhCNwBAAAAAAAAAAAAAAhB4A4AAAAAAAAAAAAAQAgCdwAAAAAAAAAAAAAAQhC4AwAAAAAAAAAAAAAQgsAdAAAAAAAAAAAAAIAQBO4AAAAAAAAAAAAAAIQgcAcAAAAAAAAAAAAAIASBOwAAAAAAAAAAAAAAIQjcAQAAAAAAAAAAAAAIQeAOAAAAAAAAAAAAAEAIAncAAAAAAAAAAAAAAEIQuAMAAAAAAAAAAAAAEILAHQAAAAAAAAAAAACAEATuAAAAAAAAAAAAAACEIHAHAAAAAAAAAAAAACAEgTsAAAAAAAAAAAAAACEI3AEAAAAAAAAAAAAACEHgDgAAAAAAAAAAAABACAJ3AAAAAAAAAAAAAABCELgDAAAAAAAAAAAAABCCwB0AAAAAAAAAAAAAgBAE7gAAAAAAAAAAAAAAhCBwBwAAAAAAAAAAAAAgBIE7AAAAAAAAAAAAAAAhCNwBAAAAAAAAAAAAAAhB4A4AAAAAAAAAAAAAQAgCdwAAAAAAAAAAAAAAQhC4AwAAAAAAAAAAAAAQgsAdAAAAAAAAAAAAAIAQBO4AAAAAAAAAAAAAAIQgcAcAAAAAAAAAAAAAIASBOwAAAAAAAAAAAAAAIQjcAQAAAAAAAAAAAAAIQeAOAAAAAAAAAAAAAEAIAncAAAAAAAAAAAAAAEIQuAMAAAAAAAAAAAAAEILAHQAAAAAAAAAAAACAEATuAAAAAAAAAAAAAACEIHAHAAAAAAAAAAAAACAEgTsAAAAAAAAAAAAAACEI3AEAAAAAAAAAAAAACEHgDgAAAAAAAAAAAABACAJ3AAAAAAAAAAAAAABCELgDAAAAAAAAAAAAABCCwB0AAAAAAAAAAAAAgBAE7gAAAAAAAAAAAAAAhCBwBwAAAAAAAAAAAAAgBIE7AAAAAAAAAAAAAAAhCNwBAAAAAAAAAAAAAAhB4A4AAAAAAAAAAAAAQAgCdwAAAAAAAAAAAAAAQhC4AwAAAAAAAAAAAAAQgsAdAAAAAAAAAAAAAIAQBO4AAAAAAAAAAAAAAIQgcAcAAAAAAAAAAAAAIASBOwAAAAAAAAAAAAAAIQjcAQAAAAAAAAAAAAAIQeAOAAAAAAAAAAAAAEAIAncAAAAAAAAAAAAAAEIQuAMAAAAAAAAAAAAAEILAHQAAAAAAAAAAAACAEATuAAAAAAAAAAAAAACEIHAHAAAAAAAAAAAAACAEgTsAAAAAAAAAAAAAACEI3AEAAAAAAAAAAAAACEHgDgAAAAAAAAAAAABACAJ3AAAAAAAAAAAAAABCELgDAAAAAAAAAAAAABCCwB0AAAAAAAAAAAAAgBAE7gAAAAAAAAAAAAAAhCBwBwAAAAAAAAAAAAAgBIE7AAAAAAAAAAAAAAAhCNwBAAAAAAAAAAAAAAhB4A4AAAAAAAAAAAAAQAgCdwAAAAAAAAAAAAAAQhC4AwAAAAAAAAAAAAAQgsAdAAAAAAAAAAAAAIAQBO4AAAAAAAAAAAAAAIQgcAcAAAAAAAAAAAAAIASBOwAAAAAAAAAAAAAAIQjcAQAAAAAAAAAAAAAIQeAOAAAAAAAAAAAAAEAIAncAAAAAAAAAAAAAAEIQuAMAAAAAAAAAAAAAEILAHQAAAAAAAAAAAACAEATuAAAAAAAAAAAAAACEIHAHAAAAAAAAAAAAACAEgTsAAAAAAAAAAAAAACEI3AEAAAAAAAAAAAAACEHgDgAAAAAAAAAAAABACAJ3AAAAAAAAAAAAAABCELgDAAAAAAAAAAAAABCCwB0AAAAAAAAAAAAAgBAE7gAAAAAAAAAAAAAAhCBwBwAAAAAAAAAAAAAgBIE7AAAAAAAAAAAAAAAhCNwBAAAAAAAAAAAAAAhB4A4AAAAAAAAAAAAAQAgCdwAAAAAAAAAAAAAAQhC4AwAAAAAAAAAAAAAQgsAdAAAAAACAYXe9WH9TrKlTF/fN2Q4AAAAA2Dj32AIAAAAAAACG1KVinfnKV9LsyQv7rtsOAAAAANh4AncAAAAAAACGSQ7ZZ4t15uSFfZdsBwAAAADEInAHAAAAIKp2sWZsAwCwSsrT2ovltHYAAAAACEzgDgAAAEA008WaOXVx35ytAABWabZwWjsAENlcsQ7ZBgAAqAjcAQAAAIignaoTVadPXXSiKgCwerPFifN7zRYAQER5RpnOM8upi/vatgMAABYJ3AEAAADYSNPFmjl5wWntd+PGZzfS1WvzaXJ8ymYAYLYoZosT5/eaLQCAqPKckq+FTNsKAABYnsAdAAAAgPXWTp0TVU9ecFr7avj5p5+kmff+tvzeGp9K46O70kSxxkcnyk8AGJbZwmntAEBQ9WntJy84rR0AAL6IwB0AAACA9TKdnNa+5trX5svVNXLvSBm8t8aq8D2v5pamjQJgEMwW68zxc05rBwDCynOK09oBAGCFBO4AAAAArKV2cqLqhrrx2Y109dp8ubqaW0br090nx6fSWGNXGcIDQJ/MFjN5tjh+bm/bdgAAAdWntZ84b14BAIAvQ+AOAACr6IeXPyojsonydNQqGgOAITVdrJkT552oGtH133xarp/+509S+lH1sxy9T461Oqe8TxTfp2wUAJHk09pnjp/bO2srAICg5lJ1LWTaVgAAwN0RuAMAwCrKodi//tvFm37WGp8qQ7Hys7krNbY0bRQAg6qdnNbe13PM9flPU5r/qP5ZnmHK6L1ZRe/5EwDWebYoT2s/dtbpp1G9/c//UD3kv31Xao1NlW+HAYBh+ud0clo7AACsOoE7AACssfa1+XJ1w/eRe0eq4L1z0zeHYvlnANDHplN1ouqcrRgs1z79pFy98snueXWDdw/vAbAG8kwxc+ys00/7Qe+bYT7s/Kx6s131gFxrrHrwHwAGcV45fs68AgAAa0HgDgAA6+zGZzfS1Wvz5Uo/qn7W3DJa3vSd7Nz0zZ8AEFw7dU5rP37Oae3D5Oov5svVNbJpJO3uzjA7W2ms+Mw/A4AVqk8/PXZ2T9t29Leff/pJuXrlh/wnmlX4nr83PSQHQB/PK8fPOa0dAADWksAdAAAC6D3trCvf8J1oTnROeZ9w2hkAUUwnp7XT48Zvb6R//9lPynWu87N8qns+3T0/tDdWzDG7d7ZsFACfJ88UM0c/3DNtKwZb/bB/R/mGu+au+rpHnhu84Q6AyPOK09oBAGD9CNwBACCoa59+Uq4fzn9U/6w64X2iDsYaTjsDYH20U+e09mNnndbOF/vVb66XK0fvXTlcGytnmFb5mX8NwNDK88RssQ4d/dBp7f/P3p0FyXWdd4I/lEkRZAtAigQJMEESSc08zXQE0hMVMREz0Y203eMed8RE+2XmwZIl2vLGrcRF3EWJFOV+63HD82DLkswqL1xFssBVO0uarWes7ma3Z8aWbZEJigRqAVBZVVgKBKWce27em5VVqEItyKrK5feLuMpbeUoM5kUi8+M9//OdfpXucLdoZ5jY1T0u8LczDAAdUq8MBd3aAQBgSwi4AwBAF1k88dvsdpYF32+85qZwuYlfANpnKDmGf/8HurVz8cZrY+nx19X5xXs3Xtvo2Hrjrkbo3eI9gJ73Zmgsmhv50vc/ZtEc56mdqqXH4h3u8p3t8k7vALCBRkPjXsiQSwEAAFtHwB0AALrYUt3OYjAsht7zbmc3mvgFYG2qodmtXfCMjfVOUsPE46/+7v9Mf44dWmPQ/cZrS+nCvRhis3gPoOvl3doPfun7H3vT5WCt8h3uwuId7rLdYfKd7gDgIuuVoViv/P4P7C4DAACdQMAdAAB6zPSpWnr83Xt/E/7X7Lnd2YTvtYU9zbAYACwylBzDX/r+x0ZdCrbK3Lm58M7k2+kRwhvpc3Hx3rU7Gx1bb0jqmBuvKblQAN2h2a398VGL5miv83a4u2xbutA/3x1mt51hAFid0ZB2a//YkEsBAACdRcAdAAD6wHjtaHq0mp/0zTqeCb0D9KNqyLq1f+n7gmd0pnzx3t8f+ZuQh96vzWuYndeFG64pJY/qGIAOMpQcw4+PWjTH5omL5Jbd4S4u9r/2prR+2GZnGABaurV/6fu6tQMAQKcScAcAgD71zsTb6ZGLk7wx6H7jtaWwe2cj9K7bGUDPGgq6tdPFJmpj6dFoDtxwYxZ0jzVMDL3vvFIdA7CJqiFbNKdbO52idYe78P/O7wyT72yX3gOxMwxAPxkNjXshQy4FAAB0PgF3AAAgFbudvTP5dnrk8m5nsctZnACOobHLdTsD6FbVoFs7PeydyWp65GLNEsNrN+y6ycUB2DhDyTH8xTcsmqM7xMD7X5/6D+GvW57bnd/zSHeIadwDAaBn6NYOAABdSsAdAABY1oJuZ6HR7aw54Zt2SN2j2xlA5xtKjuHHRwXP6C9n08V7C0PvALRF/GBNF8198Y2bLJqj643XxtKjVQy8p7vDZJ3e7QwD0HVGQ+NeyJBLAQAA3UnAHQAAWJOJ2lh6tGpO+u6cD74DsKWqIQuePT6qWzsA0BYjIe3WftOIS0GvW7zDXdwZJt77iAv+b0gf94QPX2qHO4AO0+zW/viobu0AANDtBNwBAICLtlR31Djxe0Pc4lvgHWAzpcGzx0c/JngGALRD/A+94eQYeux7N1VdDvpV3Bnm74/8bXrkYlf3eL8j3vvYvXNPGnwHYEuMBt3aAQCg5wi4AwAAG2Kp0DsAGyJ+2KbBsy++oUMZANAW6aK5x76nWzssZ/p0LT1aQ++N3e32hBuvuSlcs9Nif4ANlHVrv+TgF9+wCA8AAHqRgDsAAABAd0qDZ198Q/AMAGiLGBQ7GHRrh3WbqI2lx/9z+E0XA2BjjIbGvZAhlwIAAHqbgDsAAABA96iGZrd2wTPoZGfPzbkIQLcYjfXFo98VFAMAOlLWrT3o1g4AAH1EwB0AAACg86Xd2h/7nm7t0C3+/Y//bXpcs3NP2HFFIVybPF6zc3e4/LJt4fqrSy4QsNWaQbFHvysoBgB0pNHQuBcy5FIAAED/EXAHAAAA6EzVkHVrf+x7gmfQrSanx9Ljx2N/u+D5HVcW0iOG3XdcsbN5DrDBRoNu7QBA52ouwnMvBAAA+puAOwAAAEBn0a0d+sDM6Vp6vHusuuD52OH9mh17ss7vO8OueJ4c8XmAdapl9UXs1v6mywEAdKDRoFs7AADQQsAdAAAAYOtVQ9at/dHv6lAG/ezsubnw7vFqerTKg+87rtwZdlxRCHuzzu/bk3OAZcQw+8HkGPnCd0o1lwMA6DC6tQMAAMsScAcAAADYOmm39ke/q1s7cGF58D0cz5/5fnPs+qtLYfsVO8OOKwtpCD6ex0egLzW7tX/hOyXd2qEPTUyPhZf+76ezHWF2pwvj4s4wAB1kNDTuhQy5FAAAwHIE3AEAAAA2VzXo1g600eJu77nWsPuu5Ihd4Pdetc8Fg96tLx675JIw8vlv69YO/SwuivuHo3+bHgvqgp170rD7tcnj9mxHmLhIDmCT5IvwHnMvBAAAWA0BdwAAAIDNkXZr/8J3Srq1A5ticmYsPd4a/9GC52OgbfuVhTTsnp5fsVPwHbrXUKwvPv/t0qhLAVywLpgeS48fjy0MvscdYNKw+65S8ji/I8yHL93mogHtEHeUOXjJJZeMfOE7FuEBAACrJ+AOAAD0vP/50KONCdvkuOHqUvLYmLDVqQzYBNWQdWv/wndKVZcD6AQzZ2rp8d6izu+xw/uu7bvTbu8x4LZr+55w9Y7d4XIBN+jE+uJgrC90awcuui44XUuPd5eoC2LQPd0R5sqd2fnu9HmAFeTd2g9+4TulN10OAABgPQTcAQCAvtCcsD1WXfB8Hny/JgtyxS2747kJW+Ai6dYOdJ2z5+bCeycOp0erPPi+/YpGh9di2vl9Z/ozsKmGLrkkDD/yLd3agc2pC2LofXHwPYoNA7Zn3d6vv6qUBuB3qAuArFt7cujWDgAAXDQBdwAAoK8tF3xvdirb2Qi7X3/VvrA927YbYBnxgyTt1v75b+vWDvSOPPgewuHzxvbGGimpj+KRh+DjI9D2+uLfPPItQTGgM7SG3v+v8P3meQy+f/jSy9P7Kc0dYZJHoKfp1g4AAGwIAXcAAIAlrNSpbEfWnWxvcn75ZZeHXdtN2EIfS7u1f/7burUD/We54Htr2P3q5IgLBosf3eeCwRrri0e+pb4Aukd+D+Wt8R8trAvyXfOSx3xhXFwkB3S1Zrf2z3/bIjwAAKD9BNwBAADWKJ2wPZ7/NN+prDFRuzPt+t4816kMelXyQaBbO8Byjs2Op8fbEwsDbo1Q286w96P7wke2Nc4F3+H8+uKRb+1TXwC9UxfMjKXH4uD7jrwuiI0Eksd8cVxcGAd0pGa39s9/W7d2AABgYwm4AwAAtMnkzFh6LDlhe2UhXH/VvnSydseVOpVBF9NNFeAizJ6ppceREwu7vl9+6ba003ve+T2eX/2R3S4YfVVffO6b+9QXQF+ZSWqCeLy3uC64bFtaE+zKmgfEXfN27did1gvAltCtHQAA2HQC7gAAABusOWGbbdWdy4Pv12RBrjhxu2v7tTqVQeeJf3mzbqq6tQNshLMfzIUjU4fTA/pEDIcNJcfBz31Tt3aABXXBubk09L44+B7tzZoHxCPuCLM96/wObEitknZrf+RburUDAACbT8AdAABgiywXfG/tVBbP08nbbSZsYQtk3dp1UwUA2mY0NLq1D7kUAGvXCL03gu9/1fJ8vHfy4Uu3pZ3e4y4waSOB7XaDgXVodmt/5Fu6tQMAAFtHwB0AAKDDrKZTWez+XkzO8zA80DbV0OzWrpsqANAWzW7tD39DfQGwEfJ7KG9P/GjB87u2z4fdG53fd4brCvtcMDi/Vsm6te/TrR0AAOgIAu4AAABdpLVTWavmhO2OPQsmb4FVS7u1f+6burUDAG2TdkB9+Bu6tQNslWOz4+mxOPieht237UybB2zf1gi+x/sosQs89Futkhwjn/vmPt3aAQCAjiLgDgAA0AMuNGG744qdofjRfc1OZfEcSFVD1q39c9/UTRUAaItmB9SHv6EDKkCnmj1TS48jUwubCFx+6bZw9fbd4ewHcy4SPV+rfO6bahUAAKBzCbgDAAD0sHzCNt+qO5eH3dNu79sK6eStTmX0Ed3aAYB2a3ZAffgbOqACdKsYbF8ceodeq1V0awcAALqBgDsAAEAfanYqO7F0p7I07H7Ztkbn920FF4xeUA1Zt/aHv6FbOwDQFs0OqA+9fqMOqABAx9YqdpYBAAC6jYA7AABdr3j13qHLL7v85qMnjoS5920fDBcj71SmWxk9JO3W/vA3dGtnQ8RFE9XkqCRHyeUA6Bvxsz92QB166PUbdUBlU/1i+ZfSx7fH3g7ugwCwDDvLAAAAXU/AHQCArnfL/3BbDJfdHM9rJ6fCW0ffDmNTR8PYiaPh7bG3XCCA/lMNurWzCX545A+H4vssng8UB+N2F+XQCLvvzx5tgQHQW+Jn/vBDr9846lKwVX4hC7j/Qvbz0eNHw9ETR9P7IPEeSLwXAkBf0q0dAADoKQLuAAD0lMJHPhp+/j//6ILn8qB7nOxNJ31N9gL0qrRb+0Ov69bO5vvhkT+MYYLR7EgNFAdLoRF6j8eB0Ai9A9BdqiHr1v7ga7q103n2XHVdeix402bd3Ruh97fTZgAA9Czd2gEAgJ4k4A4AQNf7lX/1kdHXHzr582E+PJYHyVKLJ3vr9Xqojr+dTfg2upyZ7AXoWtWQdWt/6PUbqy4HneSHR/6wmr1Hm4suBoqD5eVqFgA6ylCsMR58Tbd2uk9pz03pEcV7IHPvz6X3PvL7INXxt9LnAOhazW7tD71+o27tAABAT7rEJQAAoFe99uDJSmh0St0fGuGxUnw+Tu4uFid24wTv0RNjoZp1ezfZC53tX5Q/Ea4r3BiW+CudaQwsPx7WOV6/yP//cuP1Nv37dc7rX/mfXb+Yf7fRZDxO5OrWTtcbKA5WwsLQe8lVgc50XWFfUoN8vOO/g1f/Hd179cdF1iDV5BhOhmO39qp3PJ3q9YdOFrKaoZK8X/dn9z4Ka3m/x4X+jZ3uGvdBYiMAoLN9uvJQj3wPL1+H9HENstp/frNb+0Ov21kGAADobQLuAAD0jdcePFlKHsr1er01QHbeBHA+kRAne+MEb5zwHUs7nJnshU4i4L7SeE8G3OPk7VByHBQ6o5cNFAdjfVIJC0PvBVcGtp6Ae+j6175MDRIXzA0/8KqFc3T/PY+W2qGy1po7v/+Rd3uPj0DnEHDv24B7s1v7g6/p1g4AAPQPAXcAAPraqw/MxknfeOQdz8oXmmeIIfe4nfd4y6QvsDUE3Fca76mA+2hyDD/42o1D3vn0q4HiYCks3Jmm4qrA5hNwD13/2ltqkGqsL5Jj6IFXLZyjN7324Mm4yL+1fiiv9e/L21nQ/XDWACA2AwC2hoB73wXcm93aH3xNt3YAAKD/CLgDAMAir9w/WwkLu56VWsdbJxrm3p8LY1NHmhO9Y1NjJnthkwi4rzTe9QH3WjI8FHRrh2UNFAfzoPuyoTWgvQTcQ9e/9sRoUoMc1K2dfvTqA7OFML9QLq0fkr8vpbX8fZp7/0wz8J7vehfvjQAbT8C9LwLuurUDAABkBNwBAGAFr9yfTgBXQhZ6r9fTx8L8byycmJg6WWt0eG/pcGayF9pPwH2l8a4NuI8mx/ADr+rWDms1UBw8L7QWwoVDa8DaCLiHbn3tMSwWa4uD979yQ9U7GRbc8yiF+YVyB8KiXWJW8/exdqpxHyQG3vNHoP0E3Hs64J52a0+GdWsHAADICLgDAMA6vHzfbD75uz+Eeh4kSy01TxFD7uNTY1mX90bwHbg4Au4rjXdVwL0ZOnvgVd3aoZ0GioOlcIHQGrA2Au6h2177aHIM3//KDUPevbB6r9zfvOeRL/Ivr/XvY34fJO/yHoPvwMURcO+5gHuzW/sDr+rWDgAAsJiAOwAAtMnL981UQmN779gxNZ6Xlvq9fB7j8MTbzQnfGHivnZpyEWENBNxXGu+KgPto0K0dNt1AcbBloV5zlxpgFQTcQze89loyHmsL3dqhjV6+b7bSqBvqC3aJWcvf5/w+yOG00/uY+yCwRgLuPRNwT7u1J8fIA6/q1g4AALAcAXcAANggL907UwiNSd9KaHRMjeeF5SY65t6fa0z0TjS29I6P8TlgaQLuK413bMC92a1d6Aw6x0BxsBLmu7w3Q2vAQgLuHV1/NMNi9718g7AYbLCX75uJtUI56/DevOexlr/vrfdB0tB77aj7IHABAu5d/drTbu31el23dgAAgFUScAcAgE106LPpBHAlNDqm5uH3BVoneaZP1Rpd3muNLu9x0hdoEHBfabzjAu6jyTF8/ys3DHn3QucbKA4uuVDPlaHfCbh3XP2RhsWS4+B9L98gLAZb7KV7Z87bJWat/z0U74Ms2PHOfRBoEnDvytfeXIB3/ysW4AEAAKyFgDsAAGyxQ5+dqYRsAjjrfFZujCw9Y5JP8sbOZocnqmm3d+hHAu4rjXdEwF23dughA8XBUljY5b3iqtBvBNw7pv7QrR26RMs9jyV3iVnN51Hr/Y/YAMB9EPqVgHvXvPbmArz7X7EADwAAYL0E3AEAoMOM3DOTdUytV8J817Nmx9SlJlJiR7N8kjeex45n0OsE3Fca39LXP5ocw/e9rFs79LqB4mAedM93pym7KvQyAfctrz9ibXHw3peExaBbHfpses+jktUMB7KF/oW1fh7Fex/zofej7oPQFwTcO/61V5PxuABvSLd2AACAiyfgDgAAXWDknulSaGztfcGOqfkky9y5uTARw+6T1fBODL8n5/E56CUC7iuNb/rrb3Zrv+9l3dqhnw0UBythYei95KrQKwTct6T+SOqKehoWu/clYTHoRSP3TOeL5PLaobLWz4t4z+OdbPG/+yD0KgH3jn3tQ6GxyH/UuxQAAKB9BNwBAKBLvXj39HkdUy80SRO7mY1NHQ3vTM5P+EI3E3BfaXzTXv9o0K0duICB4mApzHd3zxfrFVwZupGA+6bWH7G2GL73petHvfOg/4zcM13JurvnO9uV1vp5Ujs11Qy9uw9CLxBw76jXXk2OdAHefS9bgAcAALARBNwBAKCHvHDXdCVcoGNqfdEsTZzgnagdTbf1jo/xZ+gWAu4rjW/o6292a7/3Jd3agbUbKA4u26kVOpmA+4bXH7GuOJiMD9370vXCYkDTi3dPF1pqhuaCuZU/bxb+wjuT1bS7e34/xH0QuomAe0e89qGgWzsAAMCmEHAHAIAe9sJd06XQ0jG1Xq9XLvT7cRInTvbGSd500jd5jJ3foRMJuK80viGvfzR5Zvjel3RrB9pvoDhYCWHlTq2wlQTcN6z+GEmOg589pFs7sHrZPY9KuMCCufoFPpDi0Nlzc43u7pNvh4m007v7IHQuAfcte+3VkHVrv/cl3doBAAA2i4A7AAD0mefvrDUD72E+/J5aapKndbL3nYlG6D0+B1tNwH2l8ba9/pZu7ddXvfOAzTJQHGzt1JqH3guuDFtJwL2t9UesK4ZjnfHZQ2oMoD2yne3SBXP1en3BPY/VfpbFgHve3T1f/O8+CJ1AwH3TX/tQtsh/1LsPAABg8wm4AwAAMfReSR4q9Xqz61lpqd/LJ3mmT9eyLu+NDmdxwhc2m4D7SuMX/fpHk2P4s4euH/JuAzrFQHGwFBYu1Ku4KmwmAfe21B8jyXisMUa8o4CN9vydtWUXzK3lsy7t7j59NL0X4j4IW0XAfVNee/zLnXVrv163dgAAgC0k4A4AAJzn659JJ4ArYWGArHChCa44wXt4stqY7J0eS3+GjSTgvtL4ul5/s1u7TqpAtxgoDi67Ow20m4D7uuuPWFek3drvGVFjAFvr+TtrpVgvJJ9VF1wwt9LncLrLXXr/42j4yWQ1bQYAG0nAfUNf+1BoLPIf9U4DAADoDALuAADAqnz9M7U4+Ztu8x2a4fcLT3DFCd53jlWbHc5M9tJOAu4rja/p9Y8G3dqBHjJQHMxqlWZwreSq0A4C7muuP9Ia454RNQbQ2eI9jzDf5T1dMLfWz+Gz5+Ya3d2z+yCxy3t8DtpFwL3tr70asm7tnz2kWzsAAECnEXAHAADW7bnBqUpoCY/V6xcOj829P5dO8E5Oxwnft9OJX5O9rJeA+0rjK77+tFt7Mq5bO9DzBoqDS+5O48qwVgLuq6o/asn4UPJ4ULd2oJs9N1irhAWh93pprZ+VcaF/vPeR3weJjQBgvQTc2/baY52iWzsAAECHE3AHAADa5tk7pi4YHltqkilO9sYJ3onpRpf3nxyrupCsioD7SuPLvv7RoJMqQAy9l8LCTq0VV4WVCLhfcDypMerDd7+oxgB603ODU6WsZkjveSSfhZX1fA5PTI+l9z9il/d4DyT+DKsh4H5Rr70asm7t94zo1g4AANANBNwBAIAN9ewd6QRwJTn21+sXDo/lk1Ax7B4neSfjhO/0mMleliTgvtL4gtefdmsPOqkCXNBAcTDWKbFeyUPvZVeFVgLu543HGmMkOR67+8W9agyg7zx7x1Qz8L64dljLfwvmQffJbOF/bAYAiwm4r+u1D4XGIv9R7yAAAIDuIuAOAABsumdun6qE+fBYPC/F55eb4Dp7bi6d6G10em8E3mdM9vY9AfeVxtOB0WRct3aAdRooDhbCfHf3vG4puDL9S8C9Of5maHRBHbn7xb0Kc4AWz96R3vOoJJ+V+YK50lo/i+N9kPHaWHg3C77H0Ht8jv4m4L7q114NurUDAAB0PQF3AABgyz1z+1QaHsu29z4QQj1OAJ8XHmudxIoB97S7WTbRG89N9vYXAfdlx7Nu7fWDd7+oWztAuw0UB0thvkNr7NZacVX6R58H3PNu7QfvemHvm94NAKuT3fOohIWd3gtr/SzO74OkO95lj/QXAfcVX/tQcgzf/aJu7QAAAL1AwB0AAOhIT992ohTmu6WmnVNXmuSaqDW6u0/OjJns7QMC7ueNj4Z0InfvkHcHwOYaKA7mgfe8y3vZVelNfRpwb3Zrv+sF3doB2uGZ26fiIv+sdqgvWTus5nN+Mtvl7t3j1WYTAHqXgPuS49WsThmyqwwAAEBvEXAHAAC6xlO3nkiD7mE+9L5gAnipSbB8O+8YejfZ21sE3FO1ZHwoeTx494t7q94VAJ1joDhYCQs7tZZcle7XZwH3WGMM3/XC3lF/8gAb7+nbTiyoHZLP4tJ6Pufz+yBpp/eZsbTzO71BwH3BeFqn3P2iOgUAAKBXCbgDAABd66lbT8Rtvpuh93o9fSws9/v15BfOnptLJ3jfPXa42eUsPkf36fOA+2hoBM6GvBMAusNAcbC1bslD7wVXprv0QcC9GrIuqHc+rwsqwFbK7nlUwsIFc4XVfw80fqH1PshPjlfThf/ug3QnAfdQTcZ1awcAAOgTAu4AAEBPefKWE6WwcPK3ko/Vl5kli93MGl3ex9NOZzH0Tufrw4B7nLwdSo6Dd72gWztALxgoDpbCwt1pKq5KZ+vhgHusMYbvfF4XVIBO9tStJ5q1Q/JZfsHaoX6BL4L8Psi7xw+ngXf3QbpDHwfc0zrFrjIAAAD9RcAdAADoeU/ecqJcr9dbQ+/lpX6vdRItdjebbAm9x5/pLH0UcB8NurUD9I2B4mBzd5oL1S1sjR4LuFeTM93aAbrck7ecqGT1wv6shig1Puvra/qeaHR5r6b3QRr3Q9wH6TR9FnBP6pRGt/a7XlCnAAAA9CMBdwAAoC/95e8dr4SF4bHSShNwP8mC7sdi6P14Ne14xtbp8YB7fHONJMfBO5/f+6Y/bYD+NlAcPK9ucVW2Ro8E3EeSseE7ny+O+BMF6D1P3nKiEOuFer0ea4d8oX9hPd9D8d7He7HL+0wj8O4+yNbqk4D7UNCtHQAAgCDgDgAAkPqL3z1eCvNdUuMEcGXx7yyeoDt77kza2ey9443ge9za++y5ORdzk/RowD2G2WOHshGdVAFYzkBxcHHdsmRwjfbr4oB7NTmGk2PoM18vVv1JAvSXv/y99J5HJcwvlqus53so3vN4Nwu858F390E2Tw8H3GNtYlcZAAAAFhBwBwAAWMZf/O7xZnCsXm+GyFrMz9jlk3MzZ2pph/d8sjd2O2Nj9FDAPevWXtetHYB1GygO5rVKDK5Vzq9baIcuDLjHLu3Dn/m6bu0ALJTd86iE+dB7eT3fQ/E+SB52z3e8Y2P0YMB9KNYpdz6vWzsAAADnE3AHAABYgz//neOVkE761vNuqaX4/IUm79KtvKfHw3snqmnH92PJz1y8Hgi4p93ak/GRO58v6lAGQNsNFAezuqUZei+5KhenSwLutazG0K0dgFX7i989Xsjqhlgz7E++R+JjYT3/LZzvchfvf7gP0j49EnCvJuNZt3b3QgAAAFiegDsAAMBF+PPfORYneytZh/c89F5Y/HuLJ/feO5Fv6V1NO5zFjmesTZcG3LNu7eHgZ75e1K0dgE01UBxcEFzLHguuzOp1eMB9NDmGB58rDvmTAqAd/vx3jpey2uFA8s2T1xBr/h47e24uHJsdT++B5J3e3QdZuy4PuMf6JO4qM+pPEgAAgNUQcAcAAGizP/vtY/nW3nlwrLzS5F+c7I1dzWKX9zT0PjuePsfyuizgnnZrT46Rz3xdhzIAOsdAcbB01UeuqZw4Obk/zIffWUYHBtxjXTEU64zB53RrB2Dj/fnvNO55JN9D+SL/8nq+52ZO1xph9yz47j7Iyrow4B5rk7Rbu3shAAAArJWAOwAAwCYY/q1jlRAWdHkvtY7PT/7NzwLOnqlloffGtt7xkXldEHBPu7XHrbd1awegm/zLf/yvKyfnZsvTp0/s33bZFZW5c2dKrkpDBwXcR5Nx3doB6Ah/9tvpPY945AvmSqv/npv/xdjZ/djsWHovxH2Q83VRwD3WJ7q1AwAAcFEE3AEAALbA8G8dK4T5LqkH6vX0vLB40jCXTx7Gjmb5JG+c9I2Tv/2qgwPuzW7tg8/pUAZA93viNycLz/4fX61MzhwtX/HhKw/8rP6z8tlzc4V+vBZbHHBPF8/FOuOOZy2eA6BzDf/WsVKY7+4eF/pXlv+eu/B9kNb7H/1+H6TDA+7VkHVrdy8EAACAdhBwBwAA6BBDn44TwPVKmO94VsnHLjT5GCd78y7vMQAfO7/3gw4LuDcDZ4PPCZwB0Pse/hffL//VP/yg/HMfuvTA7Jnpcj2G3j+Y6/nXvUUB92zxXH3kjmcFxgDoTsO/dawZeM8W+ZeX+m/slb4nY71xbHo8vDfVf/dBOjTgPhT/eAef060dAACA9hJwBwAA6GBDn56sJA/lej0Nvcfz0lK/1zq5GCd7j6QdzsaTx2ra3awXA2cdEnB/MxnXrR0AEv/yH//rWKtU5s7N7f/gp+fK06dPlHrtNW5iwL2WjGfd2q+zeA6AnjT06WNJ7VDPu7zHx9JqvicXj8WAe7rj3exYej8kNgHoRR0UcK8G3doBAADYYALuAAAAXeSJ35wshPnu7vkEcGGlyc2Z09PhyFS2rXcafO/+yd4tDLg3u7Xf8axu7QCwnK/dPFH6+r/9WvlDH/q5A+c+OFv+0CUfqsQ6pJttQsC9mhyPxVrj9meuExgDoK8MfTq951EJjYX+zXseq//v+Pnv4FhzHG8JvXd7DRJ1QMA93gsZvuPZ4oh3KwAAABtNwB0AAKDLPfGbk6Vse+988rcyP7r85GYedG9M+o513WTvFgTcY5j9YPLMyB3P6lAGAOvx0K98v3x06p3KWO3d/Zdc8qHK9KnjpW7aaWYDA+5DyTF8+zPXjXqXAMC8J35zMt7niEe+s115vd/B6cL/mfHG/ZDkPHZ+7yZbFHCvJs8Mx1rljmeLVe9IAAAANouAOwAAQA/609+YzILu9TgBXM4C8MvKJy/jBG88Gl3Oxjt6sneTAu61ZDzr1n6dbu0A0GZf/dRE4Ydv/aA8e2a68sFP3z8wc6ZWnpw5WujUf982B9yrIV08F4Z0aweA1fvT35ishLBgoX9pPfcB3v9grhl2P541AejkhXebHHDPurVfp1s7AAAAW0LAHQAAoA987eaJGBTLu7vnXc+a4bHlJjdnz0yn23kfzyZ848Tv+x0y2bvBAfesW3sYETgDgM311U9NlGPo/cTJyf2nz56snPvp++XjHbLTTJsC7kPJMXzb07q1A0A7/OlvTGb3POqV5PFAtsi/sMb7AKnF90Hi0Sk2IeBejTVKMj50x7PXVb2zAAAA2EoC7gAAAH3qazdPlEIj9B47vMeuZ5Xlfrd18jPt7n6yMdmbT/huhQ0IuMcge9qt/fZndGsHgE7ylU9OVP73H32zfPaDuQPTp4+Xz7x/qhQDaJvtIgLu1eQYTo5/c9vTFs8BwEbL7nlUQmORf77gf633CVLHZ8fCsZPj4Wi28H+rFt5tYMA97dZ++zO6tQMAANA5BNwBAABoih1Tw8JtvuOxxOTnwifiNt5xsjcNvZ/cnMneNgbcdWsHgC7zlU+OlyZnjpYPH/uH8tTJyQNz505XNmOnmXUE3NPA2G1PC4wBwFb72s0TldBY5J/vbFda5j7Bkt/treNp2D0Lvcd7ILNzG7/wrs0B92poLL4buv0Z3doBAADoPALuAAAAXNBXPzVRqdcXdD0rLTW52yqGy9Lu7rV30k5nGzHZe5EB92a39tue1q0dAHrBn/z6ePknx39cqU7+aP/p90+V3//gbPlom3eaWWXAvZr8z3AyPpTUGVV/MgDQmb76qYlCmO/uni/0L6wm4L5Y632QI1novd0L79oUcB9JxnVrBwAAoOMJuAMAALAmX/lk3Oa73trpvbKa7mAx4B4neE+cjBO+Fz/Zu86Ae7Nb+21P69YOAL3sy58YT0Nrf3f0P1WOTFX3//RnH1SmT58oxN1m1muFgHvarf3Wp/YIjAFAl/rqpyZKyXd86852ldUE3Jcaz++DHI33QLJu7xfjIgLu1ZB1a7f4DgAAgG4h4A4AAMBFix1TQ2PiN9/mu9w6vtzka5zgjZO9rRO+q7WGgLtu7QBA6sufGC9NnTpWeffEj/ePT79X/tnPflqJi+9Wu9PMEgH3WGcMxTrj1qf2VF1hAOg9X/nkeN7lPd3ZLgvAL+tCAfj8PkgMu6fna7gPso6Ae7r47randWsHAACg+wi4AwAAsCH+5NfHK6Ex8Zt3PSst97vzk6/1cLT2TjrBeyILvS8XOFtFwL3Zrf3Wp3RrBwCW9scfH6v85PiPy7VTxw6cPDtdPnFyshRrkaV2mmkJuI8mNUjs1j7kCgJAf/mTX2/sEhPmQ+/xsZCPr7bDex5Ij/dBjmY73V1o4d0qA+7VWKME3doBAADocgLuAAAAbIovfyKdAK6EsGCr73QCePHkbquzH8yF47MTYSzf0rv2Tho4Wybg3uzWfutTe3RrBwDW7I8/PpbWLH939D+VT85NH0hqkcpYtgBvxxUfrf6P//Utv3DLk7q1AwDz/uTXx0uhcZ8jX+hfWe53L3QPJDp7bi6993EiuweSL7xbIeA+kowM3/qUbu0AAAD0BgF3AAAAtsyXPzGeb+29P4R6JYSlt/lePHl7cm46fPjSy5NjWz7W0q19j27tAEBb/dGvjZVveXLPmwPFwfIPj/yhRXQAwIriPY+wcJF/es9jpYD7UgH2eB/kI9t2Lh6vJkfarf3Wpyy+AwAAoLcIuAMAANBR/vjjY5UQ8tB72vGstEx3srRbezKmWzsAAADQ8b78ifFKvZ7e64gL/eO9j9Li31nmHkjreOzSPnzrU3t0awcAAKBnCbgDAADQ0f7o18YKoRF4r4RG17ModigbueVJ3doBAACA7vTHHx8rhfnu7vGeR2WZgHs1ZN3ab3lSt3YAAAB6n4A7AAAAAAAAAHSAP/q1sTzwHne2KyXH8C1P6tYOAAAAAAAAAAAAAAAAAAAAAAAAAAAAAAAAAAAAAAAAAAAAAAAAAAAAAAAAAAAAAAAAAAAAAAAAAAAAAAAAAAAAAAAAAAAAAAAAAAAAAAAAAAAAAAAAAAAAAAAAAAAAAAAAAAAAAAAAAAAAAAAAAAAAAAAAAAAAAAAAAAAAAAAAAAAAAAAAAAAAAAAAAAAAAAAAAAAAAAAAAAAAAAAAAAAAAAAAAAAAAAAAAAAAAAAAAAAAAAAAAAAAAAAAAAAAAAAAAAAAAAAAAAAAAAAAAAAAAAAAAAAAAAAAAAAAAAAAAAAAAAAAAAAAAAAAAAAAAAAAAAAAAAAAAAAAAAAAAAAAAAAAAAAAAAAAAAAAAAAAAAAAAAAAAAAAAAAAAAAAAAAAAAAAAAAAAAAAAAAAAAAAAAAAAAAAAAAAAAAAAAAAAAAAAAAAAAAAAAAAAAAAAAAAAAAAAAAAAAAAAAAAAAAAwGa4xCUAAAAAoBMNFAdLyUM8Kskx+sMjfzjqqgAAAAAAAEBvu9QlAAAAAGCrZWH2cnYcyB4Li35t1JUCAAAAAACA3ibgDgAAAMCmGigO5kH2/WE+1F5wZQAAAAAAAAABdwAAAAA2zBJh9oqrAgAAAAAAACxHwB0AAACAthgoDlbC+Z3Z2+IfXb5jpysMAAAAAAAAve8SlwAAAACAtRgoDhbCfDf2faHNYfal/FelfxJ+vvRP3qzXw3Dy48itT+2p+pMAAAAAAACA3iPgDgAAAMCyFoXZ887spc3+98gC7qFebz71ZnIIuwMAAAAAAECPEXAHAAAAIDVQHCyF+W7sB7LHQif8uy0RcG/1Zgj1LOx+XdWfJACwHn/0a2OxFopHJTlqsba45UkL6QAAAABgswm4AwAAAPShgeJgHmQvhQ4Lsy9lhYB7ojGQjMfO7geTY+S2p6+r+ZMGAJbyxx8fy2uhfIeaclJHLFULNXeNEXYHAAAAgM0h4A4AAADQ41rC7HmAq9Jtr2ENAfdWI8lxKAi7A0Df+vInxgt5/ZPUCfsa5/XyktVE/cL/rGR8NGRh91uf2qO2AAAAAIANIuAOAAAA0EMGioOVMB9mL4UuDLMvZZ0B91Zp2D0ZH7n9GWF3AOhFX/7EeL47TXw8kJ2XmtVCfWHdcF41sXLA/bzaIgi7AwAAAEDbCbgDAAAAdKGB4mDejbS1M3u5V19vGwLurePNQJqwOwB0pz/59fFKVvtkXdnTDu2rqQPCcgH3Y7Pj4eTcdDhxcjwcP9k4//Cl28K/KH98hTqj3lxIZ9cYAAAAALh4Au4AAAAAHa4lzF4J82H2Uj9dgzYH3HMxgJYG0m5/5roR7zQA6Dxf+eR4Kat7YoD9gnXQauuA4yfH0vB6DLEfz0Lt8Xwp1xX2rSbg3jqe1ha3PX3dkD89AAAAAFgfAXcAAACADjJQHCyF+W7sB0IjwFXq9+uyQQH3VmnYPRk/dMezwu4AsBW+8smJvAYqNeqgejwvrOJ7fMnx2bnpcHKuFo5OvZOG2mfPLB9kX846Au4LaovQCLurLQAAAABgDQTcAQAAALbIQHEwD3DlYfYFIS7mbULAvXW8GUgTdgeA9vvqpyby3WnikXdlL5//PV1f1fd4DLLPnmkE2WfnaunPR6cOt+Xf9SIC7q2aC+nsGgMAAAAAKxNwBwAAANgEWZi9NcRVcVVWb5MD7q3P5GH3g3c8W3zTnwQArM3Xbp4ohfkA+wV3p1kp4D5zZjqcPFMLR2rvpIH2k3PT4UibguzLaVPAvXW8uZBO2B0AAAAAlibgDgAAANBmA8XBSpgPs5eCMPtF28KAe+sP1WQ8BtGGB58TdgeAxb5280ReA+0LSyzoW+338PsfzIVjs+Ph+OxY2o39eHIef47Pb7YNCLi3imH3oVhb3P7MdWoLAAAAAMgIuAMAAABchEVh9rxLO23WIQH31vFqCMLuAPSnP/2NyVKYX8SX1ED1eF5e6/fsfJB9PO3IfmwLg+zL2eCAe6vmQro7nhV2BwAAAKC/CbgDAAAArMJAcbAQ5juR5mH2kiuzOTow4N6qGoTdAehRT/zmZL6Ar5R8Dx7Izgtr/R4+MnU4zJyeDrNztXDkxOE01H62g4Lsy9nEgPuihXT1LOyutgAAAACg/wi4AwAAACwyUBwshflu7MLsHaDDA+6t4zGENpwcI5/5erHqTw6AbjH06clC8j22uP4pr+57cP57OAbZZ89Mpx3Z32s571ZbFHBvrUFiPRHD7gfveFZtAQAAAEB/EHAHAAAA+tqiMPsyXUnZal0UcG8l7A5ARxr69OTi+if+XFrL99yx2fFwbGYszM5NhyMnqmGmy4Psy+mAgHvrWLO2GHxObQEAAABA7xJwBwAAAPrGQHFwcVfSiqvSHbo04N4qDaQl4yN3Pi+QBsDmGf6tY5Ws7tmXdWivLP5+u9D3WAyyx+D6sZnxMBkD7fE8ea5fdFjA/bzaIgi7AwAAANCDBNwBAACAnjRQHKyELMwVhNm7Xg8E3FvH30zODiaPI3c+v7fmTxeAdviz3z4WO7CXsponLuYrZTXQEt9T539hxQD7TB5knx1rhtr7XQcH3Fu9mYzbNQYAAACAniHgDgAAAHS9ljB73pm97Kr0lh4LuLf+c0eS41AQdgdgDf7st4/l9U4pOQ5k54XVfA/F4HoMsr934nCYPV1Lw+yC7MvrkoB76/hoCM2wu9oCAAAAgK4k4A4AAAB0jYHiYCHMd2NfsjMpvamHA+6tRpLxNOx+1wvC7gCE8Oe/cyyvfdKFfMn3xAUX8rV+D8UQ++yZ6fDe8Wp6PpOdszZdGHBfUFuEbCGdsDsAAAAA3UTAHQAAAOhIA8XBUmgE2CthvjN7yZXpT30ScG/9/zcDacLuAP3hL373eKklwH4gq3tKK30XnT03l3Zgf/dENcycFmRvty4PuLeOt+waI+wOAAAAQGcTcAcAAAC2XBZmbw10xceCK0OuDwPuuRhASwNpd72wd8Q7AaA3/MXvHq+ERoA9X8RXWem7KAbZJ2fGw+T0WNqRPYbaJ2fG0ufZOD0UcG/956a1xZ3P7x3yJwwAAABAJxJwBwAAADbVQHEwD7LngS5hdlbUxwH3VrW8++rdLwq7A3SDv/y944UwH2Dfn3yOl7KflzX3/lwaXI/H7OlaI9QuyL5lejTg3qwtwnzYXW0BAAAAQMcQcAcAAAA2zEBxsBKW6U4KayHgft54M5Am7A7QGZ685US5Xq+Xs9pn2R1pWj/r3z1eDTOna2HmzHR491hVkL0D9XjAvXXcrjEAAAAAdAwBdwAAAKAtsjD74s7s0BYC7hccryUjMYh28O4Xr3/TuwVgYz15y4lCS60T655SaFnEV1/iwzoPsk+fbgTZZ87U0p/pfH0UcF9UWwi7AwAAALB1BNwBAACANRkoDuahrkqYD3UJs7OhBNxXGm++/mpoBNKG7xkRdge4WE/deiKvc5qL+JLP2tJyvz8xPRZmTk+Fyenx8JO8O7sge1fr04B7q/gGHkrGh+9+ca/aAgAAAIBNIeAOAAAALGuJMHs8L7kybDYB95XGl3z91SDsDrBqT992ItY7peSzdH9L/bPkZ/Hk9FiYPl0LkzNj8+fJI71HwH3BeLO2EHYHAAAAYCMJuAMAAACpgeJgKcx3KD2QPRZcGTqBgPtK4yu+/mpyjMTuq589JOwO9Lenb5vKFvDVK2GJ3WhaP0sbHdkb4fX8fEKQva8IuC87ntYWycjw3S+qLQAAAABoLwF3AAAA6EMDxcE8yF4Kwux0AQH3lcbX9PpjCG04OUY+e+j6qncX0MueuX3qvJon+SwsLP4sjsH12IX9J5PV9DH+/JNjPiIRcF9lDVJNxmNn94P3jKgtAAAAALh4Au4AAADQ41rC7Puzx4qrQrcRcF9pfN2vX9gd6AnP3pF3ZU8D7HlX9vNqnhhenz4Vw+tvh5lTWahdkJ0LEHBfcw3SrC2E3QEAAABYLwF3AAAA6CEDxcFKWBhmL7sq9AIB95XG2/L630zG00DavS8JpAGd69k7pkotdU5e85RaP+vOnpsLE9NjYaKWHNNHm93ZYa0E3C+qBhF2BwAAAGBdBNwBAACgCw0UB/MupZXk2BeE2elxAu4rjbf99cdA2sHkmZF7X7qh5h0IbJXnBmtJrVMvhZadaFo/y9Ige20sjE+PhZlTU2mofTz5OT4P7SDg3rYaxK4xAAAAAKyagDsAAAB0uEVh9vO6lEI/EHBfaXxDX/9IchwKaWd3YXdgY3z9M7VmvZN8Fu3Pap1y/lkUA+sxuB7D7NOC7GwiAfcNqUFGw3zYXW0BAAAAwHkE3AEAAKCDDBQHS2G+G/uB0Ah3lVwZ+p2A+0rjm/b6m2H3+14WdgfW5+ufqeW1Timrd+J5IR8/PFEN06enwsypWnhnsnE+fcpHDltDwH3Da5C0tog1xr0vCbsDAAAA0CDgDgAAAFtkoDiYB7vyMPuCcBcwT8B9pfEtef3C7sCKnr+zVslqnLwreyX/LEnD66emwvTpWnhnQpCdziTgvqk1SMuuMcLuAAAAAP1MwB0AAAA2QRZmz8Nd8bHiqsDqCbivNL6lrz8G0EaSsUP3v3LDiHcr9KcX7pouZTVOuV6v5/VOfC6M18bSIPtE8ng4D7ULstMlBNy3rAZJw+73vnTDkHchAAAAQP8RcAcAAIA2GygOVsKiTqWuClwcAfeVxrf+9Wdjadg9OYTdoYe9cNd0Jatx8iB7ugvNeO1oGlwfnzraDLXHR+hmAu5bXoM0F9Ld97LaAgAAAKBfCLgDAADAOg0UBwthPtTVGvAC2kzAfaXxjgm4txJ2hy734t3Tea1TSY59ea1TO1kLMcwew+sxzJ6G2pOfoRcJuHdUDdKsLYTdAQAAAHqbgDsAAACsQkuYvRLmw+wlVwY2h4D7SuMdGXBvVavX6zGIdvCBV2980zsaOs/IPdN5bVNO/j4fiI/Tp2qF2qmp8M5ENcTHGGQ/PPG2i0VfEXDv2BpE2B0AAACghwm4AwAAwCIDxcFSmO/GHgNepSDMDltKwH2l8Y4PuCfjzV+ohkYgbVjYHbbGyD0zlUadU4+L9krTp2qVGGA/PFEN0yenQk2QHZoE3Du/BgnpQrowFGuL+1+5QW0BAAAA0AME3AEAAOhrS4TZ42PBlYHOIuC+0nhXBdxbVYOwO2yYQ5+daa1z9p95/0x5ojZWGjtxNA2xj08dFWSHFQi4d34Nsmi8WVsIuwMAAAB0LwF3AAAA+sZAcbAZ8MoeK64KdAcB95XGuzbg3vr/r4YskPbga8LusFYv3Zt2ZS/FOufU3Kny+NRYeWJ6vDB9shbGakfTMPvc+3MuFKyRgHvn1yAXGG/WFsLuAAAAAN1FwB0AAICeNFAcrIRGiH1fEGaHrifgvtJ4TwTcW8UQ2nByjDz42o1VfwNg3sv3zcSdZsrJ35lY2+z70bt/U66dnCrnHdnHBNmhrQTcO78GWWUdEuuJGHY/+MCragsAAACATifgDgAAQNdrCbPnndnLrgr0FgH3lcZ7LuDeKg27J+MjD70ukEZ/efm+2VjTlGJt8/8d/usDZ94/Uz55ZrZQHX871E7WQu3UlIsEG0zAvfNrkHXUIc2FdMLuAAAAAJ1JwB0AAICuMlAcjEGvXw3zYfaSqwK9T8B9pfGeDri3jjcDacLu9JpX7p+txNrm3/39X+2fPT0b65tKdfytEDuz104KssNWEXDv/BrkIuuQ5kI6u8YAAAAAdA4BdwAAALrKQHHwjeSh4kpAfxFwX2m8bwLurWIg7WAyMvLQ6/tq/pbQLV59IA2vl//DP/z78umzp/dPn6qVp09Nl8amjgqyQwcScO/8GqSNdUhzIZ2wOwAAAMDWEnAHAACgqwi4Q38ScF9pvC8D7q3/jiPJ+KH4+PA3hN3pHK8+MFsZ/Y/fK82dm9s/c2q6fOb9MzHUXhg7cdTFgS4h4N75NcgG1SGjYT7srrYAAAAA2GQC7gAAAHQVAXfoTwLuK433fcC9dXwkOYTd2VSvPXiy8MZ//G65dnKqMj41vu/9D94vX/pzl5YF2aH7Cbh3fg2yCXVIcyHdQ68LuwMAAABsBgF3AAAAuoqAO/QnAfeVxgXclxkXdqftbv5vvlI+MXuidOT4e+VrC9ce+OnPflo6PnO85MpAbxJw7/waZJPrkGZtIewOAAAAsHEE3AEAAOgqAu7QnwTcVxoXcF/h/19LxtNA2ue+uW/E3yjWWYPcnDw84UpAfxFw7/waZAvrkKSmqB966PV9Q/6mAAAAALTXpS4BAAAAANDjCslxczy+9M8Px26rwu6sR8klAKDFr8bjX/3K4T/IF9I9/A21BQAAAEA7CLgDAAAAAP1E2B0A2JDa4vf/+/naQtgdAAAAYP0E3AEAAACAftUMpD3+y81A2sFHvrXvTZcGALiY2iIPu9frFtIBAAAArJWAOwAAAECfK350X9h+RSE5doZiYV/4SHL+5P/2v7gw9JvWsHs1hHoMog0/8q2SsDsAcFG1RbZrzFCsLT73TQvpAAAAAFYi4A4AAADQJ3Zt350G2a9OHnd9ZP58sXrdtaLvlZLjzng8/svVamh0Xx3+/LeF3QGAdSnktcWX/vnhtLYIwu4AAAAAyxJwBwAAAOgxeTf2vVln9jTQ3hJkF2CHNSmFLJD2xf+uEXZPDmF3AOCia4sYdk9q82zXGGF3AAAAgJyAOwAAAECXuvzSbWHXjt2heFUpbN+2M+y4Ymdyvk+AHTZOKcyH3WMIbTg5Rj7/7VLVpQEALqa2ePyXm53dDz7yrX1qCwAAAKCvCbgDAAAAdLjLL9uWdmDftWNPGmTftX1PuHrH7jTgvpBkO2yicnb8QQy71+uNsPsXviPsDrAexY/uS3edOT47Ho5MHXZB6EelkIbd63c+/svzC+ke+ZbaAgAAAOg/Au4AAAAAHWTvVfvC9isKYUdyxG7ssSt7/LmVDu3QcZph98f+2XwgTdgd4HwxyB5rm+1x55l4vq1xntc4/+6tHwi4w6KFdMGuMQAAAECfEXAHAAAA2AKxG3sMr8fH2J39mh27m0F2AXboaovD7gdDI+xec2mAvqp1tjdqm/gYO7PHHWg+sm2nCwMXUVsIuwMAAAD9QsAdAAAAYAPFTuy7dsQA+55mqP3q7XuyUUl26HExjPZEPB79pbdHksdDyTHy6HdvEnYHekZj55md6c4zV39kPtS+FIv4oC21RR52Hw3zYXe1BQAAANBTBNwBAAAA2iAG2XdcWQh7r94Xtm/Lzq/at+TvCndBX/rV7BB2B7rS5ZdtS4PrxatKSa2zM619is1ap67Ggc1XiUfy9+6Jx/5ZtVlb2DUGAAAA6AUC7gAAAABrEMNdjW7su9NgV34en88JdwErOC/snnxujDz2PWF3oDNqnRhkjzvPbL9iZ3Ke1TqXblPjQBfUFsLuAAAAQC8QcAcAAABYxvVXl9JO7Duu2Bn2JufXZEF24S6gjfJA2h984RcbYffHvnfTiMsCbIa420xcsLc923kmBts/fOk2FwZ6o7ZIw+71ev3Qo9+9achlAQAAALqJgDsAAADQ92IX9mt27knD7NdfvS9sv6KQhr3mSbQDGy5+6Nwcjy/84tux26qwO9A2sRt7XLAXH/deVUrPY3f2xSzig56Tht0f/aW3/yCvLR79rtoCAAAA6HwC7gAAAEDfSEPsVxTSx9iNPQbaY7h9MeEuYIudF3ZPPpcOffENgTTgwmKdsyupcWJ90xpqP7/GUexAv9YWj/7S/EI6YXcAAACgUwm4AwAAAD0nBtfjccPVpeRxZ9aZvdQcF2AHukgzkPb5X2gG0g5+8Y2b3nRpoI9rnSsatc7eq/c1zq9onKtxgLXUFjHsnnxu2DUGAAAA6DgC7gAAAEBP+Z/+25vTgBdAD2oNu1dDGnavD3/xjY8Ju0OPuvyybWk39rjzzPZs55m9V6lzgPbXFtmuMUPJMfzY9yykAwAAALaWgDsAAAAAQPcpJced8fj8L7xVzbqvDj8+KuwO3er6dOeZQti1Y3cWat+TBtxDWNiWXZd2YIMU8triC7+YL6QTdgcAAAC2hoA7AAAAAEB3K4UskPZI5a1qCMLu0MnS8PrOPWmY/fqr94UdVxTS85wAO9BJtcX8rjFh+ItvCLsDAAAAm0PAHQAAAACgd5TCfNg9htCGk2Pk8dGPVV0a2FxpiP2KQrh2Zwy0707P43MC7EC31hYtYfeDX3zjJrUFAAAAsGEE3AEAAIC2u+GaUvr4k8mqiwGwdcrZ8QefOzAfdv/S94XdYUPqn12l8F/cUA7X7NidBtkBelD8D70s7N6oLep1C+kAAACA9hNwBwAAANbt2sKesPPKQvJ4XbhxVyns+EeF9OfonclqeHryCRcJoDMIu8MGuz6phf7LG8uhrkU70Ge1hV1jAAAAgHYTcAcAAABWtDMLrt94zU1pqH1HDLXrTArQrRaE3ev1cDA5H/n9H3ys5tIAABdTWwi7AwAAAO0g4A4AAAA0bbtsW6Mb+zV5N/aPpucNC7uRak4K0BNiGC1ut/HEw//0rZHk8VAQdgcALq62yMPuo8l/N+a7xqgtAAAAgFUTcAcAAIA+lAfZdxf2pN3Z8/PLk+dzAuwAfedXG0f9iYf/6Y9bwu7/mUAaALAelf+fvTvIaSIMAzA8G7QBw0wTaYcNFPEWCl7FI7jU4hZwRzwBsHIpXgEwcekB1JC49BC130xnhhAiMQi20+dJJm0Dq3/1Ld75/slz+PZF8yKd2B0AAAC4icAdAAAAWm6tt5Gki1mSLWX194jaBewA/MEkdk8Oh1tN7L53JnZnCmeduHmmmG+6ydrjQbKS5snHLx+Sn78uHA7AFM4WYncAAADgJgJ3AAAAaIl+tlqE6/1uuY09Qq/4BIBbqoK0gyp23zvbPHEs3Lde3DyzWN48EyH78njuid9XeYkPYGZmi8Od7TJ23z19cuRYAAAAgIrAHQAAAGZMROxZbCidbGPvd/Mibr9qpO4C4N+KkvhlPMOt77FtVezOnc06vbR8Ya+J2vNLM44zAmiRInbf2f5xUM4Wo0+7p2YLAAAAmHcCdwAAAJhSnQedIlyvAvaIvdZ7G/XfxV0A/Ed17P7meRO7758L0viLWWehU25j7w2KiD2NF/hWBtfMOIYegHmaLXa2m9lC7A4AAADzSeAOAAAAUyDC9WwptrE3QfvDhY6DAWAWXBe7v98/3/zqaAhFyN4tN7KX29jL72YdAG6aLdwaAwAAAPNJ4A4AAAD3KAL2fPxEzL5WRO3dJF1Kr/1fG9oBmEGXY/eL8efJaDQ6fvf5qdh9TsRLe8uLWT3rlJvZMzMOALeeLSax+9H4Od478yIdAAAAtJnAHQAAAO5AROwRc+XFRvbVejv7ZU3cpfICoJUG4+dVPK+ffbtIyu2rYveWiNtm0ur2mSyvf5czjtkGgDuRVbPFcKt6kS45dmsMAAAAtI/AHQAAAG4hNrBnj7JkvV9uY4+QPb4HbRcA1AaJ2H0mRbQeM05sZi+D9jzppasOBoCpmS2qW2NithC7AwAAQDv8FoC9u/uxstoPOP7QCGzQYWZAmAF1Zo9w2zg0Xp2kgTS9aHvTm971ohe9J71o4/H9FZW0ySn+A92T/gOcpMd3ZUTFtDFxegxRj6dn9lBABl8YocIACn3Wmr03A4iOMi+/vffnk6zszTNidMXoMvk+vyVwBwAAgFtw3/adxa4//jMbAQALVy2uxu4TafJq+f3AvsM76rZm5VTWVPIU9hSwN6exp6j9+3iJD4CoZ4t5sfv+597Z7mwBAAAAbUrgDgAAAADAShltrF898IvfT+w7vGOnLVl6KVwf6N+ab55pBu0pcG8SsAPQxqrF1dh94sqVK/lFuuff9SIdAAAAtBOBOwAAAAAAEYzagsWVIvbBRsg+PDBS9N7en79fDdiV7AB0/Nkiv0iXbo0pP8XuAAAA0CYE7gAAAAAA0MZSxN57e18xuHFr63uayg4AtIjdAQAAoI0I3AEAAAAAoA393Z//fZ7M/n2uGM4OADfTit0f+MXvx4tG7L7v8I4ZWwMAAAAx/JEtAAAAAACA9nOzuB0AWLDd5fq3cv2DrQAAAIA4BO4AAAAAAAAAAAAAAIQgcAcAAAAAAAAAAAAAIASBOwAAAAAAAAAAAAAAIQjcAQAAAAAAAAAAAAAIQeAOAAAAAAAAAAAAAEAIAncAAAAAAAAAAAAAAEIQuAMAAAAAAAAAAAAAEILAHQAAAAAAAAAAAACAEATuAAAAAAAAAAAAAACEIHAHAAAAAAAAAAAAACAEgTsAAAAAAAAAAAAAACEI3AEAAAAAAAAAAAAACEHgDgAAAAAAAAAAAABACAJ3AAAAAAAAAAAAAABCELgDAAAAAAAAAAAAABCCwB0AAAAAAAAAAAAAgBAE7gAAAAAAAAAAAAAAhCBwBwAAAAAAAAAAAAAgBIE7AAAAAAAAAAAAAAAhCNwBAAAAAAAAAAAAAAhB4A4AAAAAAAAAAAAAQAgCdwAAAAAAAAAAAAAAQhC4AwAAAAAAAAAAAAAQgsAdAAAAAAAAAAAAAIAQBO4AAAAAAAAAAAAAAIQgcAcAAAAAAAAAAAAAIASBOwAAAAAAAAAAAAAAIQjcAQAAAAAAAAAAAAAIQeAOAAAAAAAAAAAAAEAIAncAAAAAAAAAAAAAAEIQuAMAAAAAAAAAAAAAEILAHQAAAAAAAAAAAACAEATuAAAAAAAAAAAAAACEIHAHAAAAAAAAAAAAACAEgTsAAAAAAAAAAAAAACEI3AEAAAAAAAAAAAAACEHgDgAAAAAAAAAAAABACAJ3AAAAAAAAAAAAAABCELgDAAAAAAAAAAAAABCCwB0AAAAAAAAAAAAAgBAE7gAAAAAAAAAAAAAAhCBwBwAAAAAAAAAAAAAgBIE7AAAAAAAAAAAAAAAhCNwBAAAAAAAAAAAAAAhB4A4AAAAAAAAAAAAAQAgCdwAAAAAAAAAAAAAAQhC4AwAAAAAAAAAAAAAQgsAdAAAAAAAAAAAAAIAQBO4AAAAAAAAAAAAAAIQgcAcAAAAAAAAAAAAAIASBOwAAAAAAAAAAAAAAIQjcAQAAAAAAAAAAAAAIQeAOAAAAAAAAAAAAAEAIAncAAAAAAAAAAAAAAEIQuAMAAAAAAAAAAAAAEILAHQAAAAAAAAAAAACAEATuAAAAAAAAAAAAAACEIHAHAAAAAAAAAAAAACAEgTsAAAAAAAAAAAAAACEI3AEAAAAAAAAAAAAACEHgDgAAAAAAAAAAAABACAJ3AAAAAAAAAAAAAABCELgDAAAAAAAAAAAAABCCwB0AAAAAAAAAAAAAgBAE7gAAAAAAAAAAAAAAhCBwBwAAAAAAAAAAAAAgBIE7AAAAAAAAAAAAAAAhCNwBAAAAAAAAAAAAAAhB4A4AAAAAAAAAAAAAQAgCdwAAAAAAAAAAAAAAQhC4AwAAAAAAAAAAAAAQgsAdAAAAAAAAAAAAAIAQBO4AAAAAAAAAAAAAAIQgcAcAAAAAAAAAAAAAIASBOwAAAAAAAAAAAAAAIQjcAQAAAAAAAAAAAAAIQeAOAAAAAAAAAAAAAEAIAncAAAAAAAAAAAAAAEIQuAMAAAAAAAAAAAAAEILAHQAAAAAAAAAAAACAEATuAAAAAAAAAAAAAACEIHAHAAAAAAAAAAAAACAEgTsAAAAAAAAAAAAAACEI3AEAAAAAAAAAAAAACEHgDgAAAAAAAAAAAABACAJ3AAAAAAAAAAAAAABCELgDAAAAAAAAAAAAABCCwB0AAAAAAAAAAAAAgBAE7gAAAAAAAAAAAAAAhCBwBwAAAAAAAAAAAAAgBIE7AAAAAAAAAAAAAAAhCNwBAAAAAAAAAAAAAAhB4A4AAAAAAAAAAAAAQAgCdwAAAAAAAAAAAAAAQhC4AwAAAAAAAAAAAAAQgsAdAAAAAAAAAAAAAIAQBO4AAAAAAAAAAAAAAIQgcAcAAAAAAAAAAAAAIASBOwAAAAAAAAAAAAAAIQjcAQAAAAAAAAAAAAAIQeAOAAAAAAAAAAAAAEAIAncAAAAAAAAAAAAAAEIQuAMAAAAAAAAAAAAAEILAHQAAAAAAAAAAAACAEATuAAAAAAAAAAAAAACEIHAHAAAAAAAAAAAAACAEgTsAAAAAAAAAAAAAACEI3AEAAAAAAAAAAAAACEHgDgAAAAAAAAAAAABACAJ3AAAAAAAAAAAAAABCELgDAAAAAAAAAAAAABCCwB0AAAAAAAAAAAAAgBAE7gAAAAAAAAAAAAAAhCBwBwAAAAAAAAAAAAAgBIE7AAAAAAAAAAAAAAAhCNwBAAAAAAAAAAAAAAhB4A4AAAAAAAAAAAAAQAgCdwAAAAAAAAAAAAAAQhC4AwAAAAAAAAAAAAAQgsAdAAAAAAAAAAAAAIAQBO4AAAAAAAAAAAAAAIQgcAcAAAAAAAAAAAAAIASBOwAAAAAAAAAAAAAAIQjcAQAAAAAAAAAAAAAIQeAOAAAAAAAAAAAAAEAIAncAAAAAAAAAAAAAAEIQuAMAAAAAAAAAAAAAEILAHQAAAAAAAAAAAACAEATuAAAAAAAAAAAAAACEIHAHAAAAAAAAAAAAACAEgTsAAAAAAAAAAAAAACEI3AEAAAAAAAAAAAAACEHgDgAAAAAAAAAAAABACAJ3AAAAAAAAAAAAAABCELgDAAAAAAAAAAAAABCCwB0AAAAAAAAAAAAAgBAE7gAAAAAAAAAAAAAAhCBwBwAAAAAAAAAAAAAgBIE7AAAAAAAAAAAAAAAhCNwBAAAAAAAAAAAAAAhB4A4AAAAAAAAAAAAAQAgCdwAAAAAAAAAAAAAAQhC4AwAAAAAAAAAAAAAQgsAdAAAAAAAAAAAAAIAQBO4AAAAAAAAAAAAAAIQgcAcAAAAAAAAAAAAAIASBOwAAAAAAAAAAAAAAIQjcAQAAAAAAAAAAAAAIQeAOAAAAAAAAAAAAAEAIAncAAAAAAAAAAAAAAEIQuAMAAAAAAAAAAAAAEILAHQAAAAAAAAAAAACAEATuAAAAAAAAAAAAAACEIHAHAAAAAAAAAAAAACAEgTsAAAAAAAAAAAAAACEI3AEAAAAAAAAAAAAACEHgDgAAAAAAAAAAAABACAJ3AAAAAAAAAAAAAABCELgDAAAAAAAAAAAAABCCwB0AAAAAAAAAAAAAgBAE7gAAAAAAAAAAAAAAhCBwBwAAAAAAAAAAAAAgBIE7AAAAAAAAAAAAAAAhCNwBAAAAAAAAAAAAAAhB4A4AAAAAAAAAAAAAQAgCdwAAAAAAAAAAAAAAQhC4AwAAAAAAAAAAAAAQgsAdAAAAAAAAAAAAAIAQBO4AAAAAAAAAAAAAAIQgcAcAAAAAAAAAAAAAIASBOwAAAAAAAAAAAAAAIQjcAQAAAAAAAAAAAAAIQeAOAAAAAAAAAAAAAEAIAncAAAAAAAAAAAAAAEIQuAMAAAAAAAAAAAAAEILAHQAAAAAAAAAAAACAEATuAAAAAAAAAAAAAACEIHAHAAAAAAAAAAAAACAEgTsAAAAAAAAAAAAAACEI3AEAAAAAAAAAAAAACEHgDgAAAAAAAAAAAABACAJ3AAAAAAAAAAAAAABCELgDAAAAAAAAAAAAABCCwB0AAAAAAAAAAAAAgBAE7gAAAAAAAAAAAAAAhCBwBwAAAAAAAAAAAAAgBIE7AAAAAAAAAAAAAAAhCNwBAAAAAAAAAAAAAAhB4A4AAAAAAAAAAAAAQAgCdwAAAAAAAAAAAAAAQhC4AwAAAAAAAAAAAAAQgsAdAAAAAAAAAAAAAIAQBO4AAAAAAAAAAAAAAIQgcAcAAAAAAAAAAAAAIASBOwAAAAAAAAAAAAAAIQjcAQAAAAAAAAAAAAAIQeAOAAAAAAAAAAAAAEAIAncAAAAAAAAAAAAAAEIQuAMAAAAAAAAAAAAAEILAHQAAAAAAAAAAAACAEATuAAAAAAAAAAAAAACEIHAHAAAAAAAAAAAAACAEgTsAAAAAAAAAAAAAACEI3AEAAAAAAAAAAAAACEHgDgAAAAAAAAAAAABACAJ3AAAAAAAAAAAAAABCELgDAAAAAAAAAAAAABCCwB0AAAAAAAAAAAAAgBAE7gAAAAAAAAAAAAAAhCBwBwAAAAAAAAAAAAAgBIE7AAAAAAAAAAAAAAAhCNwBAAAAAAAAAAAAAAhB4A4AAAAAAAAAAAAAQAgCdwAAAAAAAAAAAAAAQhC4AwAAAAAAAAAAAAAQgsAdAAAAAAAAAAAAAIAQBO4AAAAAAAAAAAAAAIQgcAcAAAAAAAAAAAAAIASBOwAAAAAAAAAAAAAAIQjcAQAAAAAAAAAAAAAIQeAOAAAAAAAAAAAAAEAIAncAAAAAAAAAAAAAAEIQuAMAAAAAAAAAAAAAEILAHQAAAAAAAAAAAACAEATuAAAAAAAAAAAAAACEIHAHAAAAAAAAAAAAACAEgTsAAAAAAAAAAAAAACEI3AEAAAAAAAAAAAAACEHgDgAAAAAAAAAAAABACAJ3AAAAAAAAAAAAAABCELgDAAAAAAAAAAAAABCCwB0AAAAAAAAAAAAAgBAE7gAAAAAAAAAAAAAAhCBwBwAAAAAAAAAAAAAgBIE7AAAAAAAAAAAAAAAhCNwBAAAAAAAAAAAAAAhB4A4AAAAAAAAAAAAAQAgCdwAAAAAAAAAAAAAAQhC4AwAAAAAAAAAAAAAQgsAdAAAAAAAAAAAAAIAQBO4AAAAAAAAAAAAAAIQgcAcAAAAAAAAAAAAAIASBOwAAAAAAAAAAAAAAIQjcAQAAAAAAAAAAAAAIQeAOAAAAAAAAAAAAAEAIAncAAAAAAAAAAAAAAEIQuAMAAAAAAAAAAAAAEILAHQAAAAAAAAAAAACAEATuAAAAAAAAAAAAAACEIHAHAAAAAAAAAAAAACAEgTsAAAAAAAAAAAAAACEI3AEAAAAAiGDCFgAAAAAAAAJ3AAAAAABWyky5auXaue/wjp22AwAAAAAAuM0WAAAAAACwzNK09v3lOrDv8I4Z2wEAAAAAADQJ3AEAAAAAWC61cu1//t0dE7YCAAAAAAD4PgJ3AAAAAACWUr2Ym9Zee/5d09oBAAAAAIAfJnAHAAAAAGAp1Mo19vy7O8ZtBQAQVDqnjO07vKNmKwAAACAOgTsAAAAAAIulXjSmtT/3znbT2gGAiNIZpZbOLPsO76jbDgAAAIhH4A4AAAC3YGp6svjP1YeLwf6txfDAiA0BoFvVyjX23Dvbx20FABBUOqek22VqtgIAAABiE7gDAADALahPT+bV1Azd0+dA32AxUH4CQKf+Z7BcY6tWFf/67NumtQMAIbWmtT//rmntAAAA0C4E7gAAALCITp7+LK/5UvBe3TKSY/e0+m7vs1EAtLMD5Rp79u3tB2wFABDUeGFaOwAAALQtgTsAAAAssanpybyaKmsqOXQf3jKSV5r0np4BQGD1co2Vq/bs29vrtgMACKg1rf25d5xXAAAAoJ0J3AEAAGCZzV6cvSF6T1Pdm9H7QP9g/gSAAExrD2zmmxk3wwBAY1r7c+9sr9kKAAAA6AwCdwAAAAggBWppfXLso9azFLyn6e7N6H2gb6uNAmA51IvGtPa9h0w/jeyFA/9S9N3en88Jgxu3FtV8ZtjqZhgAuuJ/owvT2gEAAKBjCdwBAAAgqOnTn+X128kPWs+asfvQ5pEcvPea2grA4hkv19jeQ6aftpOZb07nlV6Se6vxbDC9JJfXYP7uZhgAOshEufaX68Czb2+fsR0AAADQmQTuAAAA0EamTk3m9V+fvJd/XVldyQHbUArf+wbzZ3oGAAvUmn6699C9ddvRGU6e/iyv+YYHRorBvqvhu5thAGiz88qBdF559u3tE7YDAAAAOp/AHQAAANrY7KXZVvTelKa6p2itGbwPba7aKACuN16usWfeurdmK7rD1PRkXk2VNZV8XkjhezozpEnvboYBIBjT2gEAAKBLCdwBAACgw3z9zUxevzv+UVEcOZifpXBty7zoPX0C0HVa09qfecu09m43e/HGl+RS9D6czwnpdphqnvbuZhgAVuC8kqe17z1kWjsAAAB0K4E7AAAAdIHpmZN5fTjv2dDmkUb4Ppi/m9oK0LHGC9PaWYAUvX9y7KO8mtL5IEfv/XMvyqXvALAEWtPa9x4yrR0AAAC6ncAdAAAAutTRzyfzakoTWrc0JrZu6Z2b+N67XvQO0KZa00+fHr/X9FN+tnQrzG8nPyiKtBpaE97T7TD9g/kTAG7lvLL3kPMKAAAAcJXAHQAAAMhmL83eEL2nqa1beucmtt6zuZo/166u2CyAuFrTT58ev9f0U5bE9Mxnec2XJrsPbWncDtM76GYYABZ0Xtl7yHkFAAAAuJHAHQAAALipNLU1rU9PfNR6tqURrqUJ7wO9c+E7ACvKtHZW3NSpybya8s0w/VuL4fKckML3dH6oeEkOwHmlPK8885bzCgAAAPDDBO4AAADAT3Jq5mRexdTVJmFoc7UVvc99DtoogKVnWjth5ZthTk3mVRw5mJ+lqe4D5VkhnxsanwB0z3nlmbecVwAAAICFEbgDAAAAt+zo5/W8mtaurhS96/tsDMDSqJVr/1MHR0w/pa00b4b53fGrN8MM9A22YvcUv3tJDqAjmNYOAAAA3BKBOwAAALDoLlyaLU59fdJGACyeejE3/bT21MER00/pGNMzJ/P6sP5B69nQ5pEcujcnvfeu77VRAO3B7TIAAADAohC4AwAAAADEVSvX2FMHR8ZtBd3i6OeTeb3/6Xv51+lmmIEcvM+F7/fcWc3PAAihNa396XHT2gEAAIDFIXAHAAAAAIilXjSmtT/5pmntkG6GOfp5Pa+m3vV9OXZPE96H7qwW92yu2iiA5WVaOwAAALBkBO4AAAAAADHUyjX25JumtcOP+frcTF6fnvi4eLfxLAfvvWltLS5cnLVJAIuvNa39qYOmtQMAAABLR+AOAAAAALBy6oVp7bAoTs2czGtuqDAAi6g1rf2pg84rAAAAwNITuAMAAAAALL80/XTsiTdGDtgKACCgedPaR7w5BAAAACwrgTsAAADQUY7870Qxe+l8sXZ1pbh7U9WGAJHUyzVWrtoTb4zUbQcAEFBrWrvbZQAAAICVInAHAAAAOsqRoxN5NW1Y35fXPZuq5Wdv/n7XxqqNApaTae0AQGStae1PvmlaOwAAALDyBO4AAABARztzbiavY1/Ur3meJrxv3jBYbO4dLDas682f6dfpOcAiSP/SydPaH3+9WrcdAEBAprUDAAAAIQncAQAAgK504dJscezLel7zNcP3PPl9XV9x16bhucnv5XeABRgv1/7HX6+a1g4ARNSa1v7EG6a1AwAAADEJ3AEAAADmaYbvxZc3/uzuTdUcu/es68sRfE+a/F5+Al0vhWK1Yi5sr9sO6E7vfTxeHDk6kV+Su6c8M6xdvdYNMUAkrWntT7xhWjsAAAAQm8AdAAAAYIFuFr63YvdGxLbmtkpx18ZhGwadb7xcY4+9Vq3ZCiA5c24mr2Nf1K95nm+IaZwTNjTODOl2mBTDAywh09oBAACAtiRwBwAAALhFn585mdcfpj+55nkK13rW9xV3bxzOU99TxCZ8h7bXmtb+2GumtQMLk2+I+aJ+Q/iezN0QM3dOyGeG9H2d8B24Jaa1AwAAAG1N4A4AAACwRM6cn8nreJr8Pk+a4npnz0BxZ2OKa/pMv07PgbDGC9PagSXwQzfEpOh984bGmWF9b34GcBOtae2Pv141rR0AAABoawJ3AAAAgGWWprge/2oqr/ma4Xue9l6ubRuHcwDfY4orrJRmKPakae3AcmveEPM/Jz++5nmK3NOZ4a5Nw/m8kFb6DnSt1rT2x1+vmtYOAAAAdASBOwAAAEAQzfC9KKZu+NldG4dz6J5WM4JPn8CSaIVij74qFANiSdF7cuy6G2JS6N6zvq+4uzwzrFldySG8G2KgY5nWDgAAAHQ0gTsAAABAG7hZ+N6K3TcM5O9rbqsU2/pNcYWfoRWKPfrqsFAMaDtnzs/kdfy68D3fELNhsNjcOjMMNm6I6bVp0H5aL+E99pqX8AAAAIDOJXAHAAAAaGNfnJ3Oa/LUJ9c8n5v23lvc1T/c+i58h+81b1r7sFAM6Dj5hpgv6zeE70m6IaY5+T3fFlPpzecGIJTWS3iPvWZaOwAAANAdBO4AAAAAHejs+Zm8Tnx17dT3tbdVik09A63J783vafI7dJFWKPbIK6a1A90r3RBz/PtuiNkwd07Y3DPY+p7OC8CyqqezyqpVRe3RV01rBwAAALqLwB0AAACgi1z4drY4cXoqr/ma4Xue9l7ptVF0qnoxN6299sgrprUD3MwXZ6bzmpy+9oaYFLmvXV0ptm2s5vNCmv6+baMbYmCR1co19uir1XFbAQAAAHQrgTsAAAAArfC9OD1lM+hEtXKNPfLK8LitAPj5vjg7nT+PX3dDTHpBbsO63mJb/3C+FSZNfU8vzq11QwwsVL1ovIRnWjsAAACAwB0AAAAA6Ez1ohGKPfyyae0AS+ns+Zm8rg/f8w0xGwby5PeeSt/cbTHlZ886t8VAQ23VKi/hAQAAAFxP4A4AAAAAdJJaucYeflkoBrDS8g0xX03ldb007T1Nfu9pTH5P4fsdFeE7XaFeNF7Ce+QVL+EBAAAAfB+BOwAAAADQ7uqFae0AbeXE6amiOH1j+L7mtorNoVPVymVaOwAAAMACCNwBAAAAgHZ1oFxjD700fMBWAHSGi9/O2gQ6Sb0wrR0AAADgJxO4AwAA0G6eLNdb5dpVrtFy9dkSgK5SL9dYuWoPvTRUtx0AQEC1dF55+GXT2gEAAAB+DoE7AAAAbeX9Ey+Mlx/jzV/fv21PitzTuq9cuxvfAeg8jWntQ6a1AwAR1YvGtPaHXzatHQAAAOBWCNwBAABoa++feGGi/JiY/+z+bXt2993Rv3vm/06n6D0F71U7BdCW6oVp7QBAbLXCtHYAAACARSVwBwAAoONcP+X9n/7y19WD//3G6Ib1vbvOnPt6tLKmsnv24qyNAogr/Tt8/4MvmtYOAIRULxrT2h96ybR2AAAAgMUmcAcAAKDj/fNLf10v5gKEVih5/7Y9oxt7Nu2+9O3F+86eP5umvI/aKYAVleKwWjEXttdtBwGlfy4nnBkAulo6q4w99NLQuK0AAAAAWDqrbAEAAAAUxX88cLbviX9/eLTvjv4Uve+6fPny6PmL5/vsDMTwJ9U/LXaW68qVm/0Rcz+4+c+Ln/nzK7f4+2/28yuL9NcX5+//x//cN/0Dxss19svfDNX8k047uH/bnnQ+SJH77nLdt27Nut3ODNC5tvYNF381+rcr8N9hZ5DF/fu/ciu/v17+vDGtfci0dgAAAIBlIHAHAACAm/jHv/h19cjUh7svXLpw37ffXdp9+crl0dmLszYGVoDA/cd+3naBe2ta+y9/Y1o77e/+bXuqxVz0ntauyprKbmcG6AwC9/hnkJ9xDlno709nlbEHXzStHQAAAGC5CdwBAADgJ/ibnb/afebcmdHVt63edebc16PnL5yv2hVYegL3H/t52wTu44Vp7XSJ+7ftycF7z7qeXd9d/m703IVzo3YF2o/APf4Z5CecQxby++vlytPaH3zRtHbg/9m7kxi5rsNcwBVLMvKQIKjsrMFAbbLJpk6AAEFWdbN5D9nnwcCT5XnSQGq2vUw2QXZ59CLPliy7Wx4kUaJEyhOQyQxiOQkiyx3bomyN1WQPNdeteegm+e4tEkoiU+om2UMN3wdcXZKHLfKeuiTP4j//AQAA4LAIuAMAAMB1eP7hdu7RH/xNGnQPW+fHhZtueH8U95omBvaYgPtO41MdcH+7rf0L3/1g0dvMIvvDW45G2d/+3Wj7/Fb+/IULyfqhnzMrMN0E3Kd/DbK78R0D7ulaRVs7AAAAwJQQcAcAAIA99lcf+nH4p5/9Y7jxhhsLrV4cLly8EIbjoYmB6yDgvtP4VAbcVzKXGlBPfuG7H9SAClfw0J+eyr269suwUV8Pv/Wbv5U2vUfWDDBdBNynfw2yu/Er/oTi5bXK0he/p60dAAAAYJoIuAMAAMA+O/VQO/v4PzwWkm9Gw9EgP94eR81uI2tmYPcE3Hcan5qAexoOO5m51Na+4s2Fq/fRP34kVOJKGG2N8tvnt6L+qB/MChweAffpX4Psbvy//YSl5Fr+4ve0tQMAAABMKwF3AAAAOASnHmrnnvnRk1Gn38o3Oo3w/htviuKe0kB4NwLuO40f+vOvJGPa2mGf/Nkf/HXU7rfDTTfeVGj3W2EwGuTMChwMAfepX4PscvxiMaOtHQAAAGBmCLgDAADAlDh2x0r04zP/HPqjXn60NYqSe244HpoYyAi47zx+KM//dlv757+jrR0O0vMPt7OP/uBvosFoMAm9dwadMBwPnA4D+0DAfSrXIFfz/19KruUvfPeDp73NAAAAALNDwB0AAACm1HMPtLLf//dTUaNTD8l3C61+HOJuU3iNhSTgvtP4gT5/Mbn+IrlOfv472tphWvzVh34czqz+IqzVzuVvuvGmqDfsBhvl4PoJuE/VGmS3X5+uVSZt7U6WAQAAAJhNAu4AAAAwQ557oBWefeGpsH1+q5AG37cvbIdWT2aD+SfgvtP4gTz/UjK+/PnvaECFWfHg/zoZrdfXQm/YnZwOk6wdcmYFro6A+1SsQXb79UsZbe0AAAAAc0HAHQAAAGbc/719JfpZ8adRZ9DJD0b9qNTc0PLO3BFw32l8356/mLncgPrw8xpQYdadeqidffwfHgvJXxlRf9QrbJ/fCk2nw8B7EnA/tDXIbr9+slZJxrW1AwAAAMwRAXcAAACYM8/e38r94MVTYTAeFGqtarjhfe+LynHJxDDTBNx3Gt/z519KruWHn7/ttLcP5tvJB1u5Ey88FXX6rXyj0wjvv/GmKHY6DLxNwD1zCM++q+efrFWcLAMAAAAwnwTcAQAAYAGcuC8Of/fT70drtbP59/3G+6LeqJtrCa8xQwTcdxrfk+cvJuOX29pv8xcELLBjH16Jfrl2JqTrhtHWKG17zw3HQxPDQhJwzxzCs7/r8xczl0+W+fx3tLUDAAAAzDMBdwAAAFhAz9wbZ3905oeh1Yujre1xIe41Q6m5kTUzTCsB953Gr+v5TybXsYdOaWsHruy5B1rZf/7FD0OyXohKzc3JZjnrBhaFgHvmEJ79136fS8m4tnYAAACABSLgDgAAAEw8c28c0tB7rVXJd4edaLw9DpW4ZGKYCgLuO41f9fMXk2s5uZYeOnVb0RsGXK1n72/lfvDiqTAcDwvVdiXc8Bs3ROV408QwdwTcM4fw7JMfSdcnl0+W0dYOAAAAsGgE3AEAAIB39fTROPr7le+HeqdaGG+NQm/UzbV68iUcPAH3ncZ3/fxpW/vyQ6duO+mtAvbas/e3wt++9L1orXY2v7U9DtsXtoN1A7NOwD1z0M++lK5VHn7eyTIAAAAAi0zAHQAAANi1p482cytvvhg26ufC+PxWYTDqRWerRRPDvhNw32n8PZ8//UM6aWt/8KS2duDgnLgvzibrhPCzt34adQftfNyLQ7J2yA23hiaHmSHgnjmIZy8m45fb2m+zKwYAAAAAAXcAAADg+hw/0gw/ef3folq7kk+usHV+HCpxycSwpwTcdxq/4vNP2tofPKmtHZgeJ+6Lcz9948Vw5uzPQ/LdQnJFZ6tvmRimloB7Zj+f3ckyAAAAAFyRgDsAAACwp44faWaTW3jhzOk09F4Ybg1C3G1kW31ljFw7Afedxt9+/vQP2lJyHdPWDsyKZ+6Nw4/O/DCUmhuF4XgQxts2yzE9BNwze/3s6fpkcrLMQ6esVQAAAAC4MgF3AAAAYN89dU8z96v1l6ON+rl8Z9AO/VEvOlcrmhh2TcB9p/GLp5P/LD/w3G1L3hZgHjx9NI5eOPPDaK1+Nj/eGoXeqJtr9WyW4+AJuGf26tm1tQMAAACwawLuAAAAwKF48u5m9NIb/xo6g1ah1q6G3rCTq7S0tXJlAu5XHH+7rf2B524tekuAefb00WZu5c0Xw0bjXBhvbxVavWZodhvZ0dbQ5LCvBNwz1/Ps6fpk0tbuZBkAAAAAroaAOwAAADAVnry7kU1u0Y9/eTrU2tXChQvnozTw3u5ra0XA/R3jpzOTtvZbl7wZwCI7fqQZXnglXTdU8ueTdcN4axjOVosmhj0l4J65lmeftLU/eFJbOwAAAADXRsAdAAAAmFpP3NUIr66/HOqdaqE9aIW0rfVcrWhiFpCA+6W29mRcWzvAezh+pBn9/cr3w2hrWOiP+k6I4boJuGd2++zp+kRbOwAAAAB7QsAdAAAAmClP3NWIXj67EqVtre1+K2r26tmq4NrcW+CA+0pyHUuuk/c/e6vjDACu0lP3NLPleCN6Y/PVtOm9MNwahLjbyLacEMMuCbjvNH5x0tb+wHPa2gEAAADYOwLuAAAAwEz79p2NXHILP3njXwqbjbVw4eL5KG1qbQuuzZUFC7inL28aEjt2/7O3rvj0AfbWk3c3w6/WXw6bjXP5zqAd+qPeZO0w2hqaHH6NgPsVx4uZy23tTpYBAAAAYD8IuAMAAABz51ufq0fFyuuh1FzPD8b9qNap5NZqRRMzwxYk4L6SjGtrBzgET97diF5649/Slvf81vmtqN6u5CpOiCEj4P6O8ctt7bdqawcAAABgXwm4AwAAAHPvW5+rZ5NbdObcSijFG4X+qBfibiNbbQuuzYo5Dri/3dZ+3wlt7QDT4om7GunaIfzLL09Hybqh0B/3041zWSfELB4B90tt7cm4tnYAAAAADoyAOwAAALCQvvnZeqh3qmG1+ka+3qlEw/EgrNWLmdHW0ORMoTkMuBeT//xFcp2874S2doBZ8MRdjVyydojeKr+e32yshQsXz0fnatYO826BA+6Ttvb7n9XWDgAAAMDBE3AHAAAAuOybn61Ha/ViVG5u5KvtUugOO7k09M7hm6OA+1JyW77vxC2nfaoAs+/bdzait8qvhVK8nu/0WyHuN8NazdphnixYwD19eZeTa+n+Z7W1AwAAAHB4BNwBAAAA3sU3PlPPJbfw2ubLhbX6atg+P46qrXKm2i6ZnAM24wH3YnIdS66le5+5RVs7wBz71ufq2XTtcObcSlRrV/Pj7VFUitez1Za1w6xakID7yWRcWzsAAAAAU0PAHQAAAOAqfOMztdDsNtKm93wpXgvD8SCsN1Yzo62hydlHMxpwX0qu5Xuf0dYOsMi+9blLG+ZeeuNfC3GvkZ4QE6Wb5dp9e55mwRwH3IuZy23t953Q1g4AAADAdBFwBwAAALgOj3+6NmlqXa+vRvVutVBrl0Kz18iu14smZw/NUMA9/eC1tQPwnr752XqIe43oXO2tfCleD61eM6Shdxvmps8cBtzTlvbl+05oawcAAABgegm4AwAAAOyx5U/Vcskten3zTL7c2ogG416otsuZWrtkcq7RDATc05DYsaNPa2sH4Np887P19ISYqNzcyFfbpbTpPbdmw9yhm5OAezEZv9zWfouXCgAAAICpJ+AOAAAAcACWP1WL4l4jlOK1QjneCN1hK7feWNXUuktTGnAvph9tci0dfVpYDIC99Y3P1HPJvzzhzNp/hE4/LrQHcVRtlTNVG+YO1IwH3Cdt7fc+c4u2dgAAAABmioA7AAAAwCFY+mTa8n4xrDdWQ6NbLcS9RpQ2vKehd37dlAXcJ2Gxo08LiwFwsB7/dC0kt/CLsy8VWv1GaHbrodYuZ9qD2OTskxkMuBczlzfg3fuMDXgAAAAAzCYBdwAAAIApsfTJ6iS09lb5tcJG82wYjHuh1ill0uDaopuCgHsxuZaTcW3tAEyVxz9di9J299c3X8l3Bq1k7VDJpZvmnBKzN2Yo4K6tHQAAAIC5IeAOAAAAMKW+/olqNrmFziCONprn8o1uJWp269mNxmpmtL1YobVDDLhPwmJHjguLATAblj9VS9cPUXpKzHq9WOiNOqHZa2STb5ucazDlAff0Q520tduABwAAAMA8EXAHAAAAmCFf/0Q1d/FiJirFa/lauxTifiOqd0qZ9cbqXD/3AQfc4+Q6llxLR47fXPTWATDrlj9Vm5wS89rmmXyltRENRr1QdUrMrkxpwH2yAe/o0zbgAQAAADCfBNwBAAAAZtzXPl6NklsoVl/NV1ubUXvQyqWh91pnfkJrBxRwP52MLx85fvOStwqAebf0yUvrh1+t/7xQbm2E7rCVq7bLmc4gNjn/xRQF3IsZbe0AAAAALAgBdwAAAIA589jHKtnkFnUGrVBpbxSq7c0Q9+rZjcZqZrQ9nMln2seAe5riW0quY/c8pa0dgMW19MlqNj0lpjOIQ7H6eqE7bIVyvJ5NN8yNtoYLOy9TEHCftLUfOa6tHQAAAIDFIeAOAAAAsAAe+1glJLdQbW8Wau1yaHQrIQ2sbTRXZ+L3vw8B99PJtXzPU9raAeDdfP0T1Vxyi0rxWv5c7c0w2hpGtU4ps95YXZg5OKSAezH53qSt/chxbe0AAAAALB4BdwAAAIAF9dWPVqLkFq3V38xXO6Vo0vLeXM10BvHU/V73KOAeJ+NLGW3tAHDNvvbxarp+CGfWXsr3Rt208T1Xa5cy6ca5eXTAAffLbe03a2sHAAAAYKEJuAMAAAAw8dWPVnIXL2ZCb9gulFvrodmrRmngPQ2sjbeHh/p7u86A+0pyHbv7SW3tALDXvvbxajb5Fzh0Bq2o3NooVNubId00l64fpnHT3NU6gIB7Mbkmbe024AEAAADAJQLuAAAAALyrRz9SDsktqrY38+XWWtQexLl6p5xJg+8H6RoC7mmiLm0/TYPtKz5JADg4j32skkvXD+V4LT0lJgzH/Wg9WTvU2+XM6JA3zV2tfQy4T9ra73lKWzsAAAAAvJOAOwAAAAC79sgd5Wxym4Te36y8UmgP4hD3atnN5mqmM2zt2697FQH3SVt7cp28+8mbY58YAEyHxz5WCcm/09Fq9bV8s1cL/VEn1A5h09zV2uOAezGjrR0AAAAAdiTgDgAAAMB1eeSOSct76I3a+Wq7FNU75bARr2bSpvfxHrW07hBwjzOZi5O29rue0NYOALPgqx+tvL1p7tXNn+d7o04U9+rZNPDeGUzPHrU9Crifzlw6VUZbOwAAAADsgoA7AAAAAHvuKx8uR8ktanQr+c14NbQHca7eLWc2r7Gl9V0C7m+3td/1xAe0tQPAjHv0I5VcJt00N2wXyq310OxVo1qnlNlont2zTXNX6zoC7unaZClzKdhe9OkCAAAAwO4JuAMAAACw777y4XIuuYWLFzPhrcorhd64EzU65cxmvJrpDFs7fv07Au5LybV81xMfOG1mAWC+PfqRSyfFVNubhXqnErqjdkg3zG1c46a5q3UNAfd0fbJ895M3L/n0AAAAAODaCLgDAAAAcCi+fHspDaxF/XE3X21vhHq3HDabZzNp0/s7W1p//9Y/LP7x7/3PtK196c5va2sHgEX2yB2XTopZa7yZj3v10BnEuY14NVPvlPf819plwH3S1p6Ma2sHAAAAgD0g4A4AAADAVPjy7aVs2vCefDOKe7VCqXUuvLLxk9ONbiWb/Ng/vbjxpT83SwDAOz1yx3+eFPNm5ZVCf9SJ0g1zadP7bk6KeS87BNxPZy6dKrPkUwAAAACAvSPgDgAAAAAAwFz5yofL6aa50B91C9XORqh10pNiVq94Usx7uULAfdLWnlzH7nriA0UzDQAAAAB7T8AdAAAAAACAuffl28tRcguNbrnQ6FVCrb2Zq3crmc149V2/5r8E3E9fvKitHQAAAAAOgoA7AAAAAAAAC+fLt5eyyS1KrrAZny3EvXqotNezjW550vSe+p3/8bvF//1Hd/7Jnd/W1g4AAAAAB0XAHQAAAAAAABL/7/+UQnJLr8xjp/+ymNyyL2586aSZAQAAAAAAAAAAAAAAAAAAAAAAAAAAAAAAAAAAAAAAAAAAAAAAAAAAAAAAAAAAAAAAAAAAAAAAAAAAAAAAAAAAAAAAAAAAAAAAAAAAAAAAAAAAAAAAAAAAAAAAAAAAAAAAAAAAAAAAAAAAAAAAAAAAAAAAAAAAAAAAAAAAAAAAAAAAAAAAAAAAAAAAAAAAAAAAAAAAAAAAAAAAAAAAAAAAAAAAAAAAAAAAAAAAAAAAAAAAAAAAAAAAAAAAAAAAAAAAAAAAAAAAAAAAAAAAAAAAAAAAAAAAAAAAAAAAAAAAAAAAAAAAAAAAAAAAAAAAAAAAAAAAAAAAAAAAAAAAAAAAAAAAAAAAAAAAAAAAAAAAAAAAAAAAAAAAAAAAAAAAAAAAAAAAAAAAAAAAAAAAAAAAAAAAAAAAAAAAAAAAAAAAAAAAAAAAAAAAAAAAAAAAAAAAAAAAAAAAAAAAAAAAAAAAAAAAAAAAAAAAAAAAAAAAAAAAAAAAAAAAAAAAAAAAAAAAAAAAAAAAAAAAAAAAAAAAAAAAAAAAAAAAAAAAAAAAAAAAAAAAAAAAAAAAAAAAAAAAAAAAAAAAAAAAAAAAAAAAAAAAAAAAAAAAAAAAAAAAAAAAAAAAAAAAAAAAAAAAAAAAAAAAAAAAAAAAAAAAAAAAAAAAAAAAAAAAAAAAAAAAAAAAAAAAAAAAAAAAAAAAAAAAAAAAAAAAAAAAAAAAAAAAAAAAAAAAAAAAAAAAAAAAAAAAAAAAAAAAAAAAAAAAAAAAAAAAAAAAAAAAAAAAAAAAAAAAAAAAAAAAAAAAAAAAAAAAAAAAAAAAAAAAAAAAAAAAAAAAAAAAAAAAAAAAAAAAAAAAAAAAAAAAAAAAAAAAAAAAAAAAAAAAAAAAAAAAAAAAAAAAAAAAAAAAAAAAAAAAAAAAAAAAAAAAAAAAAAAAAAAAAAAAAAAAAAAAAAAAAAAAAAAAAAAAAAAAAAAAAAAAAAAAAAAAAAAAAAAAAAAAAAAAAAAAAAAAAAAAAAAAAAAAAAAAAAAAAAAAAAAAAAAAAAAAAAAAAAAAAAAAAAAAAAAAAAAAAAAAAAAAAAAAAAAAAAAAAAAAAAAAAAAAAAAAAAAAAAAAAAAAAAAAAAAAAAAAAAAAAAAAAAAAAAAAAAAAAAAAAAAAAAAAAAAAAAAAAAAAAAAAAAAAAAAAAAAAAAAAAAAAAAAAAAAAAAAAAAAAAAAAAAAAAAAAAAAAAAAAAAAAAAAAAAAAAAAAAAAAAAAAAAAAAAAAAAAAAAAAAAAAAAAAAAAAAAAAAAAAAAAAAAAAAAAAAAAAAAAAAAAAAAAAAAAAAAAAAAAAAAAAAAAAAAAAAAAAAAAAAAAAAAAAAAAAAAAAAAAAAAAAAAAAAAAAAAAAAAAAAAAAAAAAAAAAAAAAAAAAAAAAAAAAAAAAAAAAAAAAAAAAAAAAAAAAAAAAAAAAAAAAAAAAAAAAAAAAAAAAAAAAAAAAAAAAAAAAAAAAAAAAAAAAAAAAAAAAAAAAAAAAAAAAAAAAAAAAAAAAAAAAAAAAAAAAAAAAAAAAAAAAAAAAAAAAAAAAAAAAAAAAAAAAAAAAAAAAAAAAAAAAAAAAAAAAAAAAAAAAAAAAAAAAAAAAAAAAAAAAAAAAAAAAAAAAAAAAAAAAAAAAAAAAAAAAAAAAAAAAAAAAAAAAAAAAAAAAAAAAAAAAAAAAAAAAAAAAAAAAAAAAAAAAAAAAAAAAAAAAAAAAAAAAAAAAAAAAAAAAAAAAAAAAAAAAAAAAAAAAAAAAAAAAAAAAAAAAAAAAAAAAAAAAAAAAAAAAAAAAAAAAAAAAAAAAAAAAAAAAAAAAAAAAAAAAAAAAAAAAAAAAAAAAAAAAAAAAAAAAAAAAAAAAAAAAAAAAAAAAAAAAAAAAAAAAAAAAAAAAAAAAAAAAAAAAAAAAAAAAAAAAAAAAAAAAAAAAAAAAAAAAAAAAAAAAAAAAAAAAAAAAAAAAAAAAAAAAAAAAAAAAAAAAAAAAAAAAAAAAAAAAAAAAAAAAAAAAAAAAAAAAAAAAAAAAAAAAAAAAAAAAAAAAAAAAAAAAAAAAAAAAAAAAAAAAAAAAAAAAAAAAAAAAAAAAAAAAAAAAAAAAAAAAAAAAAAAAAAAAAAAAAAAAAAAAAAAAAAAAAAAAAAAAAAAAAAAAAAAAAAAAAAAAAAAAAAAAAAAAAAAAAAAAAAAAAAAAAAAAAAAAAAAAAAAAAAAAAAAAAAAAAAAAAAAAAAAAAAAAAAAAAAAAAAAAAAAAAAAAAAAAAAAAAAAAAAAAAAAAAAAAAAAAAAAAAAAAAAAAAAAAAAAAAAAAAAAAAAAAAAAAAAAAAAAAAAAAAAAAAAAAAAAAAAAAAAAAAAAAAAAAAAAAAAAAAAAAAAAAAAAAAAAAAAAAAAAAAAAAAAAAAAAAAAAAAAAAAAAAAAAAAAAAAAAAAAAAAAAAAAAAAAAAAAAAAAAAAAAAAAAAAAAAAAAAAAAAAAAAAAAAAAAAAAAAAAAAAAAAAAAAAAAAAAAAAAAAAAAAAAAAAAAAAAAAAAAAAAAAAAAAAAAAAAAAAAAAAAAAAAAAAAAAAAAAAAAAAAAAAAAAAAAAAAAAAAAAAAAAAAAAAAAAAAAAAAAAAAAAAAAAAAAAAAAAAAAAAAAAAAAAAAAAAAAAAAAAAAAAAAAAAAAAAAAAAAAAAAAAAAAAAAAAAAAAAAAAAAAAAAAAAAAAAAAAAAAAAAAAAAAAAAAAAAAAAAAAAAAAAAAAAAAAAAAAAAAAAAAAAAAAAAAAAAAAAAAAAAAAAAAAAAAAAAAAAAAAAAAAAAAAAAAAAAAAAAAAAAAAAAAAAAAAAAAAAAAAAAAAAAAAAAAAAAAAAAAAAAAAAAAAAAAAAAAAAAAAAAAAAAAAAAAAAAAAAAAAAAAAAAAAAAAAAAAAAAAAAAAAAAAAAAAAAAAAAAAAAAAAAAAAAAAAAAAAAAAAAAAAAAAAAAAAAAAAAAAAAAAAAAAAAAAAAAAAAAAAAAAAAAAAAAAAAAAAAAAAAAAAAAAAAAAAAAAAAAAAAAAAAAAAAAAAAAAAAAAAAAAAAAAAAAAAAAAAAAAAAAAAAAAAAAAAAAAAAAAAAAAAAAAAAAAAAAAAAAAAAAAAAAAAAAAAAAAAAAAAAAAAAAAAAAAAAAAAAAAAAAAAAAAAAAAAAAAAAAAAAAAAAAAAAAAAAAAAAAAAAAAAAAAAAAAAAAAAAAAAAAAAAAAAAAAAAAAAAAAAAAAAAAAAAAAAAAAAAAAAAAAAAAAAAAAAAAAAAAAAAAAAAAAAAAAAAAAAAAAAAAAAAAAAAAAAAAAAAAAAAAAAAAAAAAAAAAAAAAAAAAAAAAAAAAAAAAAAAAAAAAAAAAAAAAAAAAAAAAAAAAAAAAAAAAAAAAAAAAAAAAAAAAAAAAAAAAAAAAAAAAAAAAAAAAAAAAAAAAAAAAAAAAAAAAAAAAAAAAAAAAAAAAAAAAAAAAAAAAAAAAAAAAAAAAAAAAAAAAAAAAAAAAAAAAAAAAAAAAAAAAAAAAAAAAAAAAAAAAAAAAAAAAAAAAAAAAAAAAAAAAAAAAAAAAAAAAAAAAAAAAAAAAAAAAAAAAAAAAAAAAAAAAAAAAAAAAAAAAAAAAAAAAAAAAAAAAAAAAAAAAAAAAAAAAAAAAAAAAAAAAAAAAAAAAAAAAAAAAAAAAAAAAAAAAAAAAAAAAAAAAAAAAAAAAAAAAAAAAAAAAAAAAAAAAAAAAAAAAAAAAAAAAAAAAAAAAAAAAAAAAD+P3twSAAAAAAg6P9rbxgAAAAAAAAAAAAAAAAAAAAAAAAAAAAAAAAAAAAAAAAAAAAAAAAAAAAAAAAAAAAAAAAAAAAAAAAAAAAAAAAAAAAAAAAAAAAAAAAAAAAAAAAAAAAAAAAAAAAAAAAAAAAAAAAAAAAAAAAAAAAAAAAAAAAAAAAAAAAAAAAAAAAAAAAAAAAAAAAAAAAAAAAAAAAAAAAAAAAAAAAAAAAAAAAAAAAAAAAAAAAAAAAAAAAAAAAAAAAAAAAAAAAAAAAAAAAAAAAAAAAAAAAAAAAAAAAAAAAAAAAAAAAAAAAAAAAAAAAAAAAAAAAAAAAAAAAAAAAAAAAAAAAAAAAAAAAAAAAAAAAAAAAAAAAAAAAAAAAAAAAAAAAAAAAAAAAAAAAAAAAAAAAAAAAAAAAAAAAAAAAAAAAAAAAAAAAAAAAAAAAAAAAAAAAAAAAAAAAAAAAAAAAAAAAAAAAAAAAAAAAAAAAAAAAAAAAAAAAAAAAAAAAAAAAAAAAAAAAAAAAAAAAAAAAAAAAAAAAAAAAAAAAAAAAAAAAAAAAAAAAAAAAAAAAAAAAAAAAAAAAAAAAAAAAAAAAAAAAAAAAAAAAAAAAAAAAAAAAAAAAAAAAAAAAAAAAAAAAAAAAAAAAAAAAAAAAAAAAAAAAAAAAAAAAAAAAAAAAAAAAAAAAAAAAAAAAAAAAAAAAAAAAAAAAAAAAAAAAAAAAAAAAAAAAAAAAAAAAAAAAAAAAAAAAAAAAAAAAAAAAAAAAAAAAAAAAAAAAAAAAAAAAAAAAAAAAAAAAAAAAAAAAAAAAAAAAAAAAAAAAAAAAAAAAAAAAAAAAAAAAAAAAAAAAAAAAAAAAAAAAAAAAAAAAAAAAAAAAAAAAAAAAAAAAAAAAAAAAAAAAAAAAAAAAAAAAAAAAAAAAAAAAAAAAAAAAAAAAAAAAAAAAAAAAAAAAAAAAAAAAAAAAAAAAAAAAAAAAAAAAAAAAAAAAAAAAAAAAAAAAAAAAAAAAAAAAAAAAAAAAAAAAAAAAAAAAAAAAAAAAAAAAAAAAAAAAAAAAAAAAAAAAAAAAAAAAAAAAAAAAAAAAAAAAAAAAAAAAAAAAAAAAAAAAAAAAAAAAAAAAAAAAAAAAAAAAAAAAAAAAAAAAAAAAAAAAAAAAAAAAAAAAAAAAAAAAAAAAAAAAAAAAAAAAAAAAAAAAAAAAAAAAAAAAAAAAAAAAAAAAAAAAAAAAAAAAAAAAAAAAAAAAAAAAAAAAAAAAAAAAAAAAAAAAAAAAAAAAAAAAAAAAAAAAAAAAAAAAAAAAAAAAAAAAAAAAAAAAAAAAAAAAAAAAAAAAAAAAAAAAAAAAAAAAAAAAAAAAAAAAAAAAAAAAAAAAAAAAAAAAAAAAAAAAAAAAAAAAAAAAAAAAAAAAAAAAAAAAAAAAAAAAAAAAAAOAqAdqDQwIAAAAAQf9fu8IGAAAAAAAAAAAAAAAAAAAAAAAAAAAAAAAAAAAAAAAAAAAAAAAAAAAAAAAAAAAAAAAAAAAAAAAAAAAAAAAAAAAAAAAAAAAAAAAAAAAAAAAAAAAAAAAAAAAAAAAAAAAAAAAAAAAAAAAAAAAAAAAAAAAAAAAAAAAAAAAAAAAAAAAAAAAAAAAAAAAAAAAAAAAAAAAAAAAAAAAAAAAAAAAAAAAAAAAAAAAAAAAAAAAAAAAAAAAAAAAAAAAAAAAAAAAAAAAAAAAAAAAAAAAAAAAAAAAAAAAAAAAAAAAAAAAAAAAAAAAAAAAAAAAAAAAAAAAAAAAAAAAAAAAAAAAAAAAAAAAAAAAAAAAAAAAAAAAAAAAAAAAAAAAAAAAA3AIjbpX41j5BUAAAAABJRU5ErkJggg==;fontStyle=1;labelPosition=right;align=left;" parent="38TpKfUnlk5KF1mlkOwW-6" vertex="1">
          <mxGeometry x="31" y="-58" width="31.33417481034236" height="22.121927416101705" as="geometry" />
        </mxCell>
        <mxCell id="TfanE9FAZFEMDZ-ole27-5" style="edgeStyle=orthogonalEdgeStyle;rounded=0;orthogonalLoop=1;jettySize=auto;html=1;fontSize=13;exitX=1;exitY=0.5;exitDx=0;exitDy=0;entryX=0;entryY=0.5;entryDx=0;entryDy=0;" parent="TfanE9FAZFEMDZ-ole27-1" source="TfanE9FAZFEMDZ-ole27-23" target="TfanE9FAZFEMDZ-ole27-4" edge="1">
          <mxGeometry relative="1" as="geometry">
            <mxPoint x="795" y="690" as="targetPoint" />
            <mxPoint x="450" y="659.4999999999998" as="sourcePoint" />
            <Array as="points">
              <mxPoint x="680" y="760" />
              <mxPoint x="680" y="702" />
            </Array>
          </mxGeometry>
        </mxCell>
        <mxCell id="TfanE9FAZFEMDZ-ole27-6" value="Deploys" style="edgeLabel;html=1;align=center;verticalAlign=middle;resizable=0;points=[];fontSize=13;" parent="TfanE9FAZFEMDZ-ole27-5" vertex="1" connectable="0">
          <mxGeometry x="0.0837" y="2" relative="1" as="geometry">
            <mxPoint x="-118" y="12" as="offset" />
          </mxGeometry>
        </mxCell>
        <mxCell id="38TpKfUnlk5KF1mlkOwW-22" style="edgeStyle=orthogonalEdgeStyle;rounded=0;orthogonalLoop=1;jettySize=auto;html=1;exitX=1;exitY=0.5;exitDx=0;exitDy=0;entryX=0;entryY=0.5;entryDx=0;entryDy=0;" parent="TfanE9FAZFEMDZ-ole27-1" source="TfanE9FAZFEMDZ-ole27-23" target="38TpKfUnlk5KF1mlkOwW-10" edge="1">
          <mxGeometry relative="1" as="geometry">
            <Array as="points">
              <mxPoint x="680" y="760" />
              <mxPoint x="680" y="865" />
              <mxPoint x="740" y="865" />
            </Array>
          </mxGeometry>
        </mxCell>
        <mxCell id="38TpKfUnlk5KF1mlkOwW-44" style="edgeStyle=orthogonalEdgeStyle;rounded=0;orthogonalLoop=1;jettySize=auto;html=1;exitX=1;exitY=0.5;exitDx=0;exitDy=0;entryX=0;entryY=0.5;entryDx=0;entryDy=0;" parent="TfanE9FAZFEMDZ-ole27-1" source="TfanE9FAZFEMDZ-ole27-23" target="38TpKfUnlk5KF1mlkOwW-40" edge="1">
          <mxGeometry relative="1" as="geometry">
            <Array as="points">
              <mxPoint x="680" y="760" />
              <mxPoint x="680" y="1024" />
            </Array>
          </mxGeometry>
        </mxCell>
        <mxCell id="jhBIs1zk1QNGGx9pqdNR-5" value="" style="group" parent="TfanE9FAZFEMDZ-ole27-1" vertex="1" connectable="0">
          <mxGeometry x="1030" y="1130" width="120" height="75.28" as="geometry" />
        </mxCell>
        <mxCell id="jhBIs1zk1QNGGx9pqdNR-2" value="" style="rounded=0;whiteSpace=wrap;html=1;fillStyle=auto;fillColor=#dae8fc;" parent="jhBIs1zk1QNGGx9pqdNR-5" vertex="1">
          <mxGeometry width="120" height="75.28" as="geometry" />
        </mxCell>
        <mxCell id="jhBIs1zk1QNGGx9pqdNR-4" value="Secret Store" style="sketch=0;outlineConnect=0;fontColor=#232F3E;gradientColor=none;fillColor=#7AA116;strokeColor=none;dashed=0;verticalLabelPosition=middle;verticalAlign=middle;align=left;html=1;fontSize=12;fontStyle=1;aspect=fixed;pointerEvents=1;shape=mxgraph.aws4.archive;labelPosition=right;" parent="jhBIs1zk1QNGGx9pqdNR-5" vertex="1">
          <mxGeometry x="10" y="21.010000000000147" width="26.85375" height="33.25" as="geometry" />
        </mxCell>
        <mxCell id="jhBIs1zk1QNGGx9pqdNR-6" style="edgeStyle=orthogonalEdgeStyle;rounded=0;orthogonalLoop=1;jettySize=auto;html=1;exitX=0.75;exitY=1;exitDx=0;exitDy=0;entryX=0.5;entryY=0;entryDx=0;entryDy=0;" parent="TfanE9FAZFEMDZ-ole27-1" source="38TpKfUnlk5KF1mlkOwW-33" target="jhBIs1zk1QNGGx9pqdNR-2" edge="1">
          <mxGeometry relative="1" as="geometry" />
        </mxCell>
        <mxCell id="jhBIs1zk1QNGGx9pqdNR-7" value="READS&lt;div&gt;FROM&lt;/div&gt;" style="edgeLabel;html=1;align=center;verticalAlign=middle;resizable=0;points=[];" parent="jhBIs1zk1QNGGx9pqdNR-6" vertex="1" connectable="0">
          <mxGeometry x="-0.0161" y="-1" relative="1" as="geometry">
            <mxPoint as="offset" />
          </mxGeometry>
        </mxCell>
        <mxCell id="ZLNHXjRsLPPUpu24X2eN-1" value="" style="rounded=1;whiteSpace=wrap;html=1;arcSize=3;fillColor=#f5f5f5;fontColor=#333333;strokeColor=#666666;fontSize=13;" vertex="1" parent="TfanE9FAZFEMDZ-ole27-1">
          <mxGeometry x="1260" y="585" width="421" height="400" as="geometry" />
        </mxCell>
        <mxCell id="ZLNHXjRsLPPUpu24X2eN-3" value="Resource group" style="image;aspect=fixed;html=1;points=[];align=left;fontSize=12;image=img/lib/azure2/general/Resource_Groups.svg;labelPosition=right;verticalLabelPosition=middle;verticalAlign=middle;fontStyle=1" vertex="1" parent="TfanE9FAZFEMDZ-ole27-1">
          <mxGeometry x="1279.33" y="595" width="42.5" height="40" as="geometry" />
        </mxCell>
        <mxCell id="ZLNHXjRsLPPUpu24X2eN-4" value="" style="group" vertex="1" connectable="0" parent="TfanE9FAZFEMDZ-ole27-1">
          <mxGeometry x="1303" y="675" width="335" height="230" as="geometry" />
        </mxCell>
        <mxCell id="ZLNHXjRsLPPUpu24X2eN-5" value="" style="group" vertex="1" connectable="0" parent="ZLNHXjRsLPPUpu24X2eN-4">
          <mxGeometry width="335" height="230" as="geometry" />
        </mxCell>
        <mxCell id="ZLNHXjRsLPPUpu24X2eN-6" value="" style="group" vertex="1" connectable="0" parent="ZLNHXjRsLPPUpu24X2eN-5">
          <mxGeometry width="335" height="230" as="geometry" />
        </mxCell>
        <mxCell id="ZLNHXjRsLPPUpu24X2eN-7" value="" style="rounded=0;whiteSpace=wrap;html=1;" vertex="1" parent="ZLNHXjRsLPPUpu24X2eN-6">
          <mxGeometry width="335" height="230" as="geometry" />
        </mxCell>
        <mxCell id="ZLNHXjRsLPPUpu24X2eN-8" value="Azure Data Lake Storage Gen 2&lt;div&gt;Storage account&lt;/div&gt;" style="image;aspect=fixed;html=1;points=[];align=left;fontSize=15;image=img/lib/azure2/storage/Storage_Accounts.svg;labelPosition=right;verticalLabelPosition=middle;verticalAlign=middle;fontStyle=1" vertex="1" parent="ZLNHXjRsLPPUpu24X2eN-6">
          <mxGeometry x="7.976190476190476" y="9.998292682926827" width="50.580720092915215" height="40.46457607433218" as="geometry" />
        </mxCell>
        <mxCell id="ZLNHXjRsLPPUpu24X2eN-9" value="" style="group" vertex="1" connectable="0" parent="ZLNHXjRsLPPUpu24X2eN-6">
          <mxGeometry x="87.73809523809524" y="87.75" width="119.64285714285715" height="54.5" as="geometry" />
        </mxCell>
        <mxCell id="ZLNHXjRsLPPUpu24X2eN-10" value="" style="rounded=0;whiteSpace=wrap;html=1;" vertex="1" parent="ZLNHXjRsLPPUpu24X2eN-9">
          <mxGeometry width="119.64285714285715" height="54.5" as="geometry" />
        </mxCell>
        <mxCell id="ZLNHXjRsLPPUpu24X2eN-11" value="" style="group" vertex="1" connectable="0" parent="ZLNHXjRsLPPUpu24X2eN-6">
          <mxGeometry x="94.91666666666667" y="98" width="119.64285714285715" height="54.5" as="geometry" />
        </mxCell>
        <mxCell id="ZLNHXjRsLPPUpu24X2eN-12" value="" style="rounded=0;whiteSpace=wrap;html=1;" vertex="1" parent="ZLNHXjRsLPPUpu24X2eN-11">
          <mxGeometry width="119.64285714285715" height="54.5" as="geometry" />
        </mxCell>
        <mxCell id="ZLNHXjRsLPPUpu24X2eN-13" value="" style="group" vertex="1" connectable="0" parent="ZLNHXjRsLPPUpu24X2eN-6">
          <mxGeometry x="102.89285714285715" y="108" width="119.64285714285715" height="54.5" as="geometry" />
        </mxCell>
        <mxCell id="ZLNHXjRsLPPUpu24X2eN-14" value="" style="rounded=0;whiteSpace=wrap;html=1;" vertex="1" parent="ZLNHXjRsLPPUpu24X2eN-13">
          <mxGeometry width="119.64285714285715" height="54.5" as="geometry" />
        </mxCell>
        <mxCell id="ZLNHXjRsLPPUpu24X2eN-15" value="" style="group" vertex="1" connectable="0" parent="ZLNHXjRsLPPUpu24X2eN-6">
          <mxGeometry x="110.86904761904762" y="118" width="119.64285714285715" height="54.5" as="geometry" />
        </mxCell>
        <mxCell id="ZLNHXjRsLPPUpu24X2eN-16" value="Container N" style="rounded=0;whiteSpace=wrap;html=1;" vertex="1" parent="ZLNHXjRsLPPUpu24X2eN-15">
          <mxGeometry width="119.64285714285715" height="54.5" as="geometry" />
        </mxCell>
        <mxCell id="ZLNHXjRsLPPUpu24X2eN-17" value="" style="aspect=fixed;sketch=0;html=1;dashed=0;whitespace=wrap;fillColor=#2875E2;strokeColor=#ffffff;points=[[0.005,0.63,0],[0.1,0.2,0],[0.9,0.2,0],[0.5,0,0],[0.995,0.63,0],[0.72,0.99,0],[0.5,1,0],[0.28,0.99,0]];shape=mxgraph.kubernetes.icon2;kubernetesLabel=1;prIcon=role" vertex="1" parent="TfanE9FAZFEMDZ-ole27-1">
          <mxGeometry x="1620" y="1005" width="50" height="48" as="geometry" />
        </mxCell>
        <mxCell id="ZLNHXjRsLPPUpu24X2eN-18" style="edgeStyle=orthogonalEdgeStyle;rounded=0;orthogonalLoop=1;jettySize=auto;html=1;exitX=0.5;exitY=0;exitDx=0;exitDy=0;exitPerimeter=0;entryX=0.5;entryY=1;entryDx=0;entryDy=0;" edge="1" parent="TfanE9FAZFEMDZ-ole27-1" source="ZLNHXjRsLPPUpu24X2eN-20" target="ZLNHXjRsLPPUpu24X2eN-7">
          <mxGeometry relative="1" as="geometry" />
        </mxCell>
        <mxCell id="ZLNHXjRsLPPUpu24X2eN-19" value="HAS SCOPE" style="edgeLabel;html=1;align=center;verticalAlign=middle;resizable=0;points=[];" vertex="1" connectable="0" parent="ZLNHXjRsLPPUpu24X2eN-18">
          <mxGeometry x="0.1062" relative="1" as="geometry">
            <mxPoint as="offset" />
          </mxGeometry>
        </mxCell>
        <mxCell id="ZLNHXjRsLPPUpu24X2eN-20" value="Role assignment" style="aspect=fixed;sketch=0;html=1;dashed=0;whitespace=wrap;fillColor=#2875E2;strokeColor=#ffffff;points=[[0.005,0.63,0],[0.1,0.2,0],[0.9,0.2,0],[0.5,0,0],[0.995,0.63,0],[0.72,0.99,0],[0.5,1,0],[0.28,0.99,0]];shape=mxgraph.kubernetes.icon2;prIcon=c_role;labelPosition=center;verticalLabelPosition=bottom;align=center;verticalAlign=top;fontStyle=1" vertex="1" parent="TfanE9FAZFEMDZ-ole27-1">
          <mxGeometry x="1445.5" y="1005" width="50" height="48" as="geometry" />
        </mxCell>
        <mxCell id="ZLNHXjRsLPPUpu24X2eN-21" style="edgeStyle=orthogonalEdgeStyle;rounded=0;orthogonalLoop=1;jettySize=auto;html=1;exitX=0.995;exitY=0.63;exitDx=0;exitDy=0;exitPerimeter=0;entryX=0.005;entryY=0.63;entryDx=0;entryDy=0;entryPerimeter=0;" edge="1" parent="TfanE9FAZFEMDZ-ole27-1" source="ZLNHXjRsLPPUpu24X2eN-20" target="ZLNHXjRsLPPUpu24X2eN-17">
          <mxGeometry relative="1" as="geometry" />
        </mxCell>
        <mxCell id="ZLNHXjRsLPPUpu24X2eN-22" style="edgeStyle=orthogonalEdgeStyle;rounded=0;orthogonalLoop=1;jettySize=auto;html=1;exitX=1;exitY=0.5;exitDx=0;exitDy=0;entryX=0;entryY=0.5;entryDx=0;entryDy=0;" edge="1" parent="TfanE9FAZFEMDZ-ole27-1" source="TfanE9FAZFEMDZ-ole27-4" target="ZLNHXjRsLPPUpu24X2eN-7">
          <mxGeometry relative="1" as="geometry">
            <Array as="points">
              <mxPoint x="1220" y="702" />
              <mxPoint x="1220" y="790" />
            </Array>
          </mxGeometry>
        </mxCell>
        <mxCell id="ZLNHXjRsLPPUpu24X2eN-23" style="edgeStyle=orthogonalEdgeStyle;rounded=0;orthogonalLoop=1;jettySize=auto;html=1;exitX=1;exitY=0.5;exitDx=0;exitDy=0;entryX=0.005;entryY=0.63;entryDx=0;entryDy=0;entryPerimeter=0;" edge="1" parent="TfanE9FAZFEMDZ-ole27-1" source="TfanE9FAZFEMDZ-ole27-4" target="ZLNHXjRsLPPUpu24X2eN-20">
          <mxGeometry relative="1" as="geometry">
            <Array as="points">
              <mxPoint x="1220" y="702" />
              <mxPoint x="1220" y="1035" />
            </Array>
          </mxGeometry>
        </mxCell>
        <mxCell id="ZLNHXjRsLPPUpu24X2eN-24" value="HANDLES" style="edgeLabel;html=1;align=center;verticalAlign=middle;resizable=0;points=[];" vertex="1" connectable="0" parent="ZLNHXjRsLPPUpu24X2eN-23">
          <mxGeometry x="-0.667" relative="1" as="geometry">
            <mxPoint as="offset" />
          </mxGeometry>
        </mxCell>
      </root>
    </mxGraphModel>
  </diagram>
</mxfile>
